<?xml version="1.0" standalone="no"?>
<!DOCTYPE svg PUBLIC "-//W3C//DTD SVG 1.1//EN"
"http://www.w3.org/Graphics/SVG/1.1/DTD/svg11.dtd">
<!-- Creator: fig2dev Version 3.2 Patchlevel 5 -->
<!-- CreationDate: Sat Jul  4 12:13:14 2015 -->
<!-- Magnification: 1.000 -->
<svg xmlns="http://www.w3.org/2000/svg" width="6.0in" height="2.6in" viewBox="869 10084 7244 3090">
<g style="stroke-width:.025in; stroke:black; fill:none">
<!-- Line -->
<!--  spline  -->
<polyline points="1640,11661
1639,11661
1636,11660
1628,11657
1613,11652
1592,11646
1566,11638
1537,11628
1509,11619
1483,11611
1462,11605
1447,11600
1439,11597
1436,11596
1435,11596
1432,11595
1427,11592
1418,11588
1406,11582
1392,11575
1377,11567
1361,11557
1344,11547
1325,11534
1305,11519
1284,11502
1265,11484
1249,11470
1239,11459
1232,11452
1228,11448
1226,11446
1224,11443
1221,11439
1216,11432
1209,11420
1198,11402
1186,11381
1175,11359
1167,11341
1161,11328
1158,11319
1156,11315
1155,11312
1154,11309
1153,11303
1151,11294
1148,11280
1145,11259
1141,11233
1139,11206
1138,11181
1138,11159
1139,11139
1140,11120
1142,11103
1144,11088
1146,11075
1148,11065
1148,11059
1149,11056
1151,11052
1155,11045
1162,11032
1172,11014
1185,10992
1199,10966
1212,10941
1225,10919
1235,10901
1242,10888
1246,10881
1248,10877
1249,10876
1252,10874
1256,10870
1262,10864
1270,10857
1281,10848
1293,10839
1306,10829
1321,10818
1338,10807
1358,10795
1381,10782
1408,10769
1438,10755
1473,10740
1505,10728
1535,10716
1561,10707
1582,10700
1598,10695
1609,10691
1617,10688
1623,10687
1627,10685
1632,10684
1638,10683
1647,10681
1661,10678
1680,10674
1706,10668
1739,10661
1779,10653
1823,10645
1864,10638
1903,10632
1938,10626
1966,10622
1989,10619
2006,10616
2019,10614
2028,10613
2034,10612
2040,10611
2045,10611
2052,10610
2062,10609
2077,10608
2096,10607
2123,10604
2156,10602
2198,10599
2245,10595
2298,10592
2343,10589
2387,10587
2430,10585
2471,10584
2509,10583
2546,10582
2581,10581
2615,10581
2647,10580
2678,10580
2708,10580
2737,10580
2764,10580
2790,10580
2814,10580
2835,10580
2853,10580
2868,10581
2880,10581
2889,10581
2895,10581
2898,10581
2899,10581
2902,10581
2908,10581
2919,10581
2936,10581
2960,10582
2990,10582
3028,10583
3072,10583
3121,10584
3173,10584
3228,10585
3282,10586
3334,10586
3383,10587
3427,10587
3465,10588
3495,10588
3519,10589
3536,10589
3547,10589
3553,10589
3556,10589
3557,10589
3560,10589
3566,10589
3574,10589
3586,10589
3601,10589
3620,10590
3641,10590
3664,10590
3690,10590
3718,10590
3748,10591
3779,10591
3811,10591
3845,10591
3881,10592
3918,10592
3959,10592
4001,10592
4047,10592
4096,10593
4147,10593
4200,10593
4253,10593
4302,10593
4347,10593
4387,10593
4419,10594
4446,10594
4467,10594
4484,10594
4496,10594
4505,10594
4512,10594
4518,10594
4524,10594
4531,10594
4540,10594
4552,10594
4568,10594
4589,10594
4616,10594
4648,10593
4687,10593
4731,10593
4780,10593
4832,10593
4884,10593
4932,10593
4976,10592
5015,10592
5047,10592
5073,10592
5094,10592
5110,10592
5122,10592
5131,10592
5138,10592
5144,10592
5150,10592
5156,10592
5165,10592
5177,10591
5193,10591
5213,10591
5239,10591
5271,10591
5309,10590
5352,10590
5400,10589
5451,10589
5502,10588
5551,10588
5597,10587
5641,10587
5681,10586
5719,10586
5755,10586
5788,10585
5820,10585
5850,10584
5879,10584
5907,10583
5933,10583
5957,10583
5979,10582
5998,10582
6015,10582
6029,10581
6040,10581
6048,10581
6053,10581
6056,10581
6057,10581
6060,10581
6066,10581
6078,10581
6096,10582
6121,10582
6153,10583
6191,10583
6235,10584
6283,10585
6333,10586
6382,10587
6430,10588
6474,10589
6512,10589
6544,10590
6569,10590
6587,10591
6599,10591
6605,10591
6608,10591
6610,10591
6614,10591
6621,10592
6631,10592
6645,10593
6663,10595
6683,10596
6706,10598
6730,10600
6757,10602
6784,10604
6813,10607
6843,10610
6874,10613
6908,10618
6943,10622
6981,10627
7020,10633
7061,10640
7105,10648
7144,10655
7176,10661
7202,10666
7221,10670
7235,10673
7244,10675
7250,10676
7255,10677
7259,10679
7265,10680
7273,10683
7285,10686
7301,10691
7323,10698
7350,10706
7382,10716
7416,10728
7453,10741
7485,10754
7510,10764
7529,10772
7543,10777
7551,10781
7557,10784
7561,10785
7565,10787
7569,10790
7577,10794
7588,10801
7603,10810
7623,10823
7647,10838
7673,10856
7701,10877
7726,10897
7746,10916
7764,10933
7778,10949
7791,10964
7801,10978
7811,10990
7818,11002
7824,11011
7829,11017
7831,11021
7832,11023
7832,11024
7833,11028
7836,11039
7841,11058
7848,11083
7856,11112
7864,11140
7871,11165
7876,11184
7879,11195
7880,11199
7880,11200
7880,11203
7879,11208
7878,11216
7876,11228
7872,11242
7868,11257
7862,11273
7853,11292
7841,11312
7824,11334
7803,11359
7783,11380
7764,11397
7749,11411
7738,11420
7731,11426
7726,11430
7723,11432
7719,11435
7713,11438
7704,11444
7688,11452
7666,11465
7637,11481
7601,11499
7572,11513
7544,11526
7520,11537
7500,11545
7486,11551
7475,11556
7468,11559
7463,11561
7459,11563
7454,11564
7449,11566
7440,11569
7427,11573
7409,11579
7385,11587
7354,11596
7317,11608
7275,11620
7236,11631
7197,11641
7161,11651
7126,11660
7093,11668
7061,11675
7031,11682
7003,11688
6975,11694
6948,11699
6923,11704
6900,11708
6880,11712
6862,11716
6848,11719
6837,11721
6830,11722
6826,11723
6824,11723
" style="stroke:#000000;stroke-width:15;
stroke-linejoin:bevel; stroke-linecap:butt;
"/>
<!-- Line -->
<!--  spline  -->
<polyline points="1699,11673
1698,11673
1695,11671
1686,11667
1671,11660
1649,11649
1621,11637
1591,11622
1561,11608
1533,11596
1511,11585
1496,11578
1487,11574
1484,11572
1483,11572
1483,11573
1482,11578
1481,11584
1480,11589
1480,11590
1480,11592
1479,11596
1478,11600
1477,11605
1476,11609
1475,11611
1475,11612
1475,11613
1474,11617
1473,11620
1473,11622
1473,11623
1473,11626
1473,11628
1472,11630
1472,11631
1472,11633
1471,11635
1471,11637
1471,11638
1470,11640
1470,11642
1469,11646
1468,11650
1468,11651
1468,11652
1468,11654
1467,11658
1466,11663
1466,11665
1465,11665
1465,11667
1464,11673
1463,11679
1462,11685
1461,11689
1461,11691
1461,11692
1462,11692
1466,11692
1475,11691
1492,11689
1517,11688
1547,11685
1580,11682
1613,11680
1643,11677
1668,11676
1685,11674
1694,11673
1698,11673
1699,11673
" style="stroke:#000000;stroke-width:0;
stroke-linejoin:bevel; stroke-linecap:butt;
fill:#000000;
"/>
<!-- Line -->
<!--  polyline  -->
<polyline points="6334,11732
5256,11732
" style="stroke:#000000;stroke-width:15;
stroke-linejoin:miter; stroke-linecap:butt;
"/>
<!-- Line -->
<!--  spline  -->
<polyline points="6401,11732
6400,11732
6396,11731
6387,11728
6371,11724
6347,11718
6318,11710
6285,11701
6253,11693
6224,11685
6200,11679
6184,11675
6175,11672
6171,11671
6170,11671
6170,11672
6170,11677
6170,11683
6170,11688
6170,11689
6170,11692
6170,11695
6170,11700
6170,11705
6170,11710
6170,11711
6169,11712
6169,11713
6169,11717
6169,11720
6169,11722
6169,11723
6169,11726
6169,11729
6169,11730
6169,11731
6169,11732
6169,11734
6169,11736
6169,11738
6169,11739
6169,11741
6169,11743
6169,11747
6169,11751
6169,11752
6170,11753
6170,11755
6170,11759
6170,11764
6170,11766
6170,11768
6170,11774
6170,11780
6170,11786
6170,11790
6170,11792
6170,11793
6171,11793
6175,11792
6184,11789
6200,11785
6224,11779
6253,11771
6286,11762
6318,11754
6347,11746
6371,11740
6387,11736
6396,11733
6400,11732
6401,11732
" style="stroke:#000000;stroke-width:0;
stroke-linejoin:bevel; stroke-linecap:butt;
fill:#000000;
"/>
<!-- Line -->
<!--  polyline  -->
<polyline points="4769,11732
3691,11732
" style="stroke:#000000;stroke-width:15;
stroke-linejoin:miter; stroke-linecap:butt;
"/>
<!-- Line -->
<!--  spline  -->
<polyline points="4835,11732
4834,11732
4830,11731
4821,11728
4805,11724
4781,11718
4752,11710
4720,11701
4688,11693
4659,11685
4635,11679
4619,11675
4610,11672
4606,11671
4605,11671
4605,11672
4605,11677
4604,11683
4604,11688
4604,11689
4604,11692
4604,11695
4604,11700
4604,11705
4604,11710
4604,11711
4604,11712
4604,11713
4604,11717
4604,11720
4604,11722
4604,11723
4604,11726
4604,11729
4604,11730
4604,11731
4604,11732
4604,11734
4604,11736
4604,11738
4604,11739
4604,11741
4604,11743
4604,11747
4604,11751
4604,11752
4604,11753
4604,11755
4604,11759
4604,11764
4604,11766
4604,11768
4604,11774
4604,11780
4605,11786
4605,11790
4605,11792
4605,11793
4606,11793
4610,11792
4619,11789
4635,11785
4659,11779
4688,11771
4720,11762
4752,11754
4781,11746
4805,11740
4821,11736
4830,11733
4834,11732
4835,11732
" style="stroke:#000000;stroke-width:0;
stroke-linejoin:bevel; stroke-linecap:butt;
fill:#000000;
"/>
<!-- Line -->
<!--  polyline  -->
<polyline points="3207,11715
2126,11715
" style="stroke:#000000;stroke-width:15;
stroke-linejoin:miter; stroke-linecap:butt;
"/>
<!-- Line -->
<!--  spline  -->
<polyline points="3274,11715
3273,11715
3269,11714
3260,11711
3244,11707
3220,11701
3191,11693
3158,11684
3126,11676
3097,11668
3073,11662
3057,11658
3048,11655
3044,11654
3043,11654
3043,11655
3043,11660
3043,11667
3043,11672
3043,11673
3043,11675
3043,11679
3043,11683
3043,11688
3043,11692
3043,11694
3043,11695
3043,11696
3043,11700
3043,11703
3043,11705
3043,11706
3043,11709
3043,11712
3043,11713
3043,11714
3043,11715
3043,11717
3043,11719
3043,11721
3043,11722
3043,11724
3043,11726
3043,11730
3043,11734
3043,11735
3043,11736
3043,11737
3043,11742
3043,11747
3043,11749
3043,11750
3043,11752
3043,11758
3043,11764
3043,11769
3043,11773
3043,11776
3044,11776
3048,11775
3057,11772
3073,11768
3097,11762
3126,11754
3159,11745
3191,11737
3220,11729
3244,11723
3260,11719
3269,11716
3273,11715
3274,11715
" style="stroke:#000000;stroke-width:0;
stroke-linejoin:bevel; stroke-linecap:butt;
fill:#000000;
"/>
<!-- Line -->
<!--  spline  -->
<polyline points="2126,12136
2127,12136
2132,12136
2144,12135
2160,12134
2176,12132
2188,12131
2193,12131
2194,12131
2197,12131
2202,12130
2210,12129
2219,12127
2230,12125
2242,12121
2257,12117
2271,12112
2281,12109
2285,12107
2288,12106
2290,12105
2294,12103
2304,12099
2317,12092
2330,12085
2339,12080
2343,12077
2345,12076
2347,12075
2351,12072
2360,12066
2372,12057
2385,12047
2395,12039
2404,12031
2411,12025
2417,12019
2422,12015
2424,12013
2425,12012
2428,12008
2436,12000
2446,11988
2456,11975
2464,11967
2467,11963
2468,11962
2470,11959
2473,11955
2478,11948
2483,11940
2489,11931
2496,11920
2503,11906
2510,11892
2514,11883
2516,11879
2517,11877
2517,11874
2519,11870
2522,11860
2527,11846
2531,11832
2534,11822
2535,11817
2536,11815
2537,11813
2538,11808
2539,11798
2542,11783
2544,11767
2545,11754
2546,11742
2547,11732
2547,11724
2547,11718
2547,11715
2547,11714
2547,11709
2546,11697
2545,11681
2543,11665
2542,11653
2542,11648
2542,11647
2541,11644
2541,11639
2539,11631
2537,11622
2535,11611
2531,11599
2527,11584
2522,11570
2519,11560
2517,11556
2517,11553
2516,11551
2514,11547
2510,11537
2503,11524
2496,11511
2491,11502
2488,11498
2487,11496
2486,11494
2483,11490
2477,11481
2468,11469
2458,11456
2450,11446
2442,11437
2436,11430
2430,11424
2426,11419
2424,11417
2423,11416
2419,11413
2410,11405
2398,11395
2386,11385
2377,11377
2373,11374
2372,11373
2370,11371
2365,11368
2359,11363
2351,11358
2342,11352
2331,11345
2317,11338
2304,11331
2294,11327
2290,11325
2288,11324
2285,11324
2281,11322
2271,11319
2257,11314
2243,11310
2233,11307
2228,11306
2226,11305
2224,11304
2219,11303
2209,11302
2194,11299
2178,11297
2165,11296
2153,11295
2143,11294
2135,11294
2129,11294
2126,11294
2125,11294
2120,11294
2108,11295
2092,11297
2076,11298
2064,11299
2059,11299
2058,11299
2055,11300
2049,11300
2042,11302
2032,11304
2021,11306
2009,11310
1994,11314
1976,11320
1967,11323
1964,11324
1961,11326
1952,11330
1935,11338
1922,11345
1913,11350
1908,11353
1906,11354
1904,11355
1900,11358
1891,11364
1879,11373
1866,11383
1856,11391
1847,11399
1840,11405
1834,11411
1830,11415
1828,11417
1827,11418
1824,11422
1816,11431
1806,11443
1796,11455
1788,11464
1785,11468
1784,11469
1782,11471
1779,11476
1774,11482
1769,11490
1763,11499
1756,11510
1749,11524
1742,11537
1738,11547
1736,11551
1735,11553
1734,11556
1732,11560
1729,11570
1724,11584
1720,11598
1717,11608
1716,11613
1715,11615
1715,11617
1714,11622
1712,11632
1710,11647
1708,11663
1707,11676
1706,11688
1705,11698
1705,11706
1705,11712
1705,11715
1705,11716
1705,11721
1706,11733
1708,11749
1709,11765
1710,11777
1710,11782
1710,11783
1710,11786
1711,11791
1712,11799
1714,11808
1716,11819
1720,11831
1724,11846
1729,11860
1732,11870
1734,11874
1735,11877
1736,11879
1738,11883
1742,11892
1749,11906
1756,11919
1761,11928
1764,11933
1765,11935
1766,11937
1769,11941
1775,11950
1784,11962
1794,11975
1802,11985
1810,11994
1816,12001
1822,12007
1826,12011
1828,12013
1829,12014
1833,12017
1841,12025
1854,12035
1866,12045
1874,12053
1878,12056
1879,12057
1882,12059
1886,12062
1893,12067
1901,12072
1910,12078
1921,12085
1935,12092
1948,12099
1957,12103
1962,12105
1964,12106
1966,12107
1971,12109
1980,12112
1994,12117
2008,12121
2018,12124
2023,12125
2025,12126
2028,12126
2033,12127
2043,12129
2058,12131
2074,12133
2087,12134
2099,12135
2109,12136
2117,12136
2123,12136
2126,12136
" style="stroke:#ffffff;stroke-width:0;
stroke-linejoin:bevel; stroke-linecap:butt;
fill:#ffffff;
"/>
<!-- Line -->
<!--  spline  -->
<polyline points="2126,12136
2127,12136
2132,12136
2144,12135
2160,12134
2176,12132
2188,12131
2193,12131
2194,12131
2197,12131
2202,12130
2210,12129
2219,12127
2230,12125
2242,12121
2257,12117
2271,12112
2281,12109
2285,12107
2288,12106
2290,12105
2294,12103
2304,12099
2317,12092
2330,12085
2339,12080
2343,12077
2345,12076
2347,12075
2351,12072
2360,12066
2372,12057
2385,12047
2395,12039
2404,12031
2411,12025
2417,12019
2422,12015
2424,12013
2425,12012
2428,12008
2436,12000
2446,11988
2456,11975
2464,11967
2467,11963
2468,11962
2470,11959
2473,11955
2478,11948
2483,11940
2489,11931
2496,11920
2503,11906
2510,11892
2514,11883
2516,11879
2517,11877
2517,11874
2519,11870
2522,11860
2527,11846
2531,11832
2534,11822
2535,11817
2536,11815
2537,11813
2538,11808
2539,11798
2542,11783
2544,11767
2545,11754
2546,11742
2547,11732
2547,11724
2547,11718
2547,11715
2547,11714
2547,11709
2546,11697
2545,11681
2543,11665
2542,11653
2542,11648
2542,11647
2541,11644
2541,11639
2539,11631
2537,11622
2535,11611
2531,11599
2527,11584
2522,11570
2519,11560
2517,11556
2517,11553
2516,11551
2514,11547
2510,11537
2503,11524
2496,11511
2491,11502
2488,11498
2487,11496
2486,11494
2483,11490
2477,11481
2468,11469
2458,11456
2450,11446
2442,11437
2436,11430
2430,11424
2426,11419
2424,11417
2423,11416
2419,11413
2410,11405
2398,11395
2386,11385
2377,11377
2373,11374
2372,11373
2370,11371
2365,11368
2359,11363
2351,11358
2342,11352
2331,11345
2317,11338
2304,11331
2294,11327
2290,11325
2288,11324
2285,11324
2281,11322
2271,11319
2257,11314
2243,11310
2233,11307
2228,11306
2226,11305
2224,11304
2219,11303
2209,11302
2194,11299
2178,11297
2165,11296
2153,11295
2143,11294
2135,11294
2129,11294
2126,11294
2125,11294
2120,11294
2108,11295
2092,11297
2076,11298
2064,11299
2059,11299
2058,11299
2055,11300
2049,11300
2042,11302
2032,11304
2021,11306
2009,11310
1994,11314
1976,11320
1967,11323
1964,11324
1961,11326
1952,11330
1935,11338
1922,11345
1913,11350
1908,11353
1906,11354
1904,11355
1900,11358
1891,11364
1879,11373
1866,11383
1856,11391
1847,11399
1840,11405
1834,11411
1830,11415
1828,11417
1827,11418
1824,11422
1816,11431
1806,11443
1796,11455
1788,11464
1785,11468
1784,11469
1782,11471
1779,11476
1774,11482
1769,11490
1763,11499
1756,11510
1749,11524
1742,11537
1738,11547
1736,11551
1735,11553
1734,11556
1732,11560
1729,11570
1724,11584
1720,11598
1717,11608
1716,11613
1715,11615
1715,11617
1714,11622
1712,11632
1710,11647
1708,11663
1707,11676
1706,11688
1705,11698
1705,11706
1705,11712
1705,11715
1705,11716
1705,11721
1706,11733
1708,11749
1709,11765
1710,11777
1710,11782
1710,11783
1710,11786
1711,11791
1712,11799
1714,11808
1716,11819
1720,11831
1724,11846
1729,11860
1732,11870
1734,11874
1735,11877
1736,11879
1738,11883
1742,11892
1749,11906
1756,11919
1761,11928
1764,11933
1765,11935
1766,11937
1769,11941
1775,11950
1784,11962
1794,11975
1802,11985
1810,11994
1816,12001
1822,12007
1826,12011
1828,12013
1829,12014
1833,12017
1841,12025
1854,12035
1866,12045
1874,12053
1878,12056
1879,12057
1882,12059
1886,12062
1893,12067
1901,12072
1910,12078
1921,12085
1935,12092
1948,12099
1957,12103
1962,12105
1964,12106
1966,12107
1971,12109
1980,12112
1994,12117
2008,12121
2018,12124
2023,12125
2025,12126
2028,12126
2033,12127
2043,12129
2058,12131
2074,12133
2087,12134
2099,12135
2109,12136
2117,12136
2123,12136
2126,12136
" style="stroke:#000000;stroke-width:15;
stroke-linejoin:bevel; stroke-linecap:butt;
"/>
<!-- Line -->
<!--  spline  -->
<polyline points="3691,12153
3692,12153
3697,12153
3709,12152
3725,12151
3741,12149
3753,12148
3758,12148
3759,12148
3762,12147
3768,12147
3775,12145
3785,12143
3796,12141
3808,12137
3823,12133
3841,12127
3850,12124
3853,12123
3856,12121
3865,12117
3882,12109
3895,12102
3904,12097
3909,12094
3911,12093
3913,12092
3917,12089
3926,12083
3938,12074
3951,12064
3961,12056
3970,12048
3977,12042
3983,12036
3987,12032
3989,12030
3990,12029
3993,12025
4001,12016
4011,12004
4021,11992
4029,11983
4032,11979
4033,11978
4035,11976
4038,11971
4043,11965
4048,11957
4054,11948
4061,11937
4068,11923
4075,11910
4079,11900
4081,11896
4082,11894
4083,11892
4085,11887
4088,11877
4093,11863
4097,11849
4100,11839
4102,11834
4102,11832
4103,11829
4104,11824
4106,11814
4108,11799
4110,11783
4111,11770
4112,11759
4112,11749
4112,11741
4112,11735
4112,11732
4112,11731
4112,11726
4111,11714
4110,11698
4109,11682
4108,11670
4108,11665
4108,11664
4108,11661
4107,11655
4105,11648
4103,11638
4101,11627
4098,11615
4093,11600
4088,11586
4085,11577
4083,11572
4082,11570
4081,11568
4079,11563
4075,11554
4068,11541
4061,11528
4056,11519
4053,11514
4052,11512
4051,11510
4048,11506
4042,11497
4033,11485
4023,11472
4015,11462
4007,11453
4001,11446
3995,11440
3991,11436
3989,11434
3988,11433
3984,11430
3976,11422
3964,11412
3951,11401
3943,11393
3939,11390
3938,11389
3935,11387
3931,11384
3924,11380
3916,11375
3907,11369
3896,11362
3882,11355
3869,11348
3860,11344
3855,11342
3853,11341
3851,11340
3846,11338
3837,11335
3823,11330
3809,11326
3799,11323
3794,11321
3792,11321
3789,11320
3784,11319
3774,11318
3759,11315
3743,11313
3730,11312
3718,11311
3708,11310
3700,11310
3694,11310
3691,11310
3690,11310
3685,11310
3673,11311
3657,11313
3641,11314
3629,11315
3624,11315
3623,11315
3620,11315
3615,11316
3607,11318
3598,11320
3587,11322
3575,11325
3560,11330
3546,11335
3536,11338
3532,11340
3529,11341
3527,11342
3523,11344
3513,11348
3500,11355
3487,11362
3478,11367
3474,11369
3472,11370
3470,11372
3466,11374
3457,11380
3445,11389
3432,11399
3422,11407
3413,11415
3406,11422
3400,11428
3395,11432
3393,11434
3392,11435
3389,11439
3381,11447
3371,11460
3361,11472
3353,11480
3350,11484
3349,11485
3347,11488
3344,11492
3339,11499
3334,11507
3328,11516
3321,11527
3314,11541
3306,11558
3302,11567
3300,11570
3299,11573
3296,11582
3290,11600
3286,11614
3283,11624
3282,11629
3281,11631
3280,11634
3279,11639
3278,11649
3275,11664
3273,11680
3272,11693
3271,11705
3270,11715
3270,11723
3270,11729
3270,11732
3270,11733
3270,11738
3271,11750
3273,11766
3274,11781
3275,11793
3275,11798
3275,11799
3276,11802
3276,11808
3278,11815
3280,11825
3282,11835
3286,11848
3290,11863
3295,11877
3298,11887
3300,11892
3300,11894
3301,11896
3303,11900
3307,11910
3314,11923
3321,11936
3326,11945
3329,11949
3330,11951
3331,11953
3334,11957
3340,11966
3349,11978
3359,11991
3367,12001
3375,12010
3381,12017
3387,12023
3391,12028
3393,12030
3394,12031
3398,12034
3407,12042
3419,12052
3431,12062
3440,12070
3444,12073
3445,12074
3447,12076
3452,12079
3458,12084
3466,12089
3475,12095
3486,12102
3500,12109
3513,12116
3523,12120
3527,12122
3529,12123
3532,12123
3536,12125
3546,12128
3560,12133
3574,12137
3584,12140
3589,12141
3591,12142
3593,12143
3598,12144
3608,12145
3623,12148
3639,12150
3652,12151
3664,12152
3674,12153
3682,12153
3688,12153
3691,12153
" style="stroke:#ffffff;stroke-width:0;
stroke-linejoin:bevel; stroke-linecap:butt;
fill:#ffffff;
"/>
<!-- Line -->
<!--  spline  -->
<polyline points="3691,12153
3692,12153
3697,12153
3709,12152
3725,12151
3741,12149
3753,12148
3758,12148
3759,12148
3762,12147
3768,12147
3775,12145
3785,12143
3796,12141
3808,12137
3823,12133
3841,12127
3850,12124
3853,12123
3856,12121
3865,12117
3882,12109
3895,12102
3904,12097
3909,12094
3911,12093
3913,12092
3917,12089
3926,12083
3938,12074
3951,12064
3961,12056
3970,12048
3977,12042
3983,12036
3987,12032
3989,12030
3990,12029
3993,12025
4001,12016
4011,12004
4021,11992
4029,11983
4032,11979
4033,11978
4035,11976
4038,11971
4043,11965
4048,11957
4054,11948
4061,11937
4068,11923
4075,11910
4079,11900
4081,11896
4082,11894
4083,11892
4085,11887
4088,11877
4093,11863
4097,11849
4100,11839
4102,11834
4102,11832
4103,11829
4104,11824
4106,11814
4108,11799
4110,11783
4111,11770
4112,11759
4112,11749
4112,11741
4112,11735
4112,11732
4112,11731
4112,11726
4111,11714
4110,11698
4109,11682
4108,11670
4108,11665
4108,11664
4108,11661
4107,11655
4105,11648
4103,11638
4101,11627
4098,11615
4093,11600
4088,11586
4085,11577
4083,11572
4082,11570
4081,11568
4079,11563
4075,11554
4068,11541
4061,11528
4056,11519
4053,11514
4052,11512
4051,11510
4048,11506
4042,11497
4033,11485
4023,11472
4015,11462
4007,11453
4001,11446
3995,11440
3991,11436
3989,11434
3988,11433
3984,11430
3976,11422
3964,11412
3951,11401
3943,11393
3939,11390
3938,11389
3935,11387
3931,11384
3924,11380
3916,11375
3907,11369
3896,11362
3882,11355
3869,11348
3860,11344
3855,11342
3853,11341
3851,11340
3846,11338
3837,11335
3823,11330
3809,11326
3799,11323
3794,11321
3792,11321
3789,11320
3784,11319
3774,11318
3759,11315
3743,11313
3730,11312
3718,11311
3708,11310
3700,11310
3694,11310
3691,11310
3690,11310
3685,11310
3673,11311
3657,11313
3641,11314
3629,11315
3624,11315
3623,11315
3620,11315
3615,11316
3607,11318
3598,11320
3587,11322
3575,11325
3560,11330
3546,11335
3536,11338
3532,11340
3529,11341
3527,11342
3523,11344
3513,11348
3500,11355
3487,11362
3478,11367
3474,11369
3472,11370
3470,11372
3466,11374
3457,11380
3445,11389
3432,11399
3422,11407
3413,11415
3406,11422
3400,11428
3395,11432
3393,11434
3392,11435
3389,11439
3381,11447
3371,11460
3361,11472
3353,11480
3350,11484
3349,11485
3347,11488
3344,11492
3339,11499
3334,11507
3328,11516
3321,11527
3314,11541
3306,11558
3302,11567
3300,11570
3299,11573
3296,11582
3290,11600
3286,11614
3283,11624
3282,11629
3281,11631
3280,11634
3279,11639
3278,11649
3275,11664
3273,11680
3272,11693
3271,11705
3270,11715
3270,11723
3270,11729
3270,11732
3270,11733
3270,11738
3271,11750
3273,11766
3274,11781
3275,11793
3275,11798
3275,11799
3276,11802
3276,11808
3278,11815
3280,11825
3282,11835
3286,11848
3290,11863
3295,11877
3298,11887
3300,11892
3300,11894
3301,11896
3303,11900
3307,11910
3314,11923
3321,11936
3326,11945
3329,11949
3330,11951
3331,11953
3334,11957
3340,11966
3349,11978
3359,11991
3367,12001
3375,12010
3381,12017
3387,12023
3391,12028
3393,12030
3394,12031
3398,12034
3407,12042
3419,12052
3431,12062
3440,12070
3444,12073
3445,12074
3447,12076
3452,12079
3458,12084
3466,12089
3475,12095
3486,12102
3500,12109
3513,12116
3523,12120
3527,12122
3529,12123
3532,12123
3536,12125
3546,12128
3560,12133
3574,12137
3584,12140
3589,12141
3591,12142
3593,12143
3598,12144
3608,12145
3623,12148
3639,12150
3652,12151
3664,12152
3674,12153
3682,12153
3688,12153
3691,12153
" style="stroke:#000000;stroke-width:15;
stroke-linejoin:bevel; stroke-linecap:butt;
"/>
<!-- Line -->
<!--  spline  -->
<polyline points="5256,12153
5257,12153
5262,12153
5274,12152
5290,12151
5306,12149
5318,12148
5323,12148
5324,12148
5327,12147
5333,12147
5340,12145
5350,12143
5361,12141
5373,12137
5388,12133
5406,12127
5415,12124
5418,12123
5421,12121
5430,12117
5447,12109
5460,12102
5469,12097
5474,12094
5476,12093
5478,12092
5482,12089
5491,12083
5503,12074
5516,12064
5526,12056
5535,12048
5542,12042
5548,12036
5552,12032
5554,12030
5555,12029
5558,12025
5566,12016
5577,12004
5587,11992
5595,11983
5598,11979
5599,11978
5601,11976
5604,11971
5608,11965
5613,11957
5619,11948
5626,11937
5633,11923
5640,11910
5644,11900
5646,11896
5647,11894
5648,11892
5650,11887
5653,11877
5658,11863
5662,11849
5665,11839
5667,11834
5667,11832
5668,11829
5669,11824
5670,11814
5673,11799
5675,11783
5676,11770
5677,11759
5678,11749
5678,11741
5678,11735
5678,11732
5678,11731
5678,11726
5677,11714
5676,11698
5674,11682
5673,11670
5673,11665
5673,11664
5673,11661
5672,11655
5670,11648
5668,11638
5666,11627
5663,11615
5658,11600
5653,11586
5650,11577
5648,11572
5647,11570
5646,11568
5644,11563
5640,11554
5633,11541
5626,11528
5621,11519
5619,11514
5618,11512
5616,11510
5614,11506
5608,11497
5599,11485
5589,11472
5581,11462
5573,11453
5566,11446
5560,11440
5556,11436
5554,11434
5553,11433
5549,11430
5541,11422
5529,11412
5516,11401
5508,11393
5504,11390
5503,11389
5500,11387
5496,11384
5489,11380
5481,11375
5472,11369
5461,11362
5447,11355
5434,11348
5425,11344
5420,11342
5418,11341
5416,11340
5411,11338
5402,11335
5388,11330
5374,11326
5364,11323
5359,11321
5357,11321
5354,11320
5349,11319
5339,11318
5324,11315
5308,11313
5295,11312
5283,11311
5273,11310
5265,11310
5259,11310
5256,11310
5255,11310
5250,11310
5238,11311
5223,11313
5207,11314
5195,11315
5190,11315
5189,11315
5186,11315
5180,11316
5173,11318
5163,11320
5153,11322
5140,11325
5125,11330
5111,11335
5101,11338
5096,11340
5094,11341
5092,11342
5088,11344
5078,11348
5065,11355
5052,11362
5043,11367
5039,11369
5037,11370
5035,11372
5031,11374
5022,11380
5010,11389
4997,11399
4987,11407
4979,11415
4971,11422
4965,11428
4961,11432
4959,11434
4958,11435
4955,11439
4947,11447
4937,11460
4926,11472
4918,11480
4915,11484
4914,11485
4912,11488
4909,11492
4905,11499
4900,11507
4894,11516
4887,11527
4880,11541
4873,11554
4869,11563
4867,11568
4866,11570
4865,11572
4863,11577
4860,11586
4855,11600
4851,11614
4848,11624
4846,11629
4846,11631
4845,11634
4844,11639
4843,11649
4840,11664
4838,11680
4837,11693
4836,11705
4835,11715
4835,11723
4835,11729
4835,11732
4835,11733
4835,11738
4836,11750
4838,11766
4839,11781
4840,11793
4840,11798
4840,11799
4840,11802
4841,11808
4843,11815
4845,11825
4847,11835
4850,11848
4855,11863
4860,11877
4863,11887
4865,11892
4866,11894
4867,11896
4869,11900
4873,11910
4880,11923
4887,11936
4892,11945
4894,11949
4895,11951
4897,11953
4899,11957
4905,11966
4914,11978
4924,11991
4932,12001
4940,12010
4947,12017
4953,12023
4957,12028
4959,12030
4960,12031
4964,12034
4972,12042
4985,12052
4997,12062
5005,12070
5009,12073
5010,12074
5012,12076
5017,12079
5023,12084
5031,12089
5040,12095
5051,12102
5065,12109
5078,12116
5088,12120
5092,12122
5094,12123
5096,12123
5101,12125
5111,12128
5125,12133
5139,12137
5149,12140
5154,12141
5156,12142
5159,12143
5164,12144
5174,12145
5189,12148
5205,12150
5218,12151
5229,12152
5239,12153
5247,12153
5253,12153
5256,12153
" style="stroke:#ffffff;stroke-width:0;
stroke-linejoin:bevel; stroke-linecap:butt;
fill:#ffffff;
"/>
<!-- Line -->
<!--  spline  -->
<polyline points="5256,12153
5257,12153
5262,12153
5274,12152
5290,12151
5306,12149
5318,12148
5323,12148
5324,12148
5327,12147
5333,12147
5340,12145
5350,12143
5361,12141
5373,12137
5388,12133
5406,12127
5415,12124
5418,12123
5421,12121
5430,12117
5447,12109
5460,12102
5469,12097
5474,12094
5476,12093
5478,12092
5482,12089
5491,12083
5503,12074
5516,12064
5526,12056
5535,12048
5542,12042
5548,12036
5552,12032
5554,12030
5555,12029
5558,12025
5566,12016
5577,12004
5587,11992
5595,11983
5598,11979
5599,11978
5601,11976
5604,11971
5608,11965
5613,11957
5619,11948
5626,11937
5633,11923
5640,11910
5644,11900
5646,11896
5647,11894
5648,11892
5650,11887
5653,11877
5658,11863
5662,11849
5665,11839
5667,11834
5667,11832
5668,11829
5669,11824
5670,11814
5673,11799
5675,11783
5676,11770
5677,11759
5678,11749
5678,11741
5678,11735
5678,11732
5678,11731
5678,11726
5677,11714
5676,11698
5674,11682
5673,11670
5673,11665
5673,11664
5673,11661
5672,11655
5670,11648
5668,11638
5666,11627
5663,11615
5658,11600
5653,11586
5650,11577
5648,11572
5647,11570
5646,11568
5644,11563
5640,11554
5633,11541
5626,11528
5621,11519
5619,11514
5618,11512
5616,11510
5614,11506
5608,11497
5599,11485
5589,11472
5581,11462
5573,11453
5566,11446
5560,11440
5556,11436
5554,11434
5553,11433
5549,11430
5541,11422
5529,11412
5516,11401
5508,11393
5504,11390
5503,11389
5500,11387
5496,11384
5489,11380
5481,11375
5472,11369
5461,11362
5447,11355
5434,11348
5425,11344
5420,11342
5418,11341
5416,11340
5411,11338
5402,11335
5388,11330
5374,11326
5364,11323
5359,11321
5357,11321
5354,11320
5349,11319
5339,11318
5324,11315
5308,11313
5295,11312
5283,11311
5273,11310
5265,11310
5259,11310
5256,11310
5255,11310
5250,11310
5238,11311
5223,11313
5207,11314
5195,11315
5190,11315
5189,11315
5186,11315
5180,11316
5173,11318
5163,11320
5153,11322
5140,11325
5125,11330
5111,11335
5101,11338
5096,11340
5094,11341
5092,11342
5088,11344
5078,11348
5065,11355
5052,11362
5043,11367
5039,11369
5037,11370
5035,11372
5031,11374
5022,11380
5010,11389
4997,11399
4987,11407
4979,11415
4971,11422
4965,11428
4961,11432
4959,11434
4958,11435
4955,11439
4947,11447
4937,11460
4926,11472
4918,11480
4915,11484
4914,11485
4912,11488
4909,11492
4905,11499
4900,11507
4894,11516
4887,11527
4880,11541
4873,11554
4869,11563
4867,11568
4866,11570
4865,11572
4863,11577
4860,11586
4855,11600
4851,11614
4848,11624
4846,11629
4846,11631
4845,11634
4844,11639
4843,11649
4840,11664
4838,11680
4837,11693
4836,11705
4835,11715
4835,11723
4835,11729
4835,11732
4835,11733
4835,11738
4836,11750
4838,11766
4839,11781
4840,11793
4840,11798
4840,11799
4840,11802
4841,11808
4843,11815
4845,11825
4847,11835
4850,11848
4855,11863
4860,11877
4863,11887
4865,11892
4866,11894
4867,11896
4869,11900
4873,11910
4880,11923
4887,11936
4892,11945
4894,11949
4895,11951
4897,11953
4899,11957
4905,11966
4914,11978
4924,11991
4932,12001
4940,12010
4947,12017
4953,12023
4957,12028
4959,12030
4960,12031
4964,12034
4972,12042
4985,12052
4997,12062
5005,12070
5009,12073
5010,12074
5012,12076
5017,12079
5023,12084
5031,12089
5040,12095
5051,12102
5065,12109
5078,12116
5088,12120
5092,12122
5094,12123
5096,12123
5101,12125
5111,12128
5125,12133
5139,12137
5149,12140
5154,12141
5156,12142
5159,12143
5164,12144
5174,12145
5189,12148
5205,12150
5218,12151
5229,12152
5239,12153
5247,12153
5253,12153
5256,12153
" style="stroke:#000000;stroke-width:15;
stroke-linejoin:bevel; stroke-linecap:butt;
"/>
<!-- Line -->
<!--  spline  -->
<polyline points="6822,12153
6823,12153
6828,12153
6840,12152
6856,12151
6872,12149
6884,12148
6889,12148
6890,12148
6893,12147
6898,12147
6906,12145
6915,12143
6926,12141
6938,12137
6953,12133
6967,12128
6977,12125
6981,12123
6984,12123
6986,12122
6990,12120
7000,12116
7013,12109
7026,12102
7035,12097
7039,12094
7041,12093
7043,12092
7047,12089
7056,12083
7068,12074
7081,12064
7091,12056
7100,12048
7107,12042
7113,12036
7118,12032
7120,12030
7121,12029
7124,12025
7132,12016
7142,12004
7152,11992
7160,11983
7163,11979
7164,11978
7166,11976
7169,11971
7174,11965
7179,11957
7185,11948
7192,11937
7199,11923
7206,11910
7210,11900
7212,11896
7213,11894
7213,11892
7215,11887
7218,11877
7223,11863
7227,11849
7230,11839
7231,11834
7232,11832
7233,11829
7234,11824
7235,11814
7238,11799
7240,11783
7241,11770
7242,11759
7243,11749
7243,11741
7243,11735
7243,11732
7243,11731
7243,11726
7242,11714
7241,11698
7239,11682
7238,11670
7238,11665
7238,11664
7237,11661
7237,11655
7235,11648
7233,11638
7231,11627
7227,11615
7223,11600
7217,11582
7214,11573
7213,11570
7211,11567
7207,11558
7199,11541
7192,11528
7187,11519
7184,11514
7183,11512
7182,11510
7179,11506
7173,11497
7164,11485
7154,11472
7146,11462
7138,11453
7132,11446
7126,11440
7122,11436
7120,11434
7119,11433
7115,11430
7106,11422
7094,11412
7082,11401
7073,11393
7069,11390
7068,11389
7066,11387
7061,11384
7055,11380
7047,11375
7038,11369
7027,11362
7013,11355
7000,11348
6990,11344
6986,11342
6984,11341
6981,11340
6977,11338
6967,11335
6953,11330
6939,11326
6929,11323
6924,11321
6922,11321
6920,11320
6915,11319
6905,11318
6890,11315
6874,11313
6861,11312
6849,11311
6839,11310
6831,11310
6825,11310
6822,11310
6821,11310
6816,11310
6804,11311
6788,11313
6772,11314
6760,11315
6755,11315
6754,11315
6751,11315
6745,11316
6738,11318
6728,11320
6717,11322
6705,11325
6690,11330
6676,11335
6667,11338
6662,11340
6660,11341
6658,11342
6653,11344
6644,11348
6631,11355
6618,11362
6609,11367
6604,11369
6602,11370
6600,11372
6596,11374
6587,11380
6575,11389
6562,11399
6552,11407
6543,11415
6536,11422
6530,11428
6526,11432
6524,11434
6523,11435
6520,11439
6512,11447
6502,11460
6492,11472
6484,11480
6481,11484
6480,11485
6478,11488
6475,11492
6470,11499
6465,11507
6459,11516
6452,11527
6445,11541
6438,11554
6434,11563
6432,11568
6431,11570
6430,11572
6428,11577
6425,11586
6420,11600
6416,11614
6413,11624
6411,11629
6411,11631
6410,11634
6409,11639
6407,11649
6405,11664
6403,11680
6402,11693
6401,11705
6401,11715
6401,11723
6401,11729
6401,11732
6401,11733
6401,11738
6402,11750
6403,11766
6404,11781
6405,11793
6405,11798
6405,11799
6405,11802
6406,11808
6408,11815
6410,11825
6412,11835
6415,11848
6420,11863
6425,11877
6428,11887
6430,11892
6431,11894
6432,11896
6434,11900
6438,11910
6445,11923
6452,11936
6457,11945
6460,11949
6461,11951
6462,11953
6465,11957
6471,11966
6480,11978
6490,11991
6498,12001
6506,12010
6512,12017
6518,12023
6522,12028
6524,12030
6525,12031
6529,12034
6537,12042
6550,12052
6562,12062
6570,12070
6574,12073
6575,12074
6578,12076
6582,12079
6589,12084
6597,12089
6606,12095
6617,12102
6631,12109
6648,12117
6657,12121
6660,12123
6663,12124
6672,12127
6690,12133
6704,12137
6714,12140
6719,12141
6721,12142
6724,12143
6729,12144
6739,12145
6754,12148
6770,12150
6783,12151
6795,12152
6805,12153
6813,12153
6819,12153
6822,12153
" style="stroke:#ffffff;stroke-width:0;
stroke-linejoin:bevel; stroke-linecap:butt;
fill:#ffffff;
"/>
<!-- Line -->
<!--  spline  -->
<polyline points="6822,12153
6823,12153
6828,12153
6840,12152
6856,12151
6872,12149
6884,12148
6889,12148
6890,12148
6893,12147
6898,12147
6906,12145
6915,12143
6926,12141
6938,12137
6953,12133
6967,12128
6977,12125
6981,12123
6984,12123
6986,12122
6990,12120
7000,12116
7013,12109
7026,12102
7035,12097
7039,12094
7041,12093
7043,12092
7047,12089
7056,12083
7068,12074
7081,12064
7091,12056
7100,12048
7107,12042
7113,12036
7118,12032
7120,12030
7121,12029
7124,12025
7132,12016
7142,12004
7152,11992
7160,11983
7163,11979
7164,11978
7166,11976
7169,11971
7174,11965
7179,11957
7185,11948
7192,11937
7199,11923
7206,11910
7210,11900
7212,11896
7213,11894
7213,11892
7215,11887
7218,11877
7223,11863
7227,11849
7230,11839
7231,11834
7232,11832
7233,11829
7234,11824
7235,11814
7238,11799
7240,11783
7241,11770
7242,11759
7243,11749
7243,11741
7243,11735
7243,11732
7243,11731
7243,11726
7242,11714
7241,11698
7239,11682
7238,11670
7238,11665
7238,11664
7237,11661
7237,11655
7235,11648
7233,11638
7231,11627
7227,11615
7223,11600
7217,11582
7214,11573
7213,11570
7211,11567
7207,11558
7199,11541
7192,11528
7187,11519
7184,11514
7183,11512
7182,11510
7179,11506
7173,11497
7164,11485
7154,11472
7146,11462
7138,11453
7132,11446
7126,11440
7122,11436
7120,11434
7119,11433
7115,11430
7106,11422
7094,11412
7082,11401
7073,11393
7069,11390
7068,11389
7066,11387
7061,11384
7055,11380
7047,11375
7038,11369
7027,11362
7013,11355
7000,11348
6990,11344
6986,11342
6984,11341
6981,11340
6977,11338
6967,11335
6953,11330
6939,11326
6929,11323
6924,11321
6922,11321
6920,11320
6915,11319
6905,11318
6890,11315
6874,11313
6861,11312
6849,11311
6839,11310
6831,11310
6825,11310
6822,11310
6821,11310
6816,11310
6804,11311
6788,11313
6772,11314
6760,11315
6755,11315
6754,11315
6751,11315
6745,11316
6738,11318
6728,11320
6717,11322
6705,11325
6690,11330
6676,11335
6667,11338
6662,11340
6660,11341
6658,11342
6653,11344
6644,11348
6631,11355
6618,11362
6609,11367
6604,11369
6602,11370
6600,11372
6596,11374
6587,11380
6575,11389
6562,11399
6552,11407
6543,11415
6536,11422
6530,11428
6526,11432
6524,11434
6523,11435
6520,11439
6512,11447
6502,11460
6492,11472
6484,11480
6481,11484
6480,11485
6478,11488
6475,11492
6470,11499
6465,11507
6459,11516
6452,11527
6445,11541
6438,11554
6434,11563
6432,11568
6431,11570
6430,11572
6428,11577
6425,11586
6420,11600
6416,11614
6413,11624
6411,11629
6411,11631
6410,11634
6409,11639
6407,11649
6405,11664
6403,11680
6402,11693
6401,11705
6401,11715
6401,11723
6401,11729
6401,11732
6401,11733
6401,11738
6402,11750
6403,11766
6404,11781
6405,11793
6405,11798
6405,11799
6405,11802
6406,11808
6408,11815
6410,11825
6412,11835
6415,11848
6420,11863
6425,11877
6428,11887
6430,11892
6431,11894
6432,11896
6434,11900
6438,11910
6445,11923
6452,11936
6457,11945
6460,11949
6461,11951
6462,11953
6465,11957
6471,11966
6480,11978
6490,11991
6498,12001
6506,12010
6512,12017
6518,12023
6522,12028
6524,12030
6525,12031
6529,12034
6537,12042
6550,12052
6562,12062
6570,12070
6574,12073
6575,12074
6578,12076
6582,12079
6589,12084
6597,12089
6606,12095
6617,12102
6631,12109
6648,12117
6657,12121
6660,12123
6663,12124
6672,12127
6690,12133
6704,12137
6714,12140
6719,12141
6721,12142
6724,12143
6729,12144
6739,12145
6754,12148
6770,12150
6783,12151
6795,12152
6805,12153
6813,12153
6819,12153
6822,12153
" style="stroke:#000000;stroke-width:15;
stroke-linejoin:bevel; stroke-linecap:butt;
"/>
<!-- Line -->
<!--  polyline  -->
<polyline points="891,10106
8091,10106
8091,12873
891,12873
891,10106
" style="stroke:#000000;stroke-width:15;
stroke-linejoin:miter; stroke-linecap:butt;
"/>
<!-- Text -->
<!--  text  -->
<text xml:space="preserve" x="2668" y="12213" stroke="#000000" fill="#000000"  font-family="Times" font-style="normal" font-weight="normal" font-size="156" text-anchor="start">L</text>
<!-- Text -->
<!--  text  -->
<text xml:space="preserve" x="2791" y="12213" stroke="#000000" fill="#000000"  font-family="Times" font-style="normal" font-weight="normal" font-size="156" text-anchor="start">E</text>
<!-- Text -->
<!--  text  -->
<text xml:space="preserve" x="2913" y="12213" stroke="#000000" fill="#000000"  font-family="Times" font-style="normal" font-weight="normal" font-size="156" text-anchor="start">F</text>
<!-- Text -->
<!--  text  -->
<text xml:space="preserve" x="3024" y="12213" stroke="#000000" fill="#000000"  font-family="Times" font-style="normal" font-weight="normal" font-size="156" text-anchor="start">T</text>
<!-- Text -->
<!--  text  -->
<text xml:space="preserve" x="2652" y="12453" stroke="#000000" fill="#000000"  font-family="Times" font-style="normal" font-weight="normal" font-size="156" text-anchor="start">H</text>
<!-- Text -->
<!--  text  -->
<text xml:space="preserve" x="2796" y="12453" stroke="#000000" fill="#000000"  font-family="Times" font-style="normal" font-weight="normal" font-size="156" text-anchor="start">E</text>
<!-- Text -->
<!--  text  -->
<text xml:space="preserve" x="2918" y="12453" stroke="#000000" fill="#000000"  font-family="Times" font-style="normal" font-weight="normal" font-size="156" text-anchor="start">E</text>
<!-- Text -->
<!--  text  -->
<text xml:space="preserve" x="3041" y="12453" stroke="#000000" fill="#000000"  font-family="Times" font-style="normal" font-weight="normal" font-size="156" text-anchor="start">L</text>
<!-- Text -->
<!--  text  -->
<text xml:space="preserve" x="2557" y="12693" stroke="#000000" fill="#000000"  font-family="Times" font-style="normal" font-weight="normal" font-size="156" text-anchor="start">S</text>
<!-- Text -->
<!--  text  -->
<text xml:space="preserve" x="2669" y="12693" stroke="#000000" fill="#000000"  font-family="Times" font-style="normal" font-weight="normal" font-size="156" text-anchor="start">T</text>
<!-- Text -->
<!--  text  -->
<text xml:space="preserve" x="2791" y="12693" stroke="#000000" fill="#000000"  font-family="Times" font-style="normal" font-weight="normal" font-size="156" text-anchor="start">R</text>
<!-- Text -->
<!--  text  -->
<text xml:space="preserve" x="2924" y="12693" stroke="#000000" fill="#000000"  font-family="Times" font-style="normal" font-weight="normal" font-size="156" text-anchor="start">I</text>
<!-- Text -->
<!--  text  -->
<text xml:space="preserve" x="2991" y="12693" stroke="#000000" fill="#000000"  font-family="Times" font-style="normal" font-weight="normal" font-size="156" text-anchor="start">K</text>
<!-- Text -->
<!--  text  -->
<text xml:space="preserve" x="3135" y="12693" stroke="#000000" fill="#000000"  font-family="Times" font-style="normal" font-weight="normal" font-size="156" text-anchor="start">E</text>
<!-- Text -->
<!--  text  -->
<text xml:space="preserve" x="4185" y="12213" stroke="#000000" fill="#000000"  font-family="Times" font-style="normal" font-weight="normal" font-size="156" text-anchor="start">R</text>
<!-- Text -->
<!--  text  -->
<text xml:space="preserve" x="4319" y="12213" stroke="#000000" fill="#000000"  font-family="Times" font-style="normal" font-weight="normal" font-size="156" text-anchor="start">I</text>
<!-- Text -->
<!--  text  -->
<text xml:space="preserve" x="4385" y="12213" stroke="#000000" fill="#000000"  font-family="Times" font-style="normal" font-weight="normal" font-size="156" text-anchor="start">G</text>
<!-- Text -->
<!--  text  -->
<text xml:space="preserve" x="4530" y="12213" stroke="#000000" fill="#000000"  font-family="Times" font-style="normal" font-weight="normal" font-size="156" text-anchor="start">H</text>
<!-- Text -->
<!--  text  -->
<text xml:space="preserve" x="4674" y="12213" stroke="#000000" fill="#000000"  font-family="Times" font-style="normal" font-weight="normal" font-size="156" text-anchor="start">T</text>
<!-- Text -->
<!--  text  -->
<text xml:space="preserve" x="4298" y="12453" stroke="#000000" fill="#000000"  font-family="Times" font-style="normal" font-weight="normal" font-size="156" text-anchor="start">T</text>
<!-- Text -->
<!--  text  -->
<text xml:space="preserve" x="4417" y="12453" stroke="#000000" fill="#000000"  font-family="Times" font-style="normal" font-weight="normal" font-size="156" text-anchor="start">O</text>
<!-- Text -->
<!--  text  -->
<text xml:space="preserve" x="4561" y="12453" stroke="#000000" fill="#000000"  font-family="Times" font-style="normal" font-weight="normal" font-size="156" text-anchor="start">E</text>
<!-- Text -->
<!--  text  -->
<text xml:space="preserve" x="4307" y="12693" stroke="#000000" fill="#000000"  font-family="Times" font-style="normal" font-weight="normal" font-size="156" text-anchor="start">O</text>
<!-- Text -->
<!--  text  -->
<text xml:space="preserve" x="4452" y="12693" stroke="#000000" fill="#000000"  font-family="Times" font-style="normal" font-weight="normal" font-size="156" text-anchor="start">F</text>
<!-- Text -->
<!--  text  -->
<text xml:space="preserve" x="4563" y="12693" stroke="#000000" fill="#000000"  font-family="Times" font-style="normal" font-weight="normal" font-size="156" text-anchor="start">F</text>
<!-- Text -->
<!--  text  -->
<text xml:space="preserve" x="5752" y="12213" stroke="#000000" fill="#000000"  font-family="Times" font-style="normal" font-weight="normal" font-size="156" text-anchor="start">R</text>
<!-- Text -->
<!--  text  -->
<text xml:space="preserve" x="5885" y="12213" stroke="#000000" fill="#000000"  font-family="Times" font-style="normal" font-weight="normal" font-size="156" text-anchor="start">I</text>
<!-- Text -->
<!--  text  -->
<text xml:space="preserve" x="5952" y="12213" stroke="#000000" fill="#000000"  font-family="Times" font-style="normal" font-weight="normal" font-size="156" text-anchor="start">G</text>
<!-- Text -->
<!--  text  -->
<text xml:space="preserve" x="6096" y="12213" stroke="#000000" fill="#000000"  font-family="Times" font-style="normal" font-weight="normal" font-size="156" text-anchor="start">H</text>
<!-- Text -->
<!--  text  -->
<text xml:space="preserve" x="6240" y="12213" stroke="#000000" fill="#000000"  font-family="Times" font-style="normal" font-weight="normal" font-size="156" text-anchor="start">T</text>
<!-- Text -->
<!--  text  -->
<text xml:space="preserve" x="5802" y="12453" stroke="#000000" fill="#000000"  font-family="Times" font-style="normal" font-weight="normal" font-size="156" text-anchor="start">H</text>
<!-- Text -->
<!--  text  -->
<text xml:space="preserve" x="5946" y="12453" stroke="#000000" fill="#000000"  font-family="Times" font-style="normal" font-weight="normal" font-size="156" text-anchor="start">E</text>
<!-- Text -->
<!--  text  -->
<text xml:space="preserve" x="6068" y="12453" stroke="#000000" fill="#000000"  font-family="Times" font-style="normal" font-weight="normal" font-size="156" text-anchor="start">E</text>
<!-- Text -->
<!--  text  -->
<text xml:space="preserve" x="6191" y="12453" stroke="#000000" fill="#000000"  font-family="Times" font-style="normal" font-weight="normal" font-size="156" text-anchor="start">L</text>
<!-- Text -->
<!--  text  -->
<text xml:space="preserve" x="5708" y="12693" stroke="#000000" fill="#000000"  font-family="Times" font-style="normal" font-weight="normal" font-size="156" text-anchor="start">S</text>
<!-- Text -->
<!--  text  -->
<text xml:space="preserve" x="5819" y="12693" stroke="#000000" fill="#000000"  font-family="Times" font-style="normal" font-weight="normal" font-size="156" text-anchor="start">T</text>
<!-- Text -->
<!--  text  -->
<text xml:space="preserve" x="5941" y="12693" stroke="#000000" fill="#000000"  font-family="Times" font-style="normal" font-weight="normal" font-size="156" text-anchor="start">R</text>
<!-- Text -->
<!--  text  -->
<text xml:space="preserve" x="6074" y="12693" stroke="#000000" fill="#000000"  font-family="Times" font-style="normal" font-weight="normal" font-size="156" text-anchor="start">I</text>
<!-- Text -->
<!--  text  -->
<text xml:space="preserve" x="6141" y="12693" stroke="#000000" fill="#000000"  font-family="Times" font-style="normal" font-weight="normal" font-size="156" text-anchor="start">K</text>
<!-- Text -->
<!--  text  -->
<text xml:space="preserve" x="6285" y="12693" stroke="#000000" fill="#000000"  font-family="Times" font-style="normal" font-weight="normal" font-size="156" text-anchor="start">E</text>
<!-- Text -->
<!--  text  -->
<text xml:space="preserve" x="3841" y="10463" stroke="#000000" fill="#000000"  font-family="Times" font-style="normal" font-weight="normal" font-size="156" text-anchor="start">L</text>
<!-- Text -->
<!--  text  -->
<text xml:space="preserve" x="3963" y="10463" stroke="#000000" fill="#000000"  font-family="Times" font-style="normal" font-weight="normal" font-size="156" text-anchor="start">E</text>
<!-- Text -->
<!--  text  -->
<text xml:space="preserve" x="4085" y="10463" stroke="#000000" fill="#000000"  font-family="Times" font-style="normal" font-weight="normal" font-size="156" text-anchor="start">F</text>
<!-- Text -->
<!--  text  -->
<text xml:space="preserve" x="4196" y="10463" stroke="#000000" fill="#000000"  font-family="Times" font-style="normal" font-weight="normal" font-size="156" text-anchor="start">T</text>
<!-- Text -->
<!--  text  -->
<text xml:space="preserve" x="4388" y="10463" stroke="#000000" fill="#000000"  font-family="Times" font-style="normal" font-weight="normal" font-size="156" text-anchor="start">T</text>
<!-- Text -->
<!--  text  -->
<text xml:space="preserve" x="4507" y="10463" stroke="#000000" fill="#000000"  font-family="Times" font-style="normal" font-weight="normal" font-size="156" text-anchor="start">O</text>
<!-- Text -->
<!--  text  -->
<text xml:space="preserve" x="4651" y="10463" stroke="#000000" fill="#000000"  font-family="Times" font-style="normal" font-weight="normal" font-size="156" text-anchor="start">E</text>
<!-- Text -->
<!--  text  -->
<text xml:space="preserve" x="4843" y="10463" stroke="#000000" fill="#000000"  font-family="Times" font-style="normal" font-weight="normal" font-size="156" text-anchor="start">O</text>
<!-- Text -->
<!--  text  -->
<text xml:space="preserve" x="4988" y="10463" stroke="#000000" fill="#000000"  font-family="Times" font-style="normal" font-weight="normal" font-size="156" text-anchor="start">F</text>
<!-- Text -->
<!--  text  -->
<text xml:space="preserve" x="5099" y="10463" stroke="#000000" fill="#000000"  font-family="Times" font-style="normal" font-weight="normal" font-size="156" text-anchor="start">F</text>
<!-- Text -->
<!--  text  -->
<text xml:space="preserve" x="2132" y="11797" stroke="#000000" fill="#000000"  font-family="Times" font-style="normal" font-weight="normal" font-size="156" text-anchor="start">1</text>
<!-- Text -->
<!--  text  -->
<text xml:space="preserve" x="3671" y="11780" stroke="#000000" fill="#000000"  font-family="Times" font-style="normal" font-weight="normal" font-size="156" text-anchor="start">2</text>
<!-- Text -->
<!--  text  -->
<text xml:space="preserve" x="5210" y="11813" stroke="#000000" fill="#000000"  font-family="Times" font-style="normal" font-weight="normal" font-size="156" text-anchor="start">3</text>
<!-- Text -->
<!--  text  -->
<text xml:space="preserve" x="6749" y="11830" stroke="#000000" fill="#000000"  font-family="Times" font-style="normal" font-weight="normal" font-size="156" text-anchor="start">4</text>
<!-- Text -->
<!--  text  -->
<text xml:space="preserve" x="2248" y="13090" stroke="#000000" fill="#000000"  font-family="Times" font-style="normal" font-weight="normal" font-size="156" text-anchor="start">F</text>
<!-- Text -->
<!--  text  -->
<text xml:space="preserve" x="2359" y="13090" stroke="#000000" fill="#000000"  font-family="Times" font-style="normal" font-weight="normal" font-size="156" text-anchor="start">I</text>
<!-- Text -->
<!--  text  -->
<text xml:space="preserve" x="2426" y="13090" stroke="#000000" fill="#000000"  font-family="Times" font-style="normal" font-weight="normal" font-size="156" text-anchor="start">G</text>
<!-- Text -->
<!--  text  -->
<text xml:space="preserve" x="2570" y="13090" stroke="#000000" fill="#000000"  font-family="Times" font-style="normal" font-weight="normal" font-size="156" text-anchor="start">U</text>
<!-- Text -->
<!--  text  -->
<text xml:space="preserve" x="2714" y="13090" stroke="#000000" fill="#000000"  font-family="Times" font-style="normal" font-weight="normal" font-size="156" text-anchor="start">R</text>
<!-- Text -->
<!--  text  -->
<text xml:space="preserve" x="2848" y="13090" stroke="#000000" fill="#000000"  font-family="Times" font-style="normal" font-weight="normal" font-size="156" text-anchor="start">E</text>
<!-- Text -->
<!--  text  -->
<text xml:space="preserve" x="3040" y="13090" stroke="#000000" fill="#000000"  font-family="Times" font-style="normal" font-weight="normal" font-size="156" text-anchor="start">3</text>
<!-- Text -->
<!--  text  -->
<text xml:space="preserve" x="3140" y="13090" stroke="#000000" fill="#000000"  font-family="Times" font-style="normal" font-weight="normal" font-size="156" text-anchor="start">-</text>
<!-- Text -->
<!--  text  -->
<text xml:space="preserve" x="3206" y="13090" stroke="#000000" fill="#000000"  font-family="Times" font-style="normal" font-weight="normal" font-size="156" text-anchor="start">2</text>
<!-- Text -->
<!--  text  -->
<text xml:space="preserve" x="3306" y="13090" stroke="#000000" fill="#000000"  font-family="Times" font-style="normal" font-weight="normal" font-size="156" text-anchor="start">:</text>
<!-- Text -->
<!--  text  -->
<text xml:space="preserve" x="3432" y="13090" stroke="#000000" fill="#000000"  font-family="Times" font-style="normal" font-weight="normal" font-size="156" text-anchor="start">F</text>
<!-- Text -->
<!--  text  -->
<text xml:space="preserve" x="3543" y="13090" stroke="#000000" fill="#000000"  font-family="Times" font-style="normal" font-weight="normal" font-size="156" text-anchor="start">S</text>
<!-- Text -->
<!--  text  -->
<text xml:space="preserve" x="3654" y="13090" stroke="#000000" fill="#000000"  font-family="Times" font-style="normal" font-weight="normal" font-size="156" text-anchor="start">A</text>
<!-- Text -->
<!--  text  -->
<text xml:space="preserve" x="3799" y="13090" stroke="#000000" fill="#000000"  font-family="Times" font-style="normal" font-weight="normal" font-size="156" text-anchor="start">-</text>
<!-- Text -->
<!--  text  -->
<text xml:space="preserve" x="3865" y="13090" stroke="#000000" fill="#000000"  font-family="Times" font-style="normal" font-weight="normal" font-size="156" text-anchor="start">b</text>
<!-- Text -->
<!--  text  -->
<text xml:space="preserve" x="3965" y="13090" stroke="#000000" fill="#000000"  font-family="Times" font-style="normal" font-weight="normal" font-size="156" text-anchor="start">a</text>
<!-- Text -->
<!--  text  -->
<text xml:space="preserve" x="4054" y="13090" stroke="#000000" fill="#000000"  font-family="Times" font-style="normal" font-weight="normal" font-size="156" text-anchor="start">s</text>
<!-- Text -->
<!--  text  -->
<text xml:space="preserve" x="4132" y="13090" stroke="#000000" fill="#000000"  font-family="Times" font-style="normal" font-weight="normal" font-size="156" text-anchor="start">e</text>
<!-- Text -->
<!--  text  -->
<text xml:space="preserve" x="4221" y="13090" stroke="#000000" fill="#000000"  font-family="Times" font-style="normal" font-weight="normal" font-size="156" text-anchor="start">d</text>
<!-- Text -->
<!--  text  -->
<text xml:space="preserve" x="4391" y="13090" stroke="#000000" fill="#000000"  font-family="Times" font-style="normal" font-weight="normal" font-size="156" text-anchor="start">a</text>
<!-- Text -->
<!--  text  -->
<text xml:space="preserve" x="4479" y="13090" stroke="#000000" fill="#000000"  font-family="Times" font-style="normal" font-weight="normal" font-size="156" text-anchor="start">n</text>
<!-- Text -->
<!--  text  -->
<text xml:space="preserve" x="4579" y="13090" stroke="#000000" fill="#000000"  font-family="Times" font-style="normal" font-weight="normal" font-size="156" text-anchor="start">i</text>
<!-- Text -->
<!--  text  -->
<text xml:space="preserve" x="4635" y="13090" stroke="#000000" fill="#000000"  font-family="Times" font-style="normal" font-weight="normal" font-size="156" text-anchor="start">m</text>
<!-- Text -->
<!--  text  -->
<text xml:space="preserve" x="4790" y="13090" stroke="#000000" fill="#000000"  font-family="Times" font-style="normal" font-weight="normal" font-size="156" text-anchor="start">a</text>
<!-- Text -->
<!--  text  -->
<text xml:space="preserve" x="4879" y="13090" stroke="#000000" fill="#000000"  font-family="Times" font-style="normal" font-weight="normal" font-size="156" text-anchor="start">t</text>
<!-- Text -->
<!--  text  -->
<text xml:space="preserve" x="4935" y="13090" stroke="#000000" fill="#000000"  font-family="Times" font-style="normal" font-weight="normal" font-size="156" text-anchor="start">i</text>
<!-- Text -->
<!--  text  -->
<text xml:space="preserve" x="4990" y="13090" stroke="#000000" fill="#000000"  font-family="Times" font-style="normal" font-weight="normal" font-size="156" text-anchor="start">o</text>
<!-- Text -->
<!--  text  -->
<text xml:space="preserve" x="5090" y="13090" stroke="#000000" fill="#000000"  font-family="Times" font-style="normal" font-weight="normal" font-size="156" text-anchor="start">n</text>
<!-- Text -->
<!--  text  -->
<text xml:space="preserve" x="5260" y="13090" stroke="#000000" fill="#000000"  font-family="Times" font-style="normal" font-weight="normal" font-size="156" text-anchor="start">c</text>
<!-- Text -->
<!--  text  -->
<text xml:space="preserve" x="5349" y="13090" stroke="#000000" fill="#000000"  font-family="Times" font-style="normal" font-weight="normal" font-size="156" text-anchor="start">o</text>
<!-- Text -->
<!--  text  -->
<text xml:space="preserve" x="5449" y="13090" stroke="#000000" fill="#000000"  font-family="Times" font-style="normal" font-weight="normal" font-size="156" text-anchor="start">n</text>
<!-- Text -->
<!--  text  -->
<text xml:space="preserve" x="5549" y="13090" stroke="#000000" fill="#000000"  font-family="Times" font-style="normal" font-weight="normal" font-size="156" text-anchor="start">t</text>
<!-- Text -->
<!--  text  -->
<text xml:space="preserve" x="5605" y="13090" stroke="#000000" fill="#000000"  font-family="Times" font-style="normal" font-weight="normal" font-size="156" text-anchor="start">r</text>
<!-- Text -->
<!--  text  -->
<text xml:space="preserve" x="5671" y="13090" stroke="#000000" fill="#000000"  font-family="Times" font-style="normal" font-weight="normal" font-size="156" text-anchor="start">o</text>
<!-- Text -->
<!--  text  -->
<text xml:space="preserve" x="5771" y="13090" stroke="#000000" fill="#000000"  font-family="Times" font-style="normal" font-weight="normal" font-size="156" text-anchor="start">l</text>
<!-- Text -->
<!--  text  -->
<text xml:space="preserve" x="5827" y="13090" stroke="#000000" fill="#000000"  font-family="Times" font-style="normal" font-weight="normal" font-size="156" text-anchor="start">l</text>
<!-- Text -->
<!--  text  -->
<text xml:space="preserve" x="5882" y="13090" stroke="#000000" fill="#000000"  font-family="Times" font-style="normal" font-weight="normal" font-size="156" text-anchor="start">e</text>
<!-- Text -->
<!--  text  -->
<text xml:space="preserve" x="5971" y="13090" stroke="#000000" fill="#000000"  font-family="Times" font-style="normal" font-weight="normal" font-size="156" text-anchor="start">r</text>
<!-- Text -->
<!--  text  -->
<text xml:space="preserve" x="6107" y="13090" stroke="#000000" fill="#000000"  font-family="Times" font-style="normal" font-weight="normal" font-size="156" text-anchor="start">(</text>
<!-- Text -->
<!--  text  -->
<text xml:space="preserve" x="6174" y="13090" stroke="#000000" fill="#000000"  font-family="Times" font-style="normal" font-weight="normal" font-size="156" text-anchor="start">Z</text>
<!-- Text -->
<!--  text  -->
<text xml:space="preserve" x="6296" y="13090" stroke="#000000" fill="#000000"  font-family="Times" font-style="normal" font-weight="normal" font-size="156" text-anchor="start">e</text>
<!-- Text -->
<!--  text  -->
<text xml:space="preserve" x="6385" y="13090" stroke="#000000" fill="#000000"  font-family="Times" font-style="normal" font-weight="normal" font-size="156" text-anchor="start">l</text>
<!-- Text -->
<!--  text  -->
<text xml:space="preserve" x="6440" y="13090" stroke="#000000" fill="#000000"  font-family="Times" font-style="normal" font-weight="normal" font-size="156" text-anchor="start">t</text>
<!-- Text -->
<!--  text  -->
<text xml:space="preserve" x="6496" y="13090" stroke="#000000" fill="#000000"  font-family="Times" font-style="normal" font-weight="normal" font-size="156" text-anchor="start">z</text>
<!-- Text -->
<!--  text  -->
<text xml:space="preserve" x="6585" y="13090" stroke="#000000" fill="#000000"  font-family="Times" font-style="normal" font-weight="normal" font-size="156" text-anchor="start">e</text>
<!-- Text -->
<!--  text  -->
<text xml:space="preserve" x="6674" y="13090" stroke="#000000" fill="#000000"  font-family="Times" font-style="normal" font-weight="normal" font-size="156" text-anchor="start">r</text>
<!-- Text -->
<!--  text  -->
<text xml:space="preserve" x="6810" y="13090" stroke="#000000" fill="#000000"  font-family="Times" font-style="normal" font-weight="normal" font-size="156" text-anchor="start">1</text>
<!-- Text -->
<!--  text  -->
<text xml:space="preserve" x="6910" y="13090" stroke="#000000" fill="#000000"  font-family="Times" font-style="normal" font-weight="normal" font-size="156" text-anchor="start">9</text>
<!-- Text -->
<!--  text  -->
<text xml:space="preserve" x="7010" y="13090" stroke="#000000" fill="#000000"  font-family="Times" font-style="normal" font-weight="normal" font-size="156" text-anchor="start">8</text>
<!-- Text -->
<!--  text  -->
<text xml:space="preserve" x="7110" y="13090" stroke="#000000" fill="#000000"  font-family="Times" font-style="normal" font-weight="normal" font-size="156" text-anchor="start">2</text>
<!-- Text -->
<!--  text  -->
<text xml:space="preserve" x="7210" y="13090" stroke="#000000" fill="#000000"  font-family="Times" font-style="normal" font-weight="normal" font-size="156" text-anchor="start">)</text>
</g>
</svg>
