<?xml version="1.0" standalone="no"?>
<!DOCTYPE svg PUBLIC "-//W3C//DTD SVG 1.1//EN"
"http://www.w3.org/Graphics/SVG/1.1/DTD/svg11.dtd">
<!-- Creator: fig2dev Version 3.2 Patchlevel 5 -->
<!-- CreationDate: Sat Jul  4 12:13:18 2015 -->
<!-- Magnification: 1.000 -->
<svg xmlns="http://www.w3.org/2000/svg" width="6.0in" height="3.2in" viewBox="111 9274 7224 3889">
<g style="stroke-width:.025in; stroke:black; fill:none">
<!-- Line -->
<!--  polyline  -->
<polyline points="133,9296
7313,9296
7313,12849
133,12849
133,9296
" style="stroke:#000000;stroke-width:15;
stroke-linejoin:miter; stroke-linecap:butt;
"/>
<!-- Line -->
<!--  polyline  -->
<polyline points="6473,11002
5385,11002
" style="stroke:#000000;stroke-width:7;
stroke-linejoin:miter; stroke-linecap:butt;
"/>
<!-- Line -->
<!--  spline  -->
<polyline points="6533,11002
6532,11002
6527,10999
6514,10994
6493,10986
6468,10976
6444,10967
6423,10959
6410,10954
6405,10951
6404,10951
6404,10952
6403,10955
6402,10959
6401,10962
6401,10963
6401,10965
6400,10968
6400,10971
6399,10975
6398,10979
6398,10980
6398,10982
6397,10985
6397,10988
6396,10989
6396,10990
6396,10991
6396,10994
6396,10997
6395,10999
6395,11001
6395,11002
6395,11004
6396,11008
6396,11010
6396,11011
6396,11013
6397,11016
6397,11019
6398,11022
6398,11024
6398,11025
6399,11029
6400,11033
6400,11034
6400,11035
6400,11037
6401,11041
6402,11046
6403,11049
6403,11052
6404,11054
6405,11054
6410,11051
6423,11046
6444,11038
6469,11028
6493,11018
6514,11010
6527,11005
6532,11002
6533,11002
" style="stroke:#000000;stroke-width:0;
stroke-linejoin:bevel; stroke-linecap:butt;
fill:#000000;
"/>
<!-- Line -->
<!--  spline  -->
<polyline points="5023,11404
5025,11404
5035,11403
5054,11402
5073,11401
5083,11400
5085,11400
5086,11400
5091,11399
5100,11397
5111,11395
5125,11391
5143,11386
5159,11380
5168,11378
5171,11376
5174,11375
5182,11372
5198,11364
5213,11356
5221,11351
5224,11350
5226,11348
5234,11342
5248,11332
5263,11320
5274,11310
5284,11302
5291,11295
5294,11292
5295,11291
5296,11290
5303,11282
5316,11267
5328,11253
5335,11245
5336,11244
5337,11243
5340,11239
5345,11232
5352,11222
5359,11210
5368,11194
5376,11178
5379,11170
5381,11167
5382,11164
5384,11155
5390,11139
5395,11122
5398,11114
5399,11111
5399,11107
5401,11098
5404,11081
5406,11062
5407,11047
5408,11035
5408,11025
5408,11020
5408,11019
5408,11017
5407,11007
5406,10988
5405,10969
5404,10959
5404,10957
5404,10956
5403,10951
5401,10942
5399,10930
5395,10916
5390,10898
5384,10882
5382,10873
5380,10870
5379,10868
5376,10859
5368,10844
5360,10829
5355,10821
5354,10818
5352,10815
5346,10807
5336,10793
5324,10778
5314,10766
5306,10757
5299,10750
5296,10747
5295,10746
5294,10745
5286,10738
5271,10725
5257,10713
5249,10706
5248,10705
5247,10704
5243,10702
5236,10696
5226,10690
5214,10683
5198,10674
5182,10666
5174,10662
5171,10661
5168,10660
5159,10657
5143,10651
5126,10646
5118,10644
5115,10643
5111,10642
5102,10641
5085,10638
5066,10636
5051,10634
5039,10633
5029,10633
5024,10633
5023,10633
5021,10633
5011,10634
4992,10636
4973,10637
4963,10638
4961,10638
4960,10638
4955,10639
4946,10640
4934,10643
4920,10646
4902,10651
4886,10657
4877,10660
4874,10661
4872,10662
4863,10666
4848,10674
4833,10682
4825,10686
4822,10688
4819,10690
4811,10695
4797,10705
4782,10717
4770,10726
4761,10735
4754,10742
4751,10745
4750,10746
4749,10747
4742,10755
4729,10770
4717,10784
4710,10792
4709,10793
4708,10794
4706,10798
4700,10805
4694,10815
4687,10828
4678,10844
4670,10859
4666,10868
4665,10870
4664,10873
4661,10882
4655,10898
4650,10915
4648,10924
4647,10927
4646,10930
4645,10939
4642,10957
4640,10976
4638,10991
4637,11003
4637,11013
4637,11018
4637,11019
4637,11021
4638,11031
4640,11050
4641,11069
4642,11079
4642,11081
4642,11082
4643,11087
4644,11096
4647,11107
4650,11121
4655,11139
4661,11155
4664,11164
4665,11167
4666,11170
4670,11178
4678,11194
4686,11209
4690,11217
4692,11220
4694,11222
4699,11230
4709,11244
4721,11259
4730,11270
4739,11280
4746,11287
4749,11290
4750,11291
4751,11292
4759,11299
4774,11312
4788,11324
4796,11331
4797,11332
4798,11333
4802,11336
4809,11341
4819,11348
4832,11355
4848,11364
4863,11372
4872,11375
4874,11377
4877,11378
4886,11380
4902,11386
4919,11391
4928,11394
4931,11395
4934,11395
4943,11397
4961,11400
4980,11402
4995,11403
5007,11404
5017,11404
5022,11404
5023,11404
" style="stroke:#ffffff;stroke-width:0;
stroke-linejoin:bevel; stroke-linecap:butt;
fill:#ffffff;
"/>
<!-- Line -->
<!--  spline  -->
<polyline points="5023,11404
5025,11404
5035,11403
5054,11402
5073,11401
5083,11400
5085,11400
5086,11400
5091,11399
5100,11397
5111,11395
5125,11391
5143,11386
5159,11380
5168,11378
5171,11376
5174,11375
5182,11372
5198,11364
5213,11356
5221,11351
5224,11350
5226,11348
5234,11342
5248,11332
5263,11320
5274,11310
5284,11302
5291,11295
5294,11292
5295,11291
5296,11290
5303,11282
5316,11267
5328,11253
5335,11245
5336,11244
5337,11243
5340,11239
5345,11232
5352,11222
5359,11210
5368,11194
5376,11178
5379,11170
5381,11167
5382,11164
5384,11155
5390,11139
5395,11122
5398,11114
5399,11111
5399,11107
5401,11098
5404,11081
5406,11062
5407,11047
5408,11035
5408,11025
5408,11020
5408,11019
5408,11017
5407,11007
5406,10988
5405,10969
5404,10959
5404,10957
5404,10956
5403,10951
5401,10942
5399,10930
5395,10916
5390,10898
5384,10882
5382,10873
5380,10870
5379,10868
5376,10859
5368,10844
5360,10829
5355,10821
5354,10818
5352,10815
5346,10807
5336,10793
5324,10778
5314,10766
5306,10757
5299,10750
5296,10747
5295,10746
5294,10745
5286,10738
5271,10725
5257,10713
5249,10706
5248,10705
5247,10704
5243,10702
5236,10696
5226,10690
5214,10683
5198,10674
5182,10666
5174,10662
5171,10661
5168,10660
5159,10657
5143,10651
5126,10646
5118,10644
5115,10643
5111,10642
5102,10641
5085,10638
5066,10636
5051,10634
5039,10633
5029,10633
5024,10633
5023,10633
5021,10633
5011,10634
4992,10636
4973,10637
4963,10638
4961,10638
4960,10638
4955,10639
4946,10640
4934,10643
4920,10646
4902,10651
4886,10657
4877,10660
4874,10661
4872,10662
4863,10666
4848,10674
4833,10682
4825,10686
4822,10688
4819,10690
4811,10695
4797,10705
4782,10717
4770,10726
4761,10735
4754,10742
4751,10745
4750,10746
4749,10747
4742,10755
4729,10770
4717,10784
4710,10792
4709,10793
4708,10794
4706,10798
4700,10805
4694,10815
4687,10828
4678,10844
4670,10859
4666,10868
4665,10870
4664,10873
4661,10882
4655,10898
4650,10915
4648,10924
4647,10927
4646,10930
4645,10939
4642,10957
4640,10976
4638,10991
4637,11003
4637,11013
4637,11018
4637,11019
4637,11021
4638,11031
4640,11050
4641,11069
4642,11079
4642,11081
4642,11082
4643,11087
4644,11096
4647,11107
4650,11121
4655,11139
4661,11155
4664,11164
4665,11167
4666,11170
4670,11178
4678,11194
4686,11209
4690,11217
4692,11220
4694,11222
4699,11230
4709,11244
4721,11259
4730,11270
4739,11280
4746,11287
4749,11290
4750,11291
4751,11292
4759,11299
4774,11312
4788,11324
4796,11331
4797,11332
4798,11333
4802,11336
4809,11341
4819,11348
4832,11355
4848,11364
4863,11372
4872,11375
4874,11377
4877,11378
4886,11380
4902,11386
4919,11391
4928,11394
4931,11395
4934,11395
4943,11397
4961,11400
4980,11402
4995,11403
5007,11404
5017,11404
5022,11404
5023,11404
" style="stroke:#000000;stroke-width:15;
stroke-linejoin:bevel; stroke-linecap:butt;
"/>
<!-- Line -->
<!--  polyline  -->
<polyline points="1572,11824
1572,11824
1572,11824
" style="stroke:#000000;stroke-width:7;
stroke-linejoin:miter; stroke-linecap:butt;
"/>
<!-- Line -->
<!--  spline  -->
<polyline points="1425,11824
1426,11824
1432,11823
1442,11823
1448,11822
1449,11822
1450,11822
1452,11821
1457,11821
1463,11819
1471,11817
1478,11815
1481,11814
1482,11813
1485,11812
1492,11809
1499,11806
1501,11804
1502,11804
1505,11802
1511,11798
1518,11793
1523,11789
1526,11786
1529,11784
1530,11783
1534,11779
1539,11772
1543,11768
1544,11767
1546,11764
1549,11761
1552,11756
1556,11749
1559,11743
1561,11740
1561,11739
1562,11737
1565,11730
1567,11723
1568,11720
1568,11719
1569,11716
1570,11709
1571,11701
1572,11695
1572,11690
1572,11688
1572,11687
1572,11686
1571,11680
1571,11672
1570,11666
1570,11665
1570,11664
1569,11662
1569,11658
1567,11652
1565,11645
1562,11638
1561,11635
1561,11634
1559,11631
1556,11625
1552,11619
1551,11616
1550,11615
1548,11613
1544,11607
1539,11601
1535,11597
1531,11593
1529,11591
1528,11590
1523,11586
1517,11581
1512,11577
1511,11576
1508,11574
1504,11572
1499,11569
1492,11565
1485,11562
1482,11561
1481,11560
1478,11559
1471,11557
1464,11555
1461,11554
1460,11554
1457,11553
1449,11552
1440,11551
1434,11551
1429,11551
1426,11551
1425,11551
1424,11551
1418,11551
1409,11552
1403,11552
1402,11552
1401,11552
1399,11553
1394,11553
1388,11555
1380,11557
1373,11559
1370,11560
1369,11561
1366,11562
1359,11565
1352,11568
1350,11570
1349,11570
1346,11572
1340,11576
1333,11581
1328,11585
1325,11588
1322,11591
1321,11592
1317,11596
1311,11602
1307,11606
1306,11607
1304,11610
1301,11613
1298,11618
1294,11625
1291,11631
1290,11634
1289,11635
1288,11638
1286,11645
1284,11652
1283,11654
1283,11655
1282,11658
1281,11665
1280,11673
1279,11679
1279,11684
1279,11686
1279,11687
1279,11688
1280,11694
1280,11702
1281,11708
1281,11709
1281,11710
1282,11712
1282,11717
1284,11723
1286,11730
1288,11737
1289,11739
1290,11740
1291,11743
1294,11749
1298,11755
1299,11758
1300,11759
1301,11761
1306,11767
1311,11773
1316,11778
1319,11781
1322,11784
1323,11785
1328,11788
1334,11794
1339,11797
1340,11798
1343,11800
1347,11802
1352,11805
1359,11809
1366,11812
1369,11813
1370,11814
1373,11815
1380,11817
1387,11819
1390,11820
1391,11820
1394,11821
1402,11822
1410,11823
1417,11824
1421,11824
1424,11824
1425,11824
" style="stroke:#ffffff;stroke-width:0;
stroke-linejoin:bevel; stroke-linecap:butt;
fill:#ffffff;
"/>
<!-- Line -->
<!--  spline  -->
<polyline points="1425,11824
1426,11824
1432,11823
1442,11823
1448,11822
1449,11822
1450,11822
1452,11821
1457,11821
1463,11819
1471,11817
1478,11815
1481,11814
1482,11813
1485,11812
1492,11809
1499,11806
1501,11804
1502,11804
1505,11802
1511,11798
1518,11793
1523,11789
1526,11786
1529,11784
1530,11783
1534,11779
1539,11772
1543,11768
1544,11767
1546,11764
1549,11761
1552,11756
1556,11749
1559,11743
1561,11740
1561,11739
1562,11737
1565,11730
1567,11723
1568,11720
1568,11719
1569,11716
1570,11709
1571,11701
1572,11695
1572,11690
1572,11688
1572,11687
1572,11686
1571,11680
1571,11672
1570,11666
1570,11665
1570,11664
1569,11662
1569,11658
1567,11652
1565,11645
1562,11638
1561,11635
1561,11634
1559,11631
1556,11625
1552,11619
1551,11616
1550,11615
1548,11613
1544,11607
1539,11601
1535,11597
1531,11593
1529,11591
1528,11590
1523,11586
1517,11581
1512,11577
1511,11576
1508,11574
1504,11572
1499,11569
1492,11565
1485,11562
1482,11561
1481,11560
1478,11559
1471,11557
1464,11555
1461,11554
1460,11554
1457,11553
1449,11552
1440,11551
1434,11551
1429,11551
1426,11551
1425,11551
1424,11551
1418,11551
1409,11552
1403,11552
1402,11552
1401,11552
1399,11553
1394,11553
1388,11555
1380,11557
1373,11559
1370,11560
1369,11561
1366,11562
1359,11565
1352,11568
1350,11570
1349,11570
1346,11572
1340,11576
1333,11581
1328,11585
1325,11588
1322,11591
1321,11592
1317,11596
1311,11602
1307,11606
1306,11607
1304,11610
1301,11613
1298,11618
1294,11625
1291,11631
1290,11634
1289,11635
1288,11638
1286,11645
1284,11652
1283,11654
1283,11655
1282,11658
1281,11665
1280,11673
1279,11679
1279,11684
1279,11686
1279,11687
1279,11688
1280,11694
1280,11702
1281,11708
1281,11709
1281,11710
1282,11712
1282,11717
1284,11723
1286,11730
1288,11737
1289,11739
1290,11740
1291,11743
1294,11749
1298,11755
1299,11758
1300,11759
1301,11761
1306,11767
1311,11773
1316,11778
1319,11781
1322,11784
1323,11785
1328,11788
1334,11794
1339,11797
1340,11798
1343,11800
1347,11802
1352,11805
1359,11809
1366,11812
1369,11813
1370,11814
1373,11815
1380,11817
1387,11819
1390,11820
1391,11820
1394,11821
1402,11822
1410,11823
1417,11824
1421,11824
1424,11824
1425,11824
" style="stroke:#000000;stroke-width:15;
stroke-linejoin:bevel; stroke-linecap:butt;
"/>
<!-- Line -->
<!--  polyline  -->
<polyline points="2539,11918
2539,11918
2539,11918
" style="stroke:#000000;stroke-width:7;
stroke-linejoin:miter; stroke-linecap:butt;
"/>
<!-- Line -->
<!--  spline  -->
<polyline points="2343,11918
2345,11918
2353,11917
2364,11917
2372,11916
2374,11916
2375,11916
2379,11915
2385,11914
2393,11912
2404,11909
2414,11906
2418,11904
2419,11903
2423,11902
2432,11897
2441,11892
2445,11890
2446,11889
2450,11887
2458,11881
2467,11874
2474,11868
2478,11864
2481,11861
2482,11860
2483,11859
2488,11853
2496,11843
2501,11837
2502,11836
2503,11835
2505,11832
2509,11827
2514,11820
2519,11811
2523,11802
2525,11798
2526,11797
2527,11793
2530,11783
2533,11773
2534,11769
2534,11767
2535,11763
2537,11753
2538,11742
2539,11733
2539,11727
2539,11723
2539,11722
2539,11720
2538,11712
2538,11700
2537,11692
2537,11690
2537,11689
2536,11685
2535,11679
2533,11671
2530,11660
2527,11651
2526,11647
2525,11646
2523,11642
2519,11633
2514,11624
2512,11620
2511,11619
2508,11615
2502,11607
2495,11598
2490,11591
2485,11587
2483,11584
2482,11583
2481,11582
2475,11577
2465,11568
2459,11563
2458,11562
2457,11562
2454,11559
2449,11556
2442,11551
2432,11546
2423,11541
2419,11540
2418,11539
2414,11537
2404,11534
2394,11531
2390,11530
2388,11530
2384,11530
2374,11528
2363,11527
2354,11526
2348,11525
2344,11525
2343,11525
2341,11525
2333,11526
2321,11527
2313,11528
2311,11528
2310,11528
2307,11529
2300,11529
2292,11531
2282,11534
2272,11537
2269,11539
2267,11540
2263,11541
2254,11546
2245,11551
2241,11553
2240,11554
2236,11556
2228,11562
2219,11569
2212,11575
2208,11579
2205,11582
2204,11583
2203,11584
2198,11590
2189,11600
2184,11606
2183,11607
2183,11608
2180,11611
2177,11616
2172,11623
2167,11633
2163,11642
2161,11646
2161,11647
2159,11651
2156,11660
2153,11670
2152,11674
2152,11675
2151,11680
2149,11690
2148,11701
2147,11710
2147,11717
2147,11721
2147,11722
2147,11724
2148,11732
2148,11743
2149,11751
2149,11753
2149,11754
2150,11758
2151,11764
2153,11772
2156,11783
2159,11793
2161,11797
2161,11798
2163,11802
2167,11811
2172,11820
2174,11823
2175,11824
2177,11828
2183,11836
2190,11845
2196,11851
2200,11856
2203,11859
2204,11860
2205,11861
2211,11866
2221,11875
2227,11880
2228,11881
2229,11881
2232,11884
2237,11887
2244,11892
2254,11897
2263,11902
2267,11903
2269,11904
2272,11906
2282,11909
2292,11912
2295,11913
2297,11913
2301,11914
2311,11916
2322,11917
2331,11918
2338,11918
2342,11918
2343,11918
" style="stroke:#ffffff;stroke-width:0;
stroke-linejoin:bevel; stroke-linecap:butt;
fill:#ffffff;
"/>
<!-- Line -->
<!--  spline  -->
<polyline points="2343,11918
2345,11918
2353,11917
2364,11917
2372,11916
2374,11916
2375,11916
2379,11915
2385,11914
2393,11912
2404,11909
2414,11906
2418,11904
2419,11903
2423,11902
2432,11897
2441,11892
2445,11890
2446,11889
2450,11887
2458,11881
2467,11874
2474,11868
2478,11864
2481,11861
2482,11860
2483,11859
2488,11853
2496,11843
2501,11837
2502,11836
2503,11835
2505,11832
2509,11827
2514,11820
2519,11811
2523,11802
2525,11798
2526,11797
2527,11793
2530,11783
2533,11773
2534,11769
2534,11767
2535,11763
2537,11753
2538,11742
2539,11733
2539,11727
2539,11723
2539,11722
2539,11720
2538,11712
2538,11700
2537,11692
2537,11690
2537,11689
2536,11685
2535,11679
2533,11671
2530,11660
2527,11651
2526,11647
2525,11646
2523,11642
2519,11633
2514,11624
2512,11620
2511,11619
2508,11615
2502,11607
2495,11598
2490,11591
2485,11587
2483,11584
2482,11583
2481,11582
2475,11577
2465,11568
2459,11563
2458,11562
2457,11562
2454,11559
2449,11556
2442,11551
2432,11546
2423,11541
2419,11540
2418,11539
2414,11537
2404,11534
2394,11531
2390,11530
2388,11530
2384,11530
2374,11528
2363,11527
2354,11526
2348,11525
2344,11525
2343,11525
2341,11525
2333,11526
2321,11527
2313,11528
2311,11528
2310,11528
2307,11529
2300,11529
2292,11531
2282,11534
2272,11537
2269,11539
2267,11540
2263,11541
2254,11546
2245,11551
2241,11553
2240,11554
2236,11556
2228,11562
2219,11569
2212,11575
2208,11579
2205,11582
2204,11583
2203,11584
2198,11590
2189,11600
2184,11606
2183,11607
2183,11608
2180,11611
2177,11616
2172,11623
2167,11633
2163,11642
2161,11646
2161,11647
2159,11651
2156,11660
2153,11670
2152,11674
2152,11675
2151,11680
2149,11690
2148,11701
2147,11710
2147,11717
2147,11721
2147,11722
2147,11724
2148,11732
2148,11743
2149,11751
2149,11753
2149,11754
2150,11758
2151,11764
2153,11772
2156,11783
2159,11793
2161,11797
2161,11798
2163,11802
2167,11811
2172,11820
2174,11823
2175,11824
2177,11828
2183,11836
2190,11845
2196,11851
2200,11856
2203,11859
2204,11860
2205,11861
2211,11866
2221,11875
2227,11880
2228,11881
2229,11881
2232,11884
2237,11887
2244,11892
2254,11897
2263,11902
2267,11903
2269,11904
2272,11906
2282,11909
2292,11912
2295,11913
2297,11913
2301,11914
2311,11916
2322,11917
2331,11918
2338,11918
2342,11918
2343,11918
" style="stroke:#000000;stroke-width:15;
stroke-linejoin:bevel; stroke-linecap:butt;
"/>
<!-- Line -->
<!--  polyline  -->
<polyline points="2550,11456
2085,11960
" style="stroke:#000000;stroke-width:7;
stroke-linejoin:miter; stroke-linecap:butt;
"/>
<!-- Line -->
<!--  spline  -->
<polyline points="2588,11415
2587,11415
2582,11418
2569,11424
2550,11433
2525,11445
2501,11457
2482,11466
2469,11472
2464,11475
2463,11475
2463,11476
2465,11478
2468,11483
2470,11485
2470,11486
2471,11487
2473,11489
2475,11492
2477,11495
2479,11498
2480,11499
2480,11500
2481,11501
2483,11504
2485,11507
2486,11508
2487,11509
2489,11511
2491,11513
2493,11514
2494,11515
2495,11516
2497,11518
2499,11519
2501,11521
2502,11522
2503,11523
2505,11525
2508,11527
2511,11529
2512,11529
2513,11530
2514,11530
2517,11532
2520,11534
2522,11535
2523,11536
2527,11538
2531,11540
2534,11542
2537,11544
2539,11545
2539,11544
2541,11538
2546,11526
2554,11505
2564,11480
2573,11455
2581,11434
2586,11422
2588,11416
2588,11415
" style="stroke:#000000;stroke-width:0;
stroke-linejoin:bevel; stroke-linecap:butt;
fill:#000000;
"/>
<!-- Line -->
<!--  polyline  -->
<polyline points="2091,11687
1578,11687
" style="stroke:#000000;stroke-width:7;
stroke-linejoin:miter; stroke-linecap:butt;
"/>
<!-- Line -->
<!--  spline  -->
<polyline points="2151,11687
2150,11687
2145,11684
2132,11679
2112,11671
2087,11661
2062,11652
2042,11644
2029,11639
2024,11636
2023,11636
2023,11637
2022,11640
2020,11644
2019,11647
2019,11648
2019,11650
2018,11653
2018,11656
2017,11660
2016,11664
2016,11665
2016,11667
2015,11670
2015,11673
2014,11674
2014,11675
2014,11676
2014,11679
2014,11682
2013,11684
2013,11686
2013,11687
2013,11689
2014,11693
2014,11695
2014,11696
2014,11698
2015,11701
2015,11704
2016,11707
2016,11709
2016,11710
2017,11714
2018,11718
2018,11719
2018,11720
2018,11722
2019,11726
2020,11731
2021,11734
2022,11737
2023,11739
2024,11739
2029,11736
2042,11731
2062,11723
2087,11713
2112,11703
2132,11695
2145,11690
2150,11687
2151,11687
" style="stroke:#000000;stroke-width:0;
stroke-linejoin:bevel; stroke-linecap:butt;
fill:#000000;
"/>
<!-- Line -->
<!--  polyline  -->
<polyline points="1572,12439
1572,12439
1572,12439
" style="stroke:#000000;stroke-width:7;
stroke-linejoin:miter; stroke-linecap:butt;
"/>
<!-- Line -->
<!--  spline  -->
<polyline points="1425,12439
1426,12439
1432,12438
1442,12438
1448,12437
1449,12437
1450,12437
1452,12436
1457,12436
1463,12434
1471,12432
1478,12430
1481,12429
1482,12428
1485,12427
1492,12424
1499,12421
1501,12419
1502,12419
1505,12417
1511,12413
1518,12408
1523,12404
1526,12401
1529,12399
1530,12398
1534,12394
1539,12387
1543,12383
1544,12382
1546,12379
1549,12376
1552,12371
1556,12364
1559,12358
1561,12355
1561,12354
1562,12352
1565,12345
1567,12338
1568,12335
1568,12334
1569,12331
1570,12324
1571,12316
1572,12310
1572,12305
1572,12303
1572,12302
1572,12301
1571,12295
1571,12287
1570,12281
1570,12280
1570,12279
1569,12277
1569,12273
1567,12267
1565,12260
1562,12253
1561,12250
1561,12249
1559,12246
1556,12240
1552,12234
1551,12231
1550,12230
1548,12228
1544,12222
1539,12216
1535,12212
1531,12208
1529,12206
1528,12205
1523,12201
1517,12196
1512,12192
1511,12191
1508,12189
1504,12187
1499,12184
1492,12180
1485,12177
1482,12176
1481,12175
1478,12174
1471,12172
1464,12170
1461,12169
1460,12169
1457,12168
1449,12167
1440,12166
1434,12166
1429,12166
1426,12166
1425,12166
1424,12166
1418,12166
1409,12167
1403,12167
1402,12167
1401,12167
1399,12168
1394,12168
1388,12170
1380,12172
1373,12174
1370,12175
1369,12176
1366,12177
1359,12180
1352,12183
1350,12185
1349,12185
1346,12187
1340,12191
1333,12196
1328,12200
1325,12203
1322,12206
1321,12207
1317,12211
1311,12217
1307,12221
1306,12222
1304,12225
1301,12228
1298,12233
1294,12240
1291,12246
1290,12249
1289,12250
1288,12253
1286,12260
1284,12267
1283,12269
1283,12270
1282,12273
1281,12280
1280,12288
1279,12294
1279,12299
1279,12301
1279,12302
1279,12303
1280,12309
1280,12317
1281,12323
1281,12324
1281,12325
1282,12327
1282,12332
1284,12338
1286,12345
1288,12352
1289,12354
1290,12355
1291,12358
1294,12364
1298,12370
1299,12373
1300,12374
1301,12376
1306,12382
1311,12388
1316,12393
1319,12396
1322,12399
1323,12400
1328,12403
1334,12409
1339,12412
1340,12413
1343,12415
1347,12417
1352,12420
1359,12424
1366,12427
1369,12428
1370,12429
1373,12430
1380,12432
1387,12434
1390,12435
1391,12435
1394,12436
1402,12437
1410,12438
1417,12439
1421,12439
1424,12439
1425,12439
" style="stroke:#ffffff;stroke-width:0;
stroke-linejoin:bevel; stroke-linecap:butt;
fill:#ffffff;
"/>
<!-- Line -->
<!--  spline  -->
<polyline points="1425,12439
1426,12439
1432,12438
1442,12438
1448,12437
1449,12437
1450,12437
1452,12436
1457,12436
1463,12434
1471,12432
1478,12430
1481,12429
1482,12428
1485,12427
1492,12424
1499,12421
1501,12419
1502,12419
1505,12417
1511,12413
1518,12408
1523,12404
1526,12401
1529,12399
1530,12398
1534,12394
1539,12387
1543,12383
1544,12382
1546,12379
1549,12376
1552,12371
1556,12364
1559,12358
1561,12355
1561,12354
1562,12352
1565,12345
1567,12338
1568,12335
1568,12334
1569,12331
1570,12324
1571,12316
1572,12310
1572,12305
1572,12303
1572,12302
1572,12301
1571,12295
1571,12287
1570,12281
1570,12280
1570,12279
1569,12277
1569,12273
1567,12267
1565,12260
1562,12253
1561,12250
1561,12249
1559,12246
1556,12240
1552,12234
1551,12231
1550,12230
1548,12228
1544,12222
1539,12216
1535,12212
1531,12208
1529,12206
1528,12205
1523,12201
1517,12196
1512,12192
1511,12191
1508,12189
1504,12187
1499,12184
1492,12180
1485,12177
1482,12176
1481,12175
1478,12174
1471,12172
1464,12170
1461,12169
1460,12169
1457,12168
1449,12167
1440,12166
1434,12166
1429,12166
1426,12166
1425,12166
1424,12166
1418,12166
1409,12167
1403,12167
1402,12167
1401,12167
1399,12168
1394,12168
1388,12170
1380,12172
1373,12174
1370,12175
1369,12176
1366,12177
1359,12180
1352,12183
1350,12185
1349,12185
1346,12187
1340,12191
1333,12196
1328,12200
1325,12203
1322,12206
1321,12207
1317,12211
1311,12217
1307,12221
1306,12222
1304,12225
1301,12228
1298,12233
1294,12240
1291,12246
1290,12249
1289,12250
1288,12253
1286,12260
1284,12267
1283,12269
1283,12270
1282,12273
1281,12280
1280,12288
1279,12294
1279,12299
1279,12301
1279,12302
1279,12303
1280,12309
1280,12317
1281,12323
1281,12324
1281,12325
1282,12327
1282,12332
1284,12338
1286,12345
1288,12352
1289,12354
1290,12355
1291,12358
1294,12364
1298,12370
1299,12373
1300,12374
1301,12376
1306,12382
1311,12388
1316,12393
1319,12396
1322,12399
1323,12400
1328,12403
1334,12409
1339,12412
1340,12413
1343,12415
1347,12417
1352,12420
1359,12424
1366,12427
1369,12428
1370,12429
1373,12430
1380,12432
1387,12434
1390,12435
1391,12435
1394,12436
1402,12437
1410,12438
1417,12439
1421,12439
1424,12439
1425,12439
" style="stroke:#000000;stroke-width:15;
stroke-linejoin:bevel; stroke-linecap:butt;
"/>
<!-- Line -->
<!--  polyline  -->
<polyline points="2539,12533
2539,12533
2539,12533
" style="stroke:#000000;stroke-width:7;
stroke-linejoin:miter; stroke-linecap:butt;
"/>
<!-- Line -->
<!--  spline  -->
<polyline points="2343,12533
2345,12533
2353,12532
2364,12532
2372,12531
2374,12531
2375,12531
2379,12530
2385,12529
2393,12527
2404,12524
2414,12521
2418,12519
2419,12518
2423,12517
2432,12512
2441,12507
2445,12505
2446,12504
2450,12502
2458,12496
2467,12489
2474,12483
2478,12479
2481,12476
2482,12475
2483,12474
2488,12468
2496,12458
2501,12452
2502,12451
2503,12450
2505,12447
2509,12442
2514,12435
2519,12426
2523,12417
2525,12413
2526,12412
2527,12408
2530,12398
2533,12388
2534,12384
2534,12382
2535,12378
2537,12368
2538,12357
2539,12348
2539,12342
2539,12338
2539,12337
2539,12335
2538,12327
2538,12315
2537,12307
2537,12305
2537,12304
2536,12300
2535,12294
2533,12286
2530,12275
2527,12266
2526,12262
2525,12261
2523,12257
2519,12248
2514,12239
2512,12235
2511,12234
2508,12230
2502,12222
2495,12213
2490,12206
2485,12202
2483,12199
2482,12198
2481,12197
2475,12192
2465,12183
2459,12178
2458,12177
2457,12177
2454,12174
2449,12171
2442,12166
2432,12161
2423,12156
2419,12155
2418,12154
2414,12152
2404,12149
2394,12146
2390,12145
2388,12145
2384,12144
2374,12142
2363,12141
2354,12140
2348,12140
2344,12140
2343,12140
2341,12140
2333,12141
2321,12141
2313,12142
2311,12142
2310,12142
2307,12143
2300,12144
2292,12146
2282,12149
2272,12152
2269,12154
2267,12155
2263,12156
2254,12161
2245,12166
2241,12168
2240,12169
2236,12171
2228,12177
2219,12184
2212,12190
2208,12194
2205,12197
2204,12198
2203,12199
2198,12205
2189,12215
2184,12221
2183,12222
2183,12223
2180,12226
2177,12231
2172,12238
2167,12248
2163,12257
2161,12261
2161,12262
2159,12266
2156,12275
2153,12285
2152,12289
2152,12290
2151,12295
2149,12305
2148,12316
2147,12325
2147,12332
2147,12336
2147,12337
2147,12339
2148,12347
2148,12358
2149,12366
2149,12368
2149,12369
2150,12373
2151,12379
2153,12387
2156,12398
2159,12408
2161,12412
2161,12413
2163,12417
2167,12426
2172,12435
2174,12438
2175,12439
2177,12443
2183,12451
2190,12460
2196,12466
2200,12471
2203,12474
2204,12475
2205,12476
2211,12481
2221,12490
2227,12495
2228,12496
2229,12496
2232,12499
2237,12502
2244,12507
2254,12512
2263,12517
2267,12518
2269,12519
2272,12521
2282,12524
2292,12527
2295,12528
2297,12528
2301,12529
2311,12531
2322,12532
2331,12533
2338,12533
2342,12533
2343,12533
" style="stroke:#ffffff;stroke-width:0;
stroke-linejoin:bevel; stroke-linecap:butt;
fill:#ffffff;
"/>
<!-- Line -->
<!--  spline  -->
<polyline points="2343,12533
2345,12533
2353,12532
2364,12532
2372,12531
2374,12531
2375,12531
2379,12530
2385,12529
2393,12527
2404,12524
2414,12521
2418,12519
2419,12518
2423,12517
2432,12512
2441,12507
2445,12505
2446,12504
2450,12502
2458,12496
2467,12489
2474,12483
2478,12479
2481,12476
2482,12475
2483,12474
2488,12468
2496,12458
2501,12452
2502,12451
2503,12450
2505,12447
2509,12442
2514,12435
2519,12426
2523,12417
2525,12413
2526,12412
2527,12408
2530,12398
2533,12388
2534,12384
2534,12382
2535,12378
2537,12368
2538,12357
2539,12348
2539,12342
2539,12338
2539,12337
2539,12335
2538,12327
2538,12315
2537,12307
2537,12305
2537,12304
2536,12300
2535,12294
2533,12286
2530,12275
2527,12266
2526,12262
2525,12261
2523,12257
2519,12248
2514,12239
2512,12235
2511,12234
2508,12230
2502,12222
2495,12213
2490,12206
2485,12202
2483,12199
2482,12198
2481,12197
2475,12192
2465,12183
2459,12178
2458,12177
2457,12177
2454,12174
2449,12171
2442,12166
2432,12161
2423,12156
2419,12155
2418,12154
2414,12152
2404,12149
2394,12146
2390,12145
2388,12145
2384,12144
2374,12142
2363,12141
2354,12140
2348,12140
2344,12140
2343,12140
2341,12140
2333,12141
2321,12141
2313,12142
2311,12142
2310,12142
2307,12143
2300,12144
2292,12146
2282,12149
2272,12152
2269,12154
2267,12155
2263,12156
2254,12161
2245,12166
2241,12168
2240,12169
2236,12171
2228,12177
2219,12184
2212,12190
2208,12194
2205,12197
2204,12198
2203,12199
2198,12205
2189,12215
2184,12221
2183,12222
2183,12223
2180,12226
2177,12231
2172,12238
2167,12248
2163,12257
2161,12261
2161,12262
2159,12266
2156,12275
2153,12285
2152,12289
2152,12290
2151,12295
2149,12305
2148,12316
2147,12325
2147,12332
2147,12336
2147,12337
2147,12339
2148,12347
2148,12358
2149,12366
2149,12368
2149,12369
2150,12373
2151,12379
2153,12387
2156,12398
2159,12408
2161,12412
2161,12413
2163,12417
2167,12426
2172,12435
2174,12438
2175,12439
2177,12443
2183,12451
2190,12460
2196,12466
2200,12471
2203,12474
2204,12475
2205,12476
2211,12481
2221,12490
2227,12495
2228,12496
2229,12496
2232,12499
2237,12502
2244,12507
2254,12512
2263,12517
2267,12518
2269,12519
2272,12521
2282,12524
2292,12527
2295,12528
2297,12528
2301,12529
2311,12531
2322,12532
2331,12533
2338,12533
2342,12533
2343,12533
" style="stroke:#000000;stroke-width:15;
stroke-linejoin:bevel; stroke-linecap:butt;
"/>
<!-- Line -->
<!--  polyline  -->
<polyline points="2550,12071
2085,12575
" style="stroke:#000000;stroke-width:7;
stroke-linejoin:miter; stroke-linecap:butt;
"/>
<!-- Line -->
<!--  spline  -->
<polyline points="2588,12030
2587,12030
2582,12033
2569,12039
2550,12048
2525,12060
2501,12072
2482,12081
2469,12087
2464,12090
2463,12090
2463,12091
2465,12093
2468,12098
2470,12100
2470,12101
2471,12102
2473,12104
2475,12107
2477,12110
2479,12113
2480,12114
2480,12115
2481,12116
2483,12119
2485,12122
2486,12123
2487,12124
2489,12126
2491,12128
2493,12129
2494,12130
2495,12131
2497,12133
2499,12134
2501,12136
2502,12137
2503,12138
2505,12140
2508,12142
2511,12144
2512,12144
2513,12145
2514,12145
2517,12147
2520,12149
2522,12150
2523,12151
2527,12153
2531,12155
2534,12157
2537,12159
2539,12160
2539,12159
2541,12153
2546,12141
2554,12120
2564,12095
2573,12070
2581,12049
2586,12037
2588,12031
2588,12030
" style="stroke:#000000;stroke-width:0;
stroke-linejoin:bevel; stroke-linecap:butt;
fill:#000000;
"/>
<!-- Line -->
<!--  polyline  -->
<polyline points="2091,12302
1578,12302
" style="stroke:#000000;stroke-width:7;
stroke-linejoin:miter; stroke-linecap:butt;
"/>
<!-- Line -->
<!--  spline  -->
<polyline points="2151,12302
2150,12302
2145,12299
2132,12294
2112,12286
2087,12276
2062,12267
2042,12259
2029,12254
2024,12251
2023,12251
2023,12252
2022,12255
2020,12259
2019,12262
2019,12263
2019,12265
2018,12268
2018,12271
2017,12275
2016,12279
2016,12280
2016,12282
2015,12285
2015,12288
2014,12289
2014,12290
2014,12291
2014,12294
2014,12297
2013,12299
2013,12301
2013,12302
2013,12304
2014,12308
2014,12310
2014,12311
2014,12313
2015,12316
2015,12319
2016,12322
2016,12324
2016,12325
2017,12329
2018,12333
2018,12334
2018,12335
2018,12337
2019,12341
2020,12346
2021,12349
2022,12352
2023,12354
2024,12354
2029,12351
2042,12346
2062,12338
2087,12328
2112,12318
2132,12310
2145,12305
2150,12302
2151,12302
" style="stroke:#000000;stroke-width:0;
stroke-linejoin:bevel; stroke-linecap:butt;
fill:#000000;
"/>
<!-- Line -->
<!--  polyline  -->
<polyline points="1572,11209
1572,11209
1572,11209
" style="stroke:#000000;stroke-width:7;
stroke-linejoin:miter; stroke-linecap:butt;
"/>
<!-- Line -->
<!--  spline  -->
<polyline points="1425,11209
1426,11209
1432,11208
1442,11208
1448,11207
1449,11207
1450,11207
1452,11206
1457,11206
1463,11204
1471,11202
1478,11200
1481,11199
1482,11198
1485,11197
1492,11194
1499,11191
1501,11189
1502,11189
1505,11187
1511,11183
1518,11178
1523,11174
1526,11171
1529,11169
1530,11168
1534,11164
1539,11157
1543,11153
1544,11152
1546,11149
1549,11146
1552,11141
1556,11134
1559,11128
1561,11125
1561,11124
1562,11122
1565,11115
1567,11108
1568,11105
1568,11104
1569,11101
1570,11094
1571,11086
1572,11080
1572,11075
1572,11073
1572,11072
1572,11071
1571,11065
1571,11057
1570,11051
1570,11050
1570,11049
1569,11047
1569,11043
1567,11037
1565,11030
1562,11023
1561,11020
1561,11019
1559,11016
1556,11010
1552,11004
1551,11001
1550,11000
1548,10998
1544,10992
1539,10986
1535,10982
1531,10978
1529,10976
1528,10975
1523,10971
1517,10966
1512,10962
1511,10961
1508,10959
1504,10957
1499,10954
1492,10950
1485,10947
1482,10946
1481,10945
1478,10944
1471,10942
1464,10940
1461,10939
1460,10939
1457,10938
1449,10937
1440,10936
1434,10936
1429,10936
1426,10936
1425,10936
1424,10936
1418,10936
1409,10937
1403,10937
1402,10937
1401,10937
1399,10938
1394,10938
1388,10940
1380,10942
1373,10944
1370,10945
1369,10946
1366,10947
1359,10950
1352,10953
1350,10955
1349,10955
1346,10957
1340,10961
1333,10966
1328,10970
1325,10973
1322,10976
1321,10977
1317,10981
1311,10987
1307,10991
1306,10992
1304,10995
1301,10998
1298,11003
1294,11010
1291,11016
1290,11019
1289,11020
1288,11023
1286,11030
1284,11037
1283,11039
1283,11040
1282,11043
1281,11050
1280,11058
1279,11064
1279,11069
1279,11071
1279,11072
1279,11073
1280,11079
1280,11087
1281,11093
1281,11094
1281,11095
1282,11097
1282,11102
1284,11108
1286,11115
1288,11122
1289,11124
1290,11125
1291,11128
1294,11134
1298,11140
1299,11143
1300,11144
1301,11146
1306,11152
1311,11158
1316,11163
1319,11166
1322,11169
1323,11170
1328,11173
1334,11179
1339,11182
1340,11183
1343,11185
1347,11187
1352,11190
1359,11194
1366,11197
1369,11198
1370,11199
1373,11200
1380,11202
1387,11204
1390,11205
1391,11205
1394,11206
1402,11207
1410,11208
1417,11209
1421,11209
1424,11209
1425,11209
" style="stroke:#ffffff;stroke-width:0;
stroke-linejoin:bevel; stroke-linecap:butt;
fill:#ffffff;
"/>
<!-- Line -->
<!--  spline  -->
<polyline points="1425,11209
1426,11209
1432,11208
1442,11208
1448,11207
1449,11207
1450,11207
1452,11206
1457,11206
1463,11204
1471,11202
1478,11200
1481,11199
1482,11198
1485,11197
1492,11194
1499,11191
1501,11189
1502,11189
1505,11187
1511,11183
1518,11178
1523,11174
1526,11171
1529,11169
1530,11168
1534,11164
1539,11157
1543,11153
1544,11152
1546,11149
1549,11146
1552,11141
1556,11134
1559,11128
1561,11125
1561,11124
1562,11122
1565,11115
1567,11108
1568,11105
1568,11104
1569,11101
1570,11094
1571,11086
1572,11080
1572,11075
1572,11073
1572,11072
1572,11071
1571,11065
1571,11057
1570,11051
1570,11050
1570,11049
1569,11047
1569,11043
1567,11037
1565,11030
1562,11023
1561,11020
1561,11019
1559,11016
1556,11010
1552,11004
1551,11001
1550,11000
1548,10998
1544,10992
1539,10986
1535,10982
1531,10978
1529,10976
1528,10975
1523,10971
1517,10966
1512,10962
1511,10961
1508,10959
1504,10957
1499,10954
1492,10950
1485,10947
1482,10946
1481,10945
1478,10944
1471,10942
1464,10940
1461,10939
1460,10939
1457,10938
1449,10937
1440,10936
1434,10936
1429,10936
1426,10936
1425,10936
1424,10936
1418,10936
1409,10937
1403,10937
1402,10937
1401,10937
1399,10938
1394,10938
1388,10940
1380,10942
1373,10944
1370,10945
1369,10946
1366,10947
1359,10950
1352,10953
1350,10955
1349,10955
1346,10957
1340,10961
1333,10966
1328,10970
1325,10973
1322,10976
1321,10977
1317,10981
1311,10987
1307,10991
1306,10992
1304,10995
1301,10998
1298,11003
1294,11010
1291,11016
1290,11019
1289,11020
1288,11023
1286,11030
1284,11037
1283,11039
1283,11040
1282,11043
1281,11050
1280,11058
1279,11064
1279,11069
1279,11071
1279,11072
1279,11073
1280,11079
1280,11087
1281,11093
1281,11094
1281,11095
1282,11097
1282,11102
1284,11108
1286,11115
1288,11122
1289,11124
1290,11125
1291,11128
1294,11134
1298,11140
1299,11143
1300,11144
1301,11146
1306,11152
1311,11158
1316,11163
1319,11166
1322,11169
1323,11170
1328,11173
1334,11179
1339,11182
1340,11183
1343,11185
1347,11187
1352,11190
1359,11194
1366,11197
1369,11198
1370,11199
1373,11200
1380,11202
1387,11204
1390,11205
1391,11205
1394,11206
1402,11207
1410,11208
1417,11209
1421,11209
1424,11209
1425,11209
" style="stroke:#000000;stroke-width:15;
stroke-linejoin:bevel; stroke-linecap:butt;
"/>
<!-- Line -->
<!--  polyline  -->
<polyline points="2539,11303
2539,11303
2539,11303
" style="stroke:#000000;stroke-width:7;
stroke-linejoin:miter; stroke-linecap:butt;
"/>
<!-- Line -->
<!--  spline  -->
<polyline points="2343,11303
2345,11303
2353,11302
2364,11302
2372,11301
2374,11301
2375,11301
2379,11300
2385,11299
2393,11297
2404,11294
2414,11291
2418,11289
2419,11288
2423,11287
2432,11282
2441,11277
2445,11275
2446,11274
2450,11272
2458,11266
2467,11259
2474,11253
2478,11249
2481,11246
2482,11245
2483,11244
2488,11238
2496,11229
2501,11223
2502,11222
2503,11221
2505,11218
2509,11213
2514,11206
2519,11196
2523,11187
2525,11183
2526,11182
2527,11178
2530,11168
2533,11158
2534,11154
2534,11152
2535,11148
2537,11138
2538,11127
2539,11118
2539,11112
2539,11108
2539,11107
2539,11105
2538,11097
2538,11085
2537,11077
2537,11075
2537,11074
2536,11070
2535,11064
2533,11056
2530,11045
2527,11036
2526,11032
2525,11031
2523,11027
2519,11018
2514,11009
2512,11005
2511,11004
2508,11000
2502,10992
2495,10983
2490,10976
2485,10972
2483,10969
2482,10968
2481,10967
2475,10962
2465,10953
2459,10948
2458,10947
2457,10947
2454,10944
2449,10941
2442,10936
2432,10931
2423,10926
2419,10925
2418,10924
2414,10922
2404,10919
2394,10916
2390,10915
2388,10915
2384,10915
2374,10913
2363,10912
2354,10911
2348,10910
2344,10910
2343,10910
2341,10910
2333,10911
2321,10912
2313,10913
2311,10913
2310,10913
2307,10914
2300,10914
2292,10916
2282,10919
2272,10922
2269,10924
2267,10925
2263,10926
2254,10931
2245,10936
2241,10938
2240,10939
2236,10941
2228,10947
2219,10954
2212,10960
2208,10964
2205,10967
2204,10968
2203,10969
2198,10975
2189,10985
2184,10991
2183,10992
2183,10993
2180,10996
2177,11001
2172,11008
2167,11018
2163,11027
2161,11031
2161,11032
2159,11036
2156,11045
2153,11055
2152,11059
2152,11060
2151,11065
2149,11075
2148,11086
2147,11095
2147,11102
2147,11106
2147,11107
2147,11109
2148,11117
2148,11128
2149,11136
2149,11138
2149,11139
2150,11143
2151,11149
2153,11157
2156,11168
2159,11178
2161,11182
2161,11183
2163,11187
2167,11196
2172,11205
2174,11209
2175,11210
2177,11214
2183,11222
2190,11231
2196,11237
2200,11242
2203,11244
2204,11245
2205,11246
2211,11251
2221,11260
2227,11265
2228,11266
2229,11266
2232,11269
2237,11272
2244,11277
2254,11282
2263,11287
2267,11288
2269,11289
2272,11291
2282,11294
2292,11297
2295,11298
2297,11298
2301,11299
2311,11301
2322,11302
2331,11303
2338,11303
2342,11303
2343,11303
" style="stroke:#ffffff;stroke-width:0;
stroke-linejoin:bevel; stroke-linecap:butt;
fill:#ffffff;
"/>
<!-- Line -->
<!--  spline  -->
<polyline points="2343,11303
2345,11303
2353,11302
2364,11302
2372,11301
2374,11301
2375,11301
2379,11300
2385,11299
2393,11297
2404,11294
2414,11291
2418,11289
2419,11288
2423,11287
2432,11282
2441,11277
2445,11275
2446,11274
2450,11272
2458,11266
2467,11259
2474,11253
2478,11249
2481,11246
2482,11245
2483,11244
2488,11238
2496,11229
2501,11223
2502,11222
2503,11221
2505,11218
2509,11213
2514,11206
2519,11196
2523,11187
2525,11183
2526,11182
2527,11178
2530,11168
2533,11158
2534,11154
2534,11152
2535,11148
2537,11138
2538,11127
2539,11118
2539,11112
2539,11108
2539,11107
2539,11105
2538,11097
2538,11085
2537,11077
2537,11075
2537,11074
2536,11070
2535,11064
2533,11056
2530,11045
2527,11036
2526,11032
2525,11031
2523,11027
2519,11018
2514,11009
2512,11005
2511,11004
2508,11000
2502,10992
2495,10983
2490,10976
2485,10972
2483,10969
2482,10968
2481,10967
2475,10962
2465,10953
2459,10948
2458,10947
2457,10947
2454,10944
2449,10941
2442,10936
2432,10931
2423,10926
2419,10925
2418,10924
2414,10922
2404,10919
2394,10916
2390,10915
2388,10915
2384,10915
2374,10913
2363,10912
2354,10911
2348,10910
2344,10910
2343,10910
2341,10910
2333,10911
2321,10912
2313,10913
2311,10913
2310,10913
2307,10914
2300,10914
2292,10916
2282,10919
2272,10922
2269,10924
2267,10925
2263,10926
2254,10931
2245,10936
2241,10938
2240,10939
2236,10941
2228,10947
2219,10954
2212,10960
2208,10964
2205,10967
2204,10968
2203,10969
2198,10975
2189,10985
2184,10991
2183,10992
2183,10993
2180,10996
2177,11001
2172,11008
2167,11018
2163,11027
2161,11031
2161,11032
2159,11036
2156,11045
2153,11055
2152,11059
2152,11060
2151,11065
2149,11075
2148,11086
2147,11095
2147,11102
2147,11106
2147,11107
2147,11109
2148,11117
2148,11128
2149,11136
2149,11138
2149,11139
2150,11143
2151,11149
2153,11157
2156,11168
2159,11178
2161,11182
2161,11183
2163,11187
2167,11196
2172,11205
2174,11209
2175,11210
2177,11214
2183,11222
2190,11231
2196,11237
2200,11242
2203,11244
2204,11245
2205,11246
2211,11251
2221,11260
2227,11265
2228,11266
2229,11266
2232,11269
2237,11272
2244,11277
2254,11282
2263,11287
2267,11288
2269,11289
2272,11291
2282,11294
2292,11297
2295,11298
2297,11298
2301,11299
2311,11301
2322,11302
2331,11303
2338,11303
2342,11303
2343,11303
" style="stroke:#000000;stroke-width:15;
stroke-linejoin:bevel; stroke-linecap:butt;
"/>
<!-- Line -->
<!--  polyline  -->
<polyline points="2550,10842
2085,11345
" style="stroke:#000000;stroke-width:7;
stroke-linejoin:miter; stroke-linecap:butt;
"/>
<!-- Line -->
<!--  spline  -->
<polyline points="2588,10800
2587,10800
2582,10803
2569,10809
2550,10818
2525,10830
2501,10842
2482,10851
2469,10857
2464,10860
2463,10860
2463,10861
2465,10863
2468,10868
2470,10870
2470,10871
2471,10873
2473,10875
2475,10878
2477,10881
2479,10884
2480,10885
2481,10886
2483,10889
2485,10891
2486,10893
2487,10894
2489,10896
2491,10898
2493,10899
2494,10900
2495,10901
2497,10903
2499,10905
2501,10907
2502,10908
2503,10909
2505,10910
2508,10912
2511,10914
2512,10915
2513,10915
2514,10916
2517,10918
2520,10920
2522,10920
2523,10921
2527,10923
2531,10925
2534,10927
2537,10929
2539,10930
2539,10929
2541,10923
2546,10911
2554,10890
2564,10865
2573,10840
2581,10819
2586,10807
2588,10801
2588,10800
" style="stroke:#000000;stroke-width:0;
stroke-linejoin:bevel; stroke-linecap:butt;
fill:#000000;
"/>
<!-- Line -->
<!--  polyline  -->
<polyline points="2091,11072
1578,11072
" style="stroke:#000000;stroke-width:7;
stroke-linejoin:miter; stroke-linecap:butt;
"/>
<!-- Line -->
<!--  spline  -->
<polyline points="2151,11072
2150,11072
2145,11069
2132,11064
2112,11056
2087,11046
2062,11037
2042,11029
2029,11024
2024,11021
2023,11021
2023,11022
2022,11025
2020,11029
2019,11032
2019,11033
2019,11035
2018,11038
2018,11041
2017,11045
2016,11049
2016,11050
2016,11052
2015,11055
2015,11058
2014,11059
2014,11060
2014,11061
2014,11064
2014,11067
2013,11069
2013,11071
2013,11072
2013,11074
2014,11078
2014,11080
2014,11081
2014,11083
2015,11086
2015,11089
2016,11092
2016,11094
2016,11095
2017,11099
2018,11103
2018,11104
2018,11105
2018,11107
2019,11111
2020,11116
2021,11119
2022,11122
2023,11124
2024,11124
2029,11121
2042,11116
2062,11108
2087,11098
2112,11088
2132,11080
2145,11075
2150,11072
2151,11072
" style="stroke:#000000;stroke-width:0;
stroke-linejoin:bevel; stroke-linecap:butt;
fill:#000000;
"/>
<!-- Line -->
<!--  polyline  -->
<polyline points="1588,10594
1588,10594
1588,10594
" style="stroke:#000000;stroke-width:7;
stroke-linejoin:miter; stroke-linecap:butt;
"/>
<!-- Line -->
<!--  spline  -->
<polyline points="1442,10594
1443,10594
1449,10593
1458,10593
1464,10592
1465,10592
1466,10592
1468,10591
1473,10591
1479,10589
1487,10587
1494,10585
1497,10584
1498,10583
1501,10582
1508,10579
1515,10576
1517,10574
1518,10574
1521,10572
1527,10568
1534,10563
1539,10559
1542,10556
1545,10554
1546,10553
1550,10549
1556,10542
1560,10538
1561,10537
1563,10534
1566,10531
1569,10526
1573,10519
1576,10513
1577,10510
1578,10509
1579,10507
1581,10500
1583,10493
1584,10490
1584,10489
1585,10486
1586,10479
1587,10471
1588,10465
1588,10460
1588,10458
1588,10457
1588,10456
1587,10450
1587,10442
1586,10436
1586,10435
1586,10434
1585,10432
1585,10428
1583,10422
1581,10415
1579,10408
1578,10405
1577,10404
1576,10401
1573,10395
1569,10389
1568,10386
1567,10385
1566,10383
1561,10377
1556,10371
1551,10367
1548,10363
1545,10361
1544,10360
1539,10356
1533,10351
1528,10347
1527,10346
1524,10344
1520,10342
1515,10339
1508,10335
1501,10332
1498,10331
1497,10330
1494,10329
1487,10327
1480,10325
1477,10324
1476,10324
1473,10323
1465,10322
1457,10321
1450,10321
1446,10321
1443,10321
1442,10321
1441,10321
1435,10321
1425,10322
1419,10322
1418,10322
1417,10322
1415,10323
1410,10323
1404,10325
1396,10327
1389,10329
1386,10330
1385,10331
1383,10332
1376,10335
1369,10338
1366,10340
1365,10340
1362,10342
1356,10346
1349,10351
1344,10355
1341,10358
1338,10361
1337,10362
1333,10366
1328,10372
1324,10376
1323,10377
1321,10380
1318,10383
1315,10388
1311,10395
1308,10401
1306,10404
1306,10405
1305,10408
1302,10415
1300,10422
1299,10424
1299,10425
1298,10428
1297,10435
1296,10443
1296,10449
1296,10454
1296,10456
1296,10457
1296,10458
1296,10464
1297,10472
1297,10478
1297,10479
1297,10480
1298,10482
1298,10487
1300,10493
1302,10500
1305,10507
1306,10509
1306,10510
1308,10513
1311,10519
1315,10525
1316,10528
1317,10529
1319,10531
1323,10537
1328,10543
1332,10548
1336,10551
1338,10554
1339,10555
1344,10558
1350,10564
1355,10567
1356,10568
1357,10568
1359,10570
1363,10572
1369,10575
1376,10579
1383,10582
1385,10583
1386,10584
1389,10585
1396,10587
1403,10589
1406,10590
1407,10590
1410,10591
1418,10592
1427,10593
1433,10594
1438,10594
1441,10594
1442,10594
" style="stroke:#ffffff;stroke-width:0;
stroke-linejoin:bevel; stroke-linecap:butt;
fill:#ffffff;
"/>
<!-- Line -->
<!--  spline  -->
<polyline points="1442,10594
1443,10594
1449,10593
1458,10593
1464,10592
1465,10592
1466,10592
1468,10591
1473,10591
1479,10589
1487,10587
1494,10585
1497,10584
1498,10583
1501,10582
1508,10579
1515,10576
1517,10574
1518,10574
1521,10572
1527,10568
1534,10563
1539,10559
1542,10556
1545,10554
1546,10553
1550,10549
1556,10542
1560,10538
1561,10537
1563,10534
1566,10531
1569,10526
1573,10519
1576,10513
1577,10510
1578,10509
1579,10507
1581,10500
1583,10493
1584,10490
1584,10489
1585,10486
1586,10479
1587,10471
1588,10465
1588,10460
1588,10458
1588,10457
1588,10456
1587,10450
1587,10442
1586,10436
1586,10435
1586,10434
1585,10432
1585,10428
1583,10422
1581,10415
1579,10408
1578,10405
1577,10404
1576,10401
1573,10395
1569,10389
1568,10386
1567,10385
1566,10383
1561,10377
1556,10371
1551,10367
1548,10363
1545,10361
1544,10360
1539,10356
1533,10351
1528,10347
1527,10346
1524,10344
1520,10342
1515,10339
1508,10335
1501,10332
1498,10331
1497,10330
1494,10329
1487,10327
1480,10325
1477,10324
1476,10324
1473,10323
1465,10322
1457,10321
1450,10321
1446,10321
1443,10321
1442,10321
1441,10321
1435,10321
1425,10322
1419,10322
1418,10322
1417,10322
1415,10323
1410,10323
1404,10325
1396,10327
1389,10329
1386,10330
1385,10331
1383,10332
1376,10335
1369,10338
1366,10340
1365,10340
1362,10342
1356,10346
1349,10351
1344,10355
1341,10358
1338,10361
1337,10362
1333,10366
1328,10372
1324,10376
1323,10377
1321,10380
1318,10383
1315,10388
1311,10395
1308,10401
1306,10404
1306,10405
1305,10408
1302,10415
1300,10422
1299,10424
1299,10425
1298,10428
1297,10435
1296,10443
1296,10449
1296,10454
1296,10456
1296,10457
1296,10458
1296,10464
1297,10472
1297,10478
1297,10479
1297,10480
1298,10482
1298,10487
1300,10493
1302,10500
1305,10507
1306,10509
1306,10510
1308,10513
1311,10519
1315,10525
1316,10528
1317,10529
1319,10531
1323,10537
1328,10543
1332,10548
1336,10551
1338,10554
1339,10555
1344,10558
1350,10564
1355,10567
1356,10568
1357,10568
1359,10570
1363,10572
1369,10575
1376,10579
1383,10582
1385,10583
1386,10584
1389,10585
1396,10587
1403,10589
1406,10590
1407,10590
1410,10591
1418,10592
1427,10593
1433,10594
1438,10594
1441,10594
1442,10594
" style="stroke:#000000;stroke-width:15;
stroke-linejoin:bevel; stroke-linecap:butt;
"/>
<!-- Line -->
<!--  polyline  -->
<polyline points="2556,10688
2556,10688
2556,10688
" style="stroke:#000000;stroke-width:7;
stroke-linejoin:miter; stroke-linecap:butt;
"/>
<!-- Line -->
<!--  spline  -->
<polyline points="2360,10688
2362,10688
2370,10687
2381,10687
2389,10686
2391,10686
2392,10686
2396,10685
2402,10684
2410,10682
2421,10679
2431,10676
2435,10674
2436,10673
2440,10672
2449,10667
2458,10662
2461,10660
2462,10659
2466,10657
2474,10651
2483,10644
2489,10638
2494,10634
2497,10631
2498,10630
2499,10629
2504,10623
2513,10614
2518,10608
2519,10607
2519,10606
2522,10603
2525,10598
2530,10591
2535,10581
2540,10572
2541,10568
2542,10567
2544,10563
2547,10553
2550,10543
2551,10539
2551,10537
2552,10533
2554,10523
2555,10512
2556,10503
2556,10497
2556,10493
2556,10492
2556,10490
2555,10482
2555,10470
2554,10462
2554,10460
2554,10459
2553,10455
2552,10449
2550,10441
2547,10430
2544,10421
2542,10417
2541,10416
2540,10412
2535,10403
2530,10394
2528,10390
2527,10389
2525,10385
2519,10377
2512,10368
2506,10361
2502,10357
2499,10354
2498,10353
2497,10352
2491,10347
2481,10338
2475,10333
2474,10332
2473,10332
2470,10329
2465,10326
2458,10321
2449,10316
2440,10312
2436,10310
2435,10310
2431,10308
2421,10305
2411,10302
2407,10301
2405,10301
2401,10300
2391,10298
2380,10296
2371,10296
2365,10295
2361,10295
2360,10295
2358,10295
2350,10296
2338,10297
2330,10298
2328,10298
2327,10298
2323,10299
2317,10300
2309,10302
2298,10305
2289,10308
2285,10310
2284,10310
2280,10312
2271,10316
2262,10321
2258,10323
2257,10324
2253,10326
2245,10332
2236,10339
2229,10345
2225,10349
2222,10352
2221,10353
2220,10354
2215,10360
2206,10370
2201,10376
2200,10377
2200,10378
2197,10381
2194,10386
2189,10393
2184,10403
2179,10412
2178,10416
2177,10417
2175,10421
2172,10430
2169,10440
2168,10444
2168,10445
2168,10450
2166,10460
2165,10471
2164,10480
2163,10487
2163,10491
2163,10492
2163,10494
2164,10502
2165,10513
2166,10521
2166,10523
2166,10524
2167,10528
2167,10534
2169,10542
2172,10553
2175,10563
2177,10567
2178,10568
2179,10572
2184,10581
2189,10590
2191,10594
2192,10595
2194,10599
2200,10607
2207,10616
2213,10622
2217,10627
2220,10629
2221,10630
2222,10631
2228,10636
2238,10645
2244,10650
2245,10651
2246,10651
2249,10654
2254,10657
2261,10662
2271,10667
2280,10672
2284,10673
2285,10674
2289,10676
2298,10679
2308,10682
2312,10683
2313,10683
2318,10684
2328,10686
2339,10687
2348,10688
2355,10688
2359,10688
2360,10688
" style="stroke:#ffffff;stroke-width:0;
stroke-linejoin:bevel; stroke-linecap:butt;
fill:#ffffff;
"/>
<!-- Line -->
<!--  spline  -->
<polyline points="2360,10688
2362,10688
2370,10687
2381,10687
2389,10686
2391,10686
2392,10686
2396,10685
2402,10684
2410,10682
2421,10679
2431,10676
2435,10674
2436,10673
2440,10672
2449,10667
2458,10662
2461,10660
2462,10659
2466,10657
2474,10651
2483,10644
2489,10638
2494,10634
2497,10631
2498,10630
2499,10629
2504,10623
2513,10614
2518,10608
2519,10607
2519,10606
2522,10603
2525,10598
2530,10591
2535,10581
2540,10572
2541,10568
2542,10567
2544,10563
2547,10553
2550,10543
2551,10539
2551,10537
2552,10533
2554,10523
2555,10512
2556,10503
2556,10497
2556,10493
2556,10492
2556,10490
2555,10482
2555,10470
2554,10462
2554,10460
2554,10459
2553,10455
2552,10449
2550,10441
2547,10430
2544,10421
2542,10417
2541,10416
2540,10412
2535,10403
2530,10394
2528,10390
2527,10389
2525,10385
2519,10377
2512,10368
2506,10361
2502,10357
2499,10354
2498,10353
2497,10352
2491,10347
2481,10338
2475,10333
2474,10332
2473,10332
2470,10329
2465,10326
2458,10321
2449,10316
2440,10312
2436,10310
2435,10310
2431,10308
2421,10305
2411,10302
2407,10301
2405,10301
2401,10300
2391,10298
2380,10296
2371,10296
2365,10295
2361,10295
2360,10295
2358,10295
2350,10296
2338,10297
2330,10298
2328,10298
2327,10298
2323,10299
2317,10300
2309,10302
2298,10305
2289,10308
2285,10310
2284,10310
2280,10312
2271,10316
2262,10321
2258,10323
2257,10324
2253,10326
2245,10332
2236,10339
2229,10345
2225,10349
2222,10352
2221,10353
2220,10354
2215,10360
2206,10370
2201,10376
2200,10377
2200,10378
2197,10381
2194,10386
2189,10393
2184,10403
2179,10412
2178,10416
2177,10417
2175,10421
2172,10430
2169,10440
2168,10444
2168,10445
2168,10450
2166,10460
2165,10471
2164,10480
2163,10487
2163,10491
2163,10492
2163,10494
2164,10502
2165,10513
2166,10521
2166,10523
2166,10524
2167,10528
2167,10534
2169,10542
2172,10553
2175,10563
2177,10567
2178,10568
2179,10572
2184,10581
2189,10590
2191,10594
2192,10595
2194,10599
2200,10607
2207,10616
2213,10622
2217,10627
2220,10629
2221,10630
2222,10631
2228,10636
2238,10645
2244,10650
2245,10651
2246,10651
2249,10654
2254,10657
2261,10662
2271,10667
2280,10672
2284,10673
2285,10674
2289,10676
2298,10679
2308,10682
2312,10683
2313,10683
2318,10684
2328,10686
2339,10687
2348,10688
2355,10688
2359,10688
2360,10688
" style="stroke:#000000;stroke-width:15;
stroke-linejoin:bevel; stroke-linecap:butt;
"/>
<!-- Line -->
<!--  polyline  -->
<polyline points="2567,10227
2101,10730
" style="stroke:#000000;stroke-width:7;
stroke-linejoin:miter; stroke-linecap:butt;
"/>
<!-- Line -->
<!--  spline  -->
<polyline points="2605,10185
2604,10185
2599,10188
2586,10194
2567,10203
2542,10215
2518,10227
2499,10236
2486,10242
2481,10245
2480,10245
2480,10246
2482,10248
2485,10253
2487,10255
2487,10256
2488,10258
2490,10260
2492,10263
2494,10266
2496,10269
2497,10270
2498,10271
2500,10274
2502,10276
2503,10278
2504,10279
2506,10281
2508,10283
2509,10284
2510,10285
2511,10286
2513,10288
2515,10290
2517,10292
2518,10293
2520,10294
2522,10295
2525,10297
2528,10299
2529,10300
2530,10300
2531,10301
2534,10303
2537,10305
2539,10306
2541,10307
2544,10309
2548,10311
2551,10313
2553,10314
2555,10315
2555,10314
2558,10308
2562,10296
2570,10275
2580,10250
2590,10225
2598,10204
2602,10192
2605,10186
2605,10185
" style="stroke:#000000;stroke-width:0;
stroke-linejoin:bevel; stroke-linecap:butt;
fill:#000000;
"/>
<!-- Line -->
<!--  polyline  -->
<polyline points="2107,10457
1594,10457
" style="stroke:#000000;stroke-width:7;
stroke-linejoin:miter; stroke-linecap:butt;
"/>
<!-- Line -->
<!--  spline  -->
<polyline points="2168,10457
2167,10457
2162,10454
2149,10449
2128,10441
2103,10431
2079,10422
2058,10414
2045,10409
2040,10406
2039,10406
2039,10407
2038,10410
2037,10414
2036,10417
2036,10418
2035,10420
2035,10423
2034,10426
2033,10430
2032,10434
2032,10435
2032,10437
2032,10440
2032,10443
2032,10444
2031,10445
2031,10446
2031,10449
2031,10452
2030,10454
2030,10456
2030,10457
2030,10459
2031,10463
2031,10465
2031,10466
2031,10468
2032,10470
2032,10474
2032,10477
2032,10479
2032,10480
2032,10481
2033,10485
2034,10489
2034,10490
2034,10491
2035,10492
2036,10496
2037,10500
2038,10504
2039,10507
2039,10509
2040,10509
2045,10506
2058,10501
2079,10493
2104,10483
2128,10473
2149,10465
2162,10460
2167,10457
2168,10457
" style="stroke:#000000;stroke-width:0;
stroke-linejoin:bevel; stroke-linecap:butt;
fill:#000000;
"/>
<!-- Line -->
<!--  polyline  -->
<polyline points="1572,9979
1572,9979
1572,9979
" style="stroke:#000000;stroke-width:7;
stroke-linejoin:miter; stroke-linecap:butt;
"/>
<!-- Line -->
<!--  spline  -->
<polyline points="1425,9979
1426,9979
1432,9978
1442,9978
1448,9977
1449,9977
1450,9977
1452,9977
1457,9976
1463,9975
1471,9973
1478,9971
1481,9970
1482,9969
1485,9968
1492,9965
1499,9961
1501,9960
1502,9959
1505,9957
1511,9953
1518,9948
1523,9944
1526,9941
1529,9939
1530,9938
1534,9934
1539,9927
1543,9923
1544,9922
1546,9919
1549,9916
1552,9911
1556,9904
1559,9898
1561,9895
1561,9894
1562,9892
1565,9885
1567,9878
1568,9875
1568,9874
1569,9871
1570,9864
1571,9856
1572,9850
1572,9845
1572,9843
1572,9842
1572,9841
1571,9835
1571,9827
1570,9821
1570,9820
1570,9819
1569,9817
1569,9813
1567,9807
1565,9800
1562,9793
1561,9790
1561,9789
1559,9786
1556,9780
1552,9774
1551,9771
1550,9770
1548,9768
1544,9762
1539,9756
1535,9752
1531,9748
1529,9746
1528,9745
1523,9741
1517,9736
1512,9732
1511,9731
1508,9729
1504,9727
1499,9724
1492,9720
1485,9717
1482,9716
1481,9715
1478,9714
1471,9712
1464,9710
1461,9709
1460,9709
1457,9708
1449,9707
1440,9706
1434,9706
1429,9706
1426,9706
1425,9706
1424,9706
1418,9706
1409,9707
1403,9707
1402,9707
1401,9707
1399,9708
1394,9708
1388,9710
1380,9712
1373,9714
1370,9715
1369,9716
1366,9717
1359,9720
1352,9723
1350,9725
1349,9725
1346,9727
1340,9731
1333,9736
1328,9740
1325,9743
1322,9746
1321,9747
1317,9751
1311,9757
1307,9761
1306,9762
1304,9765
1301,9768
1298,9773
1294,9780
1291,9786
1290,9789
1289,9790
1288,9793
1286,9800
1284,9807
1283,9809
1283,9810
1282,9813
1281,9820
1280,9828
1279,9834
1279,9839
1279,9841
1279,9842
1279,9843
1280,9849
1280,9857
1281,9863
1281,9864
1281,9865
1282,9867
1282,9872
1284,9878
1286,9885
1288,9892
1289,9894
1290,9895
1291,9898
1294,9904
1298,9910
1299,9913
1300,9914
1301,9916
1306,9922
1311,9928
1316,9933
1319,9936
1322,9939
1323,9940
1328,9943
1334,9949
1339,9952
1340,9953
1343,9955
1347,9958
1352,9961
1359,9965
1366,9968
1369,9969
1370,9970
1373,9971
1380,9973
1387,9975
1390,9975
1391,9976
1394,9976
1402,9977
1410,9978
1417,9979
1421,9979
1424,9979
1425,9979
" style="stroke:#ffffff;stroke-width:0;
stroke-linejoin:bevel; stroke-linecap:butt;
fill:#ffffff;
"/>
<!-- Line -->
<!--  spline  -->
<polyline points="1425,9979
1426,9979
1432,9978
1442,9978
1448,9977
1449,9977
1450,9977
1452,9977
1457,9976
1463,9975
1471,9973
1478,9971
1481,9970
1482,9969
1485,9968
1492,9965
1499,9961
1501,9960
1502,9959
1505,9957
1511,9953
1518,9948
1523,9944
1526,9941
1529,9939
1530,9938
1534,9934
1539,9927
1543,9923
1544,9922
1546,9919
1549,9916
1552,9911
1556,9904
1559,9898
1561,9895
1561,9894
1562,9892
1565,9885
1567,9878
1568,9875
1568,9874
1569,9871
1570,9864
1571,9856
1572,9850
1572,9845
1572,9843
1572,9842
1572,9841
1571,9835
1571,9827
1570,9821
1570,9820
1570,9819
1569,9817
1569,9813
1567,9807
1565,9800
1562,9793
1561,9790
1561,9789
1559,9786
1556,9780
1552,9774
1551,9771
1550,9770
1548,9768
1544,9762
1539,9756
1535,9752
1531,9748
1529,9746
1528,9745
1523,9741
1517,9736
1512,9732
1511,9731
1508,9729
1504,9727
1499,9724
1492,9720
1485,9717
1482,9716
1481,9715
1478,9714
1471,9712
1464,9710
1461,9709
1460,9709
1457,9708
1449,9707
1440,9706
1434,9706
1429,9706
1426,9706
1425,9706
1424,9706
1418,9706
1409,9707
1403,9707
1402,9707
1401,9707
1399,9708
1394,9708
1388,9710
1380,9712
1373,9714
1370,9715
1369,9716
1366,9717
1359,9720
1352,9723
1350,9725
1349,9725
1346,9727
1340,9731
1333,9736
1328,9740
1325,9743
1322,9746
1321,9747
1317,9751
1311,9757
1307,9761
1306,9762
1304,9765
1301,9768
1298,9773
1294,9780
1291,9786
1290,9789
1289,9790
1288,9793
1286,9800
1284,9807
1283,9809
1283,9810
1282,9813
1281,9820
1280,9828
1279,9834
1279,9839
1279,9841
1279,9842
1279,9843
1280,9849
1280,9857
1281,9863
1281,9864
1281,9865
1282,9867
1282,9872
1284,9878
1286,9885
1288,9892
1289,9894
1290,9895
1291,9898
1294,9904
1298,9910
1299,9913
1300,9914
1301,9916
1306,9922
1311,9928
1316,9933
1319,9936
1322,9939
1323,9940
1328,9943
1334,9949
1339,9952
1340,9953
1343,9955
1347,9958
1352,9961
1359,9965
1366,9968
1369,9969
1370,9970
1373,9971
1380,9973
1387,9975
1390,9975
1391,9976
1394,9976
1402,9977
1410,9978
1417,9979
1421,9979
1424,9979
1425,9979
" style="stroke:#000000;stroke-width:15;
stroke-linejoin:bevel; stroke-linecap:butt;
"/>
<!-- Line -->
<!--  polyline  -->
<polyline points="2539,10073
2539,10073
2539,10073
" style="stroke:#000000;stroke-width:7;
stroke-linejoin:miter; stroke-linecap:butt;
"/>
<!-- Line -->
<!--  spline  -->
<polyline points="2343,10073
2345,10073
2353,10072
2364,10072
2372,10071
2374,10071
2375,10071
2379,10070
2385,10069
2393,10067
2404,10064
2414,10061
2418,10059
2419,10058
2423,10057
2432,10052
2441,10047
2445,10045
2446,10044
2450,10042
2458,10036
2467,10029
2474,10024
2478,10019
2481,10017
2482,10016
2483,10015
2488,10009
2496,9999
2501,9993
2502,9992
2503,9991
2505,9988
2509,9983
2514,9976
2519,9966
2523,9957
2525,9953
2526,9952
2527,9948
2530,9938
2533,9928
2534,9924
2534,9922
2535,9918
2537,9908
2538,9897
2539,9888
2539,9882
2539,9878
2539,9877
2539,9875
2538,9867
2538,9855
2537,9847
2537,9845
2537,9844
2536,9840
2535,9834
2533,9826
2530,9815
2527,9806
2526,9802
2525,9801
2523,9797
2519,9788
2514,9779
2512,9775
2511,9774
2508,9770
2502,9762
2495,9753
2490,9746
2485,9742
2483,9739
2482,9738
2481,9737
2475,9732
2465,9723
2459,9718
2458,9717
2457,9717
2454,9714
2449,9711
2442,9706
2432,9701
2423,9697
2419,9695
2418,9695
2414,9693
2404,9690
2394,9687
2390,9686
2388,9686
2384,9685
2374,9683
2363,9681
2354,9681
2348,9680
2344,9680
2343,9680
2341,9680
2333,9681
2321,9682
2313,9683
2311,9683
2310,9683
2307,9684
2300,9685
2292,9687
2282,9690
2272,9693
2269,9695
2267,9695
2263,9697
2254,9701
2245,9706
2241,9708
2240,9709
2236,9711
2228,9717
2219,9724
2212,9730
2208,9734
2205,9737
2204,9738
2203,9739
2198,9745
2189,9755
2184,9761
2183,9762
2183,9763
2180,9766
2177,9771
2172,9778
2167,9788
2163,9797
2161,9801
2161,9802
2159,9806
2156,9815
2153,9825
2152,9829
2152,9830
2151,9835
2149,9845
2148,9856
2147,9865
2147,9872
2147,9876
2147,9877
2147,9879
2148,9887
2148,9898
2149,9906
2149,9908
2149,9909
2150,9913
2151,9919
2153,9927
2156,9938
2159,9948
2161,9952
2161,9953
2163,9957
2167,9966
2172,9975
2174,9979
2175,9980
2177,9984
2183,9992
2190,10001
2196,10008
2200,10012
2203,10015
2204,10016
2205,10017
2211,10022
2221,10030
2227,10035
2228,10036
2229,10036
2232,10039
2237,10042
2244,10047
2254,10052
2263,10057
2267,10058
2269,10059
2272,10061
2282,10064
2292,10067
2295,10068
2297,10068
2301,10069
2311,10071
2322,10072
2331,10073
2338,10073
2342,10073
2343,10073
" style="stroke:#ffffff;stroke-width:0;
stroke-linejoin:bevel; stroke-linecap:butt;
fill:#ffffff;
"/>
<!-- Line -->
<!--  spline  -->
<polyline points="2343,10073
2345,10073
2353,10072
2364,10072
2372,10071
2374,10071
2375,10071
2379,10070
2385,10069
2393,10067
2404,10064
2414,10061
2418,10059
2419,10058
2423,10057
2432,10052
2441,10047
2445,10045
2446,10044
2450,10042
2458,10036
2467,10029
2474,10024
2478,10019
2481,10017
2482,10016
2483,10015
2488,10009
2496,9999
2501,9993
2502,9992
2503,9991
2505,9988
2509,9983
2514,9976
2519,9966
2523,9957
2525,9953
2526,9952
2527,9948
2530,9938
2533,9928
2534,9924
2534,9922
2535,9918
2537,9908
2538,9897
2539,9888
2539,9882
2539,9878
2539,9877
2539,9875
2538,9867
2538,9855
2537,9847
2537,9845
2537,9844
2536,9840
2535,9834
2533,9826
2530,9815
2527,9806
2526,9802
2525,9801
2523,9797
2519,9788
2514,9779
2512,9775
2511,9774
2508,9770
2502,9762
2495,9753
2490,9746
2485,9742
2483,9739
2482,9738
2481,9737
2475,9732
2465,9723
2459,9718
2458,9717
2457,9717
2454,9714
2449,9711
2442,9706
2432,9701
2423,9697
2419,9695
2418,9695
2414,9693
2404,9690
2394,9687
2390,9686
2388,9686
2384,9685
2374,9683
2363,9681
2354,9681
2348,9680
2344,9680
2343,9680
2341,9680
2333,9681
2321,9682
2313,9683
2311,9683
2310,9683
2307,9684
2300,9685
2292,9687
2282,9690
2272,9693
2269,9695
2267,9695
2263,9697
2254,9701
2245,9706
2241,9708
2240,9709
2236,9711
2228,9717
2219,9724
2212,9730
2208,9734
2205,9737
2204,9738
2203,9739
2198,9745
2189,9755
2184,9761
2183,9762
2183,9763
2180,9766
2177,9771
2172,9778
2167,9788
2163,9797
2161,9801
2161,9802
2159,9806
2156,9815
2153,9825
2152,9829
2152,9830
2151,9835
2149,9845
2148,9856
2147,9865
2147,9872
2147,9876
2147,9877
2147,9879
2148,9887
2148,9898
2149,9906
2149,9908
2149,9909
2150,9913
2151,9919
2153,9927
2156,9938
2159,9948
2161,9952
2161,9953
2163,9957
2167,9966
2172,9975
2174,9979
2175,9980
2177,9984
2183,9992
2190,10001
2196,10008
2200,10012
2203,10015
2204,10016
2205,10017
2211,10022
2221,10030
2227,10035
2228,10036
2229,10036
2232,10039
2237,10042
2244,10047
2254,10052
2263,10057
2267,10058
2269,10059
2272,10061
2282,10064
2292,10067
2295,10068
2297,10068
2301,10069
2311,10071
2322,10072
2331,10073
2338,10073
2342,10073
2343,10073
" style="stroke:#000000;stroke-width:15;
stroke-linejoin:bevel; stroke-linecap:butt;
"/>
<!-- Line -->
<!--  polyline  -->
<polyline points="2550,9612
2085,10115
" style="stroke:#000000;stroke-width:7;
stroke-linejoin:miter; stroke-linecap:butt;
"/>
<!-- Line -->
<!--  spline  -->
<polyline points="2588,9570
2587,9570
2582,9573
2569,9579
2550,9588
2525,9600
2501,9612
2482,9621
2469,9627
2464,9630
2463,9630
2463,9631
2465,9633
2468,9638
2470,9640
2470,9641
2471,9643
2473,9645
2475,9648
2477,9651
2479,9654
2480,9655
2481,9656
2483,9659
2485,9661
2486,9662
2486,9663
2487,9664
2489,9666
2491,9668
2493,9670
2494,9671
2495,9672
2497,9674
2499,9675
2501,9677
2502,9678
2503,9679
2505,9680
2508,9682
2511,9684
2512,9685
2513,9685
2514,9686
2517,9688
2520,9690
2522,9691
2523,9692
2527,9694
2531,9696
2534,9698
2537,9699
2539,9700
2539,9699
2541,9693
2546,9681
2554,9660
2564,9635
2573,9610
2581,9589
2586,9577
2588,9571
2588,9570
" style="stroke:#000000;stroke-width:0;
stroke-linejoin:bevel; stroke-linecap:butt;
fill:#000000;
"/>
<!-- Line -->
<!--  polyline  -->
<polyline points="2091,9842
1578,9842
" style="stroke:#000000;stroke-width:7;
stroke-linejoin:miter; stroke-linecap:butt;
"/>
<!-- Line -->
<!--  spline  -->
<polyline points="2151,9842
2150,9842
2145,9839
2132,9834
2112,9826
2087,9816
2062,9807
2042,9799
2029,9794
2024,9791
2023,9791
2023,9792
2022,9795
2020,9800
2019,9803
2019,9804
2019,9806
2018,9808
2018,9811
2017,9815
2016,9818
2016,9820
2016,9822
2015,9825
2015,9828
2014,9829
2014,9830
2014,9831
2014,9834
2014,9837
2013,9839
2013,9841
2013,9842
2013,9844
2014,9848
2014,9850
2014,9851
2014,9853
2015,9855
2015,9859
2016,9862
2016,9864
2016,9865
2016,9866
2017,9870
2018,9874
2018,9875
2018,9876
2018,9877
2019,9881
2020,9885
2021,9889
2022,9892
2023,9894
2024,9894
2029,9891
2042,9886
2062,9878
2087,9868
2112,9858
2132,9850
2145,9845
2150,9842
2151,9842
" style="stroke:#000000;stroke-width:0;
stroke-linejoin:bevel; stroke-linecap:butt;
fill:#000000;
"/>
<!-- Line -->
<!--  polyline  -->
<polyline points="4786,10638
4112,9826
" style="stroke:#000000;stroke-width:7;
stroke-linejoin:miter; stroke-linecap:butt;
"/>
<!-- Line -->
<!--  spline  -->
<polyline points="4822,10681
4822,10680
4820,10674
4816,10661
4809,10641
4800,10615
4792,10589
4785,10569
4781,10556
4779,10550
4779,10549
4778,10549
4775,10551
4771,10553
4768,10555
4767,10555
4765,10556
4763,10557
4761,10558
4757,10560
4754,10562
4753,10562
4752,10563
4751,10563
4748,10565
4745,10567
4744,10567
4744,10568
4742,10568
4740,10570
4738,10572
4736,10573
4735,10574
4734,10575
4732,10577
4730,10578
4728,10580
4727,10581
4726,10582
4724,10584
4722,10587
4720,10590
4719,10591
4718,10591
4717,10592
4715,10595
4713,10598
4712,10599
4711,10599
4710,10601
4708,10604
4705,10608
4703,10611
4701,10613
4700,10615
4701,10615
4706,10618
4718,10625
4737,10635
4761,10648
4785,10661
4804,10671
4816,10678
4821,10681
4822,10681
" style="stroke:#000000;stroke-width:0;
stroke-linejoin:bevel; stroke-linecap:butt;
fill:#000000;
"/>
<!-- Line -->
<!--  polyline  -->
<polyline points="4640,10770
4031,10391
" style="stroke:#000000;stroke-width:7;
stroke-linejoin:miter; stroke-linecap:butt;
"/>
<!-- Line -->
<!--  spline  -->
<polyline points="4686,10799
4685,10798
4682,10793
4674,10782
4661,10765
4645,10743
4629,10721
4616,10704
4608,10693
4605,10688
4604,10687
4603,10687
4601,10690
4597,10693
4595,10696
4594,10696
4593,10697
4591,10700
4589,10702
4586,10705
4584,10708
4583,10708
4582,10709
4581,10710
4579,10712
4577,10715
4576,10716
4575,10718
4573,10720
4571,10722
4570,10724
4569,10725
4569,10726
4568,10728
4566,10731
4565,10733
4564,10734
4564,10736
4562,10738
4561,10741
4560,10744
4559,10745
4559,10746
4558,10748
4557,10751
4556,10755
4555,10756
4555,10757
4554,10758
4553,10762
4552,10766
4550,10770
4550,10773
4549,10775
4550,10775
4556,10776
4570,10779
4591,10782
4618,10787
4644,10792
4665,10795
4679,10798
4685,10799
4686,10799
" style="stroke:#000000;stroke-width:0;
stroke-linejoin:bevel; stroke-linecap:butt;
fill:#000000;
"/>
<!-- Line -->
<!--  polyline  -->
<polyline points="4619,11232
4034,11657
" style="stroke:#000000;stroke-width:7;
stroke-linejoin:miter; stroke-linecap:butt;
"/>
<!-- Line -->
<!--  spline  -->
<polyline points="4663,11200
4662,11200
4656,11202
4643,11205
4622,11210
4596,11217
4570,11224
4549,11229
4536,11232
4530,11234
4529,11234
4529,11235
4531,11238
4532,11242
4534,11245
4534,11246
4535,11248
4535,11250
4536,11253
4538,11257
4540,11260
4540,11262
4541,11262
4541,11263
4543,11266
4544,11269
4545,11270
4546,11271
4547,11274
4549,11277
4550,11279
4551,11280
4552,11281
4554,11283
4555,11285
4557,11287
4558,11288
4559,11290
4561,11291
4563,11294
4565,11296
4566,11297
4566,11298
4567,11299
4570,11301
4573,11304
4574,11305
4575,11305
4576,11306
4579,11309
4583,11312
4585,11314
4587,11316
4589,11317
4590,11316
4593,11311
4600,11299
4612,11281
4626,11258
4640,11236
4652,11218
4659,11206
4662,11201
4663,11200
" style="stroke:#000000;stroke-width:0;
stroke-linejoin:bevel; stroke-linecap:butt;
fill:#000000;
"/>
<!-- Line -->
<!--  polyline  -->
<polyline points="4576,11017
4034,11006
" style="stroke:#000000;stroke-width:7;
stroke-linejoin:miter; stroke-linecap:butt;
"/>
<!-- Line -->
<!--  spline  -->
<polyline points="4636,11019
4635,11019
4630,11016
4617,11011
4597,11002
4572,10991
4547,10981
4527,10972
4514,10967
4509,10964
4508,10964
4508,10965
4507,10968
4505,10973
4504,10976
4504,10977
4503,10979
4503,10981
4502,10984
4501,10988
4500,10992
4500,10993
4500,10994
4500,10996
4499,10999
4499,11002
4498,11004
4498,11005
4498,11008
4498,11011
4498,11013
4498,11015
4498,11016
4498,11018
4498,11022
4498,11024
4498,11025
4498,11027
4499,11030
4499,11033
4499,11036
4499,11038
4499,11039
4500,11043
4501,11047
4501,11048
4501,11049
4502,11051
4503,11055
4504,11059
4505,11063
4506,11065
4506,11067
4507,11067
4513,11065
4525,11060
4546,11052
4571,11043
4596,11034
4617,11026
4629,11021
4635,11019
4636,11019
" style="stroke:#000000;stroke-width:0;
stroke-linejoin:bevel; stroke-linecap:butt;
fill:#000000;
"/>
<!-- Line -->
<!--  polyline  -->
<polyline points="4754,11383
4034,12272
" style="stroke:#000000;stroke-width:7;
stroke-linejoin:miter; stroke-linecap:butt;
"/>
<!-- Line -->
<!--  spline  -->
<polyline points="4788,11340
4787,11340
4782,11343
4770,11350
4751,11361
4727,11374
4704,11387
4685,11398
4673,11405
4668,11408
4667,11408
4667,11409
4669,11411
4673,11415
4675,11417
4675,11418
4676,11420
4678,11422
4680,11425
4683,11428
4685,11431
4686,11432
4687,11433
4689,11435
4691,11437
4692,11438
4693,11439
4694,11440
4696,11442
4698,11444
4700,11445
4701,11446
4702,11447
4704,11449
4706,11450
4708,11452
4709,11453
4711,11454
4713,11455
4716,11457
4719,11459
4720,11459
4721,11460
4722,11460
4725,11462
4728,11464
4730,11464
4730,11465
4731,11465
4735,11467
4739,11469
4742,11471
4745,11472
4747,11473
4747,11472
4749,11466
4753,11453
4760,11432
4768,11406
4775,11381
4782,11360
4786,11347
4788,11341
4788,11340
" style="stroke:#000000;stroke-width:0;
stroke-linejoin:bevel; stroke-linecap:butt;
fill:#000000;
"/>
<!-- Line -->
<!--  spline  -->
<polyline points="3276,12250
3279,12250
3282,12250
3285,12250
3286,12250
3288,12250
3290,12250
3293,12250
3296,12250
3297,12250
3298,12250
3301,12250
3303,12250
3304,12250
3305,12250
3306,12250
3308,12250
3311,12250
3312,12250
3314,12250
3315,12250
3317,12250
3319,12250
3321,12250
3322,12250
3323,12250
3324,12250
3326,12250
3327,12250
3328,12250
3328,12249
3329,12249
3330,12249
3331,12249
3332,12249
3331,12249
3330,12249
3329,12249
3328,12249
3327,12249
3326,12249
3325,12249
3324,12249
3323,12249
3321,12249
3319,12249
3317,12248
3316,12248
3315,12248
3313,12248
3310,12248
3308,12248
3307,12248
3306,12248
3304,12248
3301,12248
3298,12248
3297,12248
3296,12248
3293,12248
3290,12248
3289,12248
3288,12248
3285,12248
3282,12248
3279,12248
3277,12248
3276,12248
3273,12248
3270,12248
3267,12248
3266,12248
3264,12248
3261,12248
3258,12248
3255,12248
3254,12248
3253,12248
3250,12248
3248,12248
3247,12248
3246,12248
3245,12248
3243,12248
3240,12248
3239,12248
3237,12248
3236,12248
3234,12248
3232,12249
3230,12249
3229,12249
3228,12249
3227,12249
3225,12249
3224,12249
3223,12249
3222,12249
3221,12249
3220,12249
3219,12249
3220,12249
3221,12249
3222,12249
3223,12249
3223,12250
3224,12250
3225,12250
3226,12250
3227,12250
3228,12250
3230,12250
3232,12250
3234,12250
3235,12250
3236,12250
3238,12250
3241,12250
3243,12250
3244,12250
3245,12250
3247,12250
3250,12250
3253,12250
3254,12250
3255,12250
3258,12250
3261,12250
3262,12250
3263,12250
3264,12250
3267,12250
3270,12250
3273,12250
3275,12250
3276,12250
" style="stroke:#ffffff;stroke-width:0;
stroke-linejoin:bevel; stroke-linecap:butt;
fill:#ffffff;
"/>
<!-- Line -->
<!--  spline  -->
<polyline points="3276,12250
3279,12250
3282,12250
3285,12250
3286,12250
3288,12250
3290,12250
3293,12250
3296,12250
3297,12250
3298,12250
3301,12250
3303,12250
3304,12250
3305,12250
3306,12250
3308,12250
3311,12250
3312,12250
3314,12250
3315,12250
3317,12250
3319,12250
3321,12250
3322,12250
3323,12250
3324,12250
3326,12250
3327,12250
3328,12250
3328,12249
3329,12249
3330,12249
3331,12249
3332,12249
3331,12249
3330,12249
3329,12249
3328,12249
3327,12249
3326,12249
3325,12249
3324,12249
3323,12249
3321,12249
3319,12249
3317,12248
3316,12248
3315,12248
3313,12248
3310,12248
3308,12248
3307,12248
3306,12248
3304,12248
3301,12248
3298,12248
3297,12248
3296,12248
3293,12248
3290,12248
3289,12248
3288,12248
3285,12248
3282,12248
3279,12248
3277,12248
3276,12248
3273,12248
3270,12248
3267,12248
3266,12248
3264,12248
3261,12248
3258,12248
3255,12248
3254,12248
3253,12248
3250,12248
3248,12248
3247,12248
3246,12248
3245,12248
3243,12248
3240,12248
3239,12248
3237,12248
3236,12248
3234,12248
3232,12249
3230,12249
3229,12249
3228,12249
3227,12249
3225,12249
3224,12249
3223,12249
3222,12249
3221,12249
3220,12249
3219,12249
3220,12249
3221,12249
3222,12249
3223,12249
3223,12250
3224,12250
3225,12250
3226,12250
3227,12250
3228,12250
3230,12250
3232,12250
3234,12250
3235,12250
3236,12250
3238,12250
3241,12250
3243,12250
3244,12250
3245,12250
3247,12250
3250,12250
3253,12250
3254,12250
3255,12250
3258,12250
3261,12250
3262,12250
3263,12250
3264,12250
3267,12250
3270,12250
3273,12250
3275,12250
3276,12250
" style="stroke:#000000;stroke-width:0;
stroke-linejoin:bevel; stroke-linecap:butt;
"/>
<!-- Line -->
<!--  polyline  -->
<polyline points="4112,9826
2548,9826
" style="stroke:#000000;stroke-width:7;
stroke-linejoin:miter; stroke-linecap:butt;
"/>
<!-- Line -->
<!--  polyline  -->
<polyline points="4031,10391
2517,10391
" style="stroke:#000000;stroke-width:7;
stroke-linejoin:miter; stroke-linecap:butt;
"/>
<!-- Line -->
<!--  polyline  -->
<polyline points="4034,11657
2517,11657
" style="stroke:#000000;stroke-width:7;
stroke-linejoin:miter; stroke-linecap:butt;
"/>
<!-- Line -->
<!--  polyline  -->
<polyline points="4034,11006
2517,11006
" style="stroke:#000000;stroke-width:7;
stroke-linejoin:miter; stroke-linecap:butt;
"/>
<!-- Line -->
<!--  polyline  -->
<polyline points="4034,12272
2517,12272
" style="stroke:#000000;stroke-width:7;
stroke-linejoin:miter; stroke-linecap:butt;
"/>
<!-- Text -->
<!--  text  -->
<text xml:space="preserve" x="1977" y="13079" stroke="#000000" fill="#000000"  font-family="Times" font-style="normal" font-weight="normal" font-size="156" text-anchor="start">F</text>
<!-- Text -->
<!--  text  -->
<text xml:space="preserve" x="2088" y="13079" stroke="#000000" fill="#000000"  font-family="Times" font-style="normal" font-weight="normal" font-size="156" text-anchor="start">i</text>
<!-- Text -->
<!--  text  -->
<text xml:space="preserve" x="2144" y="13079" stroke="#000000" fill="#000000"  font-family="Times" font-style="normal" font-weight="normal" font-size="156" text-anchor="start">g</text>
<!-- Text -->
<!--  text  -->
<text xml:space="preserve" x="2244" y="13079" stroke="#000000" fill="#000000"  font-family="Times" font-style="normal" font-weight="normal" font-size="156" text-anchor="start">u</text>
<!-- Text -->
<!--  text  -->
<text xml:space="preserve" x="2344" y="13079" stroke="#000000" fill="#000000"  font-family="Times" font-style="normal" font-weight="normal" font-size="156" text-anchor="start">r</text>
<!-- Text -->
<!--  text  -->
<text xml:space="preserve" x="2410" y="13079" stroke="#000000" fill="#000000"  font-family="Times" font-style="normal" font-weight="normal" font-size="156" text-anchor="start">e</text>
<!-- Text -->
<!--  text  -->
<text xml:space="preserve" x="2569" y="13079" stroke="#000000" fill="#000000"  font-family="Times" font-style="normal" font-weight="normal" font-size="156" text-anchor="start">6</text>
<!-- Text -->
<!--  text  -->
<text xml:space="preserve" x="2669" y="13079" stroke="#000000" fill="#000000"  font-family="Times" font-style="normal" font-weight="normal" font-size="156" text-anchor="start">-</text>
<!-- Text -->
<!--  text  -->
<text xml:space="preserve" x="2735" y="13079" stroke="#000000" fill="#000000"  font-family="Times" font-style="normal" font-weight="normal" font-size="156" text-anchor="start">4</text>
<!-- Text -->
<!--  text  -->
<text xml:space="preserve" x="2835" y="13079" stroke="#000000" fill="#000000"  font-family="Times" font-style="normal" font-weight="normal" font-size="156" text-anchor="start">:</text>
<!-- Text -->
<!--  text  -->
<text xml:space="preserve" x="2961" y="13079" stroke="#000000" fill="#000000"  font-family="Times" font-style="normal" font-weight="normal" font-size="156" text-anchor="start">A</text>
<!-- Text -->
<!--  text  -->
<text xml:space="preserve" x="3105" y="13079" stroke="#000000" fill="#000000"  font-family="Times" font-style="normal" font-weight="normal" font-size="156" text-anchor="start">n</text>
<!-- Text -->
<!--  text  -->
<text xml:space="preserve" x="3275" y="13079" stroke="#000000" fill="#000000"  font-family="Times" font-style="normal" font-weight="normal" font-size="156" text-anchor="start">A</text>
<!-- Text -->
<!--  text  -->
<text xml:space="preserve" x="3420" y="13079" stroke="#000000" fill="#000000"  font-family="Times" font-style="normal" font-weight="normal" font-size="156" text-anchor="start">D</text>
<!-- Text -->
<!--  text  -->
<text xml:space="preserve" x="3564" y="13079" stroke="#000000" fill="#000000"  font-family="Times" font-style="normal" font-weight="normal" font-size="156" text-anchor="start">A</text>
<!-- Text -->
<!--  text  -->
<text xml:space="preserve" x="3708" y="13079" stroke="#000000" fill="#000000"  font-family="Times" font-style="normal" font-weight="normal" font-size="156" text-anchor="start">L</text>
<!-- Text -->
<!--  text  -->
<text xml:space="preserve" x="3830" y="13079" stroke="#000000" fill="#000000"  font-family="Times" font-style="normal" font-weight="normal" font-size="156" text-anchor="start">I</text>
<!-- Text -->
<!--  text  -->
<text xml:space="preserve" x="3897" y="13079" stroke="#000000" fill="#000000"  font-family="Times" font-style="normal" font-weight="normal" font-size="156" text-anchor="start">N</text>
<!-- Text -->
<!--  text  -->
<text xml:space="preserve" x="4041" y="13079" stroke="#000000" fill="#000000"  font-family="Times" font-style="normal" font-weight="normal" font-size="156" text-anchor="start">E</text>
<!-- Text -->
<!--  text  -->
<text xml:space="preserve" x="4233" y="13079" stroke="#000000" fill="#000000"  font-family="Times" font-style="normal" font-weight="normal" font-size="156" text-anchor="start">p</text>
<!-- Text -->
<!--  text  -->
<text xml:space="preserve" x="4333" y="13079" stroke="#000000" fill="#000000"  font-family="Times" font-style="normal" font-weight="normal" font-size="156" text-anchor="start">r</text>
<!-- Text -->
<!--  text  -->
<text xml:space="preserve" x="4400" y="13079" stroke="#000000" fill="#000000"  font-family="Times" font-style="normal" font-weight="normal" font-size="156" text-anchor="start">o</text>
<!-- Text -->
<!--  text  -->
<text xml:space="preserve" x="4500" y="13079" stroke="#000000" fill="#000000"  font-family="Times" font-style="normal" font-weight="normal" font-size="156" text-anchor="start">c</text>
<!-- Text -->
<!--  text  -->
<text xml:space="preserve" x="4589" y="13079" stroke="#000000" fill="#000000"  font-family="Times" font-style="normal" font-weight="normal" font-size="156" text-anchor="start">e</text>
<!-- Text -->
<!--  text  -->
<text xml:space="preserve" x="4678" y="13079" stroke="#000000" fill="#000000"  font-family="Times" font-style="normal" font-weight="normal" font-size="156" text-anchor="start">s</text>
<!-- Text -->
<!--  text  -->
<text xml:space="preserve" x="4755" y="13079" stroke="#000000" fill="#000000"  font-family="Times" font-style="normal" font-weight="normal" font-size="156" text-anchor="start">s</text>
<!-- Text -->
<!--  text  -->
<text xml:space="preserve" x="4833" y="13079" stroke="#000000" fill="#000000"  font-family="Times" font-style="normal" font-weight="normal" font-size="156" text-anchor="start">i</text>
<!-- Text -->
<!--  text  -->
<text xml:space="preserve" x="4889" y="13079" stroke="#000000" fill="#000000"  font-family="Times" font-style="normal" font-weight="normal" font-size="156" text-anchor="start">n</text>
<!-- Text -->
<!--  text  -->
<text xml:space="preserve" x="4989" y="13079" stroke="#000000" fill="#000000"  font-family="Times" font-style="normal" font-weight="normal" font-size="156" text-anchor="start">g</text>
<!-- Text -->
<!--  text  -->
<text xml:space="preserve" x="5159" y="13079" stroke="#000000" fill="#000000"  font-family="Times" font-style="normal" font-weight="normal" font-size="156" text-anchor="start">u</text>
<!-- Text -->
<!--  text  -->
<text xml:space="preserve" x="5259" y="13079" stroke="#000000" fill="#000000"  font-family="Times" font-style="normal" font-weight="normal" font-size="156" text-anchor="start">n</text>
<!-- Text -->
<!--  text  -->
<text xml:space="preserve" x="5359" y="13079" stroke="#000000" fill="#000000"  font-family="Times" font-style="normal" font-weight="normal" font-size="156" text-anchor="start">i</text>
<!-- Text -->
<!--  text  -->
<text xml:space="preserve" x="5414" y="13079" stroke="#000000" fill="#000000"  font-family="Times" font-style="normal" font-weight="normal" font-size="156" text-anchor="start">t</text>
</g>
</svg>
