<?xml version="1.0" standalone="no"?>
<!DOCTYPE svg PUBLIC "-//W3C//DTD SVG 1.1//EN"
"http://www.w3.org/Graphics/SVG/1.1/DTD/svg11.dtd">
<!-- Creator: fig2dev Version 3.2 Patchlevel 5 -->
<!-- CreationDate: Sat Jul  4 12:13:16 2015 -->
<!-- Magnification: 1.000 -->
<svg xmlns="http://www.w3.org/2000/svg" width="6.0in" height="2.8in" viewBox="111 9793 7224 3381">
<g style="stroke-width:.025in; stroke:black; fill:none">
<!-- Line -->
<!--  polyline  -->
<polyline points="133,9815
7313,9815
7313,12852
133,12852
133,9815
" style="stroke:#000000;stroke-width:15;
stroke-linejoin:miter; stroke-linecap:butt;
"/>
<!-- Line -->
<!--  polyline  -->
<polyline points="5332,11343
4244,11343
" style="stroke:#000000;stroke-width:7;
stroke-linejoin:miter; stroke-linecap:butt;
"/>
<!-- Line -->
<!--  spline  -->
<polyline points="5392,11343
5391,11343
5386,11340
5373,11335
5352,11327
5327,11317
5303,11308
5282,11300
5269,11295
5264,11292
5263,11292
5263,11293
5262,11296
5261,11300
5260,11303
5260,11304
5260,11306
5259,11309
5259,11312
5258,11316
5257,11320
5257,11321
5257,11323
5256,11326
5256,11329
5255,11330
5255,11331
5255,11332
5255,11335
5255,11338
5254,11340
5254,11342
5254,11343
5254,11345
5255,11349
5255,11351
5255,11352
5255,11354
5256,11357
5256,11360
5257,11363
5257,11365
5257,11366
5258,11370
5259,11374
5259,11375
5259,11376
5259,11378
5260,11382
5261,11387
5262,11390
5262,11393
5263,11395
5264,11395
5269,11392
5282,11387
5303,11379
5328,11369
5352,11359
5373,11351
5386,11346
5391,11343
5392,11343
" style="stroke:#000000;stroke-width:0;
stroke-linejoin:bevel; stroke-linecap:butt;
fill:#000000;
"/>
<!-- Line -->
<!--  polyline  -->
<polyline points="3499,11121
2680,10393
" style="stroke:#000000;stroke-width:7;
stroke-linejoin:miter; stroke-linecap:butt;
"/>
<!-- Line -->
<!--  spline  -->
<polyline points="3541,11159
3541,11158
3538,11153
3532,11140
3522,11121
3510,11097
3498,11073
3488,11054
3482,11041
3479,11036
3479,11035
3478,11035
3476,11037
3471,11040
3469,11042
3468,11042
3467,11043
3465,11045
3462,11047
3459,11049
3456,11051
3455,11052
3454,11053
3451,11055
3449,11057
3448,11058
3447,11058
3446,11059
3444,11061
3442,11063
3440,11065
3439,11066
3438,11067
3436,11069
3435,11071
3433,11073
3432,11074
3431,11076
3430,11078
3428,11081
3426,11084
3426,11085
3425,11086
3425,11087
3423,11090
3421,11093
3420,11095
3419,11096
3417,11100
3415,11104
3413,11107
3412,11110
3411,11112
3412,11112
3418,11114
3430,11119
3451,11126
3476,11136
3501,11145
3522,11152
3534,11157
3540,11159
3541,11159
" style="stroke:#000000;stroke-width:0;
stroke-linejoin:bevel; stroke-linecap:butt;
fill:#000000;
"/>
<!-- Line -->
<!--  polyline  -->
<polyline points="3461,11197
2355,10814
" style="stroke:#000000;stroke-width:7;
stroke-linejoin:miter; stroke-linecap:butt;
"/>
<!-- Line -->
<!--  spline  -->
<polyline points="3513,11215
3512,11214
3508,11210
3497,11201
3481,11187
3460,11169
3440,11152
3424,11138
3413,11129
3409,11125
3408,11124
3408,11125
3406,11127
3403,11132
3401,11134
3401,11135
3400,11137
3399,11139
3397,11141
3395,11145
3393,11148
3392,11150
3392,11152
3390,11155
3389,11158
3388,11159
3387,11160
3386,11163
3385,11166
3384,11168
3383,11169
3383,11170
3382,11172
3381,11176
3380,11178
3380,11179
3379,11181
3379,11184
3378,11187
3378,11190
3377,11192
3378,11192
3377,11193
3377,11197
3376,11201
3376,11202
3376,11203
3376,11205
3375,11209
3375,11214
3374,11217
3374,11220
3374,11222
3375,11222
3381,11222
3395,11221
3417,11220
3444,11218
3470,11217
3492,11216
3506,11215
3512,11215
3513,11215
" style="stroke:#000000;stroke-width:0;
stroke-linejoin:bevel; stroke-linecap:butt;
fill:#000000;
"/>
<!-- Line -->
<!--  polyline  -->
<polyline points="3473,11477
2547,12221
" style="stroke:#000000;stroke-width:7;
stroke-linejoin:miter; stroke-linecap:butt;
"/>
<!-- Line -->
<!--  spline  -->
<polyline points="3516,11442
3515,11442
3509,11444
3496,11448
3475,11455
3449,11463
3424,11470
3403,11477
3390,11481
3384,11483
3383,11483
3383,11484
3385,11487
3386,11491
3388,11494
3388,11495
3389,11497
3390,11499
3392,11501
3394,11505
3396,11508
3396,11509
3397,11510
3397,11511
3399,11514
3401,11517
3401,11518
3402,11518
3402,11520
3404,11522
3406,11524
3407,11526
3407,11527
3408,11528
3410,11530
3411,11532
3413,11534
3414,11535
3415,11537
3417,11538
3420,11541
3423,11543
3424,11544
3424,11545
3425,11546
3428,11548
3431,11550
3432,11551
3432,11552
3434,11553
3437,11555
3441,11558
3444,11560
3446,11562
3448,11563
3448,11562
3451,11557
3458,11545
3469,11526
3482,11502
3495,11479
3506,11460
3513,11448
3516,11443
3516,11442
" style="stroke:#000000;stroke-width:0;
stroke-linejoin:bevel; stroke-linecap:butt;
fill:#000000;
"/>
<!-- Line -->
<!--  polyline  -->
<polyline points="3418,11309
2186,11345
" style="stroke:#000000;stroke-width:7;
stroke-linejoin:miter; stroke-linecap:butt;
"/>
<!-- Line -->
<!--  spline  -->
<polyline points="3478,11307
3477,11307
3471,11305
3459,11300
3438,11292
3413,11283
3388,11274
3367,11266
3355,11261
3349,11259
3348,11259
3348,11260
3347,11263
3346,11268
3345,11271
3345,11272
3344,11274
3344,11277
3343,11280
3342,11284
3341,11288
3341,11289
3341,11291
3341,11294
3341,11297
3340,11298
3340,11299
3340,11300
3340,11303
3340,11306
3340,11308
3340,11310
3340,11311
3340,11313
3341,11317
3341,11319
3341,11320
3341,11322
3342,11325
3342,11328
3343,11331
3343,11333
3343,11334
3344,11338
3345,11342
3345,11343
3345,11344
3346,11346
3347,11350
3348,11354
3349,11358
3350,11360
3351,11362
3352,11362
3357,11359
3370,11354
3390,11345
3415,11334
3439,11324
3459,11315
3472,11310
3477,11307
3478,11307
" style="stroke:#000000;stroke-width:0;
stroke-linejoin:bevel; stroke-linecap:butt;
fill:#000000;
"/>
<!-- Line -->
<!--  spline  -->
<polyline points="3865,11729
3867,11729
3877,11728
3896,11726
3915,11725
3925,11724
3927,11724
3928,11724
3933,11723
3942,11722
3953,11719
3967,11716
3985,11711
4001,11705
4010,11702
4013,11701
4016,11700
4024,11696
4040,11688
4055,11680
4063,11676
4066,11674
4069,11672
4077,11667
4091,11657
4106,11645
4118,11636
4127,11627
4134,11620
4137,11617
4138,11616
4139,11615
4146,11607
4158,11592
4170,11578
4177,11570
4178,11569
4179,11568
4182,11564
4187,11557
4193,11547
4201,11534
4210,11518
4218,11502
4222,11494
4223,11491
4224,11488
4227,11479
4233,11463
4238,11446
4240,11438
4241,11435
4242,11431
4243,11422
4246,11405
4248,11386
4250,11371
4251,11359
4251,11349
4251,11344
4251,11343
4251,11341
4250,11331
4248,11312
4247,11293
4246,11283
4246,11281
4246,11280
4245,11275
4244,11266
4241,11255
4238,11241
4233,11223
4227,11207
4224,11198
4223,11195
4222,11192
4218,11184
4210,11168
4202,11153
4197,11145
4195,11142
4194,11139
4188,11131
4178,11117
4166,11102
4157,11090
4149,11081
4142,11074
4139,11071
4138,11070
4137,11069
4129,11062
4114,11050
4100,11038
4092,11031
4091,11030
4090,11029
4086,11026
4079,11021
4069,11014
4056,11007
4040,10998
4024,10990
4016,10987
4013,10985
4010,10984
4001,10982
3985,10976
3968,10971
3960,10968
3957,10968
3953,10967
3944,10965
3927,10962
3908,10959
3893,10958
3881,10957
3871,10957
3866,10957
3865,10957
3863,10957
3853,10958
3834,10960
3815,10961
3805,10962
3803,10962
3802,10962
3797,10963
3788,10965
3777,10967
3763,10971
3745,10976
3729,10982
3720,10984
3717,10986
3714,10987
3706,10990
3690,10998
3675,11006
3667,11011
3664,11013
3661,11014
3653,11020
3639,11030
3624,11042
3612,11051
3603,11059
3596,11066
3593,11069
3592,11070
3591,11071
3584,11079
3572,11094
3560,11108
3553,11116
3552,11117
3551,11118
3548,11122
3543,11129
3537,11139
3529,11152
3520,11168
3512,11184
3508,11192
3507,11195
3506,11198
3503,11207
3497,11223
3492,11240
3490,11248
3489,11251
3488,11255
3487,11264
3484,11281
3482,11300
3480,11315
3479,11327
3479,11337
3479,11342
3479,11343
3479,11345
3480,11355
3482,11374
3483,11393
3484,11403
3484,11405
3484,11406
3485,11411
3486,11420
3489,11431
3492,11445
3497,11463
3503,11479
3506,11488
3507,11491
3508,11494
3512,11502
3520,11518
3528,11533
3533,11541
3535,11544
3536,11547
3542,11555
3552,11569
3564,11584
3573,11596
3581,11605
3588,11612
3591,11615
3592,11616
3593,11617
3601,11624
3616,11637
3630,11649
3638,11656
3639,11657
3640,11658
3644,11660
3651,11666
3661,11672
3674,11679
3690,11688
3706,11696
3714,11700
3717,11701
3720,11702
3729,11705
3745,11711
3762,11716
3770,11718
3773,11719
3777,11720
3786,11721
3803,11724
3822,11726
3837,11728
3849,11729
3859,11729
3864,11729
3865,11729
" style="stroke:#ffffff;stroke-width:0;
stroke-linejoin:bevel; stroke-linecap:butt;
fill:#ffffff;
"/>
<!-- Line -->
<!--  spline  -->
<polyline points="3865,11729
3867,11729
3877,11728
3896,11726
3915,11725
3925,11724
3927,11724
3928,11724
3933,11723
3942,11722
3953,11719
3967,11716
3985,11711
4001,11705
4010,11702
4013,11701
4016,11700
4024,11696
4040,11688
4055,11680
4063,11676
4066,11674
4069,11672
4077,11667
4091,11657
4106,11645
4118,11636
4127,11627
4134,11620
4137,11617
4138,11616
4139,11615
4146,11607
4158,11592
4170,11578
4177,11570
4178,11569
4179,11568
4182,11564
4187,11557
4193,11547
4201,11534
4210,11518
4218,11502
4222,11494
4223,11491
4224,11488
4227,11479
4233,11463
4238,11446
4240,11438
4241,11435
4242,11431
4243,11422
4246,11405
4248,11386
4250,11371
4251,11359
4251,11349
4251,11344
4251,11343
4251,11341
4250,11331
4248,11312
4247,11293
4246,11283
4246,11281
4246,11280
4245,11275
4244,11266
4241,11255
4238,11241
4233,11223
4227,11207
4224,11198
4223,11195
4222,11192
4218,11184
4210,11168
4202,11153
4197,11145
4195,11142
4194,11139
4188,11131
4178,11117
4166,11102
4157,11090
4149,11081
4142,11074
4139,11071
4138,11070
4137,11069
4129,11062
4114,11050
4100,11038
4092,11031
4091,11030
4090,11029
4086,11026
4079,11021
4069,11014
4056,11007
4040,10998
4024,10990
4016,10987
4013,10985
4010,10984
4001,10982
3985,10976
3968,10971
3960,10968
3957,10968
3953,10967
3944,10965
3927,10962
3908,10959
3893,10958
3881,10957
3871,10957
3866,10957
3865,10957
3863,10957
3853,10958
3834,10960
3815,10961
3805,10962
3803,10962
3802,10962
3797,10963
3788,10965
3777,10967
3763,10971
3745,10976
3729,10982
3720,10984
3717,10986
3714,10987
3706,10990
3690,10998
3675,11006
3667,11011
3664,11013
3661,11014
3653,11020
3639,11030
3624,11042
3612,11051
3603,11059
3596,11066
3593,11069
3592,11070
3591,11071
3584,11079
3572,11094
3560,11108
3553,11116
3552,11117
3551,11118
3548,11122
3543,11129
3537,11139
3529,11152
3520,11168
3512,11184
3508,11192
3507,11195
3506,11198
3503,11207
3497,11223
3492,11240
3490,11248
3489,11251
3488,11255
3487,11264
3484,11281
3482,11300
3480,11315
3479,11327
3479,11337
3479,11342
3479,11343
3479,11345
3480,11355
3482,11374
3483,11393
3484,11403
3484,11405
3484,11406
3485,11411
3486,11420
3489,11431
3492,11445
3497,11463
3503,11479
3506,11488
3507,11491
3508,11494
3512,11502
3520,11518
3528,11533
3533,11541
3535,11544
3536,11547
3542,11555
3552,11569
3564,11584
3573,11596
3581,11605
3588,11612
3591,11615
3592,11616
3593,11617
3601,11624
3616,11637
3630,11649
3638,11656
3639,11657
3640,11658
3644,11660
3651,11666
3661,11672
3674,11679
3690,11688
3706,11696
3714,11700
3717,11701
3720,11702
3729,11705
3745,11711
3762,11716
3770,11718
3773,11719
3777,11720
3786,11721
3803,11724
3822,11726
3837,11728
3849,11729
3859,11729
3864,11729
3865,11729
" style="stroke:#000000;stroke-width:15;
stroke-linejoin:bevel; stroke-linecap:butt;
"/>
<!-- Line -->
<!--  polyline  -->
<polyline points="2876,10589
2876,10589
2876,10589
" style="stroke:#000000;stroke-width:7;
stroke-linejoin:miter; stroke-linecap:butt;
"/>
<!-- Line -->
<!--  spline  -->
<polyline points="2680,10589
2682,10589
2690,10588
2701,10588
2709,10587
2711,10587
2712,10587
2716,10586
2722,10585
2730,10583
2741,10580
2751,10577
2755,10575
2756,10575
2760,10573
2769,10569
2778,10564
2782,10562
2783,10561
2787,10559
2795,10553
2804,10546
2811,10540
2815,10536
2818,10533
2819,10532
2820,10531
2825,10525
2833,10515
2838,10509
2839,10508
2840,10507
2842,10504
2846,10499
2851,10492
2856,10482
2860,10473
2862,10469
2863,10467
2864,10464
2867,10454
2870,10444
2871,10441
2871,10439
2872,10435
2874,10425
2875,10414
2876,10405
2876,10398
2876,10394
2876,10393
2876,10391
2875,10383
2875,10371
2874,10363
2874,10361
2874,10360
2873,10357
2872,10350
2870,10342
2867,10332
2864,10322
2863,10319
2862,10317
2860,10313
2856,10304
2851,10295
2849,10291
2848,10290
2845,10286
2839,10278
2832,10269
2827,10262
2822,10258
2820,10255
2819,10254
2818,10253
2812,10248
2802,10239
2796,10234
2795,10233
2794,10233
2791,10230
2786,10227
2779,10222
2769,10217
2760,10213
2756,10211
2755,10211
2751,10209
2741,10206
2731,10203
2727,10202
2725,10202
2721,10201
2711,10199
2700,10198
2691,10197
2685,10197
2681,10197
2680,10197
2678,10197
2670,10198
2658,10198
2650,10199
2648,10199
2647,10199
2644,10200
2637,10201
2629,10203
2619,10206
2609,10209
2606,10211
2604,10211
2600,10213
2591,10217
2582,10222
2578,10224
2577,10225
2573,10227
2565,10233
2556,10240
2549,10246
2545,10250
2542,10253
2541,10254
2540,10255
2535,10261
2526,10271
2521,10277
2520,10278
2520,10279
2517,10282
2514,10287
2509,10294
2504,10304
2500,10313
2498,10317
2498,10319
2496,10322
2493,10332
2490,10342
2489,10345
2489,10347
2488,10351
2486,10361
2485,10372
2484,10381
2484,10388
2484,10392
2484,10393
2484,10395
2485,10403
2485,10415
2486,10423
2486,10425
2486,10426
2487,10429
2488,10436
2490,10444
2493,10454
2496,10464
2498,10467
2498,10469
2500,10473
2504,10482
2509,10491
2511,10495
2512,10496
2514,10500
2520,10508
2527,10517
2533,10524
2537,10528
2540,10531
2541,10532
2542,10533
2548,10538
2558,10547
2564,10552
2565,10553
2566,10553
2569,10556
2574,10559
2581,10564
2591,10569
2600,10573
2604,10575
2606,10575
2609,10577
2619,10580
2629,10583
2632,10584
2634,10584
2638,10585
2648,10587
2659,10588
2668,10589
2675,10589
2679,10589
2680,10589
" style="stroke:#ffffff;stroke-width:0;
stroke-linejoin:bevel; stroke-linecap:butt;
fill:#ffffff;
"/>
<!-- Line -->
<!--  spline  -->
<polyline points="2680,10589
2682,10589
2690,10588
2701,10588
2709,10587
2711,10587
2712,10587
2716,10586
2722,10585
2730,10583
2741,10580
2751,10577
2755,10575
2756,10575
2760,10573
2769,10569
2778,10564
2782,10562
2783,10561
2787,10559
2795,10553
2804,10546
2811,10540
2815,10536
2818,10533
2819,10532
2820,10531
2825,10525
2833,10515
2838,10509
2839,10508
2840,10507
2842,10504
2846,10499
2851,10492
2856,10482
2860,10473
2862,10469
2863,10467
2864,10464
2867,10454
2870,10444
2871,10441
2871,10439
2872,10435
2874,10425
2875,10414
2876,10405
2876,10398
2876,10394
2876,10393
2876,10391
2875,10383
2875,10371
2874,10363
2874,10361
2874,10360
2873,10357
2872,10350
2870,10342
2867,10332
2864,10322
2863,10319
2862,10317
2860,10313
2856,10304
2851,10295
2849,10291
2848,10290
2845,10286
2839,10278
2832,10269
2827,10262
2822,10258
2820,10255
2819,10254
2818,10253
2812,10248
2802,10239
2796,10234
2795,10233
2794,10233
2791,10230
2786,10227
2779,10222
2769,10217
2760,10213
2756,10211
2755,10211
2751,10209
2741,10206
2731,10203
2727,10202
2725,10202
2721,10201
2711,10199
2700,10198
2691,10197
2685,10197
2681,10197
2680,10197
2678,10197
2670,10198
2658,10198
2650,10199
2648,10199
2647,10199
2644,10200
2637,10201
2629,10203
2619,10206
2609,10209
2606,10211
2604,10211
2600,10213
2591,10217
2582,10222
2578,10224
2577,10225
2573,10227
2565,10233
2556,10240
2549,10246
2545,10250
2542,10253
2541,10254
2540,10255
2535,10261
2526,10271
2521,10277
2520,10278
2520,10279
2517,10282
2514,10287
2509,10294
2504,10304
2500,10313
2498,10317
2498,10319
2496,10322
2493,10332
2490,10342
2489,10345
2489,10347
2488,10351
2486,10361
2485,10372
2484,10381
2484,10388
2484,10392
2484,10393
2484,10395
2485,10403
2485,10415
2486,10423
2486,10425
2486,10426
2487,10429
2488,10436
2490,10444
2493,10454
2496,10464
2498,10467
2498,10469
2500,10473
2504,10482
2509,10491
2511,10495
2512,10496
2514,10500
2520,10508
2527,10517
2533,10524
2537,10528
2540,10531
2541,10532
2542,10533
2548,10538
2558,10547
2564,10552
2565,10553
2566,10553
2569,10556
2574,10559
2581,10564
2591,10569
2600,10573
2604,10575
2606,10575
2609,10577
2619,10580
2629,10583
2632,10584
2634,10584
2638,10585
2648,10587
2659,10588
2668,10589
2675,10589
2679,10589
2680,10589
" style="stroke:#000000;stroke-width:15;
stroke-linejoin:bevel; stroke-linecap:butt;
"/>
<!-- Line -->
<!--  spline  -->
<polyline points="2355,11010
2357,11010
2365,11009
2376,11009
2384,11008
2386,11008
2387,11008
2391,11007
2397,11006
2405,11004
2416,11001
2426,10998
2430,10996
2431,10995
2435,10994
2444,10989
2453,10984
2456,10982
2457,10981
2461,10979
2469,10973
2478,10966
2484,10961
2489,10956
2492,10954
2493,10953
2494,10952
2499,10946
2508,10936
2513,10930
2514,10929
2514,10928
2517,10925
2520,10920
2525,10913
2530,10903
2535,10894
2536,10890
2537,10889
2539,10885
2542,10875
2545,10865
2546,10861
2546,10859
2547,10855
2549,10845
2550,10834
2551,10825
2551,10819
2551,10815
2551,10814
2551,10812
2550,10804
2550,10792
2549,10784
2549,10782
2549,10781
2548,10777
2547,10771
2545,10763
2542,10752
2539,10743
2537,10739
2536,10738
2535,10734
2530,10725
2525,10716
2523,10712
2522,10711
2520,10707
2514,10699
2507,10690
2501,10683
2497,10679
2494,10676
2493,10675
2492,10674
2486,10669
2476,10660
2470,10655
2469,10654
2468,10654
2465,10651
2460,10648
2453,10643
2444,10638
2435,10634
2431,10632
2430,10632
2426,10630
2416,10627
2406,10624
2402,10623
2400,10623
2396,10622
2386,10620
2375,10618
2366,10618
2360,10617
2356,10617
2355,10617
2353,10617
2345,10618
2333,10619
2325,10620
2323,10620
2322,10620
2318,10621
2312,10622
2304,10624
2293,10627
2284,10630
2280,10632
2279,10632
2275,10634
2266,10638
2257,10643
2253,10645
2252,10646
2248,10648
2240,10654
2231,10661
2224,10667
2220,10671
2217,10674
2216,10675
2215,10676
2210,10682
2201,10692
2196,10698
2195,10699
2195,10700
2192,10703
2189,10708
2184,10715
2179,10725
2174,10734
2173,10738
2172,10739
2170,10743
2167,10752
2164,10762
2163,10766
2163,10767
2163,10772
2161,10782
2160,10793
2159,10802
2158,10809
2158,10813
2158,10814
2158,10816
2159,10824
2160,10835
2161,10843
2161,10845
2161,10846
2162,10850
2162,10856
2164,10864
2167,10875
2170,10885
2172,10889
2173,10890
2174,10894
2179,10903
2184,10912
2186,10916
2187,10917
2189,10921
2195,10929
2202,10938
2208,10945
2212,10949
2215,10952
2216,10953
2217,10954
2223,10959
2233,10967
2239,10972
2240,10973
2241,10973
2244,10976
2249,10979
2256,10984
2266,10989
2275,10994
2279,10995
2280,10996
2284,10998
2293,11001
2303,11004
2307,11005
2308,11005
2313,11006
2323,11008
2334,11009
2343,11010
2350,11010
2354,11010
2355,11010
" style="stroke:#ffffff;stroke-width:0;
stroke-linejoin:bevel; stroke-linecap:butt;
fill:#ffffff;
"/>
<!-- Line -->
<!--  spline  -->
<polyline points="2355,11010
2357,11010
2365,11009
2376,11009
2384,11008
2386,11008
2387,11008
2391,11007
2397,11006
2405,11004
2416,11001
2426,10998
2430,10996
2431,10995
2435,10994
2444,10989
2453,10984
2456,10982
2457,10981
2461,10979
2469,10973
2478,10966
2484,10961
2489,10956
2492,10954
2493,10953
2494,10952
2499,10946
2508,10936
2513,10930
2514,10929
2514,10928
2517,10925
2520,10920
2525,10913
2530,10903
2535,10894
2536,10890
2537,10889
2539,10885
2542,10875
2545,10865
2546,10861
2546,10859
2547,10855
2549,10845
2550,10834
2551,10825
2551,10819
2551,10815
2551,10814
2551,10812
2550,10804
2550,10792
2549,10784
2549,10782
2549,10781
2548,10777
2547,10771
2545,10763
2542,10752
2539,10743
2537,10739
2536,10738
2535,10734
2530,10725
2525,10716
2523,10712
2522,10711
2520,10707
2514,10699
2507,10690
2501,10683
2497,10679
2494,10676
2493,10675
2492,10674
2486,10669
2476,10660
2470,10655
2469,10654
2468,10654
2465,10651
2460,10648
2453,10643
2444,10638
2435,10634
2431,10632
2430,10632
2426,10630
2416,10627
2406,10624
2402,10623
2400,10623
2396,10622
2386,10620
2375,10618
2366,10618
2360,10617
2356,10617
2355,10617
2353,10617
2345,10618
2333,10619
2325,10620
2323,10620
2322,10620
2318,10621
2312,10622
2304,10624
2293,10627
2284,10630
2280,10632
2279,10632
2275,10634
2266,10638
2257,10643
2253,10645
2252,10646
2248,10648
2240,10654
2231,10661
2224,10667
2220,10671
2217,10674
2216,10675
2215,10676
2210,10682
2201,10692
2196,10698
2195,10699
2195,10700
2192,10703
2189,10708
2184,10715
2179,10725
2174,10734
2173,10738
2172,10739
2170,10743
2167,10752
2164,10762
2163,10766
2163,10767
2163,10772
2161,10782
2160,10793
2159,10802
2158,10809
2158,10813
2158,10814
2158,10816
2159,10824
2160,10835
2161,10843
2161,10845
2161,10846
2162,10850
2162,10856
2164,10864
2167,10875
2170,10885
2172,10889
2173,10890
2174,10894
2179,10903
2184,10912
2186,10916
2187,10917
2189,10921
2195,10929
2202,10938
2208,10945
2212,10949
2215,10952
2216,10953
2217,10954
2223,10959
2233,10967
2239,10972
2240,10973
2241,10973
2244,10976
2249,10979
2256,10984
2266,10989
2275,10994
2279,10995
2280,10996
2284,10998
2293,11001
2303,11004
2307,11005
2308,11005
2313,11006
2323,11008
2334,11009
2343,11010
2350,11010
2354,11010
2355,11010
" style="stroke:#000000;stroke-width:15;
stroke-linejoin:bevel; stroke-linecap:butt;
"/>
<!-- Line -->
<!--  polyline  -->
<polyline points="2551,11010
2551,11010
2551,11010
" style="stroke:#000000;stroke-width:7;
stroke-linejoin:miter; stroke-linecap:butt;
"/>
<!-- Line -->
<!--  polyline  -->
<polyline points="2383,11541
2383,11541
2383,11541
" style="stroke:#000000;stroke-width:7;
stroke-linejoin:miter; stroke-linecap:butt;
"/>
<!-- Line -->
<!--  spline  -->
<polyline points="2186,11541
2188,11541
2196,11540
2208,11540
2216,11539
2218,11539
2219,11539
2223,11538
2229,11537
2237,11535
2248,11532
2257,11529
2261,11528
2262,11527
2266,11525
2275,11521
2284,11516
2288,11514
2289,11513
2293,11510
2301,11504
2310,11497
2317,11492
2321,11487
2324,11485
2325,11484
2326,11483
2331,11477
2340,11467
2345,11461
2346,11460
2346,11459
2349,11456
2352,11451
2357,11444
2362,11434
2366,11425
2368,11421
2368,11420
2370,11416
2373,11406
2376,11396
2377,11392
2377,11390
2378,11386
2380,11376
2382,11365
2382,11356
2383,11350
2383,11346
2383,11345
2383,11343
2382,11335
2381,11323
2380,11315
2380,11313
2380,11312
2379,11309
2378,11302
2376,11294
2373,11284
2370,11274
2368,11271
2368,11269
2366,11265
2362,11256
2357,11247
2355,11243
2354,11242
2352,11238
2346,11230
2339,11221
2333,11214
2329,11210
2326,11207
2325,11206
2324,11205
2318,11200
2308,11191
2302,11186
2301,11185
2300,11185
2297,11182
2292,11179
2285,11174
2275,11169
2266,11165
2262,11163
2261,11163
2257,11161
2248,11158
2238,11155
2234,11154
2233,11154
2228,11153
2218,11151
2207,11150
2198,11149
2191,11149
2187,11149
2186,11149
2184,11149
2176,11150
2165,11150
2157,11151
2155,11151
2154,11151
2150,11152
2144,11153
2136,11155
2125,11158
2115,11161
2111,11163
2110,11163
2106,11165
2097,11169
2088,11174
2084,11176
2083,11177
2079,11179
2071,11185
2062,11192
2055,11198
2051,11202
2048,11205
2047,11206
2046,11207
2041,11213
2033,11223
2028,11229
2027,11230
2027,11231
2024,11234
2021,11239
2016,11246
2011,11256
2006,11265
2005,11269
2004,11271
2002,11274
1999,11284
1996,11294
1995,11297
1995,11299
1994,11303
1992,11313
1991,11324
1990,11333
1990,11340
1990,11344
1990,11345
1990,11347
1991,11355
1991,11366
1992,11374
1992,11376
1992,11377
1993,11381
1994,11387
1996,11395
1999,11406
2002,11416
2004,11420
2005,11421
2006,11425
2011,11434
2016,11443
2018,11447
2019,11448
2021,11452
2027,11460
2034,11469
2039,11476
2044,11480
2046,11483
2047,11484
2048,11485
2054,11490
2064,11498
2070,11503
2071,11504
2072,11505
2075,11507
2080,11511
2087,11516
2097,11521
2106,11525
2110,11527
2111,11528
2115,11529
2125,11532
2135,11535
2139,11536
2141,11536
2145,11537
2155,11539
2166,11540
2175,11541
2181,11541
2185,11541
2186,11541
" style="stroke:#ffffff;stroke-width:0;
stroke-linejoin:bevel; stroke-linecap:butt;
fill:#ffffff;
"/>
<!-- Line -->
<!--  spline  -->
<polyline points="2186,11541
2188,11541
2196,11540
2208,11540
2216,11539
2218,11539
2219,11539
2223,11538
2229,11537
2237,11535
2248,11532
2257,11529
2261,11528
2262,11527
2266,11525
2275,11521
2284,11516
2288,11514
2289,11513
2293,11510
2301,11504
2310,11497
2317,11492
2321,11487
2324,11485
2325,11484
2326,11483
2331,11477
2340,11467
2345,11461
2346,11460
2346,11459
2349,11456
2352,11451
2357,11444
2362,11434
2366,11425
2368,11421
2368,11420
2370,11416
2373,11406
2376,11396
2377,11392
2377,11390
2378,11386
2380,11376
2382,11365
2382,11356
2383,11350
2383,11346
2383,11345
2383,11343
2382,11335
2381,11323
2380,11315
2380,11313
2380,11312
2379,11309
2378,11302
2376,11294
2373,11284
2370,11274
2368,11271
2368,11269
2366,11265
2362,11256
2357,11247
2355,11243
2354,11242
2352,11238
2346,11230
2339,11221
2333,11214
2329,11210
2326,11207
2325,11206
2324,11205
2318,11200
2308,11191
2302,11186
2301,11185
2300,11185
2297,11182
2292,11179
2285,11174
2275,11169
2266,11165
2262,11163
2261,11163
2257,11161
2248,11158
2238,11155
2234,11154
2233,11154
2228,11153
2218,11151
2207,11150
2198,11149
2191,11149
2187,11149
2186,11149
2184,11149
2176,11150
2165,11150
2157,11151
2155,11151
2154,11151
2150,11152
2144,11153
2136,11155
2125,11158
2115,11161
2111,11163
2110,11163
2106,11165
2097,11169
2088,11174
2084,11176
2083,11177
2079,11179
2071,11185
2062,11192
2055,11198
2051,11202
2048,11205
2047,11206
2046,11207
2041,11213
2033,11223
2028,11229
2027,11230
2027,11231
2024,11234
2021,11239
2016,11246
2011,11256
2006,11265
2005,11269
2004,11271
2002,11274
1999,11284
1996,11294
1995,11297
1995,11299
1994,11303
1992,11313
1991,11324
1990,11333
1990,11340
1990,11344
1990,11345
1990,11347
1991,11355
1991,11366
1992,11374
1992,11376
1992,11377
1993,11381
1994,11387
1996,11395
1999,11406
2002,11416
2004,11420
2005,11421
2006,11425
2011,11434
2016,11443
2018,11447
2019,11448
2021,11452
2027,11460
2034,11469
2039,11476
2044,11480
2046,11483
2047,11484
2048,11485
2054,11490
2064,11498
2070,11503
2071,11504
2072,11505
2075,11507
2080,11511
2087,11516
2097,11521
2106,11525
2110,11527
2111,11528
2115,11529
2125,11532
2135,11535
2139,11536
2141,11536
2145,11537
2155,11539
2166,11540
2175,11541
2181,11541
2185,11541
2186,11541
" style="stroke:#000000;stroke-width:15;
stroke-linejoin:bevel; stroke-linecap:butt;
"/>
<!-- Line -->
<!--  polyline  -->
<polyline points="2743,12374
2743,12374
2743,12374
" style="stroke:#000000;stroke-width:7;
stroke-linejoin:miter; stroke-linecap:butt;
"/>
<!-- Line -->
<!--  spline  -->
<polyline points="2547,12374
2549,12374
2557,12373
2568,12373
2576,12372
2578,12372
2579,12372
2583,12371
2589,12370
2597,12368
2608,12365
2618,12362
2622,12360
2623,12359
2627,12358
2636,12353
2645,12348
2649,12346
2650,12345
2654,12343
2662,12337
2671,12330
2678,12324
2682,12320
2685,12317
2686,12316
2687,12315
2692,12309
2700,12299
2705,12293
2706,12292
2706,12291
2709,12288
2712,12283
2717,12276
2722,12267
2727,12258
2728,12254
2729,12253
2731,12249
2734,12239
2737,12229
2738,12225
2738,12223
2739,12219
2741,12209
2742,12198
2743,12189
2743,12183
2743,12179
2743,12178
2743,12176
2742,12168
2742,12156
2741,12148
2741,12146
2741,12145
2740,12141
2739,12135
2737,12127
2734,12116
2731,12107
2729,12103
2728,12102
2727,12098
2722,12089
2717,12080
2715,12076
2714,12075
2712,12071
2706,12063
2699,12054
2694,12047
2689,12043
2687,12040
2686,12039
2685,12038
2679,12033
2669,12024
2663,12019
2662,12018
2661,12018
2658,12015
2653,12012
2646,12007
2636,12002
2627,11997
2623,11996
2622,11995
2618,11993
2608,11990
2598,11987
2594,11986
2592,11986
2588,11986
2578,11984
2567,11983
2558,11982
2552,11981
2548,11981
2547,11981
2545,11981
2537,11982
2525,11983
2517,11984
2515,11984
2514,11984
2510,11985
2504,11985
2496,11987
2485,11990
2476,11993
2472,11995
2471,11996
2467,11997
2458,12002
2449,12007
2445,12009
2444,12010
2440,12012
2432,12018
2423,12025
2416,12031
2412,12035
2409,12038
2408,12039
2407,12040
2402,12046
2393,12056
2388,12062
2387,12063
2387,12064
2384,12067
2381,12072
2376,12079
2371,12089
2367,12098
2365,12102
2365,12103
2363,12107
2360,12116
2357,12126
2356,12130
2356,12131
2355,12136
2353,12146
2351,12157
2351,12166
2350,12173
2350,12177
2350,12178
2350,12180
2351,12188
2352,12199
2353,12207
2353,12209
2353,12210
2354,12214
2355,12220
2357,12228
2360,12239
2363,12249
2365,12253
2365,12254
2367,12258
2371,12267
2376,12276
2378,12279
2379,12280
2381,12284
2387,12292
2394,12301
2400,12307
2404,12312
2407,12315
2408,12316
2409,12317
2415,12322
2425,12331
2431,12336
2432,12337
2433,12337
2436,12340
2441,12343
2448,12348
2458,12353
2467,12358
2471,12359
2472,12360
2476,12362
2485,12365
2495,12368
2499,12369
2500,12369
2505,12370
2515,12372
2526,12373
2535,12374
2542,12374
2546,12374
2547,12374
" style="stroke:#ffffff;stroke-width:0;
stroke-linejoin:bevel; stroke-linecap:butt;
fill:#ffffff;
"/>
<!-- Line -->
<!--  spline  -->
<polyline points="2547,12374
2549,12374
2557,12373
2568,12373
2576,12372
2578,12372
2579,12372
2583,12371
2589,12370
2597,12368
2608,12365
2618,12362
2622,12360
2623,12359
2627,12358
2636,12353
2645,12348
2649,12346
2650,12345
2654,12343
2662,12337
2671,12330
2678,12324
2682,12320
2685,12317
2686,12316
2687,12315
2692,12309
2700,12299
2705,12293
2706,12292
2706,12291
2709,12288
2712,12283
2717,12276
2722,12267
2727,12258
2728,12254
2729,12253
2731,12249
2734,12239
2737,12229
2738,12225
2738,12223
2739,12219
2741,12209
2742,12198
2743,12189
2743,12183
2743,12179
2743,12178
2743,12176
2742,12168
2742,12156
2741,12148
2741,12146
2741,12145
2740,12141
2739,12135
2737,12127
2734,12116
2731,12107
2729,12103
2728,12102
2727,12098
2722,12089
2717,12080
2715,12076
2714,12075
2712,12071
2706,12063
2699,12054
2694,12047
2689,12043
2687,12040
2686,12039
2685,12038
2679,12033
2669,12024
2663,12019
2662,12018
2661,12018
2658,12015
2653,12012
2646,12007
2636,12002
2627,11997
2623,11996
2622,11995
2618,11993
2608,11990
2598,11987
2594,11986
2592,11986
2588,11986
2578,11984
2567,11983
2558,11982
2552,11981
2548,11981
2547,11981
2545,11981
2537,11982
2525,11983
2517,11984
2515,11984
2514,11984
2510,11985
2504,11985
2496,11987
2485,11990
2476,11993
2472,11995
2471,11996
2467,11997
2458,12002
2449,12007
2445,12009
2444,12010
2440,12012
2432,12018
2423,12025
2416,12031
2412,12035
2409,12038
2408,12039
2407,12040
2402,12046
2393,12056
2388,12062
2387,12063
2387,12064
2384,12067
2381,12072
2376,12079
2371,12089
2367,12098
2365,12102
2365,12103
2363,12107
2360,12116
2357,12126
2356,12130
2356,12131
2355,12136
2353,12146
2351,12157
2351,12166
2350,12173
2350,12177
2350,12178
2350,12180
2351,12188
2352,12199
2353,12207
2353,12209
2353,12210
2354,12214
2355,12220
2357,12228
2360,12239
2363,12249
2365,12253
2365,12254
2367,12258
2371,12267
2376,12276
2378,12279
2379,12280
2381,12284
2387,12292
2394,12301
2400,12307
2404,12312
2407,12315
2408,12316
2409,12317
2415,12322
2425,12331
2431,12336
2432,12337
2433,12337
2436,12340
2441,12343
2448,12348
2458,12353
2467,12358
2471,12359
2472,12360
2476,12362
2485,12365
2495,12368
2499,12369
2500,12369
2505,12370
2515,12372
2526,12373
2535,12374
2542,12374
2546,12374
2547,12374
" style="stroke:#000000;stroke-width:15;
stroke-linejoin:bevel; stroke-linecap:butt;
"/>
<!-- Text -->
<!--  text  -->
<text xml:space="preserve" x="2044" y="13090" stroke="#000000" fill="#000000"  font-family="Times" font-style="normal" font-weight="normal" font-size="156" text-anchor="start">F</text>
<!-- Text -->
<!--  text  -->
<text xml:space="preserve" x="2155" y="13090" stroke="#000000" fill="#000000"  font-family="Times" font-style="normal" font-weight="normal" font-size="156" text-anchor="start">i</text>
<!-- Text -->
<!--  text  -->
<text xml:space="preserve" x="2210" y="13090" stroke="#000000" fill="#000000"  font-family="Times" font-style="normal" font-weight="normal" font-size="156" text-anchor="start">g</text>
<!-- Text -->
<!--  text  -->
<text xml:space="preserve" x="2310" y="13090" stroke="#000000" fill="#000000"  font-family="Times" font-style="normal" font-weight="normal" font-size="156" text-anchor="start">u</text>
<!-- Text -->
<!--  text  -->
<text xml:space="preserve" x="2410" y="13090" stroke="#000000" fill="#000000"  font-family="Times" font-style="normal" font-weight="normal" font-size="156" text-anchor="start">r</text>
<!-- Text -->
<!--  text  -->
<text xml:space="preserve" x="2477" y="13090" stroke="#000000" fill="#000000"  font-family="Times" font-style="normal" font-weight="normal" font-size="156" text-anchor="start">e</text>
<!-- Text -->
<!--  text  -->
<text xml:space="preserve" x="2636" y="13090" stroke="#000000" fill="#000000"  font-family="Times" font-style="normal" font-weight="normal" font-size="156" text-anchor="start">6</text>
<!-- Text -->
<!--  text  -->
<text xml:space="preserve" x="2736" y="13090" stroke="#000000" fill="#000000"  font-family="Times" font-style="normal" font-weight="normal" font-size="156" text-anchor="start">-</text>
<!-- Text -->
<!--  text  -->
<text xml:space="preserve" x="2802" y="13090" stroke="#000000" fill="#000000"  font-family="Times" font-style="normal" font-weight="normal" font-size="156" text-anchor="start">1</text>
<!-- Text -->
<!--  text  -->
<text xml:space="preserve" x="2902" y="13090" stroke="#000000" fill="#000000"  font-family="Times" font-style="normal" font-weight="normal" font-size="156" text-anchor="start">:</text>
<!-- Text -->
<!--  text  -->
<text xml:space="preserve" x="3028" y="13090" stroke="#000000" fill="#000000"  font-family="Times" font-style="normal" font-weight="normal" font-size="156" text-anchor="start">A</text>
<!-- Text -->
<!--  text  -->
<text xml:space="preserve" x="3242" y="13090" stroke="#000000" fill="#000000"  font-family="Times" font-style="normal" font-weight="normal" font-size="156" text-anchor="start">p</text>
<!-- Text -->
<!--  text  -->
<text xml:space="preserve" x="3342" y="13090" stroke="#000000" fill="#000000"  font-family="Times" font-style="normal" font-weight="normal" font-size="156" text-anchor="start">e</text>
<!-- Text -->
<!--  text  -->
<text xml:space="preserve" x="3431" y="13090" stroke="#000000" fill="#000000"  font-family="Times" font-style="normal" font-weight="normal" font-size="156" text-anchor="start">r</text>
<!-- Text -->
<!--  text  -->
<text xml:space="preserve" x="3497" y="13090" stroke="#000000" fill="#000000"  font-family="Times" font-style="normal" font-weight="normal" font-size="156" text-anchor="start">c</text>
<!-- Text -->
<!--  text  -->
<text xml:space="preserve" x="3586" y="13090" stroke="#000000" fill="#000000"  font-family="Times" font-style="normal" font-weight="normal" font-size="156" text-anchor="start">e</text>
<!-- Text -->
<!--  text  -->
<text xml:space="preserve" x="3675" y="13090" stroke="#000000" fill="#000000"  font-family="Times" font-style="normal" font-weight="normal" font-size="156" text-anchor="start">p</text>
<!-- Text -->
<!--  text  -->
<text xml:space="preserve" x="3775" y="13090" stroke="#000000" fill="#000000"  font-family="Times" font-style="normal" font-weight="normal" font-size="156" text-anchor="start">t</text>
<!-- Text -->
<!--  text  -->
<text xml:space="preserve" x="3830" y="13090" stroke="#000000" fill="#000000"  font-family="Times" font-style="normal" font-weight="normal" font-size="156" text-anchor="start">r</text>
<!-- Text -->
<!--  text  -->
<text xml:space="preserve" x="3897" y="13090" stroke="#000000" fill="#000000"  font-family="Times" font-style="normal" font-weight="normal" font-size="156" text-anchor="start">o</text>
<!-- Text -->
<!--  text  -->
<text xml:space="preserve" x="3997" y="13090" stroke="#000000" fill="#000000"  font-family="Times" font-style="normal" font-weight="normal" font-size="156" text-anchor="start">n</text>
<!-- Text -->
<!--  text  -->
<text xml:space="preserve" x="4167" y="13090" stroke="#000000" fill="#000000"  font-family="Times" font-style="normal" font-weight="normal" font-size="156" text-anchor="start">p</text>
<!-- Text -->
<!--  text  -->
<text xml:space="preserve" x="4267" y="13090" stroke="#000000" fill="#000000"  font-family="Times" font-style="normal" font-weight="normal" font-size="156" text-anchor="start">r</text>
<!-- Text -->
<!--  text  -->
<text xml:space="preserve" x="4333" y="13090" stroke="#000000" fill="#000000"  font-family="Times" font-style="normal" font-weight="normal" font-size="156" text-anchor="start">o</text>
<!-- Text -->
<!--  text  -->
<text xml:space="preserve" x="4433" y="13090" stroke="#000000" fill="#000000"  font-family="Times" font-style="normal" font-weight="normal" font-size="156" text-anchor="start">c</text>
<!-- Text -->
<!--  text  -->
<text xml:space="preserve" x="4522" y="13090" stroke="#000000" fill="#000000"  font-family="Times" font-style="normal" font-weight="normal" font-size="156" text-anchor="start">e</text>
<!-- Text -->
<!--  text  -->
<text xml:space="preserve" x="4611" y="13090" stroke="#000000" fill="#000000"  font-family="Times" font-style="normal" font-weight="normal" font-size="156" text-anchor="start">s</text>
<!-- Text -->
<!--  text  -->
<text xml:space="preserve" x="4689" y="13090" stroke="#000000" fill="#000000"  font-family="Times" font-style="normal" font-weight="normal" font-size="156" text-anchor="start">s</text>
<!-- Text -->
<!--  text  -->
<text xml:space="preserve" x="4767" y="13090" stroke="#000000" fill="#000000"  font-family="Times" font-style="normal" font-weight="normal" font-size="156" text-anchor="start">i</text>
<!-- Text -->
<!--  text  -->
<text xml:space="preserve" x="4822" y="13090" stroke="#000000" fill="#000000"  font-family="Times" font-style="normal" font-weight="normal" font-size="156" text-anchor="start">n</text>
<!-- Text -->
<!--  text  -->
<text xml:space="preserve" x="4922" y="13090" stroke="#000000" fill="#000000"  font-family="Times" font-style="normal" font-weight="normal" font-size="156" text-anchor="start">g</text>
<!-- Text -->
<!--  text  -->
<text xml:space="preserve" x="5092" y="13090" stroke="#000000" fill="#000000"  font-family="Times" font-style="normal" font-weight="normal" font-size="156" text-anchor="start">u</text>
<!-- Text -->
<!--  text  -->
<text xml:space="preserve" x="5192" y="13090" stroke="#000000" fill="#000000"  font-family="Times" font-style="normal" font-weight="normal" font-size="156" text-anchor="start">n</text>
<!-- Text -->
<!--  text  -->
<text xml:space="preserve" x="5292" y="13090" stroke="#000000" fill="#000000"  font-family="Times" font-style="normal" font-weight="normal" font-size="156" text-anchor="start">i</text>
<!-- Text -->
<!--  text  -->
<text xml:space="preserve" x="5348" y="13090" stroke="#000000" fill="#000000"  font-family="Times" font-style="normal" font-weight="normal" font-size="156" text-anchor="start">t</text>
<!-- Text -->
<!--  text  -->
<g transform="translate(2261,11601) rotate(-294.77647235)" >
<text xml:space="preserve" x="0" y="0" stroke="#000000" fill="#000000"  font-family="Times" font-style="normal" font-weight="normal" font-size="156" text-anchor="start">.</text>
</g><!-- Text -->
<!--  text  -->
<g transform="translate(2311,11710) rotate(-294.77647235)" >
<text xml:space="preserve" x="0" y="0" stroke="#000000" fill="#000000"  font-family="Times" font-style="normal" font-weight="normal" font-size="156" text-anchor="start">.</text>
</g><!-- Text -->
<!--  text  -->
<g transform="translate(2362,11819) rotate(-294.77647235)" >
<text xml:space="preserve" x="0" y="0" stroke="#000000" fill="#000000"  font-family="Times" font-style="normal" font-weight="normal" font-size="156" text-anchor="start">.</text>
</g></g>
</svg>
