<?xml version="1.0" standalone="no"?>
<!DOCTYPE svg PUBLIC "-//W3C//DTD SVG 1.1//EN"
"http://www.w3.org/Graphics/SVG/1.1/DTD/svg11.dtd">
<!-- Creator: fig2dev Version 3.2 Patchlevel 5 -->
<!-- CreationDate: Sat Jul  4 12:13:17 2015 -->
<!-- Magnification: 1.000 -->
<svg xmlns="http://www.w3.org/2000/svg" width="6.1in" height="3.0in" viewBox="111 9569 7261 3605">
<g style="stroke-width:.025in; stroke:black; fill:none">
<!-- Line -->
<!--  polyline  -->
<polyline points="133,9591
7350,9591
7350,12868
133,12868
133,9591
" style="stroke:#000000;stroke-width:15;
stroke-linejoin:miter; stroke-linecap:butt;
"/>
<!-- Line -->
<!--  spline  -->
<polyline points="4442,12323
4443,12323
4447,12323
4452,12322
4456,12322
4457,12322
4459,12322
4462,12321
4465,12320
4470,12319
4474,12317
4476,12317
4477,12316
4479,12315
4483,12313
4487,12311
4489,12310
4491,12309
4495,12306
4499,12303
4502,12300
4504,12298
4506,12296
4507,12295
4509,12293
4513,12288
4515,12286
4516,12285
4517,12283
4519,12281
4521,12277
4523,12273
4525,12269
4526,12267
4527,12266
4527,12264
4529,12260
4530,12256
4531,12254
4531,12253
4531,12252
4532,12247
4533,12242
4533,12238
4533,12234
4533,12232
4533,12231
4533,12228
4532,12222
4532,12219
4532,12218
4532,12216
4531,12213
4530,12209
4529,12204
4527,12200
4527,12198
4526,12197
4525,12195
4523,12191
4521,12187
4520,12185
4519,12183
4516,12179
4513,12175
4510,12172
4508,12170
4506,12168
4505,12168
4503,12165
4498,12162
4496,12159
4495,12159
4493,12158
4491,12156
4487,12154
4483,12151
4479,12149
4477,12148
4476,12148
4474,12147
4470,12146
4466,12145
4464,12144
4463,12144
4462,12144
4457,12143
4452,12142
4448,12142
4444,12142
4442,12142
4441,12142
4438,12142
4432,12143
4429,12143
4428,12143
4426,12143
4423,12144
4419,12145
4414,12146
4410,12147
4408,12148
4407,12148
4405,12149
4401,12151
4397,12153
4395,12154
4395,12155
4393,12156
4389,12159
4385,12162
4382,12165
4380,12167
4378,12168
4378,12169
4375,12171
4372,12176
4369,12178
4369,12179
4368,12181
4366,12183
4364,12187
4361,12191
4359,12195
4358,12197
4358,12198
4357,12200
4356,12204
4355,12209
4354,12211
4354,12213
4353,12218
4352,12223
4352,12227
4352,12230
4352,12232
4352,12233
4352,12237
4353,12242
4353,12246
4353,12247
4353,12249
4354,12252
4355,12255
4356,12260
4357,12264
4358,12266
4358,12267
4359,12269
4361,12273
4363,12277
4364,12279
4365,12279
4366,12281
4369,12285
4372,12289
4375,12292
4377,12294
4378,12296
4379,12297
4381,12299
4386,12303
4388,12305
4389,12306
4391,12307
4393,12309
4397,12311
4401,12313
4405,12315
4407,12316
4408,12317
4410,12317
4414,12319
4419,12320
4421,12321
4423,12321
4428,12322
4433,12323
4437,12323
4440,12323
4442,12323
" style="stroke:#000000;stroke-width:0;
stroke-linejoin:bevel; stroke-linecap:butt;
fill:#000000;
"/>
<!-- Line -->
<!--  spline  -->
<polyline points="4442,12323
4443,12323
4447,12323
4452,12322
4456,12322
4457,12322
4459,12322
4462,12321
4465,12320
4470,12319
4474,12317
4476,12317
4477,12316
4479,12315
4483,12313
4487,12311
4489,12310
4491,12309
4495,12306
4499,12303
4502,12300
4504,12298
4506,12296
4507,12295
4509,12293
4513,12288
4515,12286
4516,12285
4517,12283
4519,12281
4521,12277
4523,12273
4525,12269
4526,12267
4527,12266
4527,12264
4529,12260
4530,12256
4531,12254
4531,12253
4531,12252
4532,12247
4533,12242
4533,12238
4533,12234
4533,12232
4533,12231
4533,12228
4532,12222
4532,12219
4532,12218
4532,12216
4531,12213
4530,12209
4529,12204
4527,12200
4527,12198
4526,12197
4525,12195
4523,12191
4521,12187
4520,12185
4519,12183
4516,12179
4513,12175
4510,12172
4508,12170
4506,12168
4505,12168
4503,12165
4498,12162
4496,12159
4495,12159
4493,12158
4491,12156
4487,12154
4483,12151
4479,12149
4477,12148
4476,12148
4474,12147
4470,12146
4466,12145
4464,12144
4463,12144
4462,12144
4457,12143
4452,12142
4448,12142
4444,12142
4442,12142
4441,12142
4438,12142
4432,12143
4429,12143
4428,12143
4426,12143
4423,12144
4419,12145
4414,12146
4410,12147
4408,12148
4407,12148
4405,12149
4401,12151
4397,12153
4395,12154
4395,12155
4393,12156
4389,12159
4385,12162
4382,12165
4380,12167
4378,12168
4378,12169
4375,12171
4372,12176
4369,12178
4369,12179
4368,12181
4366,12183
4364,12187
4361,12191
4359,12195
4358,12197
4358,12198
4357,12200
4356,12204
4355,12209
4354,12211
4354,12213
4353,12218
4352,12223
4352,12227
4352,12230
4352,12232
4352,12233
4352,12237
4353,12242
4353,12246
4353,12247
4353,12249
4354,12252
4355,12255
4356,12260
4357,12264
4358,12266
4358,12267
4359,12269
4361,12273
4363,12277
4364,12279
4365,12279
4366,12281
4369,12285
4372,12289
4375,12292
4377,12294
4378,12296
4379,12297
4381,12299
4386,12303
4388,12305
4389,12306
4391,12307
4393,12309
4397,12311
4401,12313
4405,12315
4407,12316
4408,12317
4410,12317
4414,12319
4419,12320
4421,12321
4423,12321
4428,12322
4433,12323
4437,12323
4440,12323
4442,12323
" style="stroke:#000000;stroke-width:0;
stroke-linejoin:bevel; stroke-linecap:butt;
"/>
<!-- Line -->
<!--  spline  -->
<polyline points="2495,12332
2496,12332
2499,12332
2505,12331
2508,12331
2509,12331
2511,12331
2514,12330
2518,12329
2523,12328
2527,12326
2529,12326
2530,12325
2532,12324
2536,12322
2540,12320
2542,12319
2544,12318
2548,12315
2552,12312
2555,12309
2557,12307
2559,12305
2559,12304
2562,12302
2565,12297
2568,12295
2568,12294
2569,12292
2571,12290
2573,12286
2576,12282
2578,12278
2579,12276
2580,12274
2581,12270
2582,12266
2583,12264
2583,12263
2583,12261
2584,12256
2585,12251
2585,12247
2585,12243
2585,12241
2585,12240
2585,12237
2584,12231
2584,12228
2584,12227
2584,12225
2583,12222
2582,12218
2581,12213
2580,12209
2579,12207
2579,12206
2578,12204
2576,12200
2574,12196
2573,12194
2572,12194
2571,12192
2568,12188
2565,12184
2562,12181
2560,12179
2559,12177
2558,12177
2556,12174
2551,12171
2549,12168
2548,12168
2546,12167
2544,12165
2540,12163
2536,12160
2532,12158
2530,12157
2529,12157
2527,12156
2523,12155
2518,12154
2516,12153
2514,12153
2509,12152
2504,12151
2500,12151
2497,12151
2495,12151
2494,12151
2490,12151
2485,12152
2481,12152
2480,12152
2478,12152
2475,12153
2471,12154
2466,12155
2462,12156
2460,12157
2459,12157
2457,12158
2453,12160
2449,12162
2448,12163
2447,12164
2446,12165
2442,12168
2438,12171
2434,12174
2432,12176
2430,12177
2430,12178
2427,12180
2424,12185
2421,12187
2421,12188
2420,12190
2418,12192
2416,12196
2413,12200
2411,12204
2410,12206
2410,12207
2409,12209
2408,12213
2407,12218
2406,12220
2406,12222
2405,12227
2404,12232
2404,12236
2404,12239
2404,12241
2404,12242
2404,12246
2405,12251
2405,12255
2405,12256
2405,12258
2406,12261
2407,12265
2408,12270
2409,12274
2410,12276
2411,12278
2413,12282
2415,12286
2416,12288
2417,12288
2418,12290
2421,12294
2424,12298
2427,12301
2429,12303
2430,12305
2431,12306
2434,12308
2438,12312
2441,12314
2442,12315
2444,12316
2446,12318
2449,12320
2453,12322
2457,12324
2459,12325
2460,12326
2462,12326
2466,12328
2471,12329
2472,12330
2473,12330
2475,12330
2480,12331
2485,12332
2489,12332
2493,12332
2495,12332
" style="stroke:#ffffff;stroke-width:0;
stroke-linejoin:bevel; stroke-linecap:butt;
fill:#ffffff;
"/>
<!-- Line -->
<!--  spline  -->
<polyline points="2495,12332
2496,12332
2499,12332
2505,12331
2508,12331
2509,12331
2511,12331
2514,12330
2518,12329
2523,12328
2527,12326
2529,12326
2530,12325
2532,12324
2536,12322
2540,12320
2542,12319
2544,12318
2548,12315
2552,12312
2555,12309
2557,12307
2559,12305
2559,12304
2562,12302
2565,12297
2568,12295
2568,12294
2569,12292
2571,12290
2573,12286
2576,12282
2578,12278
2579,12276
2580,12274
2581,12270
2582,12266
2583,12264
2583,12263
2583,12261
2584,12256
2585,12251
2585,12247
2585,12243
2585,12241
2585,12240
2585,12237
2584,12231
2584,12228
2584,12227
2584,12225
2583,12222
2582,12218
2581,12213
2580,12209
2579,12207
2579,12206
2578,12204
2576,12200
2574,12196
2573,12194
2572,12194
2571,12192
2568,12188
2565,12184
2562,12181
2560,12179
2559,12177
2558,12177
2556,12174
2551,12171
2549,12168
2548,12168
2546,12167
2544,12165
2540,12163
2536,12160
2532,12158
2530,12157
2529,12157
2527,12156
2523,12155
2518,12154
2516,12153
2514,12153
2509,12152
2504,12151
2500,12151
2497,12151
2495,12151
2494,12151
2490,12151
2485,12152
2481,12152
2480,12152
2478,12152
2475,12153
2471,12154
2466,12155
2462,12156
2460,12157
2459,12157
2457,12158
2453,12160
2449,12162
2448,12163
2447,12164
2446,12165
2442,12168
2438,12171
2434,12174
2432,12176
2430,12177
2430,12178
2427,12180
2424,12185
2421,12187
2421,12188
2420,12190
2418,12192
2416,12196
2413,12200
2411,12204
2410,12206
2410,12207
2409,12209
2408,12213
2407,12218
2406,12220
2406,12222
2405,12227
2404,12232
2404,12236
2404,12239
2404,12241
2404,12242
2404,12246
2405,12251
2405,12255
2405,12256
2405,12258
2406,12261
2407,12265
2408,12270
2409,12274
2410,12276
2411,12278
2413,12282
2415,12286
2416,12288
2417,12288
2418,12290
2421,12294
2424,12298
2427,12301
2429,12303
2430,12305
2431,12306
2434,12308
2438,12312
2441,12314
2442,12315
2444,12316
2446,12318
2449,12320
2453,12322
2457,12324
2459,12325
2460,12326
2462,12326
2466,12328
2471,12329
2472,12330
2473,12330
2475,12330
2480,12331
2485,12332
2489,12332
2493,12332
2495,12332
" style="stroke:#000000;stroke-width:7;
stroke-linejoin:bevel; stroke-linecap:butt;
"/>
<!-- Line -->
<!--  spline  -->
<polyline points="2495,10375
2496,10375
2499,10375
2505,10374
2508,10374
2509,10374
2511,10374
2514,10373
2518,10372
2523,10371
2527,10370
2529,10369
2530,10369
2532,10368
2536,10366
2540,10364
2542,10363
2542,10362
2544,10361
2548,10358
2552,10355
2555,10352
2557,10350
2559,10349
2559,10348
2562,10346
2565,10341
2568,10339
2568,10338
2569,10336
2571,10334
2573,10330
2576,10326
2578,10322
2579,10320
2579,10319
2580,10317
2581,10313
2582,10308
2583,10306
2583,10304
2584,10299
2585,10294
2585,10290
2585,10287
2585,10285
2585,10284
2585,10280
2584,10275
2584,10271
2584,10270
2584,10268
2583,10265
2582,10261
2581,10256
2580,10252
2579,10250
2578,10248
2576,10244
2574,10240
2573,10238
2572,10238
2571,10236
2568,10232
2565,10228
2562,10225
2560,10223
2559,10221
2558,10220
2556,10218
2551,10214
2549,10212
2548,10211
2546,10210
2544,10208
2540,10206
2536,10204
2532,10202
2530,10201
2529,10200
2527,10200
2523,10198
2518,10197
2516,10196
2514,10196
2509,10195
2504,10194
2500,10194
2497,10194
2495,10194
2494,10194
2490,10194
2485,10195
2481,10195
2480,10195
2478,10195
2475,10196
2471,10197
2466,10198
2462,10200
2460,10200
2460,10201
2458,10202
2454,10204
2450,10206
2448,10207
2446,10208
2442,10211
2438,10214
2435,10217
2433,10219
2431,10221
2430,10222
2428,10224
2424,10229
2422,10231
2421,10232
2420,10234
2418,10236
2416,10240
2414,10244
2412,10248
2411,10250
2410,10250
2410,10252
2408,10256
2407,10260
2406,10262
2406,10263
2406,10265
2405,10270
2404,10275
2404,10279
2404,10283
2404,10285
2404,10286
2404,10289
2405,10295
2405,10298
2405,10299
2405,10301
2406,10304
2407,10308
2408,10313
2410,10317
2410,10319
2411,10320
2412,10322
2414,10326
2416,10330
2417,10332
2418,10334
2421,10338
2424,10342
2427,10345
2429,10347
2431,10349
2432,10349
2434,10352
2439,10355
2441,10358
2442,10358
2444,10359
2446,10361
2450,10363
2454,10366
2458,10368
2460,10369
2462,10370
2466,10371
2470,10372
2472,10373
2473,10373
2475,10373
2480,10374
2485,10375
2489,10375
2493,10375
2495,10375
" style="stroke:#000000;stroke-width:0;
stroke-linejoin:bevel; stroke-linecap:butt;
fill:#000000;
"/>
<!-- Line -->
<!--  spline  -->
<polyline points="2495,10375
2496,10375
2499,10375
2505,10374
2508,10374
2509,10374
2511,10374
2514,10373
2518,10372
2523,10371
2527,10370
2529,10369
2530,10369
2532,10368
2536,10366
2540,10364
2542,10363
2542,10362
2544,10361
2548,10358
2552,10355
2555,10352
2557,10350
2559,10349
2559,10348
2562,10346
2565,10341
2568,10339
2568,10338
2569,10336
2571,10334
2573,10330
2576,10326
2578,10322
2579,10320
2579,10319
2580,10317
2581,10313
2582,10308
2583,10306
2583,10304
2584,10299
2585,10294
2585,10290
2585,10287
2585,10285
2585,10284
2585,10280
2584,10275
2584,10271
2584,10270
2584,10268
2583,10265
2582,10261
2581,10256
2580,10252
2579,10250
2578,10248
2576,10244
2574,10240
2573,10238
2572,10238
2571,10236
2568,10232
2565,10228
2562,10225
2560,10223
2559,10221
2558,10220
2556,10218
2551,10214
2549,10212
2548,10211
2546,10210
2544,10208
2540,10206
2536,10204
2532,10202
2530,10201
2529,10200
2527,10200
2523,10198
2518,10197
2516,10196
2514,10196
2509,10195
2504,10194
2500,10194
2497,10194
2495,10194
2494,10194
2490,10194
2485,10195
2481,10195
2480,10195
2478,10195
2475,10196
2471,10197
2466,10198
2462,10200
2460,10200
2460,10201
2458,10202
2454,10204
2450,10206
2448,10207
2446,10208
2442,10211
2438,10214
2435,10217
2433,10219
2431,10221
2430,10222
2428,10224
2424,10229
2422,10231
2421,10232
2420,10234
2418,10236
2416,10240
2414,10244
2412,10248
2411,10250
2410,10250
2410,10252
2408,10256
2407,10260
2406,10262
2406,10263
2406,10265
2405,10270
2404,10275
2404,10279
2404,10283
2404,10285
2404,10286
2404,10289
2405,10295
2405,10298
2405,10299
2405,10301
2406,10304
2407,10308
2408,10313
2410,10317
2410,10319
2411,10320
2412,10322
2414,10326
2416,10330
2417,10332
2418,10334
2421,10338
2424,10342
2427,10345
2429,10347
2431,10349
2432,10349
2434,10352
2439,10355
2441,10358
2442,10358
2444,10359
2446,10361
2450,10363
2454,10366
2458,10368
2460,10369
2462,10370
2466,10371
2470,10372
2472,10373
2473,10373
2475,10373
2480,10374
2485,10375
2489,10375
2493,10375
2495,10375
" style="stroke:#000000;stroke-width:0;
stroke-linejoin:bevel; stroke-linecap:butt;
"/>
<!-- Line -->
<!--  spline  -->
<polyline points="4442,10375
4443,10375
4447,10375
4452,10374
4456,10374
4457,10374
4459,10374
4462,10373
4465,10372
4470,10371
4474,10370
4476,10369
4477,10369
4479,10368
4483,10366
4487,10364
4489,10363
4489,10362
4491,10361
4495,10358
4499,10355
4502,10352
4504,10350
4506,10349
4507,10348
4509,10346
4513,10341
4515,10339
4516,10338
4517,10336
4519,10334
4521,10330
4523,10326
4525,10322
4526,10320
4527,10319
4527,10317
4529,10313
4530,10308
4531,10306
4531,10304
4532,10299
4533,10294
4533,10290
4533,10287
4533,10285
4533,10284
4533,10280
4532,10275
4532,10271
4532,10270
4532,10268
4531,10265
4530,10261
4529,10256
4527,10252
4527,10250
4526,10249
4525,10247
4523,10243
4521,10239
4520,10238
4520,10237
4519,10236
4516,10232
4513,10228
4510,10225
4508,10223
4506,10221
4505,10220
4503,10218
4498,10214
4496,10212
4495,10211
4493,10210
4491,10208
4487,10206
4483,10204
4479,10202
4477,10201
4476,10200
4474,10200
4470,10198
4466,10197
4464,10196
4463,10196
4462,10196
4457,10195
4452,10194
4448,10194
4444,10194
4442,10194
4441,10194
4438,10194
4432,10195
4429,10195
4428,10195
4426,10195
4423,10196
4419,10197
4414,10198
4410,10200
4408,10200
4407,10201
4405,10202
4401,10204
4397,10206
4395,10207
4393,10208
4389,10211
4385,10214
4382,10217
4380,10219
4378,10221
4378,10222
4375,10224
4372,10229
4369,10231
4369,10232
4368,10234
4366,10236
4364,10239
4361,10243
4359,10247
4358,10249
4358,10250
4357,10252
4356,10256
4355,10261
4354,10262
4354,10263
4354,10265
4353,10270
4352,10275
4352,10279
4352,10283
4352,10285
4352,10286
4352,10289
4353,10295
4353,10298
4353,10299
4353,10301
4354,10304
4355,10308
4356,10313
4357,10317
4358,10319
4358,10320
4359,10322
4361,10326
4363,10330
4364,10332
4365,10332
4366,10334
4369,10338
4372,10342
4375,10345
4377,10347
4378,10349
4379,10349
4381,10352
4386,10355
4388,10358
4389,10358
4391,10359
4393,10361
4397,10363
4401,10366
4405,10368
4407,10369
4408,10369
4410,10370
4414,10371
4419,10372
4421,10373
4423,10373
4428,10374
4433,10375
4437,10375
4440,10375
4442,10375
" style="stroke:#ffffff;stroke-width:0;
stroke-linejoin:bevel; stroke-linecap:butt;
fill:#ffffff;
"/>
<!-- Line -->
<!--  spline  -->
<polyline points="4442,10375
4443,10375
4447,10375
4452,10374
4456,10374
4457,10374
4459,10374
4462,10373
4465,10372
4470,10371
4474,10370
4476,10369
4477,10369
4479,10368
4483,10366
4487,10364
4489,10363
4489,10362
4491,10361
4495,10358
4499,10355
4502,10352
4504,10350
4506,10349
4507,10348
4509,10346
4513,10341
4515,10339
4516,10338
4517,10336
4519,10334
4521,10330
4523,10326
4525,10322
4526,10320
4527,10319
4527,10317
4529,10313
4530,10308
4531,10306
4531,10304
4532,10299
4533,10294
4533,10290
4533,10287
4533,10285
4533,10284
4533,10280
4532,10275
4532,10271
4532,10270
4532,10268
4531,10265
4530,10261
4529,10256
4527,10252
4527,10250
4526,10249
4525,10247
4523,10243
4521,10239
4520,10238
4520,10237
4519,10236
4516,10232
4513,10228
4510,10225
4508,10223
4506,10221
4505,10220
4503,10218
4498,10214
4496,10212
4495,10211
4493,10210
4491,10208
4487,10206
4483,10204
4479,10202
4477,10201
4476,10200
4474,10200
4470,10198
4466,10197
4464,10196
4463,10196
4462,10196
4457,10195
4452,10194
4448,10194
4444,10194
4442,10194
4441,10194
4438,10194
4432,10195
4429,10195
4428,10195
4426,10195
4423,10196
4419,10197
4414,10198
4410,10200
4408,10200
4407,10201
4405,10202
4401,10204
4397,10206
4395,10207
4393,10208
4389,10211
4385,10214
4382,10217
4380,10219
4378,10221
4378,10222
4375,10224
4372,10229
4369,10231
4369,10232
4368,10234
4366,10236
4364,10239
4361,10243
4359,10247
4358,10249
4358,10250
4357,10252
4356,10256
4355,10261
4354,10262
4354,10263
4354,10265
4353,10270
4352,10275
4352,10279
4352,10283
4352,10285
4352,10286
4352,10289
4353,10295
4353,10298
4353,10299
4353,10301
4354,10304
4355,10308
4356,10313
4357,10317
4358,10319
4358,10320
4359,10322
4361,10326
4363,10330
4364,10332
4365,10332
4366,10334
4369,10338
4372,10342
4375,10345
4377,10347
4378,10349
4379,10349
4381,10352
4386,10355
4388,10358
4389,10358
4391,10359
4393,10361
4397,10363
4401,10366
4405,10368
4407,10369
4408,10369
4410,10370
4414,10371
4419,10372
4421,10373
4423,10373
4428,10374
4433,10375
4437,10375
4440,10375
4442,10375
" style="stroke:#000000;stroke-width:7;
stroke-linejoin:bevel; stroke-linecap:butt;
"/>
<!-- Line -->
<!--  polyline  -->
<polyline points="4693,12232
2490,12232
" style="stroke:#000000;stroke-width:7;
stroke-linejoin:miter; stroke-linecap:butt;
"/>
<!-- Line -->
<!--  spline  -->
<polyline points="4753,12232
4752,12232
4747,12229
4734,12224
4714,12216
4689,12206
4664,12197
4644,12189
4631,12184
4626,12181
4625,12181
4625,12182
4624,12185
4622,12189
4621,12192
4621,12193
4621,12195
4620,12198
4620,12201
4619,12205
4618,12209
4618,12210
4618,12212
4617,12215
4617,12218
4616,12219
4616,12220
4616,12221
4616,12224
4616,12227
4615,12229
4615,12231
4615,12232
4615,12234
4616,12238
4616,12240
4616,12241
4616,12243
4617,12245
4617,12249
4618,12252
4618,12254
4618,12255
4618,12256
4619,12260
4620,12264
4620,12265
4620,12266
4620,12267
4621,12271
4622,12275
4623,12279
4624,12282
4625,12284
4626,12284
4631,12281
4644,12276
4664,12268
4689,12258
4714,12248
4734,12240
4747,12235
4752,12232
4753,12232
" style="stroke:#000000;stroke-width:0;
stroke-linejoin:bevel; stroke-linecap:butt;
fill:#000000;
"/>
<!-- Line -->
<!--  polyline  -->
<polyline points="4442,12334
4442,12130
" style="stroke:#000000;stroke-width:7;
stroke-linejoin:miter; stroke-linecap:butt;
"/>
<!-- Line -->
<!--  polyline  -->
<polyline points="2490,10030
2490,12232
" style="stroke:#000000;stroke-width:7;
stroke-linejoin:miter; stroke-linecap:butt;
"/>
<!-- Line -->
<!--  spline  -->
<polyline points="2490,9969
2490,9970
2487,9975
2482,9988
2474,10009
2464,10034
2455,10058
2447,10079
2442,10092
2439,10097
2439,10098
2440,10098
2443,10099
2447,10100
2450,10101
2451,10101
2453,10102
2456,10102
2459,10103
2463,10104
2467,10105
2468,10105
2470,10105
2473,10105
2476,10106
2477,10106
2478,10106
2479,10107
2482,10107
2485,10107
2487,10107
2489,10107
2490,10107
2492,10107
2496,10107
2498,10107
2499,10107
2501,10106
2504,10106
2507,10105
2510,10105
2512,10105
2513,10105
2517,10104
2521,10103
2522,10103
2523,10103
2525,10102
2529,10101
2534,10100
2537,10099
2540,10098
2542,10098
2542,10097
2539,10092
2534,10079
2526,10058
2516,10033
2506,10009
2498,9988
2493,9975
2490,9970
2490,9969
" style="stroke:#000000;stroke-width:0;
stroke-linejoin:bevel; stroke-linecap:butt;
fill:#000000;
"/>
<!-- Line -->
<!--  polyline  -->
<polyline points="2592,10280
2388,10280
" style="stroke:#000000;stroke-width:7;
stroke-linejoin:miter; stroke-linecap:butt;
"/>
<!-- Line -->
<!--  polyline  -->
<polyline points="4693,12232
2490,12232
" style="stroke:#000000;stroke-width:7;
stroke-linejoin:miter; stroke-linecap:butt;
"/>
<!-- Line -->
<!--  spline  -->
<polyline points="4753,12232
4752,12232
4747,12229
4734,12224
4714,12216
4689,12206
4664,12197
4644,12189
4631,12184
4626,12181
4625,12181
4625,12182
4624,12185
4622,12189
4621,12192
4621,12193
4621,12195
4620,12198
4620,12201
4619,12205
4618,12209
4618,12210
4618,12212
4617,12215
4617,12218
4616,12219
4616,12220
4616,12221
4616,12224
4616,12227
4615,12229
4615,12231
4615,12232
4615,12234
4616,12238
4616,12240
4616,12241
4616,12243
4617,12245
4617,12249
4618,12252
4618,12254
4618,12255
4618,12256
4619,12260
4620,12264
4620,12265
4620,12266
4620,12267
4621,12271
4622,12275
4623,12279
4624,12282
4625,12284
4626,12284
4631,12281
4644,12276
4664,12268
4689,12258
4714,12248
4734,12240
4747,12235
4752,12232
4753,12232
" style="stroke:#000000;stroke-width:0;
stroke-linejoin:bevel; stroke-linecap:butt;
fill:#000000;
"/>
<!-- Line -->
<!--  polyline  -->
<polyline points="4442,12334
4442,12130
" style="stroke:#000000;stroke-width:7;
stroke-linejoin:miter; stroke-linecap:butt;
"/>
<!-- Line -->
<!--  polyline  -->
<polyline points="2490,10030
2490,12232
" style="stroke:#000000;stroke-width:7;
stroke-linejoin:miter; stroke-linecap:butt;
"/>
<!-- Line -->
<!--  spline  -->
<polyline points="2490,9969
2490,9970
2487,9975
2482,9988
2474,10009
2464,10034
2455,10058
2447,10079
2442,10092
2439,10097
2439,10098
2440,10098
2443,10099
2447,10100
2450,10101
2451,10101
2453,10102
2456,10102
2459,10103
2463,10104
2467,10105
2468,10105
2470,10105
2473,10105
2476,10106
2477,10106
2478,10106
2479,10107
2482,10107
2485,10107
2487,10107
2489,10107
2490,10107
2492,10107
2496,10107
2498,10107
2499,10107
2501,10106
2504,10106
2507,10105
2510,10105
2512,10105
2513,10105
2517,10104
2521,10103
2522,10103
2523,10103
2525,10102
2529,10101
2534,10100
2537,10099
2540,10098
2542,10098
2542,10097
2539,10092
2534,10079
2526,10058
2516,10033
2506,10009
2498,9988
2493,9975
2490,9970
2490,9969
" style="stroke:#000000;stroke-width:0;
stroke-linejoin:bevel; stroke-linecap:butt;
fill:#000000;
"/>
<!-- Line -->
<!--  polyline  -->
<polyline points="2592,10280
2388,10280
" style="stroke:#000000;stroke-width:7;
stroke-linejoin:miter; stroke-linecap:butt;
"/>
<!-- Line -->
<!--  polyline  -->
<polyline points="3971,9872
2132,11720
" style="stroke:#000000;stroke-width:7;
stroke-linejoin:miter; stroke-linecap:butt;
stroke-dasharray:40 40;"/>
<!-- Line -->
<!--  polyline  -->
<polyline points="4832,10651
2993,12500
" style="stroke:#000000;stroke-width:7;
stroke-linejoin:miter; stroke-linecap:butt;
stroke-dasharray:40 40;"/>
<!-- Line -->
<!--  spline  -->
<polyline points="5270,11056
5271,11056
5274,11056
5280,11055
5283,11055
5284,11055
5286,11055
5289,11054
5293,11053
5298,11052
5302,11051
5304,11050
5305,11050
5307,11049
5311,11047
5315,11045
5317,11044
5317,11043
5319,11042
5323,11039
5327,11036
5330,11033
5332,11031
5334,11030
5334,11029
5337,11027
5340,11022
5343,11020
5343,11019
5344,11017
5346,11015
5348,11011
5351,11007
5353,11003
5354,11001
5354,11000
5355,10998
5356,10994
5357,10989
5358,10987
5358,10985
5359,10980
5360,10975
5360,10971
5361,10968
5361,10966
5361,10965
5360,10961
5360,10956
5359,10952
5359,10951
5359,10949
5358,10946
5357,10942
5356,10937
5355,10933
5354,10931
5353,10929
5351,10925
5349,10921
5348,10919
5347,10919
5346,10917
5343,10913
5340,10909
5337,10906
5335,10904
5334,10902
5333,10901
5331,10899
5326,10895
5324,10893
5323,10892
5321,10891
5319,10889
5315,10887
5311,10885
5307,10883
5305,10882
5304,10881
5302,10881
5298,10879
5293,10878
5291,10877
5289,10877
5284,10876
5279,10875
5275,10875
5272,10875
5270,10875
5269,10875
5265,10875
5260,10876
5256,10876
5255,10876
5253,10876
5250,10877
5247,10878
5242,10879
5238,10881
5236,10881
5235,10882
5233,10883
5229,10885
5225,10887
5223,10888
5221,10889
5217,10892
5213,10895
5210,10898
5208,10900
5206,10902
5205,10903
5203,10905
5199,10910
5197,10912
5196,10913
5195,10915
5193,10917
5191,10921
5189,10925
5187,10929
5186,10931
5186,10933
5184,10937
5183,10941
5182,10943
5182,10944
5181,10946
5180,10951
5179,10956
5179,10960
5179,10964
5179,10966
5179,10967
5179,10970
5180,10976
5180,10979
5180,10980
5181,10982
5181,10985
5182,10989
5184,10994
5186,10998
5186,11000
5186,11001
5187,11003
5189,11007
5191,11011
5192,11013
5193,11015
5196,11019
5199,11023
5202,11026
5204,11028
5206,11030
5207,11030
5209,11033
5214,11036
5216,11039
5217,11039
5219,11040
5221,11042
5225,11044
5229,11047
5233,11049
5235,11050
5236,11050
5238,11051
5242,11052
5246,11053
5248,11054
5249,11054
5250,11054
5255,11055
5260,11056
5264,11056
5268,11056
5270,11056
" style="stroke:#ffffff;stroke-width:0;
stroke-linejoin:bevel; stroke-linecap:butt;
fill:#ffffff;
"/>
<!-- Line -->
<!--  spline  -->
<polyline points="5270,11056
5271,11056
5274,11056
5280,11055
5283,11055
5284,11055
5286,11055
5289,11054
5293,11053
5298,11052
5302,11051
5304,11050
5305,11050
5307,11049
5311,11047
5315,11045
5317,11044
5317,11043
5319,11042
5323,11039
5327,11036
5330,11033
5332,11031
5334,11030
5334,11029
5337,11027
5340,11022
5343,11020
5343,11019
5344,11017
5346,11015
5348,11011
5351,11007
5353,11003
5354,11001
5354,11000
5355,10998
5356,10994
5357,10989
5358,10987
5358,10985
5359,10980
5360,10975
5360,10971
5361,10968
5361,10966
5361,10965
5360,10961
5360,10956
5359,10952
5359,10951
5359,10949
5358,10946
5357,10942
5356,10937
5355,10933
5354,10931
5353,10929
5351,10925
5349,10921
5348,10919
5347,10919
5346,10917
5343,10913
5340,10909
5337,10906
5335,10904
5334,10902
5333,10901
5331,10899
5326,10895
5324,10893
5323,10892
5321,10891
5319,10889
5315,10887
5311,10885
5307,10883
5305,10882
5304,10881
5302,10881
5298,10879
5293,10878
5291,10877
5289,10877
5284,10876
5279,10875
5275,10875
5272,10875
5270,10875
5269,10875
5265,10875
5260,10876
5256,10876
5255,10876
5253,10876
5250,10877
5247,10878
5242,10879
5238,10881
5236,10881
5235,10882
5233,10883
5229,10885
5225,10887
5223,10888
5221,10889
5217,10892
5213,10895
5210,10898
5208,10900
5206,10902
5205,10903
5203,10905
5199,10910
5197,10912
5196,10913
5195,10915
5193,10917
5191,10921
5189,10925
5187,10929
5186,10931
5186,10933
5184,10937
5183,10941
5182,10943
5182,10944
5181,10946
5180,10951
5179,10956
5179,10960
5179,10964
5179,10966
5179,10967
5179,10970
5180,10976
5180,10979
5180,10980
5181,10982
5181,10985
5182,10989
5184,10994
5186,10998
5186,11000
5186,11001
5187,11003
5189,11007
5191,11011
5192,11013
5193,11015
5196,11019
5199,11023
5202,11026
5204,11028
5206,11030
5207,11030
5209,11033
5214,11036
5216,11039
5217,11039
5219,11040
5221,11042
5225,11044
5229,11047
5233,11049
5235,11050
5236,11050
5238,11051
5242,11052
5246,11053
5248,11054
5249,11054
5250,11054
5255,11055
5260,11056
5264,11056
5268,11056
5270,11056
" style="stroke:#000000;stroke-width:7;
stroke-linejoin:bevel; stroke-linecap:butt;
"/>
<!-- Line -->
<!--  spline  -->
<polyline points="5270,11494
5271,11494
5274,11494
5280,11493
5283,11493
5284,11493
5286,11493
5289,11492
5293,11491
5298,11490
5302,11488
5304,11488
5305,11487
5307,11486
5311,11484
5315,11482
5317,11481
5319,11480
5323,11477
5327,11474
5330,11471
5332,11469
5334,11467
5334,11466
5337,11464
5340,11459
5343,11457
5343,11456
5344,11454
5346,11452
5348,11448
5351,11444
5353,11440
5354,11438
5354,11437
5355,11435
5356,11431
5357,11427
5358,11425
5358,11424
5358,11423
5359,11418
5360,11413
5360,11409
5361,11405
5361,11403
5361,11402
5360,11399
5360,11393
5359,11390
5359,11389
5359,11387
5358,11384
5357,11380
5356,11375
5355,11371
5354,11369
5354,11368
5353,11366
5351,11362
5349,11358
5348,11356
5347,11356
5346,11354
5343,11350
5340,11346
5337,11343
5335,11341
5334,11339
5333,11339
5331,11336
5326,11333
5324,11330
5323,11330
5321,11329
5319,11327
5315,11325
5311,11322
5307,11320
5305,11319
5304,11319
5302,11318
5298,11317
5293,11316
5291,11315
5289,11315
5284,11314
5279,11313
5275,11313
5272,11313
5270,11313
5269,11313
5265,11313
5260,11314
5256,11314
5255,11314
5253,11314
5250,11315
5247,11316
5242,11317
5238,11318
5236,11319
5235,11319
5233,11320
5229,11322
5225,11324
5223,11325
5223,11326
5221,11327
5217,11330
5213,11333
5210,11336
5208,11338
5206,11339
5205,11340
5203,11342
5199,11347
5197,11349
5196,11350
5195,11352
5193,11354
5191,11358
5189,11362
5187,11366
5186,11368
5186,11369
5186,11371
5184,11375
5183,11380
5182,11382
5181,11384
5180,11389
5179,11394
5179,11398
5179,11401
5179,11403
5179,11404
5179,11408
5180,11413
5180,11417
5180,11418
5181,11420
5181,11423
5182,11426
5184,11431
5186,11435
5186,11437
5186,11438
5187,11440
5189,11444
5191,11448
5192,11450
5193,11452
5196,11456
5199,11460
5202,11463
5204,11465
5206,11467
5207,11468
5209,11470
5214,11474
5216,11476
5217,11477
5219,11478
5221,11480
5225,11482
5229,11484
5233,11486
5235,11487
5236,11488
5238,11488
5242,11490
5246,11491
5248,11492
5249,11492
5250,11492
5255,11493
5260,11494
5264,11494
5268,11494
5270,11494
" style="stroke:#000000;stroke-width:0;
stroke-linejoin:bevel; stroke-linecap:butt;
fill:#000000;
"/>
<!-- Line -->
<!--  spline  -->
<polyline points="5270,11494
5271,11494
5274,11494
5280,11493
5283,11493
5284,11493
5286,11493
5289,11492
5293,11491
5298,11490
5302,11488
5304,11488
5305,11487
5307,11486
5311,11484
5315,11482
5317,11481
5319,11480
5323,11477
5327,11474
5330,11471
5332,11469
5334,11467
5334,11466
5337,11464
5340,11459
5343,11457
5343,11456
5344,11454
5346,11452
5348,11448
5351,11444
5353,11440
5354,11438
5354,11437
5355,11435
5356,11431
5357,11427
5358,11425
5358,11424
5358,11423
5359,11418
5360,11413
5360,11409
5361,11405
5361,11403
5361,11402
5360,11399
5360,11393
5359,11390
5359,11389
5359,11387
5358,11384
5357,11380
5356,11375
5355,11371
5354,11369
5354,11368
5353,11366
5351,11362
5349,11358
5348,11356
5347,11356
5346,11354
5343,11350
5340,11346
5337,11343
5335,11341
5334,11339
5333,11339
5331,11336
5326,11333
5324,11330
5323,11330
5321,11329
5319,11327
5315,11325
5311,11322
5307,11320
5305,11319
5304,11319
5302,11318
5298,11317
5293,11316
5291,11315
5289,11315
5284,11314
5279,11313
5275,11313
5272,11313
5270,11313
5269,11313
5265,11313
5260,11314
5256,11314
5255,11314
5253,11314
5250,11315
5247,11316
5242,11317
5238,11318
5236,11319
5235,11319
5233,11320
5229,11322
5225,11324
5223,11325
5223,11326
5221,11327
5217,11330
5213,11333
5210,11336
5208,11338
5206,11339
5205,11340
5203,11342
5199,11347
5197,11349
5196,11350
5195,11352
5193,11354
5191,11358
5189,11362
5187,11366
5186,11368
5186,11369
5186,11371
5184,11375
5183,11380
5182,11382
5181,11384
5180,11389
5179,11394
5179,11398
5179,11401
5179,11403
5179,11404
5179,11408
5180,11413
5180,11417
5180,11418
5181,11420
5181,11423
5182,11426
5184,11431
5186,11435
5186,11437
5186,11438
5187,11440
5189,11444
5191,11448
5192,11450
5193,11452
5196,11456
5199,11460
5202,11463
5204,11465
5206,11467
5207,11468
5209,11470
5214,11474
5216,11476
5217,11477
5219,11478
5221,11480
5225,11482
5229,11484
5233,11486
5235,11487
5236,11488
5238,11488
5242,11490
5246,11491
5248,11492
5249,11492
5250,11492
5255,11493
5260,11494
5264,11494
5268,11494
5270,11494
" style="stroke:#000000;stroke-width:0;
stroke-linejoin:bevel; stroke-linecap:butt;
"/>
<!-- Text -->
<!--  text  -->
<text xml:space="preserve" x="4387" y="12556" stroke="#000000" fill="#000000"  font-family="Times" font-style="normal" font-weight="normal" font-size="156" text-anchor="start">1</text>
<!-- Text -->
<!--  text  -->
<text xml:space="preserve" x="2215" y="10341" stroke="#000000" fill="#000000"  font-family="Times" font-style="normal" font-weight="normal" font-size="156" text-anchor="start">1</text>
<!-- Text -->
<!--  text  -->
<text xml:space="preserve" x="5450" y="11022" stroke="#000000" fill="#000000"  font-family="Times" font-style="normal" font-weight="normal" font-size="156" text-anchor="start">=</text>
<!-- Text -->
<!--  text  -->
<text xml:space="preserve" x="5632" y="11022" stroke="#000000" fill="#000000"  font-family="Times" font-style="normal" font-weight="normal" font-size="156" text-anchor="start">0</text>
<!-- Text -->
<!--  text  -->
<text xml:space="preserve" x="5450" y="11460" stroke="#000000" fill="#000000"  font-family="Times" font-style="normal" font-weight="normal" font-size="156" text-anchor="start">=</text>
<!-- Text -->
<!--  text  -->
<text xml:space="preserve" x="5632" y="11460" stroke="#000000" fill="#000000"  font-family="Times" font-style="normal" font-weight="normal" font-size="156" text-anchor="start">1</text>
<!-- Text -->
<!--  text  -->
<text xml:space="preserve" x="2215" y="12556" stroke="#000000" fill="#000000"  font-family="Times" font-style="normal" font-weight="normal" font-size="156" text-anchor="start">0</text>
<!-- Text -->
<!--  text  -->
<text xml:space="preserve" x="2480" y="13090" stroke="#000000" fill="#000000"  font-family="Times" font-style="normal" font-weight="normal" font-size="156" text-anchor="start">F</text>
<!-- Text -->
<!--  text  -->
<text xml:space="preserve" x="2591" y="13090" stroke="#000000" fill="#000000"  font-family="Times" font-style="normal" font-weight="normal" font-size="156" text-anchor="start">i</text>
<!-- Text -->
<!--  text  -->
<text xml:space="preserve" x="2646" y="13090" stroke="#000000" fill="#000000"  font-family="Times" font-style="normal" font-weight="normal" font-size="156" text-anchor="start">g</text>
<!-- Text -->
<!--  text  -->
<text xml:space="preserve" x="2746" y="13090" stroke="#000000" fill="#000000"  font-family="Times" font-style="normal" font-weight="normal" font-size="156" text-anchor="start">u</text>
<!-- Text -->
<!--  text  -->
<text xml:space="preserve" x="2846" y="13090" stroke="#000000" fill="#000000"  font-family="Times" font-style="normal" font-weight="normal" font-size="156" text-anchor="start">r</text>
<!-- Text -->
<!--  text  -->
<text xml:space="preserve" x="2913" y="13090" stroke="#000000" fill="#000000"  font-family="Times" font-style="normal" font-weight="normal" font-size="156" text-anchor="start">e</text>
<!-- Text -->
<!--  text  -->
<text xml:space="preserve" x="3072" y="13090" stroke="#000000" fill="#000000"  font-family="Times" font-style="normal" font-weight="normal" font-size="156" text-anchor="start">6</text>
<!-- Text -->
<!--  text  -->
<text xml:space="preserve" x="3172" y="13090" stroke="#000000" fill="#000000"  font-family="Times" font-style="normal" font-weight="normal" font-size="156" text-anchor="start">-</text>
<!-- Text -->
<!--  text  -->
<text xml:space="preserve" x="3238" y="13090" stroke="#000000" fill="#000000"  font-family="Times" font-style="normal" font-weight="normal" font-size="156" text-anchor="start">3</text>
<!-- Text -->
<!--  text  -->
<text xml:space="preserve" x="3338" y="13090" stroke="#000000" fill="#000000"  font-family="Times" font-style="normal" font-weight="normal" font-size="156" text-anchor="start">:</text>
<!-- Text -->
<!--  text  -->
<text xml:space="preserve" x="3464" y="13090" stroke="#000000" fill="#000000"  font-family="Times" font-style="normal" font-weight="normal" font-size="156" text-anchor="start">T</text>
<!-- Text -->
<!--  text  -->
<text xml:space="preserve" x="3586" y="13090" stroke="#000000" fill="#000000"  font-family="Times" font-style="normal" font-weight="normal" font-size="156" text-anchor="start">h</text>
<!-- Text -->
<!--  text  -->
<text xml:space="preserve" x="3686" y="13090" stroke="#000000" fill="#000000"  font-family="Times" font-style="normal" font-weight="normal" font-size="156" text-anchor="start">e</text>
<!-- Text -->
<!--  text  -->
<text xml:space="preserve" x="3845" y="13090" stroke="#000000" fill="#000000"  font-family="Times" font-style="normal" font-weight="normal" font-size="156" text-anchor="start">X</text>
<!-- Text -->
<!--  text  -->
<text xml:space="preserve" x="3989" y="13090" stroke="#000000" fill="#000000"  font-family="Times" font-style="normal" font-weight="normal" font-size="156" text-anchor="start">O</text>
<!-- Text -->
<!--  text  -->
<text xml:space="preserve" x="4133" y="13090" stroke="#000000" fill="#000000"  font-family="Times" font-style="normal" font-weight="normal" font-size="156" text-anchor="start">R</text>
<!-- Text -->
<!--  text  -->
<text xml:space="preserve" x="4337" y="13090" stroke="#000000" fill="#000000"  font-family="Times" font-style="normal" font-weight="normal" font-size="156" text-anchor="start">p</text>
<!-- Text -->
<!--  text  -->
<text xml:space="preserve" x="4437" y="13090" stroke="#000000" fill="#000000"  font-family="Times" font-style="normal" font-weight="normal" font-size="156" text-anchor="start">r</text>
<!-- Text -->
<!--  text  -->
<text xml:space="preserve" x="4503" y="13090" stroke="#000000" fill="#000000"  font-family="Times" font-style="normal" font-weight="normal" font-size="156" text-anchor="start">o</text>
<!-- Text -->
<!--  text  -->
<text xml:space="preserve" x="4603" y="13090" stroke="#000000" fill="#000000"  font-family="Times" font-style="normal" font-weight="normal" font-size="156" text-anchor="start">b</text>
<!-- Text -->
<!--  text  -->
<text xml:space="preserve" x="4703" y="13090" stroke="#000000" fill="#000000"  font-family="Times" font-style="normal" font-weight="normal" font-size="156" text-anchor="start">l</text>
<!-- Text -->
<!--  text  -->
<text xml:space="preserve" x="4759" y="13090" stroke="#000000" fill="#000000"  font-family="Times" font-style="normal" font-weight="normal" font-size="156" text-anchor="start">e</text>
<!-- Text -->
<!--  text  -->
<text xml:space="preserve" x="4848" y="13090" stroke="#000000" fill="#000000"  font-family="Times" font-style="normal" font-weight="normal" font-size="156" text-anchor="start">m</text>
</g>
</svg>
