<?xml version="1.0" standalone="no"?>
<!DOCTYPE svg PUBLIC "-//W3C//DTD SVG 1.1//EN"
"http://www.w3.org/Graphics/SVG/1.1/DTD/svg11.dtd">
<!-- Creator: fig2dev Version 3.2 Patchlevel 5 -->
<!-- CreationDate: Sat Jul  4 12:13:20 2015 -->
<!-- Magnification: 1.000 -->
<svg xmlns="http://www.w3.org/2000/svg" width="6.0in" height="2.6in" viewBox="111 10035 7224 3139">
<g style="stroke-width:.025in; stroke:black; fill:none">
<!-- Line -->
<!--  polyline  -->
<polyline points="3865,11032
3865,11032
3865,11032
" style="stroke:#000000;stroke-width:7;
stroke-linejoin:miter; stroke-linecap:butt;
"/>
<!-- Line -->
<!--  polyline  -->
<polyline points="133,10057
7313,10057
7313,12877
133,12877
133,10057
" style="stroke:#000000;stroke-width:15;
stroke-linejoin:miter; stroke-linecap:butt;
"/>
<!-- Line -->
<!--  polyline  -->
<polyline points="3499,11154
2848,10576
" style="stroke:#000000;stroke-width:7;
stroke-linejoin:miter; stroke-linecap:butt;
"/>
<!-- Line -->
<!--  spline  -->
<polyline points="3541,11192
3541,11191
3538,11186
3532,11173
3522,11154
3510,11130
3498,11106
3488,11087
3482,11074
3479,11069
3479,11068
3478,11068
3476,11070
3471,11073
3469,11075
3468,11075
3467,11076
3465,11078
3462,11080
3459,11082
3456,11084
3455,11085
3454,11086
3451,11088
3449,11090
3448,11091
3447,11091
3446,11092
3444,11094
3442,11096
3440,11098
3439,11099
3438,11100
3436,11102
3435,11104
3433,11106
3432,11107
3431,11109
3430,11111
3428,11114
3426,11117
3426,11118
3425,11119
3425,11120
3423,11123
3421,11126
3420,11128
3419,11129
3417,11133
3415,11137
3413,11140
3412,11143
3411,11145
3412,11145
3418,11147
3430,11152
3451,11159
3476,11169
3501,11178
3522,11185
3534,11190
3540,11192
3541,11192
" style="stroke:#000000;stroke-width:0;
stroke-linejoin:bevel; stroke-linecap:butt;
fill:#000000;
"/>
<!-- Line -->
<!--  polyline  -->
<polyline points="3462,11271
2547,10926
" style="stroke:#000000;stroke-width:7;
stroke-linejoin:miter; stroke-linecap:butt;
"/>
<!-- Line -->
<!--  spline  -->
<polyline points="3513,11290
3512,11289
3508,11285
3498,11276
3482,11261
3462,11243
3442,11226
3426,11211
3416,11202
3412,11198
3411,11197
3411,11198
3409,11200
3405,11204
3403,11206
3403,11207
3402,11209
3401,11211
3399,11213
3397,11217
3395,11220
3394,11221
3394,11222
3393,11223
3391,11226
3389,11229
3389,11230
3388,11231
3387,11234
3386,11237
3385,11239
3384,11241
3384,11242
3383,11244
3382,11247
3381,11249
3381,11250
3380,11252
3380,11255
3379,11258
3378,11261
3378,11263
3378,11264
3377,11268
3377,11272
3376,11273
3377,11274
3376,11276
3376,11280
3375,11285
3375,11288
3374,11291
3374,11293
3375,11293
3381,11293
3395,11293
3417,11292
3444,11291
3470,11291
3492,11290
3506,11290
3512,11290
3513,11290
" style="stroke:#000000;stroke-width:0;
stroke-linejoin:bevel; stroke-linecap:butt;
fill:#000000;
"/>
<!-- Line -->
<!--  polyline  -->
<polyline points="3418,11384
2378,11424
" style="stroke:#000000;stroke-width:7;
stroke-linejoin:miter; stroke-linecap:butt;
"/>
<!-- Line -->
<!--  spline  -->
<polyline points="3478,11382
3477,11382
3471,11380
3458,11375
3438,11368
3412,11358
3387,11349
3367,11342
3354,11337
3348,11335
3347,11335
3347,11336
3346,11339
3345,11344
3344,11347
3344,11348
3344,11350
3343,11353
3343,11356
3342,11360
3342,11364
3341,11365
3341,11367
3341,11370
3341,11373
3340,11374
3340,11375
3340,11376
3340,11379
3340,11382
3340,11384
3340,11386
3340,11387
3340,11389
3341,11393
3341,11395
3341,11396
3341,11398
3342,11401
3342,11404
3343,11407
3343,11409
3343,11410
3344,11414
3345,11418
3345,11419
3345,11420
3346,11422
3347,11426
3348,11430
3349,11434
3350,11436
3351,11438
3352,11438
3357,11435
3370,11430
3390,11421
3415,11410
3439,11399
3459,11390
3472,11385
3477,11382
3478,11382
" style="stroke:#000000;stroke-width:0;
stroke-linejoin:bevel; stroke-linecap:butt;
fill:#000000;
"/>
<!-- Line -->
<!--  polyline  -->
<polyline points="2876,10664
2876,10664
2876,10664
" style="stroke:#000000;stroke-width:7;
stroke-linejoin:miter; stroke-linecap:butt;
"/>
<!-- Line -->
<!--  polyline  -->
<polyline points="5526,11080
5526,11080
5526,11080
" style="stroke:#000000;stroke-width:7;
stroke-linejoin:miter; stroke-linecap:butt;
"/>
<!-- Line -->
<!--  polyline  -->
<polyline points="5723,11614
5723,11614
5723,11614
" style="stroke:#000000;stroke-width:7;
stroke-linejoin:miter; stroke-linecap:butt;
"/>
<!-- Line -->
<!--  polyline  -->
<polyline points="5526,12429
5526,12429
5526,12429
" style="stroke:#000000;stroke-width:7;
stroke-linejoin:miter; stroke-linecap:butt;
"/>
<!-- Line -->
<!--  spline  -->
<polyline points="2680,10664
2682,10664
2690,10663
2701,10663
2709,10662
2711,10662
2712,10662
2716,10661
2722,10660
2730,10658
2741,10655
2751,10652
2755,10650
2756,10650
2760,10648
2769,10644
2778,10639
2782,10637
2783,10636
2787,10634
2795,10628
2804,10621
2811,10615
2815,10611
2818,10608
2819,10607
2820,10606
2825,10600
2833,10590
2838,10584
2839,10583
2840,10582
2842,10579
2846,10574
2851,10567
2856,10557
2860,10548
2862,10544
2863,10542
2864,10539
2867,10529
2870,10519
2871,10516
2871,10514
2872,10510
2874,10500
2875,10489
2876,10480
2876,10473
2876,10469
2876,10468
2876,10466
2875,10458
2875,10446
2874,10438
2874,10436
2874,10435
2873,10432
2872,10425
2870,10417
2867,10407
2864,10397
2863,10394
2862,10392
2860,10388
2856,10379
2851,10370
2849,10366
2848,10365
2845,10361
2839,10353
2832,10344
2827,10337
2822,10333
2820,10330
2819,10329
2818,10328
2812,10323
2802,10314
2796,10309
2795,10308
2794,10308
2791,10305
2786,10302
2779,10297
2769,10292
2760,10288
2756,10286
2755,10286
2751,10284
2741,10281
2731,10278
2727,10277
2725,10277
2721,10276
2711,10274
2700,10273
2691,10272
2685,10272
2681,10272
2680,10272
2678,10272
2670,10273
2658,10273
2650,10274
2648,10274
2647,10274
2644,10275
2637,10276
2629,10278
2619,10281
2609,10284
2606,10286
2604,10286
2600,10288
2591,10292
2582,10297
2578,10299
2577,10300
2573,10302
2565,10308
2556,10315
2549,10321
2545,10325
2542,10328
2541,10329
2540,10330
2535,10336
2526,10346
2521,10352
2520,10353
2520,10354
2517,10357
2514,10362
2509,10369
2504,10379
2500,10388
2498,10392
2498,10394
2496,10397
2493,10407
2490,10417
2489,10420
2489,10422
2488,10426
2486,10436
2485,10447
2484,10456
2484,10463
2484,10467
2484,10468
2484,10470
2485,10478
2485,10490
2486,10498
2486,10500
2486,10501
2487,10504
2488,10511
2490,10519
2493,10529
2496,10539
2498,10542
2498,10544
2500,10548
2504,10557
2509,10566
2511,10570
2512,10571
2514,10575
2520,10583
2527,10592
2533,10599
2537,10603
2540,10606
2541,10607
2542,10608
2548,10613
2558,10622
2564,10627
2565,10628
2566,10628
2569,10631
2574,10634
2581,10639
2591,10644
2600,10648
2604,10650
2606,10650
2609,10652
2619,10655
2629,10658
2632,10659
2634,10659
2638,10660
2648,10662
2659,10663
2668,10664
2675,10664
2679,10664
2680,10664
" style="stroke:#ffffff;stroke-width:0;
stroke-linejoin:bevel; stroke-linecap:butt;
fill:#ffffff;
"/>
<!-- Line -->
<!--  spline  -->
<polyline points="2680,10664
2682,10664
2690,10663
2701,10663
2709,10662
2711,10662
2712,10662
2716,10661
2722,10660
2730,10658
2741,10655
2751,10652
2755,10650
2756,10650
2760,10648
2769,10644
2778,10639
2782,10637
2783,10636
2787,10634
2795,10628
2804,10621
2811,10615
2815,10611
2818,10608
2819,10607
2820,10606
2825,10600
2833,10590
2838,10584
2839,10583
2840,10582
2842,10579
2846,10574
2851,10567
2856,10557
2860,10548
2862,10544
2863,10542
2864,10539
2867,10529
2870,10519
2871,10516
2871,10514
2872,10510
2874,10500
2875,10489
2876,10480
2876,10473
2876,10469
2876,10468
2876,10466
2875,10458
2875,10446
2874,10438
2874,10436
2874,10435
2873,10432
2872,10425
2870,10417
2867,10407
2864,10397
2863,10394
2862,10392
2860,10388
2856,10379
2851,10370
2849,10366
2848,10365
2845,10361
2839,10353
2832,10344
2827,10337
2822,10333
2820,10330
2819,10329
2818,10328
2812,10323
2802,10314
2796,10309
2795,10308
2794,10308
2791,10305
2786,10302
2779,10297
2769,10292
2760,10288
2756,10286
2755,10286
2751,10284
2741,10281
2731,10278
2727,10277
2725,10277
2721,10276
2711,10274
2700,10273
2691,10272
2685,10272
2681,10272
2680,10272
2678,10272
2670,10273
2658,10273
2650,10274
2648,10274
2647,10274
2644,10275
2637,10276
2629,10278
2619,10281
2609,10284
2606,10286
2604,10286
2600,10288
2591,10292
2582,10297
2578,10299
2577,10300
2573,10302
2565,10308
2556,10315
2549,10321
2545,10325
2542,10328
2541,10329
2540,10330
2535,10336
2526,10346
2521,10352
2520,10353
2520,10354
2517,10357
2514,10362
2509,10369
2504,10379
2500,10388
2498,10392
2498,10394
2496,10397
2493,10407
2490,10417
2489,10420
2489,10422
2488,10426
2486,10436
2485,10447
2484,10456
2484,10463
2484,10467
2484,10468
2484,10470
2485,10478
2485,10490
2486,10498
2486,10500
2486,10501
2487,10504
2488,10511
2490,10519
2493,10529
2496,10539
2498,10542
2498,10544
2500,10548
2504,10557
2509,10566
2511,10570
2512,10571
2514,10575
2520,10583
2527,10592
2533,10599
2537,10603
2540,10606
2541,10607
2542,10608
2548,10613
2558,10622
2564,10627
2565,10628
2566,10628
2569,10631
2574,10634
2581,10639
2591,10644
2600,10648
2604,10650
2606,10650
2609,10652
2619,10655
2629,10658
2632,10659
2634,10659
2638,10660
2648,10662
2659,10663
2668,10664
2675,10664
2679,10664
2680,10664
" style="stroke:#000000;stroke-width:15;
stroke-linejoin:bevel; stroke-linecap:butt;
"/>
<!-- Line -->
<!--  spline  -->
<polyline points="5330,11080
5332,11080
5340,11079
5351,11079
5359,11078
5361,11078
5362,11078
5366,11077
5372,11076
5380,11074
5391,11071
5401,11068
5405,11066
5406,11066
5410,11064
5419,11060
5428,11055
5432,11053
5433,11052
5437,11050
5445,11044
5454,11037
5461,11031
5465,11027
5468,11024
5469,11023
5470,11022
5475,11016
5483,11006
5488,11000
5489,10999
5490,10998
5492,10995
5496,10990
5501,10983
5506,10973
5510,10964
5512,10960
5513,10958
5514,10955
5517,10945
5520,10935
5521,10932
5521,10930
5522,10926
5524,10916
5525,10905
5526,10896
5526,10889
5526,10885
5526,10884
5526,10882
5525,10874
5525,10862
5524,10854
5524,10852
5524,10851
5523,10848
5522,10841
5520,10833
5517,10823
5514,10813
5513,10810
5512,10808
5510,10804
5506,10795
5501,10786
5499,10782
5498,10781
5495,10777
5489,10769
5482,10760
5477,10753
5472,10749
5470,10746
5469,10745
5468,10744
5462,10739
5452,10730
5446,10725
5445,10724
5444,10724
5441,10721
5436,10718
5429,10713
5419,10708
5410,10704
5406,10702
5405,10702
5401,10700
5391,10697
5381,10694
5377,10693
5375,10693
5371,10692
5361,10690
5350,10689
5341,10688
5335,10688
5331,10688
5330,10688
5328,10688
5320,10689
5308,10689
5300,10690
5298,10690
5297,10690
5294,10691
5287,10692
5279,10694
5269,10697
5259,10700
5256,10702
5254,10702
5250,10704
5241,10708
5232,10713
5228,10715
5227,10716
5223,10718
5215,10724
5206,10731
5199,10737
5195,10741
5192,10744
5191,10745
5190,10746
5185,10752
5176,10762
5171,10768
5170,10769
5170,10770
5167,10773
5164,10778
5159,10785
5154,10795
5150,10804
5148,10808
5148,10810
5146,10813
5143,10823
5140,10833
5139,10836
5139,10838
5138,10842
5136,10852
5135,10863
5134,10872
5134,10879
5134,10883
5134,10884
5134,10886
5135,10894
5135,10906
5136,10914
5136,10916
5136,10917
5137,10920
5138,10927
5140,10935
5143,10945
5146,10955
5148,10958
5148,10960
5150,10964
5154,10973
5159,10982
5161,10986
5162,10987
5164,10991
5170,10999
5177,11008
5183,11015
5187,11019
5190,11022
5191,11023
5192,11024
5198,11029
5208,11038
5214,11043
5215,11044
5216,11044
5219,11047
5224,11050
5231,11055
5241,11060
5250,11064
5254,11066
5256,11066
5259,11068
5269,11071
5279,11074
5282,11075
5284,11075
5288,11076
5298,11078
5309,11079
5318,11080
5325,11080
5329,11080
5330,11080
" style="stroke:#ffffff;stroke-width:0;
stroke-linejoin:bevel; stroke-linecap:butt;
fill:#ffffff;
"/>
<!-- Line -->
<!--  spline  -->
<polyline points="5330,11080
5332,11080
5340,11079
5351,11079
5359,11078
5361,11078
5362,11078
5366,11077
5372,11076
5380,11074
5391,11071
5401,11068
5405,11066
5406,11066
5410,11064
5419,11060
5428,11055
5432,11053
5433,11052
5437,11050
5445,11044
5454,11037
5461,11031
5465,11027
5468,11024
5469,11023
5470,11022
5475,11016
5483,11006
5488,11000
5489,10999
5490,10998
5492,10995
5496,10990
5501,10983
5506,10973
5510,10964
5512,10960
5513,10958
5514,10955
5517,10945
5520,10935
5521,10932
5521,10930
5522,10926
5524,10916
5525,10905
5526,10896
5526,10889
5526,10885
5526,10884
5526,10882
5525,10874
5525,10862
5524,10854
5524,10852
5524,10851
5523,10848
5522,10841
5520,10833
5517,10823
5514,10813
5513,10810
5512,10808
5510,10804
5506,10795
5501,10786
5499,10782
5498,10781
5495,10777
5489,10769
5482,10760
5477,10753
5472,10749
5470,10746
5469,10745
5468,10744
5462,10739
5452,10730
5446,10725
5445,10724
5444,10724
5441,10721
5436,10718
5429,10713
5419,10708
5410,10704
5406,10702
5405,10702
5401,10700
5391,10697
5381,10694
5377,10693
5375,10693
5371,10692
5361,10690
5350,10689
5341,10688
5335,10688
5331,10688
5330,10688
5328,10688
5320,10689
5308,10689
5300,10690
5298,10690
5297,10690
5294,10691
5287,10692
5279,10694
5269,10697
5259,10700
5256,10702
5254,10702
5250,10704
5241,10708
5232,10713
5228,10715
5227,10716
5223,10718
5215,10724
5206,10731
5199,10737
5195,10741
5192,10744
5191,10745
5190,10746
5185,10752
5176,10762
5171,10768
5170,10769
5170,10770
5167,10773
5164,10778
5159,10785
5154,10795
5150,10804
5148,10808
5148,10810
5146,10813
5143,10823
5140,10833
5139,10836
5139,10838
5138,10842
5136,10852
5135,10863
5134,10872
5134,10879
5134,10883
5134,10884
5134,10886
5135,10894
5135,10906
5136,10914
5136,10916
5136,10917
5137,10920
5138,10927
5140,10935
5143,10945
5146,10955
5148,10958
5148,10960
5150,10964
5154,10973
5159,10982
5161,10986
5162,10987
5164,10991
5170,10999
5177,11008
5183,11015
5187,11019
5190,11022
5191,11023
5192,11024
5198,11029
5208,11038
5214,11043
5215,11044
5216,11044
5219,11047
5224,11050
5231,11055
5241,11060
5250,11064
5254,11066
5256,11066
5259,11068
5269,11071
5279,11074
5282,11075
5284,11075
5288,11076
5298,11078
5309,11079
5318,11080
5325,11080
5329,11080
5330,11080
" style="stroke:#000000;stroke-width:15;
stroke-linejoin:bevel; stroke-linecap:butt;
"/>
<!-- Line -->
<!--  spline  -->
<polyline points="5526,11614
5528,11614
5536,11613
5548,11613
5556,11612
5558,11612
5559,11612
5563,11611
5569,11610
5577,11608
5588,11605
5597,11602
5601,11600
5602,11600
5606,11598
5615,11594
5624,11589
5628,11587
5629,11586
5633,11584
5641,11578
5650,11571
5657,11565
5661,11561
5664,11558
5665,11557
5666,11556
5671,11550
5680,11540
5685,11534
5686,11533
5686,11532
5689,11529
5692,11524
5697,11517
5702,11507
5706,11498
5708,11494
5708,11492
5710,11489
5713,11479
5716,11469
5717,11466
5717,11464
5718,11460
5720,11450
5722,11439
5722,11430
5723,11423
5723,11419
5723,11418
5723,11416
5722,11408
5721,11397
5720,11389
5720,11387
5720,11386
5719,11382
5718,11376
5716,11368
5713,11357
5710,11347
5708,11343
5708,11342
5706,11338
5702,11329
5697,11320
5695,11316
5694,11315
5692,11311
5686,11303
5679,11294
5673,11287
5669,11283
5666,11280
5665,11279
5664,11278
5658,11273
5648,11265
5642,11260
5641,11259
5640,11259
5637,11256
5632,11253
5625,11248
5615,11243
5606,11238
5602,11237
5601,11236
5597,11234
5588,11231
5578,11228
5574,11227
5573,11227
5568,11226
5558,11224
5547,11223
5538,11222
5531,11222
5527,11222
5526,11222
5524,11222
5516,11223
5505,11223
5497,11224
5495,11224
5494,11224
5490,11225
5484,11226
5476,11228
5465,11231
5455,11234
5451,11236
5450,11237
5446,11238
5437,11243
5428,11248
5424,11250
5423,11251
5419,11253
5411,11259
5402,11266
5395,11271
5391,11276
5388,11278
5387,11279
5386,11280
5381,11286
5373,11296
5368,11302
5367,11303
5367,11304
5364,11307
5361,11312
5356,11319
5351,11329
5346,11338
5345,11342
5344,11343
5342,11347
5339,11357
5336,11367
5335,11371
5335,11373
5334,11377
5332,11387
5331,11398
5330,11407
5330,11413
5330,11417
5330,11418
5330,11420
5331,11428
5331,11440
5332,11448
5332,11450
5332,11451
5333,11454
5334,11461
5336,11469
5339,11479
5342,11489
5344,11492
5345,11494
5346,11498
5351,11507
5356,11516
5358,11520
5359,11521
5361,11525
5367,11533
5374,11542
5379,11549
5384,11553
5386,11556
5387,11557
5388,11558
5394,11563
5404,11572
5410,11577
5411,11578
5412,11578
5415,11581
5420,11584
5427,11589
5437,11594
5446,11598
5450,11600
5451,11600
5455,11602
5465,11605
5475,11608
5479,11609
5481,11609
5485,11610
5495,11612
5506,11613
5515,11614
5521,11614
5525,11614
5526,11614
" style="stroke:#ffffff;stroke-width:0;
stroke-linejoin:bevel; stroke-linecap:butt;
fill:#ffffff;
"/>
<!-- Line -->
<!--  spline  -->
<polyline points="5526,11614
5528,11614
5536,11613
5548,11613
5556,11612
5558,11612
5559,11612
5563,11611
5569,11610
5577,11608
5588,11605
5597,11602
5601,11600
5602,11600
5606,11598
5615,11594
5624,11589
5628,11587
5629,11586
5633,11584
5641,11578
5650,11571
5657,11565
5661,11561
5664,11558
5665,11557
5666,11556
5671,11550
5680,11540
5685,11534
5686,11533
5686,11532
5689,11529
5692,11524
5697,11517
5702,11507
5706,11498
5708,11494
5708,11492
5710,11489
5713,11479
5716,11469
5717,11466
5717,11464
5718,11460
5720,11450
5722,11439
5722,11430
5723,11423
5723,11419
5723,11418
5723,11416
5722,11408
5721,11397
5720,11389
5720,11387
5720,11386
5719,11382
5718,11376
5716,11368
5713,11357
5710,11347
5708,11343
5708,11342
5706,11338
5702,11329
5697,11320
5695,11316
5694,11315
5692,11311
5686,11303
5679,11294
5673,11287
5669,11283
5666,11280
5665,11279
5664,11278
5658,11273
5648,11265
5642,11260
5641,11259
5640,11259
5637,11256
5632,11253
5625,11248
5615,11243
5606,11238
5602,11237
5601,11236
5597,11234
5588,11231
5578,11228
5574,11227
5573,11227
5568,11226
5558,11224
5547,11223
5538,11222
5531,11222
5527,11222
5526,11222
5524,11222
5516,11223
5505,11223
5497,11224
5495,11224
5494,11224
5490,11225
5484,11226
5476,11228
5465,11231
5455,11234
5451,11236
5450,11237
5446,11238
5437,11243
5428,11248
5424,11250
5423,11251
5419,11253
5411,11259
5402,11266
5395,11271
5391,11276
5388,11278
5387,11279
5386,11280
5381,11286
5373,11296
5368,11302
5367,11303
5367,11304
5364,11307
5361,11312
5356,11319
5351,11329
5346,11338
5345,11342
5344,11343
5342,11347
5339,11357
5336,11367
5335,11371
5335,11373
5334,11377
5332,11387
5331,11398
5330,11407
5330,11413
5330,11417
5330,11418
5330,11420
5331,11428
5331,11440
5332,11448
5332,11450
5332,11451
5333,11454
5334,11461
5336,11469
5339,11479
5342,11489
5344,11492
5345,11494
5346,11498
5351,11507
5356,11516
5358,11520
5359,11521
5361,11525
5367,11533
5374,11542
5379,11549
5384,11553
5386,11556
5387,11557
5388,11558
5394,11563
5404,11572
5410,11577
5411,11578
5412,11578
5415,11581
5420,11584
5427,11589
5437,11594
5446,11598
5450,11600
5451,11600
5455,11602
5465,11605
5475,11608
5479,11609
5481,11609
5485,11610
5495,11612
5506,11613
5515,11614
5521,11614
5525,11614
5526,11614
" style="stroke:#000000;stroke-width:15;
stroke-linejoin:bevel; stroke-linecap:butt;
"/>
<!-- Line -->
<!--  spline  -->
<polyline points="5330,12429
5332,12429
5340,12428
5351,12428
5359,12427
5361,12427
5362,12427
5366,12426
5372,12425
5380,12423
5391,12420
5401,12417
5405,12416
5406,12415
5410,12413
5419,12409
5428,12404
5432,12402
5433,12401
5437,12398
5445,12392
5454,12385
5461,12380
5465,12375
5468,12373
5469,12372
5470,12371
5475,12365
5483,12355
5488,12349
5489,12348
5490,12347
5492,12344
5496,12339
5501,12332
5506,12322
5510,12313
5512,12309
5513,12307
5514,12304
5517,12294
5520,12284
5521,12281
5521,12279
5522,12275
5524,12265
5525,12254
5526,12245
5526,12238
5526,12234
5526,12233
5526,12231
5525,12223
5525,12211
5524,12203
5524,12201
5524,12200
5523,12197
5522,12190
5520,12182
5517,12172
5514,12162
5513,12159
5512,12157
5510,12153
5506,12144
5501,12135
5499,12131
5498,12130
5495,12126
5489,12118
5482,12109
5477,12102
5472,12098
5470,12095
5469,12094
5468,12093
5462,12088
5452,12079
5446,12074
5445,12073
5444,12073
5441,12070
5436,12067
5429,12062
5419,12057
5410,12053
5406,12051
5405,12051
5401,12049
5391,12046
5381,12043
5377,12042
5375,12042
5371,12041
5361,12039
5350,12038
5341,12037
5335,12037
5331,12037
5330,12037
5328,12037
5320,12038
5308,12038
5300,12039
5298,12039
5297,12039
5294,12040
5287,12041
5279,12043
5269,12046
5259,12049
5256,12051
5254,12051
5250,12053
5241,12057
5232,12062
5228,12064
5227,12065
5223,12067
5215,12073
5206,12080
5199,12086
5195,12090
5192,12093
5191,12094
5190,12095
5185,12101
5176,12111
5171,12117
5170,12118
5170,12119
5167,12122
5164,12127
5159,12134
5154,12144
5150,12153
5148,12157
5148,12159
5146,12162
5143,12172
5140,12182
5139,12185
5139,12187
5138,12191
5136,12201
5135,12212
5134,12221
5134,12228
5134,12232
5134,12233
5134,12235
5135,12243
5135,12255
5136,12263
5136,12265
5136,12266
5137,12269
5138,12276
5140,12284
5143,12294
5146,12304
5148,12307
5148,12309
5150,12313
5154,12322
5159,12331
5161,12335
5162,12336
5164,12340
5170,12348
5177,12357
5183,12364
5187,12368
5190,12371
5191,12372
5192,12373
5198,12378
5208,12386
5214,12391
5215,12392
5216,12393
5219,12395
5224,12399
5231,12404
5241,12409
5250,12413
5254,12415
5256,12416
5259,12417
5269,12420
5279,12423
5282,12424
5284,12424
5288,12425
5298,12427
5309,12428
5318,12429
5325,12429
5329,12429
5330,12429
" style="stroke:#ffffff;stroke-width:0;
stroke-linejoin:bevel; stroke-linecap:butt;
fill:#ffffff;
"/>
<!-- Line -->
<!--  spline  -->
<polyline points="5330,12429
5332,12429
5340,12428
5351,12428
5359,12427
5361,12427
5362,12427
5366,12426
5372,12425
5380,12423
5391,12420
5401,12417
5405,12416
5406,12415
5410,12413
5419,12409
5428,12404
5432,12402
5433,12401
5437,12398
5445,12392
5454,12385
5461,12380
5465,12375
5468,12373
5469,12372
5470,12371
5475,12365
5483,12355
5488,12349
5489,12348
5490,12347
5492,12344
5496,12339
5501,12332
5506,12322
5510,12313
5512,12309
5513,12307
5514,12304
5517,12294
5520,12284
5521,12281
5521,12279
5522,12275
5524,12265
5525,12254
5526,12245
5526,12238
5526,12234
5526,12233
5526,12231
5525,12223
5525,12211
5524,12203
5524,12201
5524,12200
5523,12197
5522,12190
5520,12182
5517,12172
5514,12162
5513,12159
5512,12157
5510,12153
5506,12144
5501,12135
5499,12131
5498,12130
5495,12126
5489,12118
5482,12109
5477,12102
5472,12098
5470,12095
5469,12094
5468,12093
5462,12088
5452,12079
5446,12074
5445,12073
5444,12073
5441,12070
5436,12067
5429,12062
5419,12057
5410,12053
5406,12051
5405,12051
5401,12049
5391,12046
5381,12043
5377,12042
5375,12042
5371,12041
5361,12039
5350,12038
5341,12037
5335,12037
5331,12037
5330,12037
5328,12037
5320,12038
5308,12038
5300,12039
5298,12039
5297,12039
5294,12040
5287,12041
5279,12043
5269,12046
5259,12049
5256,12051
5254,12051
5250,12053
5241,12057
5232,12062
5228,12064
5227,12065
5223,12067
5215,12073
5206,12080
5199,12086
5195,12090
5192,12093
5191,12094
5190,12095
5185,12101
5176,12111
5171,12117
5170,12118
5170,12119
5167,12122
5164,12127
5159,12134
5154,12144
5150,12153
5148,12157
5148,12159
5146,12162
5143,12172
5140,12182
5139,12185
5139,12187
5138,12191
5136,12201
5135,12212
5134,12221
5134,12228
5134,12232
5134,12233
5134,12235
5135,12243
5135,12255
5136,12263
5136,12265
5136,12266
5137,12269
5138,12276
5140,12284
5143,12294
5146,12304
5148,12307
5148,12309
5150,12313
5154,12322
5159,12331
5161,12335
5162,12336
5164,12340
5170,12348
5177,12357
5183,12364
5187,12368
5190,12371
5191,12372
5192,12373
5198,12378
5208,12386
5214,12391
5215,12392
5216,12393
5219,12395
5224,12399
5231,12404
5241,12409
5250,12413
5254,12415
5256,12416
5259,12417
5269,12420
5279,12423
5282,12424
5284,12424
5288,12425
5298,12427
5309,12428
5318,12429
5325,12429
5329,12429
5330,12429
" style="stroke:#000000;stroke-width:15;
stroke-linejoin:bevel; stroke-linecap:butt;
"/>
<!-- Line -->
<!--  spline  -->
<polyline points="2355,11085
2357,11085
2365,11084
2376,11084
2384,11083
2386,11083
2387,11083
2391,11082
2397,11081
2405,11079
2416,11076
2426,11073
2430,11071
2431,11070
2435,11069
2444,11064
2453,11059
2456,11057
2457,11056
2461,11054
2469,11048
2478,11041
2484,11036
2489,11031
2492,11029
2493,11028
2494,11027
2499,11021
2508,11011
2513,11005
2514,11004
2514,11003
2517,11000
2520,10995
2525,10988
2530,10978
2535,10969
2536,10965
2537,10964
2539,10960
2542,10950
2545,10940
2546,10936
2546,10934
2547,10930
2549,10920
2550,10909
2551,10900
2551,10894
2551,10890
2551,10889
2551,10887
2550,10879
2550,10867
2549,10859
2549,10857
2549,10856
2548,10852
2547,10846
2545,10838
2542,10827
2539,10818
2537,10814
2536,10813
2535,10809
2530,10800
2525,10791
2523,10787
2522,10786
2520,10782
2514,10774
2507,10765
2501,10758
2497,10754
2494,10751
2493,10750
2492,10749
2486,10744
2476,10735
2470,10730
2469,10729
2468,10729
2465,10726
2460,10723
2453,10718
2444,10713
2435,10709
2431,10707
2430,10707
2426,10705
2416,10702
2406,10699
2402,10698
2400,10698
2396,10697
2386,10695
2375,10693
2366,10693
2360,10692
2356,10692
2355,10692
2353,10692
2345,10693
2333,10694
2325,10695
2323,10695
2322,10695
2318,10696
2312,10697
2304,10699
2293,10702
2284,10705
2280,10707
2279,10707
2275,10709
2266,10713
2257,10718
2253,10720
2252,10721
2248,10723
2240,10729
2231,10736
2224,10742
2220,10746
2217,10749
2216,10750
2215,10751
2210,10757
2201,10767
2196,10773
2195,10774
2195,10775
2192,10778
2189,10783
2184,10790
2179,10800
2174,10809
2173,10813
2172,10814
2170,10818
2167,10827
2164,10837
2163,10841
2163,10842
2163,10847
2161,10857
2160,10868
2159,10877
2158,10884
2158,10888
2158,10889
2158,10891
2159,10899
2160,10910
2161,10918
2161,10920
2161,10921
2162,10925
2162,10931
2164,10939
2167,10950
2170,10960
2172,10964
2173,10965
2174,10969
2179,10978
2184,10987
2186,10991
2187,10992
2189,10996
2195,11004
2202,11013
2208,11020
2212,11024
2215,11027
2216,11028
2217,11029
2223,11034
2233,11042
2239,11047
2240,11048
2241,11048
2244,11051
2249,11054
2256,11059
2266,11064
2275,11069
2279,11070
2280,11071
2284,11073
2293,11076
2303,11079
2307,11080
2308,11080
2313,11081
2323,11083
2334,11084
2343,11085
2350,11085
2354,11085
2355,11085
" style="stroke:#ffffff;stroke-width:0;
stroke-linejoin:bevel; stroke-linecap:butt;
fill:#ffffff;
"/>
<!-- Line -->
<!--  spline  -->
<polyline points="2355,11085
2357,11085
2365,11084
2376,11084
2384,11083
2386,11083
2387,11083
2391,11082
2397,11081
2405,11079
2416,11076
2426,11073
2430,11071
2431,11070
2435,11069
2444,11064
2453,11059
2456,11057
2457,11056
2461,11054
2469,11048
2478,11041
2484,11036
2489,11031
2492,11029
2493,11028
2494,11027
2499,11021
2508,11011
2513,11005
2514,11004
2514,11003
2517,11000
2520,10995
2525,10988
2530,10978
2535,10969
2536,10965
2537,10964
2539,10960
2542,10950
2545,10940
2546,10936
2546,10934
2547,10930
2549,10920
2550,10909
2551,10900
2551,10894
2551,10890
2551,10889
2551,10887
2550,10879
2550,10867
2549,10859
2549,10857
2549,10856
2548,10852
2547,10846
2545,10838
2542,10827
2539,10818
2537,10814
2536,10813
2535,10809
2530,10800
2525,10791
2523,10787
2522,10786
2520,10782
2514,10774
2507,10765
2501,10758
2497,10754
2494,10751
2493,10750
2492,10749
2486,10744
2476,10735
2470,10730
2469,10729
2468,10729
2465,10726
2460,10723
2453,10718
2444,10713
2435,10709
2431,10707
2430,10707
2426,10705
2416,10702
2406,10699
2402,10698
2400,10698
2396,10697
2386,10695
2375,10693
2366,10693
2360,10692
2356,10692
2355,10692
2353,10692
2345,10693
2333,10694
2325,10695
2323,10695
2322,10695
2318,10696
2312,10697
2304,10699
2293,10702
2284,10705
2280,10707
2279,10707
2275,10709
2266,10713
2257,10718
2253,10720
2252,10721
2248,10723
2240,10729
2231,10736
2224,10742
2220,10746
2217,10749
2216,10750
2215,10751
2210,10757
2201,10767
2196,10773
2195,10774
2195,10775
2192,10778
2189,10783
2184,10790
2179,10800
2174,10809
2173,10813
2172,10814
2170,10818
2167,10827
2164,10837
2163,10841
2163,10842
2163,10847
2161,10857
2160,10868
2159,10877
2158,10884
2158,10888
2158,10889
2158,10891
2159,10899
2160,10910
2161,10918
2161,10920
2161,10921
2162,10925
2162,10931
2164,10939
2167,10950
2170,10960
2172,10964
2173,10965
2174,10969
2179,10978
2184,10987
2186,10991
2187,10992
2189,10996
2195,11004
2202,11013
2208,11020
2212,11024
2215,11027
2216,11028
2217,11029
2223,11034
2233,11042
2239,11047
2240,11048
2241,11048
2244,11051
2249,11054
2256,11059
2266,11064
2275,11069
2279,11070
2280,11071
2284,11073
2293,11076
2303,11079
2307,11080
2308,11080
2313,11081
2323,11083
2334,11084
2343,11085
2350,11085
2354,11085
2355,11085
" style="stroke:#000000;stroke-width:15;
stroke-linejoin:bevel; stroke-linecap:butt;
"/>
<!-- Line -->
<!--  polyline  -->
<polyline points="2551,11085
2551,11085
2551,11085
" style="stroke:#000000;stroke-width:7;
stroke-linejoin:miter; stroke-linecap:butt;
"/>
<!-- Line -->
<!--  polyline  -->
<polyline points="2383,11616
2383,11616
2383,11616
" style="stroke:#000000;stroke-width:7;
stroke-linejoin:miter; stroke-linecap:butt;
"/>
<!-- Line -->
<!--  spline  -->
<polyline points="2186,11616
2188,11616
2196,11615
2208,11615
2216,11614
2218,11614
2219,11614
2223,11613
2229,11612
2237,11610
2248,11607
2257,11604
2261,11603
2262,11602
2266,11600
2275,11596
2284,11591
2288,11589
2289,11588
2293,11585
2301,11579
2310,11572
2317,11567
2321,11562
2324,11560
2325,11559
2326,11558
2331,11552
2340,11542
2345,11536
2346,11535
2346,11534
2349,11531
2352,11526
2357,11519
2362,11509
2366,11500
2368,11496
2368,11495
2370,11491
2373,11481
2376,11471
2377,11467
2377,11465
2378,11461
2380,11451
2382,11440
2382,11431
2383,11425
2383,11421
2383,11420
2383,11418
2382,11410
2381,11398
2380,11390
2380,11388
2380,11387
2379,11384
2378,11377
2376,11369
2373,11359
2370,11349
2368,11346
2368,11344
2366,11340
2362,11331
2357,11322
2355,11318
2354,11317
2352,11313
2346,11305
2339,11296
2333,11289
2329,11285
2326,11282
2325,11281
2324,11280
2318,11275
2308,11266
2302,11261
2301,11260
2300,11260
2297,11257
2292,11254
2285,11249
2275,11244
2266,11240
2262,11238
2261,11238
2257,11236
2248,11233
2238,11230
2234,11229
2233,11229
2228,11228
2218,11226
2207,11225
2198,11224
2191,11224
2187,11224
2186,11224
2184,11224
2176,11225
2165,11225
2157,11226
2155,11226
2154,11226
2150,11227
2144,11228
2136,11230
2125,11233
2115,11236
2111,11238
2110,11238
2106,11240
2097,11244
2088,11249
2084,11251
2083,11252
2079,11254
2071,11260
2062,11267
2055,11273
2051,11277
2048,11280
2047,11281
2046,11282
2041,11288
2033,11298
2028,11304
2027,11305
2027,11306
2024,11309
2021,11314
2016,11321
2011,11331
2006,11340
2005,11344
2004,11346
2002,11349
1999,11359
1996,11369
1995,11372
1995,11374
1994,11378
1992,11388
1991,11399
1990,11408
1990,11415
1990,11419
1990,11420
1990,11422
1991,11430
1991,11441
1992,11449
1992,11451
1992,11452
1993,11456
1994,11462
1996,11470
1999,11481
2002,11491
2004,11495
2005,11496
2006,11500
2011,11509
2016,11518
2018,11522
2019,11523
2021,11527
2027,11535
2034,11544
2039,11551
2044,11555
2046,11558
2047,11559
2048,11560
2054,11565
2064,11573
2070,11578
2071,11579
2072,11580
2075,11582
2080,11586
2087,11591
2097,11596
2106,11600
2110,11602
2111,11603
2115,11604
2125,11607
2135,11610
2139,11611
2141,11611
2145,11612
2155,11614
2166,11615
2175,11616
2181,11616
2185,11616
2186,11616
" style="stroke:#ffffff;stroke-width:0;
stroke-linejoin:bevel; stroke-linecap:butt;
fill:#ffffff;
"/>
<!-- Line -->
<!--  spline  -->
<polyline points="2186,11616
2188,11616
2196,11615
2208,11615
2216,11614
2218,11614
2219,11614
2223,11613
2229,11612
2237,11610
2248,11607
2257,11604
2261,11603
2262,11602
2266,11600
2275,11596
2284,11591
2288,11589
2289,11588
2293,11585
2301,11579
2310,11572
2317,11567
2321,11562
2324,11560
2325,11559
2326,11558
2331,11552
2340,11542
2345,11536
2346,11535
2346,11534
2349,11531
2352,11526
2357,11519
2362,11509
2366,11500
2368,11496
2368,11495
2370,11491
2373,11481
2376,11471
2377,11467
2377,11465
2378,11461
2380,11451
2382,11440
2382,11431
2383,11425
2383,11421
2383,11420
2383,11418
2382,11410
2381,11398
2380,11390
2380,11388
2380,11387
2379,11384
2378,11377
2376,11369
2373,11359
2370,11349
2368,11346
2368,11344
2366,11340
2362,11331
2357,11322
2355,11318
2354,11317
2352,11313
2346,11305
2339,11296
2333,11289
2329,11285
2326,11282
2325,11281
2324,11280
2318,11275
2308,11266
2302,11261
2301,11260
2300,11260
2297,11257
2292,11254
2285,11249
2275,11244
2266,11240
2262,11238
2261,11238
2257,11236
2248,11233
2238,11230
2234,11229
2233,11229
2228,11228
2218,11226
2207,11225
2198,11224
2191,11224
2187,11224
2186,11224
2184,11224
2176,11225
2165,11225
2157,11226
2155,11226
2154,11226
2150,11227
2144,11228
2136,11230
2125,11233
2115,11236
2111,11238
2110,11238
2106,11240
2097,11244
2088,11249
2084,11251
2083,11252
2079,11254
2071,11260
2062,11267
2055,11273
2051,11277
2048,11280
2047,11281
2046,11282
2041,11288
2033,11298
2028,11304
2027,11305
2027,11306
2024,11309
2021,11314
2016,11321
2011,11331
2006,11340
2005,11344
2004,11346
2002,11349
1999,11359
1996,11369
1995,11372
1995,11374
1994,11378
1992,11388
1991,11399
1990,11408
1990,11415
1990,11419
1990,11420
1990,11422
1991,11430
1991,11441
1992,11449
1992,11451
1992,11452
1993,11456
1994,11462
1996,11470
1999,11481
2002,11491
2004,11495
2005,11496
2006,11500
2011,11509
2016,11518
2018,11522
2019,11523
2021,11527
2027,11535
2034,11544
2039,11551
2044,11555
2046,11558
2047,11559
2048,11560
2054,11565
2064,11573
2070,11578
2071,11579
2072,11580
2075,11582
2080,11586
2087,11591
2097,11596
2106,11600
2110,11602
2111,11603
2115,11604
2125,11607
2135,11610
2139,11611
2141,11611
2145,11612
2155,11614
2166,11615
2175,11616
2181,11616
2185,11616
2186,11616
" style="stroke:#000000;stroke-width:15;
stroke-linejoin:bevel; stroke-linecap:butt;
"/>
<!-- Line -->
<!--  polyline  -->
<polyline points="2714,12429
2714,12429
2714,12429
" style="stroke:#000000;stroke-width:7;
stroke-linejoin:miter; stroke-linecap:butt;
"/>
<!-- Line -->
<!--  spline  -->
<polyline points="2214,12733
2217,12733
2220,12733
2223,12733
2224,12733
2226,12733
2229,12733
2232,12733
2235,12733
2236,12733
2237,12733
2240,12733
2242,12733
2243,12733
2244,12733
2245,12733
2247,12733
2250,12733
2251,12733
2253,12733
2254,12733
2256,12733
2258,12733
2260,12733
2261,12733
2262,12733
2263,12732
2265,12732
2266,12732
2267,12732
2268,12732
2269,12732
2270,12732
2269,12732
2268,12732
2267,12732
2267,12731
2266,12731
2265,12731
2264,12731
2263,12731
2262,12731
2260,12731
2258,12731
2256,12731
2255,12731
2254,12731
2252,12731
2249,12731
2247,12731
2246,12731
2245,12731
2243,12731
2240,12731
2237,12731
2236,12731
2235,12731
2232,12731
2229,12731
2228,12731
2227,12731
2226,12731
2223,12731
2220,12731
2217,12731
2215,12731
2214,12731
2211,12731
2208,12731
2205,12731
2204,12731
2202,12731
2200,12731
2197,12731
2194,12731
2193,12731
2192,12731
2189,12731
2187,12731
2186,12731
2185,12731
2184,12731
2182,12731
2179,12731
2178,12731
2176,12731
2175,12731
2173,12731
2171,12731
2169,12731
2168,12731
2167,12731
2166,12731
2164,12731
2163,12731
2162,12731
2162,12732
2161,12732
2160,12732
2159,12732
2158,12732
2159,12732
2160,12732
2161,12732
2162,12732
2163,12732
2164,12732
2165,12732
2166,12732
2166,12733
2167,12733
2169,12733
2171,12733
2173,12733
2174,12733
2175,12733
2177,12733
2180,12733
2182,12733
2183,12733
2184,12733
2186,12733
2189,12733
2192,12733
2193,12733
2194,12733
2197,12733
2200,12733
2201,12733
2202,12733
2205,12733
2208,12733
2211,12733
2213,12733
2214,12733
" style="stroke:#ffffff;stroke-width:0;
stroke-linejoin:bevel; stroke-linecap:butt;
fill:#ffffff;
"/>
<!-- Line -->
<!--  spline  -->
<polyline points="2214,12733
2217,12733
2220,12733
2223,12733
2224,12733
2226,12733
2229,12733
2232,12733
2235,12733
2236,12733
2237,12733
2240,12733
2242,12733
2243,12733
2244,12733
2245,12733
2247,12733
2250,12733
2251,12733
2253,12733
2254,12733
2256,12733
2258,12733
2260,12733
2261,12733
2262,12733
2263,12732
2265,12732
2266,12732
2267,12732
2268,12732
2269,12732
2270,12732
2269,12732
2268,12732
2267,12732
2267,12731
2266,12731
2265,12731
2264,12731
2263,12731
2262,12731
2260,12731
2258,12731
2256,12731
2255,12731
2254,12731
2252,12731
2249,12731
2247,12731
2246,12731
2245,12731
2243,12731
2240,12731
2237,12731
2236,12731
2235,12731
2232,12731
2229,12731
2228,12731
2227,12731
2226,12731
2223,12731
2220,12731
2217,12731
2215,12731
2214,12731
2211,12731
2208,12731
2205,12731
2204,12731
2202,12731
2200,12731
2197,12731
2194,12731
2193,12731
2192,12731
2189,12731
2187,12731
2186,12731
2185,12731
2184,12731
2182,12731
2179,12731
2178,12731
2176,12731
2175,12731
2173,12731
2171,12731
2169,12731
2168,12731
2167,12731
2166,12731
2164,12731
2163,12731
2162,12731
2162,12732
2161,12732
2160,12732
2159,12732
2158,12732
2159,12732
2160,12732
2161,12732
2162,12732
2163,12732
2164,12732
2165,12732
2166,12732
2166,12733
2167,12733
2169,12733
2171,12733
2173,12733
2174,12733
2175,12733
2177,12733
2180,12733
2182,12733
2183,12733
2184,12733
2186,12733
2189,12733
2192,12733
2193,12733
2194,12733
2197,12733
2200,12733
2201,12733
2202,12733
2205,12733
2208,12733
2211,12733
2213,12733
2214,12733
" style="stroke:#000000;stroke-width:0;
stroke-linejoin:bevel; stroke-linecap:butt;
"/>
<!-- Line -->
<!--  polyline  -->
<polyline points="3406,11551
2518,12233
" style="stroke:#000000;stroke-width:7;
stroke-linejoin:miter; stroke-linecap:butt;
"/>
<!-- Line -->
<!--  spline  -->
<polyline points="3450,11517
3449,11517
3443,11519
3430,11523
3409,11529
3383,11536
3357,11543
3336,11549
3323,11553
3317,11555
3316,11555
3316,11556
3318,11559
3319,11563
3321,11566
3321,11567
3322,11569
3323,11571
3324,11574
3326,11578
3328,11581
3328,11583
3329,11583
3329,11584
3331,11587
3333,11590
3333,11591
3334,11591
3334,11593
3336,11595
3338,11597
3339,11599
3339,11600
3340,11601
3342,11603
3344,11605
3346,11607
3347,11608
3348,11610
3350,11611
3352,11614
3354,11616
3356,11617
3356,11618
3357,11619
3360,11621
3363,11623
3364,11624
3365,11625
3366,11626
3369,11628
3373,11631
3375,11633
3377,11635
3379,11636
3380,11635
3383,11630
3390,11618
3401,11600
3415,11576
3428,11553
3439,11535
3446,11523
3449,11518
3450,11517
" style="stroke:#000000;stroke-width:0;
stroke-linejoin:bevel; stroke-linecap:butt;
fill:#000000;
"/>
<!-- Line -->
<!--  spline  -->
<polyline points="2518,12429
2520,12429
2528,12428
2539,12428
2547,12427
2549,12427
2550,12427
2554,12426
2560,12425
2568,12423
2579,12420
2589,12417
2593,12416
2594,12415
2598,12413
2607,12409
2616,12404
2620,12402
2621,12401
2625,12398
2633,12392
2642,12385
2648,12380
2653,12375
2655,12373
2656,12372
2657,12371
2662,12365
2671,12355
2676,12349
2677,12348
2677,12347
2680,12344
2683,12339
2688,12332
2693,12322
2698,12313
2699,12309
2700,12307
2702,12304
2705,12294
2708,12284
2709,12281
2709,12279
2710,12275
2712,12265
2713,12254
2714,12245
2714,12238
2714,12234
2714,12233
2714,12231
2713,12223
2713,12211
2712,12203
2712,12201
2712,12200
2711,12197
2710,12190
2708,12182
2705,12172
2702,12162
2700,12159
2699,12157
2698,12153
2693,12144
2688,12135
2686,12131
2685,12130
2683,12126
2677,12118
2670,12109
2664,12102
2660,12098
2657,12095
2656,12094
2655,12093
2649,12088
2640,12079
2634,12074
2633,12073
2632,12073
2629,12070
2624,12067
2617,12062
2607,12057
2598,12053
2594,12051
2593,12051
2589,12049
2579,12046
2569,12043
2565,12042
2563,12042
2559,12041
2549,12039
2538,12038
2529,12037
2523,12037
2519,12037
2518,12037
2516,12037
2508,12038
2496,12038
2488,12039
2486,12039
2485,12039
2481,12040
2475,12041
2467,12043
2456,12046
2447,12049
2443,12051
2442,12051
2438,12053
2429,12057
2420,12062
2416,12064
2415,12065
2411,12067
2403,12073
2394,12080
2387,12086
2383,12090
2380,12093
2379,12094
2378,12095
2373,12101
2364,12111
2359,12117
2358,12118
2358,12119
2355,12122
2352,12127
2347,12134
2342,12144
2338,12153
2336,12157
2336,12159
2334,12162
2331,12172
2328,12182
2327,12185
2327,12187
2326,12191
2324,12201
2322,12212
2322,12221
2321,12228
2321,12232
2321,12233
2321,12235
2322,12243
2323,12255
2324,12263
2324,12265
2324,12266
2325,12269
2326,12276
2328,12284
2331,12294
2334,12304
2336,12307
2336,12309
2338,12313
2342,12322
2347,12331
2349,12335
2350,12336
2352,12340
2358,12348
2365,12357
2371,12364
2375,12368
2378,12371
2379,12372
2380,12373
2386,12378
2396,12386
2402,12391
2403,12392
2404,12393
2407,12395
2412,12399
2419,12404
2429,12409
2438,12413
2442,12415
2443,12416
2447,12417
2456,12420
2466,12423
2470,12424
2471,12424
2476,12425
2486,12427
2497,12428
2506,12429
2513,12429
2517,12429
2518,12429
" style="stroke:#ffffff;stroke-width:0;
stroke-linejoin:bevel; stroke-linecap:butt;
fill:#ffffff;
"/>
<!-- Line -->
<!--  spline  -->
<polyline points="2518,12429
2520,12429
2528,12428
2539,12428
2547,12427
2549,12427
2550,12427
2554,12426
2560,12425
2568,12423
2579,12420
2589,12417
2593,12416
2594,12415
2598,12413
2607,12409
2616,12404
2620,12402
2621,12401
2625,12398
2633,12392
2642,12385
2648,12380
2653,12375
2655,12373
2656,12372
2657,12371
2662,12365
2671,12355
2676,12349
2677,12348
2677,12347
2680,12344
2683,12339
2688,12332
2693,12322
2698,12313
2699,12309
2700,12307
2702,12304
2705,12294
2708,12284
2709,12281
2709,12279
2710,12275
2712,12265
2713,12254
2714,12245
2714,12238
2714,12234
2714,12233
2714,12231
2713,12223
2713,12211
2712,12203
2712,12201
2712,12200
2711,12197
2710,12190
2708,12182
2705,12172
2702,12162
2700,12159
2699,12157
2698,12153
2693,12144
2688,12135
2686,12131
2685,12130
2683,12126
2677,12118
2670,12109
2664,12102
2660,12098
2657,12095
2656,12094
2655,12093
2649,12088
2640,12079
2634,12074
2633,12073
2632,12073
2629,12070
2624,12067
2617,12062
2607,12057
2598,12053
2594,12051
2593,12051
2589,12049
2579,12046
2569,12043
2565,12042
2563,12042
2559,12041
2549,12039
2538,12038
2529,12037
2523,12037
2519,12037
2518,12037
2516,12037
2508,12038
2496,12038
2488,12039
2486,12039
2485,12039
2481,12040
2475,12041
2467,12043
2456,12046
2447,12049
2443,12051
2442,12051
2438,12053
2429,12057
2420,12062
2416,12064
2415,12065
2411,12067
2403,12073
2394,12080
2387,12086
2383,12090
2380,12093
2379,12094
2378,12095
2373,12101
2364,12111
2359,12117
2358,12118
2358,12119
2355,12122
2352,12127
2347,12134
2342,12144
2338,12153
2336,12157
2336,12159
2334,12162
2331,12172
2328,12182
2327,12185
2327,12187
2326,12191
2324,12201
2322,12212
2322,12221
2321,12228
2321,12232
2321,12233
2321,12235
2322,12243
2323,12255
2324,12263
2324,12265
2324,12266
2325,12269
2326,12276
2328,12284
2331,12294
2334,12304
2336,12307
2336,12309
2338,12313
2342,12322
2347,12331
2349,12335
2350,12336
2352,12340
2358,12348
2365,12357
2371,12364
2375,12368
2378,12371
2379,12372
2380,12373
2386,12378
2396,12386
2402,12391
2403,12392
2404,12393
2407,12395
2412,12399
2419,12404
2429,12409
2438,12413
2442,12415
2443,12416
2447,12417
2456,12420
2466,12423
2470,12424
2471,12424
2476,12425
2486,12427
2497,12428
2506,12429
2513,12429
2517,12429
2518,12429
" style="stroke:#000000;stroke-width:15;
stroke-linejoin:bevel; stroke-linecap:butt;
"/>
<!-- Text -->
<!--  text  -->
<g transform="translate(2277,11689) rotate(-291.18058923)" >
<text xml:space="preserve" x="0" y="0" stroke="#000000" fill="#000000"  font-family="Times" font-style="normal" font-weight="normal" font-size="156" text-anchor="start">.</text>
</g><!-- Text -->
<!--  text  -->
<g transform="translate(2321,11801) rotate(-291.18058923)" >
<text xml:space="preserve" x="0" y="0" stroke="#000000" fill="#000000"  font-family="Times" font-style="normal" font-weight="normal" font-size="156" text-anchor="start">.</text>
</g><!-- Text -->
<!--  text  -->
<g transform="translate(2364,11913) rotate(-291.18058923)" >
<text xml:space="preserve" x="0" y="0" stroke="#000000" fill="#000000"  font-family="Times" font-style="normal" font-weight="normal" font-size="156" text-anchor="start">.</text>
</g><!-- Text -->
<!--  text  -->
<g transform="translate(5503,11721) rotate(-257.13772888)" >
<text xml:space="preserve" x="0" y="0" stroke="#000000" fill="#000000"  font-family="Times" font-style="normal" font-weight="normal" font-size="156" text-anchor="start">.</text>
</g><!-- Text -->
<!--  text  -->
<g transform="translate(5476,11838) rotate(-257.13772888)" >
<text xml:space="preserve" x="0" y="0" stroke="#000000" fill="#000000"  font-family="Times" font-style="normal" font-weight="normal" font-size="156" text-anchor="start">.</text>
</g><!-- Text -->
<!--  text  -->
<g transform="translate(5450,11955) rotate(-257.13772888)" >
<text xml:space="preserve" x="0" y="0" stroke="#000000" fill="#000000"  font-family="Times" font-style="normal" font-weight="normal" font-size="156" text-anchor="start">.</text>
</g><!-- Line -->
<!--  polyline  -->
<polyline points="5098,10969
3851,11416
" style="stroke:#000000;stroke-width:7;
stroke-linejoin:miter; stroke-linecap:butt;
"/>
<!-- Line -->
<!--  spline  -->
<polyline points="5150,10950
5149,10950
5143,10950
5129,10949
5107,10948
5080,10947
5054,10947
5032,10946
5018,10945
5012,10945
5011,10945
5011,10946
5011,10949
5012,10954
5012,10957
5012,10958
5012,10960
5013,10963
5013,10966
5014,10970
5014,10974
5015,10975
5014,10975
5015,10977
5015,10980
5016,10983
5016,10984
5016,10985
5016,10986
5017,10989
5018,10992
5019,10994
5019,10996
5020,10997
5021,10999
5022,11002
5023,11004
5024,11005
5024,11007
5025,11009
5027,11012
5029,11015
5029,11016
5029,11017
5030,11018
5032,11021
5034,11024
5035,11026
5036,11028
5038,11031
5041,11035
5043,11038
5045,11040
5046,11042
5047,11041
5051,11037
5062,11028
5078,11014
5098,10996
5118,10978
5134,10964
5145,10955
5149,10951
5150,10950
" style="stroke:#000000;stroke-width:0;
stroke-linejoin:bevel; stroke-linecap:butt;
fill:#000000;
"/>
<!-- Line -->
<!--  polyline  -->
<polyline points="5256,11416
3851,11416
" style="stroke:#000000;stroke-width:7;
stroke-linejoin:miter; stroke-linecap:butt;
"/>
<!-- Line -->
<!--  spline  -->
<polyline points="5316,11416
5315,11416
5310,11413
5297,11408
5276,11400
5251,11390
5227,11381
5206,11373
5193,11368
5188,11365
5187,11365
5187,11366
5186,11369
5185,11374
5184,11377
5184,11378
5184,11380
5183,11382
5183,11385
5182,11389
5181,11392
5181,11394
5181,11396
5180,11399
5180,11402
5179,11403
5179,11404
5179,11405
5179,11408
5179,11411
5178,11413
5178,11415
5178,11416
5178,11418
5179,11422
5179,11424
5179,11425
5179,11427
5180,11429
5180,11433
5181,11436
5181,11438
5181,11439
5181,11440
5182,11444
5183,11448
5183,11449
5183,11450
5183,11451
5184,11455
5185,11459
5186,11463
5186,11466
5187,11468
5188,11468
5193,11465
5206,11460
5227,11452
5252,11442
5276,11432
5297,11424
5310,11419
5315,11416
5316,11416
" style="stroke:#000000;stroke-width:0;
stroke-linejoin:bevel; stroke-linecap:butt;
fill:#000000;
"/>
<!-- Line -->
<!--  polyline  -->
<polyline points="5087,12137
3868,11383
" style="stroke:#000000;stroke-width:7;
stroke-linejoin:miter; stroke-linecap:butt;
"/>
<!-- Line -->
<!--  spline  -->
<polyline points="5133,12165
5132,12164
5129,12159
5121,12148
5108,12131
5092,12109
5076,12088
5063,12071
5055,12060
5052,12055
5051,12054
5050,12054
5048,12057
5044,12060
5042,12063
5041,12063
5040,12064
5038,12067
5036,12069
5033,12072
5031,12075
5030,12076
5029,12076
5028,12077
5026,12079
5024,12081
5023,12082
5023,12083
5022,12084
5020,12086
5018,12089
5017,12090
5016,12092
5016,12093
5015,12095
5013,12098
5012,12100
5011,12101
5011,12103
5009,12105
5008,12108
5007,12111
5006,12112
5006,12113
5005,12115
5004,12118
5003,12122
5002,12123
5002,12124
5001,12125
5000,12129
4999,12133
4997,12137
4997,12140
4996,12142
4997,12142
5003,12143
5017,12145
5038,12149
5065,12154
5091,12158
5112,12162
5126,12164
5132,12165
5133,12165
" style="stroke:#000000;stroke-width:0;
stroke-linejoin:bevel; stroke-linecap:butt;
fill:#000000;
"/>
<!-- Line -->
<!--  spline  -->
<polyline points="3865,11804
3867,11804
3877,11803
3896,11801
3915,11800
3925,11799
3927,11799
3928,11799
3933,11798
3942,11797
3953,11794
3967,11791
3985,11786
4001,11780
4010,11777
4013,11776
4016,11775
4024,11771
4040,11763
4055,11755
4063,11751
4066,11749
4069,11747
4077,11742
4091,11732
4106,11720
4118,11711
4127,11702
4134,11695
4137,11692
4138,11691
4139,11690
4146,11682
4158,11667
4170,11653
4177,11645
4178,11644
4179,11643
4182,11639
4187,11632
4193,11622
4201,11609
4210,11593
4218,11577
4222,11569
4223,11566
4224,11563
4227,11554
4233,11538
4238,11521
4240,11513
4241,11510
4242,11506
4243,11497
4246,11480
4248,11461
4250,11446
4251,11434
4251,11424
4251,11419
4251,11418
4251,11416
4250,11406
4248,11387
4247,11368
4246,11358
4246,11356
4246,11355
4245,11350
4244,11341
4241,11330
4238,11316
4233,11298
4227,11282
4224,11273
4223,11270
4222,11267
4218,11259
4210,11243
4202,11228
4197,11220
4195,11217
4194,11214
4188,11206
4178,11192
4166,11177
4157,11165
4149,11156
4142,11149
4139,11146
4138,11145
4137,11144
4129,11137
4114,11125
4100,11113
4092,11106
4091,11105
4090,11104
4086,11101
4079,11096
4069,11089
4056,11082
4040,11073
4024,11065
4016,11062
4013,11060
4010,11059
4001,11057
3985,11051
3968,11046
3960,11043
3957,11043
3953,11042
3944,11040
3927,11037
3908,11034
3893,11033
3881,11032
3871,11032
3866,11032
3865,11032
3863,11032
3853,11033
3834,11035
3815,11036
3805,11037
3803,11037
3802,11037
3797,11038
3788,11040
3777,11042
3763,11046
3745,11051
3729,11057
3720,11059
3717,11061
3714,11062
3706,11065
3690,11073
3675,11081
3667,11086
3664,11088
3661,11089
3653,11095
3639,11105
3624,11117
3612,11126
3603,11134
3596,11141
3593,11144
3592,11145
3591,11146
3584,11154
3572,11169
3560,11183
3553,11191
3552,11192
3551,11193
3548,11197
3543,11204
3537,11214
3529,11227
3520,11243
3512,11259
3508,11267
3507,11270
3506,11273
3503,11282
3497,11298
3492,11315
3490,11323
3489,11326
3488,11330
3487,11339
3484,11356
3482,11375
3480,11390
3479,11402
3479,11412
3479,11417
3479,11418
3479,11420
3480,11430
3482,11449
3483,11468
3484,11478
3484,11480
3484,11481
3485,11486
3486,11495
3489,11506
3492,11520
3497,11538
3503,11554
3506,11563
3507,11566
3508,11569
3512,11577
3520,11593
3528,11608
3533,11616
3535,11619
3536,11622
3542,11630
3552,11644
3564,11659
3573,11671
3581,11680
3588,11687
3591,11690
3592,11691
3593,11692
3601,11699
3616,11712
3630,11724
3638,11731
3639,11732
3640,11733
3644,11735
3651,11741
3661,11747
3674,11754
3690,11763
3706,11771
3714,11775
3717,11776
3720,11777
3729,11780
3745,11786
3762,11791
3770,11793
3773,11794
3777,11795
3786,11796
3803,11799
3822,11801
3837,11803
3849,11804
3859,11804
3864,11804
3865,11804
" style="stroke:#ffffff;stroke-width:0;
stroke-linejoin:bevel; stroke-linecap:butt;
fill:#ffffff;
"/>
<!-- Line -->
<!--  spline  -->
<polyline points="3865,11804
3867,11804
3877,11803
3896,11801
3915,11800
3925,11799
3927,11799
3928,11799
3933,11798
3942,11797
3953,11794
3967,11791
3985,11786
4001,11780
4010,11777
4013,11776
4016,11775
4024,11771
4040,11763
4055,11755
4063,11751
4066,11749
4069,11747
4077,11742
4091,11732
4106,11720
4118,11711
4127,11702
4134,11695
4137,11692
4138,11691
4139,11690
4146,11682
4158,11667
4170,11653
4177,11645
4178,11644
4179,11643
4182,11639
4187,11632
4193,11622
4201,11609
4210,11593
4218,11577
4222,11569
4223,11566
4224,11563
4227,11554
4233,11538
4238,11521
4240,11513
4241,11510
4242,11506
4243,11497
4246,11480
4248,11461
4250,11446
4251,11434
4251,11424
4251,11419
4251,11418
4251,11416
4250,11406
4248,11387
4247,11368
4246,11358
4246,11356
4246,11355
4245,11350
4244,11341
4241,11330
4238,11316
4233,11298
4227,11282
4224,11273
4223,11270
4222,11267
4218,11259
4210,11243
4202,11228
4197,11220
4195,11217
4194,11214
4188,11206
4178,11192
4166,11177
4157,11165
4149,11156
4142,11149
4139,11146
4138,11145
4137,11144
4129,11137
4114,11125
4100,11113
4092,11106
4091,11105
4090,11104
4086,11101
4079,11096
4069,11089
4056,11082
4040,11073
4024,11065
4016,11062
4013,11060
4010,11059
4001,11057
3985,11051
3968,11046
3960,11043
3957,11043
3953,11042
3944,11040
3927,11037
3908,11034
3893,11033
3881,11032
3871,11032
3866,11032
3865,11032
3863,11032
3853,11033
3834,11035
3815,11036
3805,11037
3803,11037
3802,11037
3797,11038
3788,11040
3777,11042
3763,11046
3745,11051
3729,11057
3720,11059
3717,11061
3714,11062
3706,11065
3690,11073
3675,11081
3667,11086
3664,11088
3661,11089
3653,11095
3639,11105
3624,11117
3612,11126
3603,11134
3596,11141
3593,11144
3592,11145
3591,11146
3584,11154
3572,11169
3560,11183
3553,11191
3552,11192
3551,11193
3548,11197
3543,11204
3537,11214
3529,11227
3520,11243
3512,11259
3508,11267
3507,11270
3506,11273
3503,11282
3497,11298
3492,11315
3490,11323
3489,11326
3488,11330
3487,11339
3484,11356
3482,11375
3480,11390
3479,11402
3479,11412
3479,11417
3479,11418
3479,11420
3480,11430
3482,11449
3483,11468
3484,11478
3484,11480
3484,11481
3485,11486
3486,11495
3489,11506
3492,11520
3497,11538
3503,11554
3506,11563
3507,11566
3508,11569
3512,11577
3520,11593
3528,11608
3533,11616
3535,11619
3536,11622
3542,11630
3552,11644
3564,11659
3573,11671
3581,11680
3588,11687
3591,11690
3592,11691
3593,11692
3601,11699
3616,11712
3630,11724
3638,11731
3639,11732
3640,11733
3644,11735
3651,11741
3661,11747
3674,11754
3690,11763
3706,11771
3714,11775
3717,11776
3720,11777
3729,11780
3745,11786
3762,11791
3770,11793
3773,11794
3777,11795
3786,11796
3803,11799
3822,11801
3837,11803
3849,11804
3859,11804
3864,11804
3865,11804
" style="stroke:#000000;stroke-width:15;
stroke-linejoin:bevel; stroke-linecap:butt;
"/>
<!-- Text -->
<!--  text  -->
<text xml:space="preserve" x="1805" y="13090" stroke="#000000" fill="#000000"  font-family="Times" font-style="normal" font-weight="normal" font-size="156" text-anchor="start">F</text>
<!-- Text -->
<!--  text  -->
<text xml:space="preserve" x="1916" y="13090" stroke="#000000" fill="#000000"  font-family="Times" font-style="normal" font-weight="normal" font-size="156" text-anchor="start">i</text>
<!-- Text -->
<!--  text  -->
<text xml:space="preserve" x="1972" y="13090" stroke="#000000" fill="#000000"  font-family="Times" font-style="normal" font-weight="normal" font-size="156" text-anchor="start">g</text>
<!-- Text -->
<!--  text  -->
<text xml:space="preserve" x="2072" y="13090" stroke="#000000" fill="#000000"  font-family="Times" font-style="normal" font-weight="normal" font-size="156" text-anchor="start">u</text>
<!-- Text -->
<!--  text  -->
<text xml:space="preserve" x="2172" y="13090" stroke="#000000" fill="#000000"  font-family="Times" font-style="normal" font-weight="normal" font-size="156" text-anchor="start">r</text>
<!-- Text -->
<!--  text  -->
<text xml:space="preserve" x="2238" y="13090" stroke="#000000" fill="#000000"  font-family="Times" font-style="normal" font-weight="normal" font-size="156" text-anchor="start">e</text>
<!-- Text -->
<!--  text  -->
<text xml:space="preserve" x="2397" y="13090" stroke="#000000" fill="#000000"  font-family="Times" font-style="normal" font-weight="normal" font-size="156" text-anchor="start">6</text>
<!-- Text -->
<!--  text  -->
<text xml:space="preserve" x="2497" y="13090" stroke="#000000" fill="#000000"  font-family="Times" font-style="normal" font-weight="normal" font-size="156" text-anchor="start">-</text>
<!-- Text -->
<!--  text  -->
<text xml:space="preserve" x="2563" y="13090" stroke="#000000" fill="#000000"  font-family="Times" font-style="normal" font-weight="normal" font-size="156" text-anchor="start">9</text>
<!-- Text -->
<!--  text  -->
<text xml:space="preserve" x="2663" y="13090" stroke="#000000" fill="#000000"  font-family="Times" font-style="normal" font-weight="normal" font-size="156" text-anchor="start">:</text>
<!-- Text -->
<!--  text  -->
<text xml:space="preserve" x="2789" y="13090" stroke="#000000" fill="#000000"  font-family="Times" font-style="normal" font-weight="normal" font-size="156" text-anchor="start">A</text>
<!-- Text -->
<!--  text  -->
<text xml:space="preserve" x="3003" y="13090" stroke="#000000" fill="#000000"  font-family="Times" font-style="normal" font-weight="normal" font-size="156" text-anchor="start">b</text>
<!-- Text -->
<!--  text  -->
<text xml:space="preserve" x="3103" y="13090" stroke="#000000" fill="#000000"  font-family="Times" font-style="normal" font-weight="normal" font-size="156" text-anchor="start">a</text>
<!-- Text -->
<!--  text  -->
<text xml:space="preserve" x="3192" y="13090" stroke="#000000" fill="#000000"  font-family="Times" font-style="normal" font-weight="normal" font-size="156" text-anchor="start">c</text>
<!-- Text -->
<!--  text  -->
<text xml:space="preserve" x="3281" y="13090" stroke="#000000" fill="#000000"  font-family="Times" font-style="normal" font-weight="normal" font-size="156" text-anchor="start">k</text>
<!-- Text -->
<!--  text  -->
<text xml:space="preserve" x="3381" y="13090" stroke="#000000" fill="#000000"  font-family="Times" font-style="normal" font-weight="normal" font-size="156" text-anchor="start">p</text>
<!-- Text -->
<!--  text  -->
<text xml:space="preserve" x="3481" y="13090" stroke="#000000" fill="#000000"  font-family="Times" font-style="normal" font-weight="normal" font-size="156" text-anchor="start">r</text>
<!-- Text -->
<!--  text  -->
<text xml:space="preserve" x="3547" y="13090" stroke="#000000" fill="#000000"  font-family="Times" font-style="normal" font-weight="normal" font-size="156" text-anchor="start">o</text>
<!-- Text -->
<!--  text  -->
<text xml:space="preserve" x="3647" y="13090" stroke="#000000" fill="#000000"  font-family="Times" font-style="normal" font-weight="normal" font-size="156" text-anchor="start">p</text>
<!-- Text -->
<!--  text  -->
<text xml:space="preserve" x="3747" y="13090" stroke="#000000" fill="#000000"  font-family="Times" font-style="normal" font-weight="normal" font-size="156" text-anchor="start">a</text>
<!-- Text -->
<!--  text  -->
<text xml:space="preserve" x="3836" y="13090" stroke="#000000" fill="#000000"  font-family="Times" font-style="normal" font-weight="normal" font-size="156" text-anchor="start">g</text>
<!-- Text -->
<!--  text  -->
<text xml:space="preserve" x="3936" y="13090" stroke="#000000" fill="#000000"  font-family="Times" font-style="normal" font-weight="normal" font-size="156" text-anchor="start">a</text>
<!-- Text -->
<!--  text  -->
<text xml:space="preserve" x="4025" y="13090" stroke="#000000" fill="#000000"  font-family="Times" font-style="normal" font-weight="normal" font-size="156" text-anchor="start">t</text>
<!-- Text -->
<!--  text  -->
<text xml:space="preserve" x="4081" y="13090" stroke="#000000" fill="#000000"  font-family="Times" font-style="normal" font-weight="normal" font-size="156" text-anchor="start">i</text>
<!-- Text -->
<!--  text  -->
<text xml:space="preserve" x="4136" y="13090" stroke="#000000" fill="#000000"  font-family="Times" font-style="normal" font-weight="normal" font-size="156" text-anchor="start">o</text>
<!-- Text -->
<!--  text  -->
<text xml:space="preserve" x="4236" y="13090" stroke="#000000" fill="#000000"  font-family="Times" font-style="normal" font-weight="normal" font-size="156" text-anchor="start">n</text>
<!-- Text -->
<!--  text  -->
<text xml:space="preserve" x="4406" y="13090" stroke="#000000" fill="#000000"  font-family="Times" font-style="normal" font-weight="normal" font-size="156" text-anchor="start">p</text>
<!-- Text -->
<!--  text  -->
<text xml:space="preserve" x="4506" y="13090" stroke="#000000" fill="#000000"  font-family="Times" font-style="normal" font-weight="normal" font-size="156" text-anchor="start">r</text>
<!-- Text -->
<!--  text  -->
<text xml:space="preserve" x="4573" y="13090" stroke="#000000" fill="#000000"  font-family="Times" font-style="normal" font-weight="normal" font-size="156" text-anchor="start">o</text>
<!-- Text -->
<!--  text  -->
<text xml:space="preserve" x="4673" y="13090" stroke="#000000" fill="#000000"  font-family="Times" font-style="normal" font-weight="normal" font-size="156" text-anchor="start">c</text>
<!-- Text -->
<!--  text  -->
<text xml:space="preserve" x="4761" y="13090" stroke="#000000" fill="#000000"  font-family="Times" font-style="normal" font-weight="normal" font-size="156" text-anchor="start">e</text>
<!-- Text -->
<!--  text  -->
<text xml:space="preserve" x="4850" y="13090" stroke="#000000" fill="#000000"  font-family="Times" font-style="normal" font-weight="normal" font-size="156" text-anchor="start">s</text>
<!-- Text -->
<!--  text  -->
<text xml:space="preserve" x="4928" y="13090" stroke="#000000" fill="#000000"  font-family="Times" font-style="normal" font-weight="normal" font-size="156" text-anchor="start">s</text>
<!-- Text -->
<!--  text  -->
<text xml:space="preserve" x="5006" y="13090" stroke="#000000" fill="#000000"  font-family="Times" font-style="normal" font-weight="normal" font-size="156" text-anchor="start">i</text>
<!-- Text -->
<!--  text  -->
<text xml:space="preserve" x="5061" y="13090" stroke="#000000" fill="#000000"  font-family="Times" font-style="normal" font-weight="normal" font-size="156" text-anchor="start">n</text>
<!-- Text -->
<!--  text  -->
<text xml:space="preserve" x="5161" y="13090" stroke="#000000" fill="#000000"  font-family="Times" font-style="normal" font-weight="normal" font-size="156" text-anchor="start">g</text>
<!-- Text -->
<!--  text  -->
<text xml:space="preserve" x="5331" y="13090" stroke="#000000" fill="#000000"  font-family="Times" font-style="normal" font-weight="normal" font-size="156" text-anchor="start">u</text>
<!-- Text -->
<!--  text  -->
<text xml:space="preserve" x="5431" y="13090" stroke="#000000" fill="#000000"  font-family="Times" font-style="normal" font-weight="normal" font-size="156" text-anchor="start">n</text>
<!-- Text -->
<!--  text  -->
<text xml:space="preserve" x="5531" y="13090" stroke="#000000" fill="#000000"  font-family="Times" font-style="normal" font-weight="normal" font-size="156" text-anchor="start">i</text>
<!-- Text -->
<!--  text  -->
<text xml:space="preserve" x="5587" y="13090" stroke="#000000" fill="#000000"  font-family="Times" font-style="normal" font-weight="normal" font-size="156" text-anchor="start">t</text>
</g>
</svg>
