<?xml version="1.0" standalone="no"?>
<!DOCTYPE svg PUBLIC "-//W3C//DTD SVG 1.1//EN"
"http://www.w3.org/Graphics/SVG/1.1/DTD/svg11.dtd">
<!-- Creator: fig2dev Version 3.2 Patchlevel 5 -->
<!-- CreationDate: Sat Jul  4 12:13:19 2015 -->
<!-- Magnification: 1.000 -->
<svg xmlns="http://www.w3.org/2000/svg" width="6.0in" height="3.0in" viewBox="111 9603 7211 3571">
<g style="stroke-width:.025in; stroke:black; fill:none">
<!-- Line -->
<!--  spline  -->
<polyline points="3586,10498
3587,10498
3593,10497
3605,10496
3617,10496
3623,10495
3624,10495
3625,10495
3629,10494
3637,10493
3646,10491
3659,10487
3670,10483
3675,10482
3677,10481
3681,10479
3692,10474
3701,10469
3706,10466
3708,10465
3709,10464
3714,10460
3723,10454
3732,10447
3739,10441
3745,10436
3749,10433
3752,10430
3753,10429
3757,10424
3764,10415
3771,10407
3775,10402
3776,10401
3777,10400
3779,10397
3783,10390
3789,10382
3795,10371
3800,10360
3803,10356
3803,10354
3805,10349
3809,10338
3812,10328
3813,10322
3814,10320
3814,10318
3815,10313
3817,10302
3818,10291
3819,10282
3820,10274
3820,10269
3820,10266
3820,10265
3820,10264
3819,10258
3818,10246
3818,10234
3817,10228
3817,10227
3817,10226
3816,10222
3815,10214
3813,10205
3809,10192
3805,10181
3803,10176
3803,10174
3800,10170
3795,10159
3790,10150
3787,10145
3786,10143
3785,10141
3782,10137
3776,10128
3769,10119
3763,10112
3758,10107
3755,10103
3752,10100
3751,10099
3746,10095
3737,10087
3729,10080
3724,10076
3723,10075
3720,10073
3715,10070
3709,10066
3702,10061
3692,10056
3681,10051
3677,10048
3675,10048
3670,10046
3659,10042
3648,10039
3643,10037
3641,10037
3636,10036
3624,10034
3613,10033
3603,10032
3596,10031
3590,10031
3587,10031
3586,10031
3585,10031
3579,10032
3567,10033
3556,10033
3550,10034
3549,10034
3548,10034
3544,10035
3536,10036
3527,10038
3514,10042
3503,10046
3498,10048
3496,10048
3492,10051
3481,10056
3472,10061
3467,10064
3465,10065
3463,10066
3459,10069
3450,10075
3441,10082
3434,10088
3429,10093
3425,10097
3422,10100
3421,10101
3417,10105
3409,10114
3402,10123
3398,10127
3397,10128
3395,10131
3392,10136
3388,10142
3383,10149
3378,10159
3373,10170
3370,10174
3370,10176
3368,10181
3364,10192
3361,10203
3359,10208
3359,10210
3358,10215
3356,10227
3355,10238
3354,10248
3353,10255
3353,10261
3353,10264
3353,10265
3353,10266
3354,10272
3355,10284
3355,10295
3356,10301
3356,10302
3356,10303
3357,10306
3357,10311
3359,10318
3361,10327
3364,10338
3368,10349
3370,10354
3370,10356
3373,10360
3378,10371
3384,10381
3386,10386
3387,10387
3390,10391
3397,10401
3404,10410
3410,10417
3415,10423
3419,10427
3422,10430
3423,10431
3427,10435
3436,10442
3445,10449
3449,10453
3450,10454
3453,10456
3458,10460
3464,10464
3471,10469
3481,10474
3492,10479
3496,10481
3498,10482
3503,10483
3514,10487
3525,10490
3530,10492
3532,10492
3537,10493
3549,10495
3560,10496
3569,10497
3577,10498
3582,10498
3585,10498
3586,10498
" style="stroke:#ffffff;stroke-width:0;
stroke-linejoin:bevel; stroke-linecap:butt;
fill:#ffffff;
"/>
<!-- Line -->
<!--  spline  -->
<polyline points="3586,10498
3587,10498
3593,10497
3605,10496
3617,10496
3623,10495
3624,10495
3625,10495
3629,10494
3637,10493
3646,10491
3659,10487
3670,10483
3675,10482
3677,10481
3681,10479
3692,10474
3701,10469
3706,10466
3708,10465
3709,10464
3714,10460
3723,10454
3732,10447
3739,10441
3745,10436
3749,10433
3752,10430
3753,10429
3757,10424
3764,10415
3771,10407
3775,10402
3776,10401
3777,10400
3779,10397
3783,10390
3789,10382
3795,10371
3800,10360
3803,10356
3803,10354
3805,10349
3809,10338
3812,10328
3813,10322
3814,10320
3814,10318
3815,10313
3817,10302
3818,10291
3819,10282
3820,10274
3820,10269
3820,10266
3820,10265
3820,10264
3819,10258
3818,10246
3818,10234
3817,10228
3817,10227
3817,10226
3816,10222
3815,10214
3813,10205
3809,10192
3805,10181
3803,10176
3803,10174
3800,10170
3795,10159
3790,10150
3787,10145
3786,10143
3785,10141
3782,10137
3776,10128
3769,10119
3763,10112
3758,10107
3755,10103
3752,10100
3751,10099
3746,10095
3737,10087
3729,10080
3724,10076
3723,10075
3720,10073
3715,10070
3709,10066
3702,10061
3692,10056
3681,10051
3677,10048
3675,10048
3670,10046
3659,10042
3648,10039
3643,10037
3641,10037
3636,10036
3624,10034
3613,10033
3603,10032
3596,10031
3590,10031
3587,10031
3586,10031
3585,10031
3579,10032
3567,10033
3556,10033
3550,10034
3549,10034
3548,10034
3544,10035
3536,10036
3527,10038
3514,10042
3503,10046
3498,10048
3496,10048
3492,10051
3481,10056
3472,10061
3467,10064
3465,10065
3463,10066
3459,10069
3450,10075
3441,10082
3434,10088
3429,10093
3425,10097
3422,10100
3421,10101
3417,10105
3409,10114
3402,10123
3398,10127
3397,10128
3395,10131
3392,10136
3388,10142
3383,10149
3378,10159
3373,10170
3370,10174
3370,10176
3368,10181
3364,10192
3361,10203
3359,10208
3359,10210
3358,10215
3356,10227
3355,10238
3354,10248
3353,10255
3353,10261
3353,10264
3353,10265
3353,10266
3354,10272
3355,10284
3355,10295
3356,10301
3356,10302
3356,10303
3357,10306
3357,10311
3359,10318
3361,10327
3364,10338
3368,10349
3370,10354
3370,10356
3373,10360
3378,10371
3384,10381
3386,10386
3387,10387
3390,10391
3397,10401
3404,10410
3410,10417
3415,10423
3419,10427
3422,10430
3423,10431
3427,10435
3436,10442
3445,10449
3449,10453
3450,10454
3453,10456
3458,10460
3464,10464
3471,10469
3481,10474
3492,10479
3496,10481
3498,10482
3503,10483
3514,10487
3525,10490
3530,10492
3532,10492
3537,10493
3549,10495
3560,10496
3569,10497
3577,10498
3582,10498
3585,10498
3586,10498
" style="stroke:#000000;stroke-width:15;
stroke-linejoin:bevel; stroke-linecap:butt;
"/>
<!-- Line -->
<!--  spline  -->
<polyline points="4879,12398
4880,12398
4886,12397
4898,12396
4910,12396
4916,12395
4917,12395
4918,12395
4922,12394
4930,12393
4939,12391
4952,12387
4963,12383
4968,12382
4970,12381
4974,12379
4985,12374
4994,12369
4999,12366
5001,12365
5003,12364
5007,12360
5016,12354
5025,12347
5032,12341
5037,12336
5041,12333
5044,12330
5045,12329
5049,12324
5057,12315
5064,12307
5068,12302
5069,12301
5070,12300
5072,12297
5076,12290
5082,12282
5088,12271
5093,12260
5096,12256
5096,12254
5098,12249
5102,12238
5105,12228
5106,12222
5107,12220
5107,12218
5108,12213
5110,12202
5111,12191
5112,12182
5113,12174
5113,12169
5113,12166
5113,12165
5113,12164
5112,12158
5111,12146
5111,12134
5110,12128
5110,12127
5110,12126
5109,12122
5108,12114
5106,12105
5102,12092
5098,12081
5096,12076
5096,12074
5093,12070
5088,12059
5083,12050
5080,12045
5079,12043
5078,12041
5075,12037
5069,12028
5062,12019
5056,12012
5051,12007
5047,12003
5044,12000
5043,11999
5039,11995
5030,11987
5021,11980
5017,11976
5016,11975
5013,11973
5008,11970
5002,11966
4995,11961
4985,11956
4974,11951
4970,11948
4968,11948
4963,11946
4952,11942
4941,11939
4936,11937
4934,11937
4929,11936
4917,11934
4906,11933
4896,11932
4889,11931
4883,11931
4880,11931
4879,11931
4878,11931
4872,11932
4860,11933
4849,11933
4843,11934
4842,11934
4841,11934
4837,11935
4829,11936
4820,11938
4807,11942
4796,11946
4791,11948
4789,11948
4785,11951
4774,11956
4765,11961
4760,11964
4758,11965
4757,11966
4752,11969
4743,11975
4734,11982
4727,11988
4721,11993
4717,11997
4714,12000
4713,12001
4709,12005
4702,12014
4695,12023
4691,12027
4690,12028
4688,12031
4685,12036
4681,12042
4676,12049
4671,12059
4666,12070
4663,12074
4663,12076
4661,12081
4657,12092
4654,12103
4652,12108
4652,12110
4651,12115
4649,12127
4648,12138
4647,12148
4646,12155
4646,12161
4646,12164
4646,12165
4646,12166
4647,12172
4648,12184
4648,12195
4649,12201
4649,12202
4649,12203
4650,12206
4650,12211
4652,12218
4654,12227
4657,12238
4661,12249
4663,12254
4663,12256
4666,12260
4671,12271
4677,12281
4679,12286
4680,12287
4683,12291
4690,12301
4697,12310
4703,12317
4708,12323
4711,12327
4714,12330
4715,12331
4720,12335
4729,12342
4737,12349
4742,12353
4743,12354
4746,12356
4751,12360
4757,12364
4764,12369
4774,12374
4785,12379
4789,12381
4791,12382
4796,12383
4807,12387
4818,12390
4823,12392
4825,12392
4830,12393
4842,12395
4853,12396
4862,12397
4870,12398
4875,12398
4878,12398
4879,12398
" style="stroke:#ffffff;stroke-width:0;
stroke-linejoin:bevel; stroke-linecap:butt;
fill:#ffffff;
"/>
<!-- Line -->
<!--  spline  -->
<polyline points="4879,12398
4880,12398
4886,12397
4898,12396
4910,12396
4916,12395
4917,12395
4918,12395
4922,12394
4930,12393
4939,12391
4952,12387
4963,12383
4968,12382
4970,12381
4974,12379
4985,12374
4994,12369
4999,12366
5001,12365
5003,12364
5007,12360
5016,12354
5025,12347
5032,12341
5037,12336
5041,12333
5044,12330
5045,12329
5049,12324
5057,12315
5064,12307
5068,12302
5069,12301
5070,12300
5072,12297
5076,12290
5082,12282
5088,12271
5093,12260
5096,12256
5096,12254
5098,12249
5102,12238
5105,12228
5106,12222
5107,12220
5107,12218
5108,12213
5110,12202
5111,12191
5112,12182
5113,12174
5113,12169
5113,12166
5113,12165
5113,12164
5112,12158
5111,12146
5111,12134
5110,12128
5110,12127
5110,12126
5109,12122
5108,12114
5106,12105
5102,12092
5098,12081
5096,12076
5096,12074
5093,12070
5088,12059
5083,12050
5080,12045
5079,12043
5078,12041
5075,12037
5069,12028
5062,12019
5056,12012
5051,12007
5047,12003
5044,12000
5043,11999
5039,11995
5030,11987
5021,11980
5017,11976
5016,11975
5013,11973
5008,11970
5002,11966
4995,11961
4985,11956
4974,11951
4970,11948
4968,11948
4963,11946
4952,11942
4941,11939
4936,11937
4934,11937
4929,11936
4917,11934
4906,11933
4896,11932
4889,11931
4883,11931
4880,11931
4879,11931
4878,11931
4872,11932
4860,11933
4849,11933
4843,11934
4842,11934
4841,11934
4837,11935
4829,11936
4820,11938
4807,11942
4796,11946
4791,11948
4789,11948
4785,11951
4774,11956
4765,11961
4760,11964
4758,11965
4757,11966
4752,11969
4743,11975
4734,11982
4727,11988
4721,11993
4717,11997
4714,12000
4713,12001
4709,12005
4702,12014
4695,12023
4691,12027
4690,12028
4688,12031
4685,12036
4681,12042
4676,12049
4671,12059
4666,12070
4663,12074
4663,12076
4661,12081
4657,12092
4654,12103
4652,12108
4652,12110
4651,12115
4649,12127
4648,12138
4647,12148
4646,12155
4646,12161
4646,12164
4646,12165
4646,12166
4647,12172
4648,12184
4648,12195
4649,12201
4649,12202
4649,12203
4650,12206
4650,12211
4652,12218
4654,12227
4657,12238
4661,12249
4663,12254
4663,12256
4666,12260
4671,12271
4677,12281
4679,12286
4680,12287
4683,12291
4690,12301
4697,12310
4703,12317
4708,12323
4711,12327
4714,12330
4715,12331
4720,12335
4729,12342
4737,12349
4742,12353
4743,12354
4746,12356
4751,12360
4757,12364
4764,12369
4774,12374
4785,12379
4789,12381
4791,12382
4796,12383
4807,12387
4818,12390
4823,12392
4825,12392
4830,12393
4842,12395
4853,12396
4862,12397
4870,12398
4875,12398
4878,12398
4879,12398
" style="stroke:#000000;stroke-width:15;
stroke-linejoin:bevel; stroke-linecap:butt;
"/>
<!-- Line -->
<!--  spline  -->
<polyline points="2553,12434
2554,12434
2560,12434
2572,12433
2584,12432
2590,12432
2591,12432
2592,12432
2595,12431
2600,12430
2607,12428
2615,12426
2626,12423
2637,12419
2642,12418
2644,12417
2648,12415
2659,12410
2668,12405
2673,12402
2675,12401
2677,12400
2681,12397
2690,12391
2699,12384
2706,12378
2711,12373
2715,12369
2718,12366
2719,12365
2723,12360
2731,12351
2738,12343
2742,12338
2743,12337
2744,12336
2746,12333
2750,12326
2756,12318
2762,12307
2767,12296
2770,12292
2770,12290
2772,12285
2776,12274
2779,12264
2781,12258
2781,12256
2781,12254
2782,12249
2784,12238
2785,12227
2786,12218
2786,12210
2786,12205
2786,12202
2786,12201
2786,12200
2786,12194
2785,12182
2784,12170
2784,12164
2784,12163
2784,12162
2783,12158
2782,12150
2780,12141
2776,12128
2772,12117
2770,12112
2770,12110
2767,12106
2762,12095
2757,12086
2754,12081
2753,12079
2752,12077
2749,12073
2743,12064
2736,12055
2730,12048
2725,12043
2721,12039
2718,12036
2717,12035
2713,12031
2704,12023
2695,12016
2691,12012
2690,12011
2687,12009
2682,12006
2676,12002
2669,11997
2659,11992
2648,11987
2644,11985
2642,11984
2637,11983
2626,11979
2616,11976
2611,11974
2609,11974
2607,11973
2602,11972
2591,11970
2580,11969
2570,11968
2563,11968
2557,11968
2554,11968
2553,11968
2552,11968
2546,11968
2534,11969
2523,11970
2517,11970
2516,11970
2515,11970
2512,11971
2507,11972
2500,11974
2491,11976
2480,11979
2469,11983
2464,11984
2462,11985
2458,11987
2447,11992
2437,11998
2432,12000
2431,12001
2427,12004
2417,12011
2408,12018
2401,12024
2395,12029
2391,12033
2388,12036
2387,12037
2383,12041
2376,12050
2369,12059
2365,12063
2364,12064
2362,12067
2358,12072
2354,12078
2349,12085
2344,12095
2339,12106
2337,12110
2336,12112
2335,12117
2331,12128
2328,12139
2326,12144
2326,12146
2325,12151
2323,12163
2322,12174
2321,12184
2320,12191
2320,12197
2320,12200
2320,12201
2320,12202
2321,12208
2322,12220
2322,12231
2323,12237
2323,12238
2323,12239
2324,12242
2325,12247
2326,12254
2328,12263
2331,12274
2335,12285
2336,12290
2337,12292
2339,12296
2344,12307
2349,12316
2352,12321
2353,12322
2354,12324
2358,12328
2364,12337
2371,12346
2377,12353
2382,12359
2385,12363
2388,12366
2389,12367
2394,12371
2403,12379
2411,12386
2416,12390
2417,12391
2418,12392
2421,12394
2428,12399
2436,12404
2447,12410
2458,12415
2462,12417
2464,12418
2469,12419
2480,12423
2490,12426
2496,12428
2498,12428
2500,12429
2505,12430
2516,12432
2527,12433
2536,12434
2544,12434
2549,12434
2552,12434
2553,12434
" style="stroke:#ffffff;stroke-width:0;
stroke-linejoin:bevel; stroke-linecap:butt;
fill:#ffffff;
"/>
<!-- Line -->
<!--  spline  -->
<polyline points="2553,12434
2554,12434
2560,12434
2572,12433
2584,12432
2590,12432
2591,12432
2592,12432
2595,12431
2600,12430
2607,12428
2615,12426
2626,12423
2637,12419
2642,12418
2644,12417
2648,12415
2659,12410
2668,12405
2673,12402
2675,12401
2677,12400
2681,12397
2690,12391
2699,12384
2706,12378
2711,12373
2715,12369
2718,12366
2719,12365
2723,12360
2731,12351
2738,12343
2742,12338
2743,12337
2744,12336
2746,12333
2750,12326
2756,12318
2762,12307
2767,12296
2770,12292
2770,12290
2772,12285
2776,12274
2779,12264
2781,12258
2781,12256
2781,12254
2782,12249
2784,12238
2785,12227
2786,12218
2786,12210
2786,12205
2786,12202
2786,12201
2786,12200
2786,12194
2785,12182
2784,12170
2784,12164
2784,12163
2784,12162
2783,12158
2782,12150
2780,12141
2776,12128
2772,12117
2770,12112
2770,12110
2767,12106
2762,12095
2757,12086
2754,12081
2753,12079
2752,12077
2749,12073
2743,12064
2736,12055
2730,12048
2725,12043
2721,12039
2718,12036
2717,12035
2713,12031
2704,12023
2695,12016
2691,12012
2690,12011
2687,12009
2682,12006
2676,12002
2669,11997
2659,11992
2648,11987
2644,11985
2642,11984
2637,11983
2626,11979
2616,11976
2611,11974
2609,11974
2607,11973
2602,11972
2591,11970
2580,11969
2570,11968
2563,11968
2557,11968
2554,11968
2553,11968
2552,11968
2546,11968
2534,11969
2523,11970
2517,11970
2516,11970
2515,11970
2512,11971
2507,11972
2500,11974
2491,11976
2480,11979
2469,11983
2464,11984
2462,11985
2458,11987
2447,11992
2437,11998
2432,12000
2431,12001
2427,12004
2417,12011
2408,12018
2401,12024
2395,12029
2391,12033
2388,12036
2387,12037
2383,12041
2376,12050
2369,12059
2365,12063
2364,12064
2362,12067
2358,12072
2354,12078
2349,12085
2344,12095
2339,12106
2337,12110
2336,12112
2335,12117
2331,12128
2328,12139
2326,12144
2326,12146
2325,12151
2323,12163
2322,12174
2321,12184
2320,12191
2320,12197
2320,12200
2320,12201
2320,12202
2321,12208
2322,12220
2322,12231
2323,12237
2323,12238
2323,12239
2324,12242
2325,12247
2326,12254
2328,12263
2331,12274
2335,12285
2336,12290
2337,12292
2339,12296
2344,12307
2349,12316
2352,12321
2353,12322
2354,12324
2358,12328
2364,12337
2371,12346
2377,12353
2382,12359
2385,12363
2388,12366
2389,12367
2394,12371
2403,12379
2411,12386
2416,12390
2417,12391
2418,12392
2421,12394
2428,12399
2436,12404
2447,12410
2458,12415
2462,12417
2464,12418
2469,12419
2480,12423
2490,12426
2496,12428
2498,12428
2500,12429
2505,12430
2516,12432
2527,12433
2536,12434
2544,12434
2549,12434
2552,12434
2553,12434
" style="stroke:#000000;stroke-width:15;
stroke-linejoin:bevel; stroke-linecap:butt;
"/>
<!-- Line -->
<!--  polyline  -->
<polyline points="4847,11886
3779,10384
" style="stroke:#000000;stroke-width:7;
stroke-linejoin:miter; stroke-linecap:butt;
"/>
<!-- Line -->
<!--  spline  -->
<polyline points="4879,11930
4879,11929
4877,11923
4874,11910
4869,11889
4862,11862
4856,11836
4851,11815
4848,11802
4846,11796
4846,11795
4845,11795
4842,11797
4838,11798
4835,11800
4834,11800
4832,11801
4830,11802
4827,11803
4823,11805
4820,11806
4818,11807
4817,11807
4816,11808
4813,11809
4810,11811
4809,11811
4808,11812
4807,11812
4805,11814
4803,11816
4801,11817
4800,11817
4799,11818
4797,11820
4794,11821
4792,11823
4791,11824
4790,11825
4788,11827
4786,11829
4784,11831
4782,11832
4781,11833
4778,11836
4775,11839
4774,11840
4774,11841
4773,11842
4770,11845
4767,11849
4765,11851
4763,11853
4762,11855
4763,11856
4768,11859
4780,11866
4798,11878
4821,11893
4843,11907
4861,11919
4873,11926
4878,11929
4879,11930
" style="stroke:#000000;stroke-width:0;
stroke-linejoin:bevel; stroke-linecap:butt;
fill:#000000;
"/>
<!-- Line -->
<!--  polyline  -->
<polyline points="3711,10514
4713,12001
" style="stroke:#000000;stroke-width:7;
stroke-linejoin:miter; stroke-linecap:butt;
"/>
<!-- Line -->
<!--  spline  -->
<polyline points="3680,10469
3680,10470
3681,10476
3684,10489
3689,10510
3695,10537
3700,10563
3705,10584
3708,10597
3709,10603
3709,10604
3710,10604
3713,10603
3718,10601
3721,10600
3722,10600
3724,10599
3726,10599
3729,10598
3733,10596
3736,10594
3737,10594
3738,10593
3739,10593
3742,10591
3745,10590
3746,10589
3747,10589
3748,10588
3751,10587
3754,10586
3755,10584
3756,10584
3757,10583
3759,10582
3762,10580
3764,10579
3765,10578
3767,10577
3768,10575
3771,10573
3773,10571
3774,10569
3775,10569
3776,10568
3778,10565
3781,10562
3782,10561
3783,10560
3786,10557
3789,10554
3792,10551
3794,10549
3795,10547
3794,10546
3789,10543
3778,10535
3760,10523
3737,10508
3715,10493
3697,10481
3686,10473
3681,10470
3680,10469
" style="stroke:#000000;stroke-width:0;
stroke-linejoin:bevel; stroke-linecap:butt;
fill:#000000;
"/>
<!-- Line -->
<!--  polyline  -->
<polyline points="4592,12198
2786,12201
" style="stroke:#000000;stroke-width:7;
stroke-linejoin:miter; stroke-linecap:butt;
"/>
<!-- Line -->
<!--  spline  -->
<polyline points="4653,12198
4652,12198
4647,12195
4634,12190
4613,12182
4588,12172
4564,12163
4543,12155
4530,12150
4525,12147
4524,12147
4524,12148
4523,12151
4522,12156
4521,12159
4521,12160
4520,12162
4520,12164
4519,12167
4518,12171
4517,12174
4517,12176
4517,12178
4516,12181
4516,12184
4515,12185
4515,12186
4515,12187
4515,12190
4515,12193
4515,12195
4515,12197
4515,12198
4515,12200
4515,12204
4515,12206
4515,12207
4515,12209
4516,12211
4516,12215
4517,12218
4517,12220
4517,12221
4517,12222
4518,12226
4519,12230
4519,12231
4520,12232
4520,12233
4521,12237
4522,12241
4523,12245
4524,12248
4524,12250
4525,12250
4530,12247
4543,12242
4564,12234
4589,12224
4613,12214
4634,12206
4647,12201
4652,12198
4653,12198
" style="stroke:#000000;stroke-width:0;
stroke-linejoin:bevel; stroke-linecap:butt;
fill:#000000;
"/>
<!-- Line -->
<!--  polyline  -->
<polyline points="2808,12332
4696,12332
" style="stroke:#000000;stroke-width:7;
stroke-linejoin:miter; stroke-linecap:butt;
"/>
<!-- Line -->
<!--  spline  -->
<polyline points="2748,12332
2749,12332
2754,12335
2767,12340
2787,12348
2812,12358
2837,12367
2857,12375
2870,12380
2875,12383
2876,12383
2876,12382
2877,12379
2879,12374
2880,12371
2880,12370
2880,12368
2881,12366
2881,12363
2882,12359
2883,12355
2883,12354
2883,12353
2883,12351
2884,12348
2884,12345
2885,12343
2885,12342
2885,12339
2885,12336
2885,12334
2885,12333
2885,12332
2885,12330
2885,12326
2885,12324
2885,12323
2885,12321
2884,12319
2884,12315
2883,12312
2883,12310
2883,12309
2883,12308
2882,12304
2881,12300
2881,12299
2881,12298
2881,12297
2880,12293
2879,12289
2878,12285
2877,12282
2876,12280
2875,12280
2870,12283
2857,12288
2837,12296
2812,12306
2787,12316
2767,12324
2754,12329
2749,12332
2748,12332
" style="stroke:#000000;stroke-width:0;
stroke-linejoin:bevel; stroke-linecap:butt;
fill:#000000;
"/>
<!-- Line -->
<!--  polyline  -->
<polyline points="3388,10467
2613,12001
" style="stroke:#000000;stroke-width:7;
stroke-linejoin:miter; stroke-linecap:butt;
"/>
<!-- Line -->
<!--  spline  -->
<polyline points="3412,10419
3411,10420
3407,10424
3396,10433
3380,10447
3360,10465
3340,10483
3324,10497
3313,10506
3309,10510
3308,10511
3309,10511
3311,10513
3315,10517
3317,10519
3318,10519
3319,10520
3321,10522
3324,10524
3327,10527
3330,10529
3331,10530
3332,10531
3335,10533
3338,10535
3339,10536
3340,10536
3343,10538
3346,10540
3348,10541
3349,10541
3350,10542
3352,10543
3355,10544
3357,10545
3358,10545
3360,10546
3363,10547
3366,10548
3369,10549
3371,10549
3371,10550
3373,10550
3376,10551
3380,10552
3381,10552
3382,10553
3383,10553
3387,10554
3391,10555
3395,10556
3398,10557
3400,10557
3400,10556
3401,10550
3402,10536
3404,10515
3406,10488
3408,10461
3410,10440
3411,10426
3412,10420
3412,10419
" style="stroke:#000000;stroke-width:0;
stroke-linejoin:bevel; stroke-linecap:butt;
fill:#000000;
"/>
<!-- Line -->
<!--  polyline  -->
<polyline points="2746,12001
3513,10468
" style="stroke:#000000;stroke-width:7;
stroke-linejoin:miter; stroke-linecap:butt;
"/>
<!-- Line -->
<!--  spline  -->
<polyline points="2722,12050
2723,12049
2727,12045
2737,12036
2754,12021
2774,12003
2793,11986
2810,11971
2820,11962
2824,11958
2825,11957
2824,11957
2822,11955
2818,11951
2816,11949
2815,11949
2814,11948
2812,11946
2809,11944
2806,11941
2803,11939
2802,11938
2801,11937
2798,11935
2795,11933
2794,11932
2793,11932
2790,11930
2787,11928
2785,11927
2784,11927
2783,11926
2781,11925
2778,11924
2776,11923
2775,11923
2773,11922
2771,11921
2768,11920
2765,11919
2764,11919
2763,11918
2762,11918
2758,11917
2754,11916
2753,11916
2752,11915
2750,11915
2746,11914
2741,11913
2738,11912
2735,11911
2733,11911
2733,11912
2732,11918
2731,11932
2730,11954
2727,11981
2725,12007
2724,12029
2723,12043
2722,12049
2722,12050
" style="stroke:#000000;stroke-width:0;
stroke-linejoin:bevel; stroke-linecap:butt;
fill:#000000;
"/>
<!-- Line -->
<!--  polyline  -->
<polyline points="133,9625
7300,9625
7300,12841
133,12841
133,9625
" style="stroke:#000000;stroke-width:15;
stroke-linejoin:miter; stroke-linecap:butt;
"/>
<!-- Text -->
<!--  text  -->
<text xml:space="preserve" x="2409" y="13090" stroke="#000000" fill="#000000"  font-family="Times" font-style="normal" font-weight="normal" font-size="156" text-anchor="start">F</text>
<!-- Text -->
<!--  text  -->
<text xml:space="preserve" x="2520" y="13090" stroke="#000000" fill="#000000"  font-family="Times" font-style="normal" font-weight="normal" font-size="156" text-anchor="start">i</text>
<!-- Text -->
<!--  text  -->
<text xml:space="preserve" x="2575" y="13090" stroke="#000000" fill="#000000"  font-family="Times" font-style="normal" font-weight="normal" font-size="156" text-anchor="start">g</text>
<!-- Text -->
<!--  text  -->
<text xml:space="preserve" x="2675" y="13090" stroke="#000000" fill="#000000"  font-family="Times" font-style="normal" font-weight="normal" font-size="156" text-anchor="start">u</text>
<!-- Text -->
<!--  text  -->
<text xml:space="preserve" x="2775" y="13090" stroke="#000000" fill="#000000"  font-family="Times" font-style="normal" font-weight="normal" font-size="156" text-anchor="start">r</text>
<!-- Text -->
<!--  text  -->
<text xml:space="preserve" x="2842" y="13090" stroke="#000000" fill="#000000"  font-family="Times" font-style="normal" font-weight="normal" font-size="156" text-anchor="start">e</text>
<!-- Text -->
<!--  text  -->
<text xml:space="preserve" x="3001" y="13090" stroke="#000000" fill="#000000"  font-family="Times" font-style="normal" font-weight="normal" font-size="156" text-anchor="start">6</text>
<!-- Text -->
<!--  text  -->
<text xml:space="preserve" x="3101" y="13090" stroke="#000000" fill="#000000"  font-family="Times" font-style="normal" font-weight="normal" font-size="156" text-anchor="start">-</text>
<!-- Text -->
<!--  text  -->
<text xml:space="preserve" x="3167" y="13090" stroke="#000000" fill="#000000"  font-family="Times" font-style="normal" font-weight="normal" font-size="156" text-anchor="start">6</text>
<!-- Text -->
<!--  text  -->
<text xml:space="preserve" x="3267" y="13090" stroke="#000000" fill="#000000"  font-family="Times" font-style="normal" font-weight="normal" font-size="156" text-anchor="start">:</text>
<!-- Text -->
<!--  text  -->
<text xml:space="preserve" x="3393" y="13090" stroke="#000000" fill="#000000"  font-family="Times" font-style="normal" font-weight="normal" font-size="156" text-anchor="start">A</text>
<!-- Text -->
<!--  text  -->
<text xml:space="preserve" x="3607" y="13090" stroke="#000000" fill="#000000"  font-family="Times" font-style="normal" font-weight="normal" font-size="156" text-anchor="start">H</text>
<!-- Text -->
<!--  text  -->
<text xml:space="preserve" x="3751" y="13090" stroke="#000000" fill="#000000"  font-family="Times" font-style="normal" font-weight="normal" font-size="156" text-anchor="start">o</text>
<!-- Text -->
<!--  text  -->
<text xml:space="preserve" x="3851" y="13090" stroke="#000000" fill="#000000"  font-family="Times" font-style="normal" font-weight="normal" font-size="156" text-anchor="start">p</text>
<!-- Text -->
<!--  text  -->
<text xml:space="preserve" x="3951" y="13090" stroke="#000000" fill="#000000"  font-family="Times" font-style="normal" font-weight="normal" font-size="156" text-anchor="start">f</text>
<!-- Text -->
<!--  text  -->
<text xml:space="preserve" x="4018" y="13090" stroke="#000000" fill="#000000"  font-family="Times" font-style="normal" font-weight="normal" font-size="156" text-anchor="start">i</text>
<!-- Text -->
<!--  text  -->
<text xml:space="preserve" x="4073" y="13090" stroke="#000000" fill="#000000"  font-family="Times" font-style="normal" font-weight="normal" font-size="156" text-anchor="start">e</text>
<!-- Text -->
<!--  text  -->
<text xml:space="preserve" x="4162" y="13090" stroke="#000000" fill="#000000"  font-family="Times" font-style="normal" font-weight="normal" font-size="156" text-anchor="start">l</text>
<!-- Text -->
<!--  text  -->
<text xml:space="preserve" x="4218" y="13090" stroke="#000000" fill="#000000"  font-family="Times" font-style="normal" font-weight="normal" font-size="156" text-anchor="start">d</text>
<!-- Text -->
<!--  text  -->
<text xml:space="preserve" x="4388" y="13090" stroke="#000000" fill="#000000"  font-family="Times" font-style="normal" font-weight="normal" font-size="156" text-anchor="start">n</text>
<!-- Text -->
<!--  text  -->
<text xml:space="preserve" x="4488" y="13090" stroke="#000000" fill="#000000"  font-family="Times" font-style="normal" font-weight="normal" font-size="156" text-anchor="start">e</text>
<!-- Text -->
<!--  text  -->
<text xml:space="preserve" x="4576" y="13090" stroke="#000000" fill="#000000"  font-family="Times" font-style="normal" font-weight="normal" font-size="156" text-anchor="start">t</text>
<!-- Text -->
<!--  text  -->
<text xml:space="preserve" x="4632" y="13090" stroke="#000000" fill="#000000"  font-family="Times" font-style="normal" font-weight="normal" font-size="156" text-anchor="start">w</text>
<!-- Text -->
<!--  text  -->
<text xml:space="preserve" x="4776" y="13090" stroke="#000000" fill="#000000"  font-family="Times" font-style="normal" font-weight="normal" font-size="156" text-anchor="start">o</text>
<!-- Text -->
<!--  text  -->
<text xml:space="preserve" x="4876" y="13090" stroke="#000000" fill="#000000"  font-family="Times" font-style="normal" font-weight="normal" font-size="156" text-anchor="start">r</text>
<!-- Text -->
<!--  text  -->
<text xml:space="preserve" x="4943" y="13090" stroke="#000000" fill="#000000"  font-family="Times" font-style="normal" font-weight="normal" font-size="156" text-anchor="start">k</text>
<!-- Text -->
<!--  text  -->
<text xml:space="preserve" x="3966" y="10202" stroke="#000000" fill="#000000"  font-family="Times" font-style="normal" font-weight="normal" font-size="156" text-anchor="start">H</text>
<!-- Text -->
<!--  text  -->
<text xml:space="preserve" x="4111" y="10202" stroke="#000000" fill="#000000"  font-family="Times" font-style="normal" font-weight="normal" font-size="156" text-anchor="start">O</text>
<!-- Text -->
<!--  text  -->
<text xml:space="preserve" x="4255" y="10202" stroke="#000000" fill="#000000"  font-family="Times" font-style="normal" font-weight="normal" font-size="156" text-anchor="start">P</text>
<!-- Text -->
<!--  text  -->
<text xml:space="preserve" x="4366" y="10202" stroke="#000000" fill="#000000"  font-family="Times" font-style="normal" font-weight="normal" font-size="156" text-anchor="start">F</text>
<!-- Text -->
<!--  text  -->
<text xml:space="preserve" x="4477" y="10202" stroke="#000000" fill="#000000"  font-family="Times" font-style="normal" font-weight="normal" font-size="156" text-anchor="start">I</text>
<!-- Text -->
<!--  text  -->
<text xml:space="preserve" x="4544" y="10202" stroke="#000000" fill="#000000"  font-family="Times" font-style="normal" font-weight="normal" font-size="156" text-anchor="start">E</text>
<!-- Text -->
<!--  text  -->
<text xml:space="preserve" x="4666" y="10202" stroke="#000000" fill="#000000"  font-family="Times" font-style="normal" font-weight="normal" font-size="156" text-anchor="start">L</text>
<!-- Text -->
<!--  text  -->
<text xml:space="preserve" x="4788" y="10202" stroke="#000000" fill="#000000"  font-family="Times" font-style="normal" font-weight="normal" font-size="156" text-anchor="start">D</text>
<!-- Text -->
<!--  text  -->
<text xml:space="preserve" x="4126" y="10442" stroke="#000000" fill="#000000"  font-family="Times" font-style="normal" font-weight="normal" font-size="156" text-anchor="start">U</text>
<!-- Text -->
<!--  text  -->
<text xml:space="preserve" x="4270" y="10442" stroke="#000000" fill="#000000"  font-family="Times" font-style="normal" font-weight="normal" font-size="156" text-anchor="start">N</text>
<!-- Text -->
<!--  text  -->
<text xml:space="preserve" x="4414" y="10442" stroke="#000000" fill="#000000"  font-family="Times" font-style="normal" font-weight="normal" font-size="156" text-anchor="start">I</text>
<!-- Text -->
<!--  text  -->
<text xml:space="preserve" x="4481" y="10442" stroke="#000000" fill="#000000"  font-family="Times" font-style="normal" font-weight="normal" font-size="156" text-anchor="start">T</text>
<!-- Text -->
<!--  text  -->
<text xml:space="preserve" x="4673" y="10442" stroke="#000000" fill="#000000"  font-family="Times" font-style="normal" font-weight="normal" font-size="156" text-anchor="start">1</text>
<!-- Text -->
<!--  text  -->
<text xml:space="preserve" x="1216" y="12138" stroke="#000000" fill="#000000"  font-family="Times" font-style="normal" font-weight="normal" font-size="156" text-anchor="start">H</text>
<!-- Text -->
<!--  text  -->
<text xml:space="preserve" x="1361" y="12138" stroke="#000000" fill="#000000"  font-family="Times" font-style="normal" font-weight="normal" font-size="156" text-anchor="start">O</text>
<!-- Text -->
<!--  text  -->
<text xml:space="preserve" x="1505" y="12138" stroke="#000000" fill="#000000"  font-family="Times" font-style="normal" font-weight="normal" font-size="156" text-anchor="start">P</text>
<!-- Text -->
<!--  text  -->
<text xml:space="preserve" x="1616" y="12138" stroke="#000000" fill="#000000"  font-family="Times" font-style="normal" font-weight="normal" font-size="156" text-anchor="start">F</text>
<!-- Text -->
<!--  text  -->
<text xml:space="preserve" x="1727" y="12138" stroke="#000000" fill="#000000"  font-family="Times" font-style="normal" font-weight="normal" font-size="156" text-anchor="start">I</text>
<!-- Text -->
<!--  text  -->
<text xml:space="preserve" x="1794" y="12138" stroke="#000000" fill="#000000"  font-family="Times" font-style="normal" font-weight="normal" font-size="156" text-anchor="start">E</text>
<!-- Text -->
<!--  text  -->
<text xml:space="preserve" x="1916" y="12138" stroke="#000000" fill="#000000"  font-family="Times" font-style="normal" font-weight="normal" font-size="156" text-anchor="start">L</text>
<!-- Text -->
<!--  text  -->
<text xml:space="preserve" x="2038" y="12138" stroke="#000000" fill="#000000"  font-family="Times" font-style="normal" font-weight="normal" font-size="156" text-anchor="start">D</text>
<!-- Text -->
<!--  text  -->
<text xml:space="preserve" x="1376" y="12378" stroke="#000000" fill="#000000"  font-family="Times" font-style="normal" font-weight="normal" font-size="156" text-anchor="start">U</text>
<!-- Text -->
<!--  text  -->
<text xml:space="preserve" x="1520" y="12378" stroke="#000000" fill="#000000"  font-family="Times" font-style="normal" font-weight="normal" font-size="156" text-anchor="start">N</text>
<!-- Text -->
<!--  text  -->
<text xml:space="preserve" x="1664" y="12378" stroke="#000000" fill="#000000"  font-family="Times" font-style="normal" font-weight="normal" font-size="156" text-anchor="start">I</text>
<!-- Text -->
<!--  text  -->
<text xml:space="preserve" x="1731" y="12378" stroke="#000000" fill="#000000"  font-family="Times" font-style="normal" font-weight="normal" font-size="156" text-anchor="start">T</text>
<!-- Text -->
<!--  text  -->
<text xml:space="preserve" x="1923" y="12378" stroke="#000000" fill="#000000"  font-family="Times" font-style="normal" font-weight="normal" font-size="156" text-anchor="start">2</text>
<!-- Text -->
<!--  text  -->
<text xml:space="preserve" x="5250" y="12102" stroke="#000000" fill="#000000"  font-family="Times" font-style="normal" font-weight="normal" font-size="156" text-anchor="start">H</text>
<!-- Text -->
<!--  text  -->
<text xml:space="preserve" x="5394" y="12102" stroke="#000000" fill="#000000"  font-family="Times" font-style="normal" font-weight="normal" font-size="156" text-anchor="start">O</text>
<!-- Text -->
<!--  text  -->
<text xml:space="preserve" x="5538" y="12102" stroke="#000000" fill="#000000"  font-family="Times" font-style="normal" font-weight="normal" font-size="156" text-anchor="start">P</text>
<!-- Text -->
<!--  text  -->
<text xml:space="preserve" x="5650" y="12102" stroke="#000000" fill="#000000"  font-family="Times" font-style="normal" font-weight="normal" font-size="156" text-anchor="start">F</text>
<!-- Text -->
<!--  text  -->
<text xml:space="preserve" x="5761" y="12102" stroke="#000000" fill="#000000"  font-family="Times" font-style="normal" font-weight="normal" font-size="156" text-anchor="start">I</text>
<!-- Text -->
<!--  text  -->
<text xml:space="preserve" x="5827" y="12102" stroke="#000000" fill="#000000"  font-family="Times" font-style="normal" font-weight="normal" font-size="156" text-anchor="start">E</text>
<!-- Text -->
<!--  text  -->
<text xml:space="preserve" x="5949" y="12102" stroke="#000000" fill="#000000"  font-family="Times" font-style="normal" font-weight="normal" font-size="156" text-anchor="start">L</text>
<!-- Text -->
<!--  text  -->
<text xml:space="preserve" x="6072" y="12102" stroke="#000000" fill="#000000"  font-family="Times" font-style="normal" font-weight="normal" font-size="156" text-anchor="start">D</text>
<!-- Text -->
<!--  text  -->
<text xml:space="preserve" x="5409" y="12342" stroke="#000000" fill="#000000"  font-family="Times" font-style="normal" font-weight="normal" font-size="156" text-anchor="start">U</text>
<!-- Text -->
<!--  text  -->
<text xml:space="preserve" x="5553" y="12342" stroke="#000000" fill="#000000"  font-family="Times" font-style="normal" font-weight="normal" font-size="156" text-anchor="start">N</text>
<!-- Text -->
<!--  text  -->
<text xml:space="preserve" x="5698" y="12342" stroke="#000000" fill="#000000"  font-family="Times" font-style="normal" font-weight="normal" font-size="156" text-anchor="start">I</text>
<!-- Text -->
<!--  text  -->
<text xml:space="preserve" x="5764" y="12342" stroke="#000000" fill="#000000"  font-family="Times" font-style="normal" font-weight="normal" font-size="156" text-anchor="start">T</text>
<!-- Text -->
<!--  text  -->
<text xml:space="preserve" x="5956" y="12342" stroke="#000000" fill="#000000"  font-family="Times" font-style="normal" font-weight="normal" font-size="156" text-anchor="start">3</text>
</g>
</svg>
