<?xml version="1.0" standalone="no"?>
<!DOCTYPE svg PUBLIC "-//W3C//DTD SVG 1.1//EN"
"http://www.w3.org/Graphics/SVG/1.1/DTD/svg11.dtd">
<!-- Creator: fig2dev Version 3.2 Patchlevel 5 -->
<!-- CreationDate: Sat Jul  4 12:13:19 2015 -->
<!-- Magnification: 1.000 -->
<svg xmlns="http://www.w3.org/2000/svg" width="6.0in" height="2.8in" viewBox="111 9835 7224 3339">
<g style="stroke-width:.025in; stroke:black; fill:none">
<!-- Line -->
<!--  polyline  -->
<polyline points="133,9857
7313,9857
7313,12893
133,12893
133,9857
" style="stroke:#000000;stroke-width:15;
stroke-linejoin:miter; stroke-linecap:butt;
"/>
<!-- Line -->
<!--  polyline  -->
<polyline points="5332,11385
4244,11385
" style="stroke:#000000;stroke-width:7;
stroke-linejoin:miter; stroke-linecap:butt;
"/>
<!-- Line -->
<!--  spline  -->
<polyline points="5392,11385
5391,11385
5386,11382
5373,11377
5352,11369
5327,11359
5303,11349
5282,11341
5269,11336
5264,11333
5263,11333
5263,11334
5262,11337
5261,11342
5260,11345
5260,11346
5260,11348
5259,11351
5259,11354
5258,11358
5257,11362
5257,11363
5257,11365
5256,11368
5256,11371
5255,11372
5255,11373
5255,11374
5255,11377
5255,11380
5254,11382
5254,11384
5254,11385
5254,11387
5255,11391
5255,11393
5255,11394
5255,11396
5256,11399
5256,11402
5257,11405
5257,11407
5257,11408
5258,11412
5259,11416
5259,11417
5259,11418
5259,11420
5260,11424
5261,11428
5262,11432
5262,11434
5263,11436
5264,11436
5269,11433
5282,11428
5303,11420
5328,11410
5352,11401
5373,11393
5386,11388
5391,11385
5392,11385
" style="stroke:#000000;stroke-width:0;
stroke-linejoin:bevel; stroke-linecap:butt;
fill:#000000;
"/>
<!-- Line -->
<!--  polyline  -->
<polyline points="3499,11163
2680,10435
" style="stroke:#000000;stroke-width:7;
stroke-linejoin:miter; stroke-linecap:butt;
"/>
<!-- Line -->
<!--  spline  -->
<polyline points="3541,11200
3541,11199
3538,11194
3532,11181
3522,11162
3510,11138
3498,11114
3488,11095
3482,11082
3479,11077
3479,11076
3478,11076
3476,11078
3471,11082
3469,11084
3468,11084
3467,11085
3465,11087
3462,11089
3459,11091
3456,11093
3455,11094
3454,11095
3451,11097
3449,11099
3448,11100
3447,11100
3446,11101
3444,11103
3442,11105
3440,11107
3439,11108
3438,11109
3436,11111
3435,11113
3433,11115
3432,11116
3431,11117
3430,11119
3428,11122
3426,11125
3426,11126
3425,11126
3425,11128
3423,11131
3421,11134
3420,11136
3420,11137
3419,11138
3417,11142
3415,11146
3413,11149
3412,11151
3411,11153
3412,11153
3418,11155
3430,11160
3451,11167
3476,11177
3501,11186
3522,11193
3534,11198
3540,11200
3541,11200
" style="stroke:#000000;stroke-width:0;
stroke-linejoin:bevel; stroke-linecap:butt;
fill:#000000;
"/>
<!-- Line -->
<!--  polyline  -->
<polyline points="3461,11239
2355,10855
" style="stroke:#000000;stroke-width:7;
stroke-linejoin:miter; stroke-linecap:butt;
"/>
<!-- Line -->
<!--  spline  -->
<polyline points="3513,11257
3512,11256
3508,11252
3497,11243
3481,11229
3460,11211
3440,11194
3424,11180
3413,11171
3409,11167
3408,11166
3408,11167
3406,11169
3403,11174
3401,11176
3401,11177
3400,11179
3399,11181
3397,11183
3395,11187
3393,11190
3392,11191
3392,11192
3392,11193
3390,11196
3389,11199
3388,11200
3387,11201
3386,11204
3385,11207
3384,11209
3383,11211
3383,11212
3382,11214
3381,11217
3380,11219
3380,11220
3379,11222
3379,11224
3378,11228
3378,11231
3377,11233
3378,11234
3377,11235
3377,11239
3376,11243
3376,11244
3376,11245
3376,11246
3375,11250
3375,11254
3374,11258
3374,11261
3374,11263
3375,11263
3381,11263
3395,11262
3417,11261
3444,11260
3470,11259
3492,11258
3506,11257
3512,11257
3513,11257
" style="stroke:#000000;stroke-width:0;
stroke-linejoin:bevel; stroke-linecap:butt;
fill:#000000;
"/>
<!-- Line -->
<!--  polyline  -->
<polyline points="3473,11518
2547,12263
" style="stroke:#000000;stroke-width:7;
stroke-linejoin:miter; stroke-linecap:butt;
"/>
<!-- Line -->
<!--  spline  -->
<polyline points="3516,11484
3515,11484
3509,11486
3496,11490
3475,11496
3449,11504
3424,11512
3403,11518
3390,11522
3384,11524
3383,11524
3383,11525
3385,11528
3386,11532
3388,11535
3388,11536
3389,11538
3390,11540
3392,11543
3394,11547
3396,11550
3396,11552
3397,11552
3397,11553
3399,11556
3401,11559
3401,11560
3402,11560
3402,11562
3404,11564
3406,11566
3407,11568
3407,11569
3408,11570
3410,11572
3411,11574
3413,11576
3414,11577
3415,11578
3417,11580
3420,11582
3423,11584
3424,11585
3424,11586
3425,11587
3428,11589
3431,11592
3432,11593
3434,11594
3437,11597
3441,11600
3444,11602
3446,11604
3448,11605
3448,11604
3451,11599
3458,11587
3469,11568
3482,11544
3495,11521
3506,11502
3513,11490
3516,11485
3516,11484
" style="stroke:#000000;stroke-width:0;
stroke-linejoin:bevel; stroke-linecap:butt;
fill:#000000;
"/>
<!-- Line -->
<!--  polyline  -->
<polyline points="3418,11350
2186,11387
" style="stroke:#000000;stroke-width:7;
stroke-linejoin:miter; stroke-linecap:butt;
"/>
<!-- Line -->
<!--  spline  -->
<polyline points="3478,11349
3477,11349
3471,11347
3459,11342
3438,11334
3413,11325
3388,11316
3367,11308
3355,11303
3349,11301
3348,11301
3348,11302
3347,11305
3346,11310
3345,11313
3345,11314
3344,11316
3344,11318
3343,11321
3342,11325
3341,11329
3341,11330
3341,11331
3341,11333
3341,11336
3341,11339
3340,11341
3340,11342
3340,11345
3340,11348
3340,11350
3340,11352
3340,11353
3340,11355
3341,11359
3341,11361
3341,11362
3341,11364
3342,11367
3342,11370
3343,11373
3343,11375
3343,11377
3344,11380
3345,11384
3345,11385
3345,11386
3346,11387
3347,11391
3348,11395
3349,11399
3350,11402
3351,11404
3352,11404
3357,11401
3370,11396
3390,11387
3415,11376
3439,11366
3459,11357
3472,11352
3477,11349
3478,11349
" style="stroke:#000000;stroke-width:0;
stroke-linejoin:bevel; stroke-linecap:butt;
fill:#000000;
"/>
<!-- Line -->
<!--  spline  -->
<polyline points="3865,11770
3867,11770
3877,11769
3896,11768
3915,11767
3925,11766
3927,11766
3928,11766
3933,11765
3942,11763
3953,11761
3967,11757
3985,11752
4001,11746
4010,11744
4013,11742
4016,11741
4024,11738
4040,11730
4055,11722
4063,11717
4066,11715
4069,11714
4077,11708
4091,11698
4106,11686
4118,11677
4127,11669
4134,11662
4137,11659
4138,11658
4139,11657
4146,11649
4158,11634
4170,11619
4177,11611
4178,11610
4179,11609
4182,11605
4187,11598
4193,11588
4201,11576
4210,11560
4218,11544
4222,11536
4223,11533
4224,11530
4227,11521
4233,11505
4238,11488
4240,11480
4241,11477
4242,11473
4243,11464
4246,11447
4248,11428
4250,11413
4251,11401
4251,11391
4251,11386
4251,11385
4251,11383
4250,11373
4248,11354
4247,11335
4246,11325
4246,11323
4246,11322
4245,11317
4244,11308
4241,11296
4238,11282
4233,11264
4227,11248
4224,11239
4223,11236
4222,11234
4218,11225
4210,11210
4202,11195
4197,11187
4195,11184
4194,11181
4188,11173
4178,11159
4166,11144
4157,11132
4149,11123
4142,11116
4139,11113
4138,11112
4137,11111
4129,11104
4114,11091
4100,11079
4092,11072
4091,11071
4090,11070
4086,11068
4079,11062
4069,11056
4056,11049
4040,11040
4024,11032
4016,11028
4013,11027
4010,11026
4001,11023
3985,11017
3968,11012
3960,11010
3957,11009
3953,11008
3944,11007
3927,11004
3908,11002
3893,11000
3881,10999
3871,10999
3866,10999
3865,10999
3863,10999
3853,11000
3834,11002
3815,11003
3805,11004
3803,11004
3802,11004
3797,11005
3788,11006
3777,11009
3763,11012
3745,11017
3729,11023
3720,11026
3717,11027
3714,11028
3706,11032
3690,11040
3675,11048
3667,11052
3664,11054
3661,11056
3653,11061
3639,11071
3624,11083
3612,11092
3603,11101
3596,11108
3593,11111
3592,11112
3591,11113
3584,11121
3572,11136
3560,11150
3553,11158
3552,11159
3551,11160
3548,11164
3543,11171
3537,11181
3529,11194
3520,11210
3512,11225
3508,11234
3507,11236
3506,11239
3503,11248
3497,11264
3492,11281
3490,11290
3489,11293
3488,11296
3487,11305
3484,11323
3482,11342
3480,11357
3479,11369
3479,11379
3479,11384
3479,11385
3479,11387
3480,11397
3482,11416
3483,11435
3484,11445
3484,11447
3484,11448
3485,11453
3486,11462
3489,11473
3492,11487
3497,11505
3503,11521
3506,11530
3507,11533
3508,11536
3512,11544
3520,11560
3528,11575
3533,11583
3535,11586
3536,11588
3542,11596
3552,11610
3564,11625
3573,11637
3581,11646
3588,11653
3591,11657
3592,11658
3593,11659
3601,11666
3616,11678
3630,11690
3638,11697
3639,11698
3640,11699
3644,11702
3651,11707
3661,11714
3674,11721
3690,11730
3706,11738
3714,11741
3717,11743
3720,11744
3729,11746
3745,11752
3762,11757
3770,11760
3773,11761
3777,11761
3786,11763
3803,11766
3822,11768
3837,11769
3849,11770
3859,11770
3864,11770
3865,11770
" style="stroke:#ffffff;stroke-width:0;
stroke-linejoin:bevel; stroke-linecap:butt;
fill:#ffffff;
"/>
<!-- Line -->
<!--  spline  -->
<polyline points="3865,11770
3867,11770
3877,11769
3896,11768
3915,11767
3925,11766
3927,11766
3928,11766
3933,11765
3942,11763
3953,11761
3967,11757
3985,11752
4001,11746
4010,11744
4013,11742
4016,11741
4024,11738
4040,11730
4055,11722
4063,11717
4066,11715
4069,11714
4077,11708
4091,11698
4106,11686
4118,11677
4127,11669
4134,11662
4137,11659
4138,11658
4139,11657
4146,11649
4158,11634
4170,11619
4177,11611
4178,11610
4179,11609
4182,11605
4187,11598
4193,11588
4201,11576
4210,11560
4218,11544
4222,11536
4223,11533
4224,11530
4227,11521
4233,11505
4238,11488
4240,11480
4241,11477
4242,11473
4243,11464
4246,11447
4248,11428
4250,11413
4251,11401
4251,11391
4251,11386
4251,11385
4251,11383
4250,11373
4248,11354
4247,11335
4246,11325
4246,11323
4246,11322
4245,11317
4244,11308
4241,11296
4238,11282
4233,11264
4227,11248
4224,11239
4223,11236
4222,11234
4218,11225
4210,11210
4202,11195
4197,11187
4195,11184
4194,11181
4188,11173
4178,11159
4166,11144
4157,11132
4149,11123
4142,11116
4139,11113
4138,11112
4137,11111
4129,11104
4114,11091
4100,11079
4092,11072
4091,11071
4090,11070
4086,11068
4079,11062
4069,11056
4056,11049
4040,11040
4024,11032
4016,11028
4013,11027
4010,11026
4001,11023
3985,11017
3968,11012
3960,11010
3957,11009
3953,11008
3944,11007
3927,11004
3908,11002
3893,11000
3881,10999
3871,10999
3866,10999
3865,10999
3863,10999
3853,11000
3834,11002
3815,11003
3805,11004
3803,11004
3802,11004
3797,11005
3788,11006
3777,11009
3763,11012
3745,11017
3729,11023
3720,11026
3717,11027
3714,11028
3706,11032
3690,11040
3675,11048
3667,11052
3664,11054
3661,11056
3653,11061
3639,11071
3624,11083
3612,11092
3603,11101
3596,11108
3593,11111
3592,11112
3591,11113
3584,11121
3572,11136
3560,11150
3553,11158
3552,11159
3551,11160
3548,11164
3543,11171
3537,11181
3529,11194
3520,11210
3512,11225
3508,11234
3507,11236
3506,11239
3503,11248
3497,11264
3492,11281
3490,11290
3489,11293
3488,11296
3487,11305
3484,11323
3482,11342
3480,11357
3479,11369
3479,11379
3479,11384
3479,11385
3479,11387
3480,11397
3482,11416
3483,11435
3484,11445
3484,11447
3484,11448
3485,11453
3486,11462
3489,11473
3492,11487
3497,11505
3503,11521
3506,11530
3507,11533
3508,11536
3512,11544
3520,11560
3528,11575
3533,11583
3535,11586
3536,11588
3542,11596
3552,11610
3564,11625
3573,11637
3581,11646
3588,11653
3591,11657
3592,11658
3593,11659
3601,11666
3616,11678
3630,11690
3638,11697
3639,11698
3640,11699
3644,11702
3651,11707
3661,11714
3674,11721
3690,11730
3706,11738
3714,11741
3717,11743
3720,11744
3729,11746
3745,11752
3762,11757
3770,11760
3773,11761
3777,11761
3786,11763
3803,11766
3822,11768
3837,11769
3849,11770
3859,11770
3864,11770
3865,11770
" style="stroke:#000000;stroke-width:15;
stroke-linejoin:bevel; stroke-linecap:butt;
"/>
<!-- Line -->
<!--  polyline  -->
<polyline points="2876,10631
2876,10631
2876,10631
" style="stroke:#000000;stroke-width:7;
stroke-linejoin:miter; stroke-linecap:butt;
"/>
<!-- Line -->
<!--  spline  -->
<polyline points="2680,10631
2682,10631
2690,10630
2701,10630
2709,10629
2711,10629
2712,10629
2716,10628
2722,10627
2730,10625
2741,10622
2751,10619
2755,10617
2756,10616
2760,10615
2769,10610
2778,10605
2782,10603
2783,10602
2787,10600
2795,10594
2804,10587
2811,10582
2815,10577
2818,10575
2819,10574
2820,10573
2825,10567
2833,10557
2838,10551
2839,10550
2840,10549
2842,10546
2846,10541
2851,10534
2856,10524
2860,10515
2862,10511
2863,10510
2864,10506
2867,10496
2870,10486
2871,10482
2871,10480
2872,10476
2874,10466
2875,10455
2876,10446
2876,10440
2876,10436
2876,10435
2876,10433
2875,10425
2875,10413
2874,10405
2874,10403
2874,10402
2873,10398
2872,10392
2870,10384
2867,10373
2864,10364
2863,10360
2862,10359
2860,10355
2856,10346
2851,10337
2849,10333
2848,10332
2845,10328
2839,10320
2832,10311
2827,10304
2822,10300
2820,10297
2819,10296
2818,10295
2812,10290
2802,10281
2796,10276
2795,10275
2794,10275
2791,10272
2786,10269
2779,10264
2769,10259
2760,10255
2756,10253
2755,10253
2751,10251
2741,10248
2731,10245
2727,10244
2725,10244
2721,10243
2711,10241
2700,10239
2691,10239
2685,10238
2681,10238
2680,10238
2678,10238
2670,10239
2658,10240
2650,10241
2648,10241
2647,10241
2644,10242
2637,10243
2629,10245
2619,10248
2609,10251
2606,10253
2604,10253
2600,10255
2591,10259
2582,10264
2578,10266
2577,10267
2573,10269
2565,10275
2556,10282
2549,10288
2545,10292
2542,10295
2541,10296
2540,10297
2535,10303
2526,10313
2521,10319
2520,10320
2520,10321
2517,10324
2514,10329
2509,10336
2504,10346
2500,10355
2498,10359
2498,10360
2496,10364
2493,10373
2490,10383
2489,10387
2489,10388
2488,10393
2486,10403
2485,10414
2484,10423
2484,10430
2484,10434
2484,10435
2484,10437
2485,10445
2485,10456
2486,10464
2486,10466
2486,10467
2487,10471
2488,10477
2490,10485
2493,10496
2496,10506
2498,10510
2498,10511
2500,10515
2504,10524
2509,10533
2511,10537
2512,10538
2514,10542
2520,10550
2527,10559
2533,10566
2537,10570
2540,10573
2541,10574
2542,10575
2548,10580
2558,10588
2564,10593
2565,10594
2566,10594
2569,10597
2574,10600
2581,10605
2591,10610
2600,10615
2604,10616
2606,10617
2609,10619
2619,10622
2629,10625
2632,10626
2634,10626
2638,10627
2648,10629
2659,10630
2668,10631
2675,10631
2679,10631
2680,10631
" style="stroke:#ffffff;stroke-width:0;
stroke-linejoin:bevel; stroke-linecap:butt;
fill:#ffffff;
"/>
<!-- Line -->
<!--  spline  -->
<polyline points="2680,10631
2682,10631
2690,10630
2701,10630
2709,10629
2711,10629
2712,10629
2716,10628
2722,10627
2730,10625
2741,10622
2751,10619
2755,10617
2756,10616
2760,10615
2769,10610
2778,10605
2782,10603
2783,10602
2787,10600
2795,10594
2804,10587
2811,10582
2815,10577
2818,10575
2819,10574
2820,10573
2825,10567
2833,10557
2838,10551
2839,10550
2840,10549
2842,10546
2846,10541
2851,10534
2856,10524
2860,10515
2862,10511
2863,10510
2864,10506
2867,10496
2870,10486
2871,10482
2871,10480
2872,10476
2874,10466
2875,10455
2876,10446
2876,10440
2876,10436
2876,10435
2876,10433
2875,10425
2875,10413
2874,10405
2874,10403
2874,10402
2873,10398
2872,10392
2870,10384
2867,10373
2864,10364
2863,10360
2862,10359
2860,10355
2856,10346
2851,10337
2849,10333
2848,10332
2845,10328
2839,10320
2832,10311
2827,10304
2822,10300
2820,10297
2819,10296
2818,10295
2812,10290
2802,10281
2796,10276
2795,10275
2794,10275
2791,10272
2786,10269
2779,10264
2769,10259
2760,10255
2756,10253
2755,10253
2751,10251
2741,10248
2731,10245
2727,10244
2725,10244
2721,10243
2711,10241
2700,10239
2691,10239
2685,10238
2681,10238
2680,10238
2678,10238
2670,10239
2658,10240
2650,10241
2648,10241
2647,10241
2644,10242
2637,10243
2629,10245
2619,10248
2609,10251
2606,10253
2604,10253
2600,10255
2591,10259
2582,10264
2578,10266
2577,10267
2573,10269
2565,10275
2556,10282
2549,10288
2545,10292
2542,10295
2541,10296
2540,10297
2535,10303
2526,10313
2521,10319
2520,10320
2520,10321
2517,10324
2514,10329
2509,10336
2504,10346
2500,10355
2498,10359
2498,10360
2496,10364
2493,10373
2490,10383
2489,10387
2489,10388
2488,10393
2486,10403
2485,10414
2484,10423
2484,10430
2484,10434
2484,10435
2484,10437
2485,10445
2485,10456
2486,10464
2486,10466
2486,10467
2487,10471
2488,10477
2490,10485
2493,10496
2496,10506
2498,10510
2498,10511
2500,10515
2504,10524
2509,10533
2511,10537
2512,10538
2514,10542
2520,10550
2527,10559
2533,10566
2537,10570
2540,10573
2541,10574
2542,10575
2548,10580
2558,10588
2564,10593
2565,10594
2566,10594
2569,10597
2574,10600
2581,10605
2591,10610
2600,10615
2604,10616
2606,10617
2609,10619
2619,10622
2629,10625
2632,10626
2634,10626
2638,10627
2648,10629
2659,10630
2668,10631
2675,10631
2679,10631
2680,10631
" style="stroke:#000000;stroke-width:15;
stroke-linejoin:bevel; stroke-linecap:butt;
"/>
<!-- Line -->
<!--  spline  -->
<polyline points="2355,11052
2357,11052
2365,11051
2376,11050
2384,11049
2386,11049
2387,11049
2391,11048
2397,11048
2405,11046
2416,11043
2426,11040
2430,11038
2431,11037
2435,11036
2444,11031
2453,11026
2456,11024
2457,11023
2461,11021
2469,11015
2478,11008
2484,11002
2489,10998
2492,10995
2493,10994
2494,10993
2499,10987
2508,10977
2513,10971
2514,10970
2514,10969
2517,10966
2520,10961
2525,10954
2530,10944
2535,10935
2536,10931
2537,10930
2539,10926
2542,10917
2545,10907
2546,10903
2546,10902
2547,10897
2549,10887
2550,10876
2551,10867
2551,10860
2551,10856
2551,10855
2551,10853
2550,10845
2550,10834
2549,10826
2549,10824
2549,10823
2548,10819
2547,10813
2545,10805
2542,10794
2539,10784
2537,10780
2536,10779
2535,10775
2530,10766
2525,10757
2523,10754
2522,10753
2520,10749
2514,10741
2507,10732
2501,10726
2497,10721
2494,10718
2493,10717
2492,10716
2486,10711
2476,10702
2470,10697
2469,10696
2468,10696
2465,10693
2460,10690
2453,10685
2444,10680
2435,10675
2431,10674
2430,10673
2426,10671
2416,10668
2406,10665
2402,10664
2400,10664
2396,10663
2386,10661
2375,10660
2366,10659
2360,10659
2356,10659
2355,10659
2353,10659
2345,10660
2333,10660
2325,10661
2323,10661
2322,10661
2318,10662
2312,10663
2304,10665
2293,10668
2284,10671
2280,10673
2279,10674
2275,10675
2266,10680
2257,10685
2253,10687
2252,10688
2248,10690
2240,10696
2231,10703
2224,10709
2220,10713
2217,10716
2216,10717
2215,10718
2210,10724
2201,10734
2196,10740
2195,10741
2195,10742
2192,10745
2189,10750
2184,10757
2179,10766
2174,10775
2173,10779
2172,10780
2170,10784
2167,10794
2164,10804
2163,10808
2163,10810
2163,10814
2161,10824
2160,10835
2159,10844
2158,10850
2158,10854
2158,10855
2158,10857
2159,10865
2160,10877
2161,10885
2161,10887
2161,10888
2162,10892
2162,10898
2164,10906
2167,10917
2170,10926
2172,10930
2173,10931
2174,10935
2179,10944
2184,10953
2186,10957
2187,10958
2189,10962
2195,10970
2202,10979
2208,10986
2212,10990
2215,10993
2216,10994
2217,10995
2223,11000
2233,11009
2239,11014
2240,11015
2241,11015
2244,11018
2249,11021
2256,11026
2266,11031
2275,11036
2279,11037
2280,11038
2284,11040
2293,11043
2303,11046
2307,11047
2308,11047
2313,11047
2323,11049
2334,11050
2343,11051
2350,11052
2354,11052
2355,11052
" style="stroke:#ffffff;stroke-width:0;
stroke-linejoin:bevel; stroke-linecap:butt;
fill:#ffffff;
"/>
<!-- Line -->
<!--  spline  -->
<polyline points="2355,11052
2357,11052
2365,11051
2376,11050
2384,11049
2386,11049
2387,11049
2391,11048
2397,11048
2405,11046
2416,11043
2426,11040
2430,11038
2431,11037
2435,11036
2444,11031
2453,11026
2456,11024
2457,11023
2461,11021
2469,11015
2478,11008
2484,11002
2489,10998
2492,10995
2493,10994
2494,10993
2499,10987
2508,10977
2513,10971
2514,10970
2514,10969
2517,10966
2520,10961
2525,10954
2530,10944
2535,10935
2536,10931
2537,10930
2539,10926
2542,10917
2545,10907
2546,10903
2546,10902
2547,10897
2549,10887
2550,10876
2551,10867
2551,10860
2551,10856
2551,10855
2551,10853
2550,10845
2550,10834
2549,10826
2549,10824
2549,10823
2548,10819
2547,10813
2545,10805
2542,10794
2539,10784
2537,10780
2536,10779
2535,10775
2530,10766
2525,10757
2523,10754
2522,10753
2520,10749
2514,10741
2507,10732
2501,10726
2497,10721
2494,10718
2493,10717
2492,10716
2486,10711
2476,10702
2470,10697
2469,10696
2468,10696
2465,10693
2460,10690
2453,10685
2444,10680
2435,10675
2431,10674
2430,10673
2426,10671
2416,10668
2406,10665
2402,10664
2400,10664
2396,10663
2386,10661
2375,10660
2366,10659
2360,10659
2356,10659
2355,10659
2353,10659
2345,10660
2333,10660
2325,10661
2323,10661
2322,10661
2318,10662
2312,10663
2304,10665
2293,10668
2284,10671
2280,10673
2279,10674
2275,10675
2266,10680
2257,10685
2253,10687
2252,10688
2248,10690
2240,10696
2231,10703
2224,10709
2220,10713
2217,10716
2216,10717
2215,10718
2210,10724
2201,10734
2196,10740
2195,10741
2195,10742
2192,10745
2189,10750
2184,10757
2179,10766
2174,10775
2173,10779
2172,10780
2170,10784
2167,10794
2164,10804
2163,10808
2163,10810
2163,10814
2161,10824
2160,10835
2159,10844
2158,10850
2158,10854
2158,10855
2158,10857
2159,10865
2160,10877
2161,10885
2161,10887
2161,10888
2162,10892
2162,10898
2164,10906
2167,10917
2170,10926
2172,10930
2173,10931
2174,10935
2179,10944
2184,10953
2186,10957
2187,10958
2189,10962
2195,10970
2202,10979
2208,10986
2212,10990
2215,10993
2216,10994
2217,10995
2223,11000
2233,11009
2239,11014
2240,11015
2241,11015
2244,11018
2249,11021
2256,11026
2266,11031
2275,11036
2279,11037
2280,11038
2284,11040
2293,11043
2303,11046
2307,11047
2308,11047
2313,11047
2323,11049
2334,11050
2343,11051
2350,11052
2354,11052
2355,11052
" style="stroke:#000000;stroke-width:15;
stroke-linejoin:bevel; stroke-linecap:butt;
"/>
<!-- Line -->
<!--  polyline  -->
<polyline points="2551,11052
2551,11052
2551,11052
" style="stroke:#000000;stroke-width:7;
stroke-linejoin:miter; stroke-linecap:butt;
"/>
<!-- Line -->
<!--  polyline  -->
<polyline points="2383,11583
2383,11583
2383,11583
" style="stroke:#000000;stroke-width:7;
stroke-linejoin:miter; stroke-linecap:butt;
"/>
<!-- Line -->
<!--  spline  -->
<polyline points="2186,11583
2188,11583
2196,11582
2208,11582
2216,11581
2218,11581
2219,11581
2223,11580
2229,11579
2237,11577
2248,11574
2257,11571
2261,11569
2262,11568
2266,11567
2275,11562
2284,11557
2288,11555
2289,11554
2293,11552
2301,11546
2310,11539
2317,11533
2321,11529
2324,11526
2325,11525
2326,11524
2331,11518
2340,11508
2345,11502
2346,11501
2346,11500
2349,11497
2352,11492
2357,11485
2362,11476
2366,11467
2368,11463
2368,11462
2370,11458
2373,11448
2376,11438
2377,11434
2377,11432
2378,11428
2380,11418
2382,11407
2382,11398
2383,11392
2383,11388
2383,11387
2383,11385
2382,11377
2381,11365
2380,11357
2380,11355
2380,11354
2379,11350
2378,11344
2376,11336
2373,11325
2370,11316
2368,11312
2368,11311
2366,11307
2362,11298
2357,11289
2355,11285
2354,11284
2352,11280
2346,11272
2339,11263
2333,11256
2329,11252
2326,11249
2325,11248
2324,11247
2318,11242
2308,11233
2302,11228
2301,11227
2300,11227
2297,11224
2292,11221
2285,11216
2275,11211
2266,11206
2262,11205
2261,11204
2257,11202
2248,11199
2238,11196
2234,11195
2233,11195
2228,11194
2218,11192
2207,11191
2198,11190
2191,11190
2187,11190
2186,11190
2184,11190
2176,11191
2165,11191
2157,11192
2155,11192
2154,11192
2150,11193
2144,11194
2136,11196
2125,11199
2115,11202
2111,11204
2110,11205
2106,11206
2097,11211
2088,11216
2084,11218
2083,11219
2079,11221
2071,11227
2062,11234
2055,11240
2051,11244
2048,11247
2047,11248
2046,11249
2041,11255
2033,11265
2028,11271
2027,11272
2027,11273
2024,11276
2021,11281
2016,11288
2011,11298
2006,11307
2005,11311
2004,11312
2002,11316
1999,11325
1996,11335
1995,11339
1995,11340
1994,11345
1992,11355
1991,11366
1990,11375
1990,11382
1990,11386
1990,11387
1990,11389
1991,11397
1991,11408
1992,11416
1992,11418
1992,11419
1993,11423
1994,11429
1996,11437
1999,11448
2002,11458
2004,11462
2005,11463
2006,11467
2011,11476
2016,11485
2018,11488
2019,11489
2021,11493
2027,11501
2034,11510
2039,11516
2044,11521
2046,11524
2047,11525
2048,11526
2054,11531
2064,11540
2070,11545
2071,11546
2072,11546
2075,11549
2080,11552
2087,11557
2097,11562
2106,11567
2110,11568
2111,11569
2115,11571
2125,11574
2135,11577
2139,11578
2141,11578
2145,11579
2155,11581
2166,11582
2175,11583
2181,11583
2185,11583
2186,11583
" style="stroke:#ffffff;stroke-width:0;
stroke-linejoin:bevel; stroke-linecap:butt;
fill:#ffffff;
"/>
<!-- Line -->
<!--  spline  -->
<polyline points="2186,11583
2188,11583
2196,11582
2208,11582
2216,11581
2218,11581
2219,11581
2223,11580
2229,11579
2237,11577
2248,11574
2257,11571
2261,11569
2262,11568
2266,11567
2275,11562
2284,11557
2288,11555
2289,11554
2293,11552
2301,11546
2310,11539
2317,11533
2321,11529
2324,11526
2325,11525
2326,11524
2331,11518
2340,11508
2345,11502
2346,11501
2346,11500
2349,11497
2352,11492
2357,11485
2362,11476
2366,11467
2368,11463
2368,11462
2370,11458
2373,11448
2376,11438
2377,11434
2377,11432
2378,11428
2380,11418
2382,11407
2382,11398
2383,11392
2383,11388
2383,11387
2383,11385
2382,11377
2381,11365
2380,11357
2380,11355
2380,11354
2379,11350
2378,11344
2376,11336
2373,11325
2370,11316
2368,11312
2368,11311
2366,11307
2362,11298
2357,11289
2355,11285
2354,11284
2352,11280
2346,11272
2339,11263
2333,11256
2329,11252
2326,11249
2325,11248
2324,11247
2318,11242
2308,11233
2302,11228
2301,11227
2300,11227
2297,11224
2292,11221
2285,11216
2275,11211
2266,11206
2262,11205
2261,11204
2257,11202
2248,11199
2238,11196
2234,11195
2233,11195
2228,11194
2218,11192
2207,11191
2198,11190
2191,11190
2187,11190
2186,11190
2184,11190
2176,11191
2165,11191
2157,11192
2155,11192
2154,11192
2150,11193
2144,11194
2136,11196
2125,11199
2115,11202
2111,11204
2110,11205
2106,11206
2097,11211
2088,11216
2084,11218
2083,11219
2079,11221
2071,11227
2062,11234
2055,11240
2051,11244
2048,11247
2047,11248
2046,11249
2041,11255
2033,11265
2028,11271
2027,11272
2027,11273
2024,11276
2021,11281
2016,11288
2011,11298
2006,11307
2005,11311
2004,11312
2002,11316
1999,11325
1996,11335
1995,11339
1995,11340
1994,11345
1992,11355
1991,11366
1990,11375
1990,11382
1990,11386
1990,11387
1990,11389
1991,11397
1991,11408
1992,11416
1992,11418
1992,11419
1993,11423
1994,11429
1996,11437
1999,11448
2002,11458
2004,11462
2005,11463
2006,11467
2011,11476
2016,11485
2018,11488
2019,11489
2021,11493
2027,11501
2034,11510
2039,11516
2044,11521
2046,11524
2047,11525
2048,11526
2054,11531
2064,11540
2070,11545
2071,11546
2072,11546
2075,11549
2080,11552
2087,11557
2097,11562
2106,11567
2110,11568
2111,11569
2115,11571
2125,11574
2135,11577
2139,11578
2141,11578
2145,11579
2155,11581
2166,11582
2175,11583
2181,11583
2185,11583
2186,11583
" style="stroke:#000000;stroke-width:15;
stroke-linejoin:bevel; stroke-linecap:butt;
"/>
<!-- Line -->
<!--  polyline  -->
<polyline points="2743,12416
2743,12416
2743,12416
" style="stroke:#000000;stroke-width:7;
stroke-linejoin:miter; stroke-linecap:butt;
"/>
<!-- Line -->
<!--  spline  -->
<polyline points="2547,12416
2549,12416
2557,12415
2568,12414
2576,12413
2578,12413
2579,12413
2583,12412
2589,12411
2597,12409
2608,12406
2618,12403
2622,12401
2623,12401
2627,12399
2636,12395
2645,12390
2649,12388
2650,12387
2654,12385
2662,12379
2671,12372
2678,12366
2682,12362
2685,12359
2686,12358
2687,12357
2692,12351
2700,12341
2705,12335
2706,12334
2706,12333
2709,12330
2712,12325
2717,12318
2722,12308
2727,12299
2728,12295
2729,12294
2731,12290
2734,12281
2737,12271
2738,12267
2738,12266
2739,12261
2741,12251
2742,12240
2743,12231
2743,12224
2743,12220
2743,12219
2743,12217
2742,12209
2742,12198
2741,12190
2741,12188
2741,12187
2740,12183
2739,12177
2737,12169
2734,12158
2731,12148
2729,12144
2728,12143
2727,12139
2722,12130
2717,12121
2715,12117
2714,12116
2712,12112
2706,12104
2699,12095
2694,12088
2689,12084
2687,12081
2686,12080
2685,12079
2679,12074
2669,12066
2663,12061
2662,12060
2661,12060
2658,12057
2653,12054
2646,12049
2636,12044
2627,12039
2623,12038
2622,12037
2618,12035
2608,12032
2598,12029
2594,12028
2592,12028
2588,12027
2578,12025
2567,12024
2558,12023
2552,12023
2548,12023
2547,12023
2545,12023
2537,12024
2525,12024
2517,12025
2515,12025
2514,12025
2510,12026
2504,12027
2496,12029
2485,12032
2476,12035
2472,12037
2471,12038
2467,12039
2458,12044
2449,12049
2445,12051
2444,12052
2440,12054
2432,12060
2423,12067
2416,12072
2412,12077
2409,12079
2408,12080
2407,12081
2402,12087
2393,12097
2388,12103
2387,12104
2387,12105
2384,12108
2381,12113
2376,12120
2371,12130
2367,12139
2365,12143
2365,12144
2363,12148
2360,12158
2357,12168
2356,12172
2356,12174
2355,12178
2353,12188
2351,12199
2351,12208
2350,12214
2350,12218
2350,12219
2350,12221
2351,12229
2352,12241
2353,12249
2353,12251
2353,12252
2354,12256
2355,12262
2357,12270
2360,12281
2363,12290
2365,12294
2365,12295
2367,12299
2371,12308
2376,12317
2378,12321
2379,12322
2381,12326
2387,12334
2394,12343
2400,12350
2404,12354
2407,12357
2408,12358
2409,12359
2415,12364
2425,12373
2431,12378
2432,12379
2433,12379
2436,12382
2441,12385
2448,12390
2458,12395
2467,12399
2471,12401
2472,12401
2476,12403
2485,12406
2495,12409
2499,12410
2500,12410
2505,12411
2515,12413
2526,12415
2535,12415
2542,12416
2546,12416
2547,12416
" style="stroke:#ffffff;stroke-width:0;
stroke-linejoin:bevel; stroke-linecap:butt;
fill:#ffffff;
"/>
<!-- Line -->
<!--  spline  -->
<polyline points="2547,12416
2549,12416
2557,12415
2568,12414
2576,12413
2578,12413
2579,12413
2583,12412
2589,12411
2597,12409
2608,12406
2618,12403
2622,12401
2623,12401
2627,12399
2636,12395
2645,12390
2649,12388
2650,12387
2654,12385
2662,12379
2671,12372
2678,12366
2682,12362
2685,12359
2686,12358
2687,12357
2692,12351
2700,12341
2705,12335
2706,12334
2706,12333
2709,12330
2712,12325
2717,12318
2722,12308
2727,12299
2728,12295
2729,12294
2731,12290
2734,12281
2737,12271
2738,12267
2738,12266
2739,12261
2741,12251
2742,12240
2743,12231
2743,12224
2743,12220
2743,12219
2743,12217
2742,12209
2742,12198
2741,12190
2741,12188
2741,12187
2740,12183
2739,12177
2737,12169
2734,12158
2731,12148
2729,12144
2728,12143
2727,12139
2722,12130
2717,12121
2715,12117
2714,12116
2712,12112
2706,12104
2699,12095
2694,12088
2689,12084
2687,12081
2686,12080
2685,12079
2679,12074
2669,12066
2663,12061
2662,12060
2661,12060
2658,12057
2653,12054
2646,12049
2636,12044
2627,12039
2623,12038
2622,12037
2618,12035
2608,12032
2598,12029
2594,12028
2592,12028
2588,12027
2578,12025
2567,12024
2558,12023
2552,12023
2548,12023
2547,12023
2545,12023
2537,12024
2525,12024
2517,12025
2515,12025
2514,12025
2510,12026
2504,12027
2496,12029
2485,12032
2476,12035
2472,12037
2471,12038
2467,12039
2458,12044
2449,12049
2445,12051
2444,12052
2440,12054
2432,12060
2423,12067
2416,12072
2412,12077
2409,12079
2408,12080
2407,12081
2402,12087
2393,12097
2388,12103
2387,12104
2387,12105
2384,12108
2381,12113
2376,12120
2371,12130
2367,12139
2365,12143
2365,12144
2363,12148
2360,12158
2357,12168
2356,12172
2356,12174
2355,12178
2353,12188
2351,12199
2351,12208
2350,12214
2350,12218
2350,12219
2350,12221
2351,12229
2352,12241
2353,12249
2353,12251
2353,12252
2354,12256
2355,12262
2357,12270
2360,12281
2363,12290
2365,12294
2365,12295
2367,12299
2371,12308
2376,12317
2378,12321
2379,12322
2381,12326
2387,12334
2394,12343
2400,12350
2404,12354
2407,12357
2408,12358
2409,12359
2415,12364
2425,12373
2431,12378
2432,12379
2433,12379
2436,12382
2441,12385
2448,12390
2458,12395
2467,12399
2471,12401
2472,12401
2476,12403
2485,12406
2495,12409
2499,12410
2500,12410
2505,12411
2515,12413
2526,12415
2535,12415
2542,12416
2546,12416
2547,12416
" style="stroke:#000000;stroke-width:15;
stroke-linejoin:bevel; stroke-linecap:butt;
"/>
<!-- Line -->
<!--  spline  -->
<polyline points="2214,12700
2217,12700
2220,12700
2223,12700
2224,12700
2226,12700
2229,12700
2232,12700
2235,12700
2236,12700
2237,12700
2240,12700
2242,12700
2243,12700
2244,12699
2245,12699
2247,12699
2250,12699
2251,12699
2253,12699
2254,12699
2256,12699
2258,12699
2260,12699
2261,12699
2262,12699
2263,12699
2265,12699
2266,12699
2267,12699
2268,12699
2269,12699
2270,12699
2270,12698
2269,12698
2268,12698
2267,12698
2266,12698
2265,12698
2264,12698
2263,12698
2262,12698
2260,12698
2258,12698
2256,12698
2255,12698
2254,12698
2252,12698
2249,12698
2247,12698
2246,12698
2245,12698
2243,12698
2240,12698
2237,12698
2236,12698
2235,12698
2232,12698
2229,12698
2228,12698
2227,12698
2226,12698
2223,12698
2220,12698
2217,12698
2215,12698
2214,12698
2211,12698
2208,12698
2205,12698
2204,12698
2202,12698
2200,12698
2197,12698
2194,12698
2193,12698
2192,12698
2189,12698
2187,12698
2186,12698
2185,12698
2184,12698
2182,12698
2179,12698
2178,12698
2176,12698
2175,12698
2173,12698
2171,12698
2169,12698
2168,12698
2167,12698
2166,12698
2164,12698
2163,12698
2162,12698
2161,12698
2160,12698
2159,12698
2158,12698
2158,12699
2159,12699
2160,12699
2161,12699
2162,12699
2163,12699
2164,12699
2165,12699
2166,12699
2167,12699
2169,12699
2171,12699
2173,12699
2174,12699
2175,12699
2177,12699
2180,12699
2182,12699
2183,12699
2184,12699
2186,12700
2189,12700
2192,12700
2193,12700
2194,12700
2197,12700
2200,12700
2201,12700
2202,12700
2205,12700
2208,12700
2211,12700
2213,12700
2214,12700
" style="stroke:#ffffff;stroke-width:0;
stroke-linejoin:bevel; stroke-linecap:butt;
fill:#ffffff;
"/>
<!-- Line -->
<!--  spline  -->
<polyline points="2214,12700
2217,12700
2220,12700
2223,12700
2224,12700
2226,12700
2229,12700
2232,12700
2235,12700
2236,12700
2237,12700
2240,12700
2242,12700
2243,12700
2244,12699
2245,12699
2247,12699
2250,12699
2251,12699
2253,12699
2254,12699
2256,12699
2258,12699
2260,12699
2261,12699
2262,12699
2263,12699
2265,12699
2266,12699
2267,12699
2268,12699
2269,12699
2270,12699
2270,12698
2269,12698
2268,12698
2267,12698
2266,12698
2265,12698
2264,12698
2263,12698
2262,12698
2260,12698
2258,12698
2256,12698
2255,12698
2254,12698
2252,12698
2249,12698
2247,12698
2246,12698
2245,12698
2243,12698
2240,12698
2237,12698
2236,12698
2235,12698
2232,12698
2229,12698
2228,12698
2227,12698
2226,12698
2223,12698
2220,12698
2217,12698
2215,12698
2214,12698
2211,12698
2208,12698
2205,12698
2204,12698
2202,12698
2200,12698
2197,12698
2194,12698
2193,12698
2192,12698
2189,12698
2187,12698
2186,12698
2185,12698
2184,12698
2182,12698
2179,12698
2178,12698
2176,12698
2175,12698
2173,12698
2171,12698
2169,12698
2168,12698
2167,12698
2166,12698
2164,12698
2163,12698
2162,12698
2161,12698
2160,12698
2159,12698
2158,12698
2158,12699
2159,12699
2160,12699
2161,12699
2162,12699
2163,12699
2164,12699
2165,12699
2166,12699
2167,12699
2169,12699
2171,12699
2173,12699
2174,12699
2175,12699
2177,12699
2180,12699
2182,12699
2183,12699
2184,12699
2186,12700
2189,12700
2192,12700
2193,12700
2194,12700
2197,12700
2200,12700
2201,12700
2202,12700
2205,12700
2208,12700
2211,12700
2213,12700
2214,12700
" style="stroke:#000000;stroke-width:0;
stroke-linejoin:bevel; stroke-linecap:butt;
"/>
<!-- Text -->
<!--  text  -->
<text xml:space="preserve" x="2258" y="13090" stroke="#000000" fill="#000000"  font-family="Times" font-style="normal" font-weight="normal" font-size="156" text-anchor="start">F</text>
<!-- Text -->
<!--  text  -->
<text xml:space="preserve" x="2369" y="13090" stroke="#000000" fill="#000000"  font-family="Times" font-style="normal" font-weight="normal" font-size="156" text-anchor="start">i</text>
<!-- Text -->
<!--  text  -->
<text xml:space="preserve" x="2424" y="13090" stroke="#000000" fill="#000000"  font-family="Times" font-style="normal" font-weight="normal" font-size="156" text-anchor="start">g</text>
<!-- Text -->
<!--  text  -->
<text xml:space="preserve" x="2524" y="13090" stroke="#000000" fill="#000000"  font-family="Times" font-style="normal" font-weight="normal" font-size="156" text-anchor="start">u</text>
<!-- Text -->
<!--  text  -->
<text xml:space="preserve" x="2624" y="13090" stroke="#000000" fill="#000000"  font-family="Times" font-style="normal" font-weight="normal" font-size="156" text-anchor="start">r</text>
<!-- Text -->
<!--  text  -->
<text xml:space="preserve" x="2691" y="13090" stroke="#000000" fill="#000000"  font-family="Times" font-style="normal" font-weight="normal" font-size="156" text-anchor="start">e</text>
<!-- Text -->
<!--  text  -->
<text xml:space="preserve" x="2850" y="13090" stroke="#000000" fill="#000000"  font-family="Times" font-style="normal" font-weight="normal" font-size="156" text-anchor="start">6</text>
<!-- Text -->
<!--  text  -->
<text xml:space="preserve" x="2950" y="13090" stroke="#000000" fill="#000000"  font-family="Times" font-style="normal" font-weight="normal" font-size="156" text-anchor="start">-</text>
<!-- Text -->
<!--  text  -->
<text xml:space="preserve" x="3016" y="13090" stroke="#000000" fill="#000000"  font-family="Times" font-style="normal" font-weight="normal" font-size="156" text-anchor="start">7</text>
<!-- Text -->
<!--  text  -->
<text xml:space="preserve" x="3116" y="13090" stroke="#000000" fill="#000000"  font-family="Times" font-style="normal" font-weight="normal" font-size="156" text-anchor="start">:</text>
<!-- Text -->
<!--  text  -->
<text xml:space="preserve" x="3242" y="13090" stroke="#000000" fill="#000000"  font-family="Times" font-style="normal" font-weight="normal" font-size="156" text-anchor="start">A</text>
<!-- Text -->
<!--  text  -->
<text xml:space="preserve" x="3456" y="13090" stroke="#000000" fill="#000000"  font-family="Times" font-style="normal" font-weight="normal" font-size="156" text-anchor="start">H</text>
<!-- Text -->
<!--  text  -->
<text xml:space="preserve" x="3600" y="13090" stroke="#000000" fill="#000000"  font-family="Times" font-style="normal" font-weight="normal" font-size="156" text-anchor="start">o</text>
<!-- Text -->
<!--  text  -->
<text xml:space="preserve" x="3700" y="13090" stroke="#000000" fill="#000000"  font-family="Times" font-style="normal" font-weight="normal" font-size="156" text-anchor="start">p</text>
<!-- Text -->
<!--  text  -->
<text xml:space="preserve" x="3800" y="13090" stroke="#000000" fill="#000000"  font-family="Times" font-style="normal" font-weight="normal" font-size="156" text-anchor="start">f</text>
<!-- Text -->
<!--  text  -->
<text xml:space="preserve" x="3867" y="13090" stroke="#000000" fill="#000000"  font-family="Times" font-style="normal" font-weight="normal" font-size="156" text-anchor="start">i</text>
<!-- Text -->
<!--  text  -->
<text xml:space="preserve" x="3922" y="13090" stroke="#000000" fill="#000000"  font-family="Times" font-style="normal" font-weight="normal" font-size="156" text-anchor="start">e</text>
<!-- Text -->
<!--  text  -->
<text xml:space="preserve" x="4011" y="13090" stroke="#000000" fill="#000000"  font-family="Times" font-style="normal" font-weight="normal" font-size="156" text-anchor="start">l</text>
<!-- Text -->
<!--  text  -->
<text xml:space="preserve" x="4067" y="13090" stroke="#000000" fill="#000000"  font-family="Times" font-style="normal" font-weight="normal" font-size="156" text-anchor="start">d</text>
<!-- Text -->
<!--  text  -->
<text xml:space="preserve" x="4237" y="13090" stroke="#000000" fill="#000000"  font-family="Times" font-style="normal" font-weight="normal" font-size="156" text-anchor="start">p</text>
<!-- Text -->
<!--  text  -->
<text xml:space="preserve" x="4337" y="13090" stroke="#000000" fill="#000000"  font-family="Times" font-style="normal" font-weight="normal" font-size="156" text-anchor="start">r</text>
<!-- Text -->
<!--  text  -->
<text xml:space="preserve" x="4403" y="13090" stroke="#000000" fill="#000000"  font-family="Times" font-style="normal" font-weight="normal" font-size="156" text-anchor="start">o</text>
<!-- Text -->
<!--  text  -->
<text xml:space="preserve" x="4503" y="13090" stroke="#000000" fill="#000000"  font-family="Times" font-style="normal" font-weight="normal" font-size="156" text-anchor="start">c</text>
<!-- Text -->
<!--  text  -->
<text xml:space="preserve" x="4592" y="13090" stroke="#000000" fill="#000000"  font-family="Times" font-style="normal" font-weight="normal" font-size="156" text-anchor="start">e</text>
<!-- Text -->
<!--  text  -->
<text xml:space="preserve" x="4681" y="13090" stroke="#000000" fill="#000000"  font-family="Times" font-style="normal" font-weight="normal" font-size="156" text-anchor="start">s</text>
<!-- Text -->
<!--  text  -->
<text xml:space="preserve" x="4759" y="13090" stroke="#000000" fill="#000000"  font-family="Times" font-style="normal" font-weight="normal" font-size="156" text-anchor="start">s</text>
<!-- Text -->
<!--  text  -->
<text xml:space="preserve" x="4836" y="13090" stroke="#000000" fill="#000000"  font-family="Times" font-style="normal" font-weight="normal" font-size="156" text-anchor="start">i</text>
<!-- Text -->
<!--  text  -->
<text xml:space="preserve" x="4892" y="13090" stroke="#000000" fill="#000000"  font-family="Times" font-style="normal" font-weight="normal" font-size="156" text-anchor="start">n</text>
<!-- Text -->
<!--  text  -->
<text xml:space="preserve" x="4992" y="13090" stroke="#000000" fill="#000000"  font-family="Times" font-style="normal" font-weight="normal" font-size="156" text-anchor="start">g</text>
<!-- Text -->
<!--  text  -->
<text xml:space="preserve" x="5162" y="13090" stroke="#000000" fill="#000000"  font-family="Times" font-style="normal" font-weight="normal" font-size="156" text-anchor="start">u</text>
<!-- Text -->
<!--  text  -->
<text xml:space="preserve" x="5262" y="13090" stroke="#000000" fill="#000000"  font-family="Times" font-style="normal" font-weight="normal" font-size="156" text-anchor="start">n</text>
<!-- Text -->
<!--  text  -->
<text xml:space="preserve" x="5362" y="13090" stroke="#000000" fill="#000000"  font-family="Times" font-style="normal" font-weight="normal" font-size="156" text-anchor="start">i</text>
<!-- Text -->
<!--  text  -->
<text xml:space="preserve" x="5417" y="13090" stroke="#000000" fill="#000000"  font-family="Times" font-style="normal" font-weight="normal" font-size="156" text-anchor="start">t</text>
<!-- Text -->
<!--  text  -->
<g transform="translate(2261,11643) rotate(-294.77647235)" >
<text xml:space="preserve" x="0" y="0" stroke="#000000" fill="#000000"  font-family="Times" font-style="normal" font-weight="normal" font-size="156" text-anchor="start">.</text>
</g><!-- Text -->
<!--  text  -->
<g transform="translate(2311,11752) rotate(-294.77647235)" >
<text xml:space="preserve" x="0" y="0" stroke="#000000" fill="#000000"  font-family="Times" font-style="normal" font-weight="normal" font-size="156" text-anchor="start">.</text>
</g><!-- Text -->
<!--  text  -->
<g transform="translate(2362,11861) rotate(-294.77647235)" >
<text xml:space="preserve" x="0" y="0" stroke="#000000" fill="#000000"  font-family="Times" font-style="normal" font-weight="normal" font-size="156" text-anchor="start">.</text>
</g></g>
</svg>
