<?xml version="1.0" standalone="no"?>
<!DOCTYPE svg PUBLIC "-//W3C//DTD SVG 1.1//EN"
"http://www.w3.org/Graphics/SVG/1.1/DTD/svg11.dtd">
<!-- Creator: fig2dev Version 3.2 Patchlevel 5 -->
<!-- CreationDate: Sat Jul  4 12:13:17 2015 -->
<!-- Magnification: 1.000 -->
<svg xmlns="http://www.w3.org/2000/svg" width="6.0in" height="4.0in" viewBox="111 8318 7243 4856">
<g style="stroke-width:.025in; stroke:black; fill:none">
<!-- Line -->
<!--  polyline  -->
<polyline points="133,8340
7332,8340
7332,12870
133,12870
133,8340
" style="stroke:#000000;stroke-width:15;
stroke-linejoin:miter; stroke-linecap:butt;
"/>
<!-- Line -->
<!--  polyline  -->
<polyline points="4991,10702
2624,11781
" style="stroke:#000000;stroke-width:7;
stroke-linejoin:miter; stroke-linecap:butt;
"/>
<!-- Line -->
<!--  polyline  -->
<polyline points="4991,10056
2624,11781
" style="stroke:#000000;stroke-width:7;
stroke-linejoin:miter; stroke-linecap:butt;
"/>
<!-- Line -->
<!--  polyline  -->
<polyline points="2624,11781
2624,11781
" style="stroke:#000000;stroke-width:7;
stroke-linejoin:miter; stroke-linecap:butt;
"/>
<!-- Line -->
<!--  polyline  -->
<polyline points="4991,10702
2624,11198
" style="stroke:#000000;stroke-width:7;
stroke-linejoin:miter; stroke-linecap:butt;
"/>
<!-- Line -->
<!--  polyline  -->
<polyline points="4991,10056
2624,11198
" style="stroke:#000000;stroke-width:7;
stroke-linejoin:miter; stroke-linecap:butt;
"/>
<!-- Line -->
<!--  polyline  -->
<polyline points="4991,10702
2624,10619
" style="stroke:#000000;stroke-width:7;
stroke-linejoin:miter; stroke-linecap:butt;
"/>
<!-- Line -->
<!--  polyline  -->
<polyline points="4991,10056
2624,10619
" style="stroke:#000000;stroke-width:7;
stroke-linejoin:miter; stroke-linecap:butt;
"/>
<!-- Line -->
<!--  polyline  -->
<polyline points="4991,10702
2624,10056
" style="stroke:#000000;stroke-width:7;
stroke-linejoin:miter; stroke-linecap:butt;
"/>
<!-- Line -->
<!--  polyline  -->
<polyline points="4991,10056
2624,10056
" style="stroke:#000000;stroke-width:7;
stroke-linejoin:miter; stroke-linecap:butt;
"/>
<!-- Line -->
<!--  polyline  -->
<polyline points="4991,10702
2624,9531
" style="stroke:#000000;stroke-width:7;
stroke-linejoin:miter; stroke-linecap:butt;
"/>
<!-- Line -->
<!--  polyline  -->
<polyline points="4991,10056
2624,9531
" style="stroke:#000000;stroke-width:7;
stroke-linejoin:miter; stroke-linecap:butt;
"/>
<!-- Line -->
<!--  polyline  -->
<polyline points="4991,10702
2624,8965
" style="stroke:#000000;stroke-width:7;
stroke-linejoin:miter; stroke-linecap:butt;
"/>
<!-- Line -->
<!--  polyline  -->
<polyline points="4991,10056
2624,8965
" style="stroke:#000000;stroke-width:7;
stroke-linejoin:miter; stroke-linecap:butt;
"/>
<!-- Line -->
<!--  spline  -->
<polyline points="4991,10290
4992,10290
4998,10289
5010,10288
5021,10288
5027,10287
5028,10287
5029,10287
5032,10286
5037,10286
5044,10284
5053,10282
5064,10279
5075,10275
5080,10273
5082,10273
5086,10270
5097,10265
5107,10259
5112,10257
5113,10256
5117,10253
5127,10246
5136,10239
5143,10233
5149,10228
5153,10224
5156,10221
5157,10220
5161,10216
5169,10207
5176,10198
5180,10194
5181,10193
5183,10190
5186,10185
5190,10179
5195,10172
5200,10162
5205,10151
5207,10147
5208,10145
5209,10140
5213,10129
5216,10119
5218,10114
5218,10112
5219,10110
5220,10105
5222,10094
5223,10083
5224,10073
5224,10066
5224,10060
5224,10057
5224,10056
5224,10055
5224,10049
5223,10037
5222,10026
5222,10020
5222,10019
5222,10018
5221,10015
5220,10010
5218,10003
5216,9995
5213,9984
5209,9973
5208,9968
5207,9966
5205,9962
5200,9951
5195,9942
5192,9937
5191,9935
5190,9934
5187,9929
5181,9920
5174,9911
5168,9904
5163,9898
5159,9894
5156,9891
5155,9890
5150,9886
5141,9879
5133,9872
5128,9868
5127,9867
5126,9866
5123,9864
5116,9860
5108,9854
5097,9848
5086,9843
5082,9840
5080,9840
5075,9838
5064,9834
5054,9831
5048,9830
5046,9829
5044,9829
5039,9828
5028,9826
5017,9825
5008,9824
5000,9823
4995,9823
4992,9823
4991,9823
4990,9823
4984,9824
4972,9825
4960,9825
4954,9826
4953,9826
4952,9826
4948,9827
4940,9828
4931,9830
4918,9834
4907,9838
4902,9840
4900,9840
4896,9843
4885,9848
4876,9853
4871,9856
4869,9857
4867,9858
4863,9861
4854,9867
4845,9874
4838,9880
4833,9885
4829,9888
4826,9891
4825,9892
4821,9897
4813,9906
4806,9914
4802,9919
4801,9920
4799,9923
4796,9928
4792,9934
4787,9941
4782,9951
4777,9962
4775,9966
4774,9968
4773,9973
4769,9984
4766,9994
4764,9999
4764,10001
4763,10003
4762,10009
4760,10019
4759,10030
4758,10039
4758,10047
4758,10052
4758,10055
4758,10056
4758,10057
4758,10063
4759,10075
4760,10087
4760,10093
4760,10094
4760,10095
4761,10098
4762,10103
4764,10110
4766,10118
4769,10129
4773,10140
4774,10145
4775,10147
4777,10151
4782,10162
4787,10171
4790,10176
4791,10178
4792,10180
4795,10184
4801,10193
4808,10202
4814,10209
4819,10214
4823,10218
4826,10221
4827,10222
4831,10226
4840,10234
4849,10241
4853,10245
4854,10246
4857,10248
4862,10251
4868,10255
4875,10260
4885,10265
4896,10270
4900,10273
4902,10273
4907,10275
4918,10279
4929,10282
4934,10284
4936,10284
4941,10285
4953,10287
4964,10288
4974,10289
4981,10290
4987,10290
4990,10290
4991,10290
" style="stroke:#ffffff;stroke-width:0;
stroke-linejoin:bevel; stroke-linecap:butt;
fill:#ffffff;
"/>
<!-- Line -->
<!--  spline  -->
<polyline points="4991,10290
4992,10290
4998,10289
5010,10288
5021,10288
5027,10287
5028,10287
5029,10287
5032,10286
5037,10286
5044,10284
5053,10282
5064,10279
5075,10275
5080,10273
5082,10273
5086,10270
5097,10265
5107,10259
5112,10257
5113,10256
5117,10253
5127,10246
5136,10239
5143,10233
5149,10228
5153,10224
5156,10221
5157,10220
5161,10216
5169,10207
5176,10198
5180,10194
5181,10193
5183,10190
5186,10185
5190,10179
5195,10172
5200,10162
5205,10151
5207,10147
5208,10145
5209,10140
5213,10129
5216,10119
5218,10114
5218,10112
5219,10110
5220,10105
5222,10094
5223,10083
5224,10073
5224,10066
5224,10060
5224,10057
5224,10056
5224,10055
5224,10049
5223,10037
5222,10026
5222,10020
5222,10019
5222,10018
5221,10015
5220,10010
5218,10003
5216,9995
5213,9984
5209,9973
5208,9968
5207,9966
5205,9962
5200,9951
5195,9942
5192,9937
5191,9935
5190,9934
5187,9929
5181,9920
5174,9911
5168,9904
5163,9898
5159,9894
5156,9891
5155,9890
5150,9886
5141,9879
5133,9872
5128,9868
5127,9867
5126,9866
5123,9864
5116,9860
5108,9854
5097,9848
5086,9843
5082,9840
5080,9840
5075,9838
5064,9834
5054,9831
5048,9830
5046,9829
5044,9829
5039,9828
5028,9826
5017,9825
5008,9824
5000,9823
4995,9823
4992,9823
4991,9823
4990,9823
4984,9824
4972,9825
4960,9825
4954,9826
4953,9826
4952,9826
4948,9827
4940,9828
4931,9830
4918,9834
4907,9838
4902,9840
4900,9840
4896,9843
4885,9848
4876,9853
4871,9856
4869,9857
4867,9858
4863,9861
4854,9867
4845,9874
4838,9880
4833,9885
4829,9888
4826,9891
4825,9892
4821,9897
4813,9906
4806,9914
4802,9919
4801,9920
4799,9923
4796,9928
4792,9934
4787,9941
4782,9951
4777,9962
4775,9966
4774,9968
4773,9973
4769,9984
4766,9994
4764,9999
4764,10001
4763,10003
4762,10009
4760,10019
4759,10030
4758,10039
4758,10047
4758,10052
4758,10055
4758,10056
4758,10057
4758,10063
4759,10075
4760,10087
4760,10093
4760,10094
4760,10095
4761,10098
4762,10103
4764,10110
4766,10118
4769,10129
4773,10140
4774,10145
4775,10147
4777,10151
4782,10162
4787,10171
4790,10176
4791,10178
4792,10180
4795,10184
4801,10193
4808,10202
4814,10209
4819,10214
4823,10218
4826,10221
4827,10222
4831,10226
4840,10234
4849,10241
4853,10245
4854,10246
4857,10248
4862,10251
4868,10255
4875,10260
4885,10265
4896,10270
4900,10273
4902,10273
4907,10275
4918,10279
4929,10282
4934,10284
4936,10284
4941,10285
4953,10287
4964,10288
4974,10289
4981,10290
4987,10290
4990,10290
4991,10290
" style="stroke:#000000;stroke-width:15;
stroke-linejoin:bevel; stroke-linecap:butt;
"/>
<!-- Line -->
<!--  polyline  -->
<polyline points="5612,10042
5208,10042
" style="stroke:#000000;stroke-width:7;
stroke-linejoin:miter; stroke-linecap:butt;
"/>
<!-- Line -->
<!--  spline  -->
<polyline points="5673,10042
5672,10042
5667,10039
5654,10034
5633,10026
5608,10016
5584,10007
5563,9999
5550,9994
5545,9991
5544,9991
5544,9992
5543,9995
5542,10000
5541,10003
5541,10004
5540,10006
5540,10008
5539,10011
5538,10015
5537,10018
5537,10020
5537,10022
5536,10025
5536,10028
5535,10030
5535,10031
5535,10032
5535,10035
5535,10038
5535,10040
5535,10041
5535,10042
5535,10044
5535,10048
5535,10050
5535,10051
5535,10053
5536,10055
5536,10059
5537,10062
5537,10064
5537,10065
5537,10066
5538,10070
5539,10074
5539,10075
5540,10076
5540,10077
5541,10081
5542,10085
5543,10089
5544,10092
5544,10094
5545,10094
5550,10091
5563,10086
5584,10078
5609,10068
5633,10058
5654,10050
5667,10045
5672,10042
5673,10042
" style="stroke:#000000;stroke-width:0;
stroke-linejoin:bevel; stroke-linecap:butt;
fill:#000000;
"/>
<!-- Line -->
<!--  spline  -->
<polyline points="4991,10936
4992,10936
4998,10935
5010,10934
5021,10934
5027,10933
5028,10933
5029,10933
5032,10932
5037,10932
5044,10930
5053,10928
5064,10925
5075,10921
5080,10919
5082,10919
5086,10916
5097,10911
5107,10905
5112,10903
5113,10902
5117,10899
5127,10892
5136,10885
5143,10879
5149,10874
5153,10870
5156,10867
5157,10866
5161,10862
5169,10853
5176,10844
5180,10840
5181,10839
5183,10836
5186,10831
5190,10825
5195,10818
5200,10808
5205,10797
5207,10793
5208,10791
5209,10786
5213,10775
5216,10765
5218,10760
5218,10758
5219,10756
5220,10751
5222,10740
5223,10729
5224,10719
5224,10712
5224,10706
5224,10703
5224,10702
5224,10701
5224,10695
5223,10683
5222,10672
5222,10666
5222,10665
5222,10664
5221,10661
5220,10656
5218,10649
5216,10640
5213,10629
5209,10618
5208,10613
5207,10611
5205,10607
5200,10596
5194,10586
5192,10581
5191,10580
5188,10576
5181,10566
5174,10557
5168,10550
5163,10544
5159,10540
5156,10537
5155,10536
5150,10532
5141,10525
5133,10518
5128,10514
5127,10513
5124,10511
5120,10507
5114,10503
5107,10498
5097,10493
5086,10488
5082,10486
5080,10485
5075,10484
5064,10480
5054,10477
5048,10476
5046,10475
5044,10475
5039,10474
5028,10472
5017,10471
5008,10470
5000,10469
4995,10469
4992,10469
4991,10469
4990,10469
4984,10470
4972,10471
4960,10471
4954,10472
4953,10472
4952,10472
4948,10473
4940,10474
4931,10476
4918,10480
4907,10484
4902,10485
4900,10486
4896,10488
4885,10493
4876,10498
4871,10501
4869,10502
4867,10503
4863,10507
4854,10513
4845,10520
4838,10526
4833,10531
4829,10534
4826,10537
4825,10538
4821,10543
4813,10552
4806,10560
4802,10565
4801,10566
4800,10567
4798,10570
4793,10577
4788,10585
4782,10596
4777,10607
4775,10611
4774,10613
4773,10618
4769,10629
4766,10639
4764,10645
4764,10647
4763,10649
4762,10654
4760,10665
4759,10676
4758,10685
4758,10693
4758,10698
4758,10701
4758,10702
4758,10703
4758,10709
4759,10721
4760,10733
4760,10739
4760,10740
4760,10741
4761,10744
4762,10749
4764,10756
4766,10764
4769,10775
4773,10786
4774,10791
4775,10793
4777,10797
4782,10808
4787,10817
4790,10822
4791,10824
4792,10826
4795,10830
4801,10839
4808,10848
4814,10855
4819,10860
4823,10864
4826,10867
4827,10868
4831,10872
4840,10880
4849,10887
4853,10891
4854,10892
4857,10894
4862,10897
4868,10901
4875,10906
4885,10911
4896,10916
4900,10919
4902,10919
4907,10921
4918,10925
4929,10928
4934,10930
4936,10930
4941,10931
4953,10933
4964,10934
4974,10935
4981,10936
4987,10936
4990,10936
4991,10936
" style="stroke:#ffffff;stroke-width:0;
stroke-linejoin:bevel; stroke-linecap:butt;
fill:#ffffff;
"/>
<!-- Line -->
<!--  spline  -->
<polyline points="4991,10936
4992,10936
4998,10935
5010,10934
5021,10934
5027,10933
5028,10933
5029,10933
5032,10932
5037,10932
5044,10930
5053,10928
5064,10925
5075,10921
5080,10919
5082,10919
5086,10916
5097,10911
5107,10905
5112,10903
5113,10902
5117,10899
5127,10892
5136,10885
5143,10879
5149,10874
5153,10870
5156,10867
5157,10866
5161,10862
5169,10853
5176,10844
5180,10840
5181,10839
5183,10836
5186,10831
5190,10825
5195,10818
5200,10808
5205,10797
5207,10793
5208,10791
5209,10786
5213,10775
5216,10765
5218,10760
5218,10758
5219,10756
5220,10751
5222,10740
5223,10729
5224,10719
5224,10712
5224,10706
5224,10703
5224,10702
5224,10701
5224,10695
5223,10683
5222,10672
5222,10666
5222,10665
5222,10664
5221,10661
5220,10656
5218,10649
5216,10640
5213,10629
5209,10618
5208,10613
5207,10611
5205,10607
5200,10596
5194,10586
5192,10581
5191,10580
5188,10576
5181,10566
5174,10557
5168,10550
5163,10544
5159,10540
5156,10537
5155,10536
5150,10532
5141,10525
5133,10518
5128,10514
5127,10513
5124,10511
5120,10507
5114,10503
5107,10498
5097,10493
5086,10488
5082,10486
5080,10485
5075,10484
5064,10480
5054,10477
5048,10476
5046,10475
5044,10475
5039,10474
5028,10472
5017,10471
5008,10470
5000,10469
4995,10469
4992,10469
4991,10469
4990,10469
4984,10470
4972,10471
4960,10471
4954,10472
4953,10472
4952,10472
4948,10473
4940,10474
4931,10476
4918,10480
4907,10484
4902,10485
4900,10486
4896,10488
4885,10493
4876,10498
4871,10501
4869,10502
4867,10503
4863,10507
4854,10513
4845,10520
4838,10526
4833,10531
4829,10534
4826,10537
4825,10538
4821,10543
4813,10552
4806,10560
4802,10565
4801,10566
4800,10567
4798,10570
4793,10577
4788,10585
4782,10596
4777,10607
4775,10611
4774,10613
4773,10618
4769,10629
4766,10639
4764,10645
4764,10647
4763,10649
4762,10654
4760,10665
4759,10676
4758,10685
4758,10693
4758,10698
4758,10701
4758,10702
4758,10703
4758,10709
4759,10721
4760,10733
4760,10739
4760,10740
4760,10741
4761,10744
4762,10749
4764,10756
4766,10764
4769,10775
4773,10786
4774,10791
4775,10793
4777,10797
4782,10808
4787,10817
4790,10822
4791,10824
4792,10826
4795,10830
4801,10839
4808,10848
4814,10855
4819,10860
4823,10864
4826,10867
4827,10868
4831,10872
4840,10880
4849,10887
4853,10891
4854,10892
4857,10894
4862,10897
4868,10901
4875,10906
4885,10911
4896,10916
4900,10919
4902,10919
4907,10921
4918,10925
4929,10928
4934,10930
4936,10930
4941,10931
4953,10933
4964,10934
4974,10935
4981,10936
4987,10936
4990,10936
4991,10936
" style="stroke:#000000;stroke-width:15;
stroke-linejoin:bevel; stroke-linecap:butt;
"/>
<!-- Line -->
<!--  polyline  -->
<polyline points="5612,10688
5208,10688
" style="stroke:#000000;stroke-width:7;
stroke-linejoin:miter; stroke-linecap:butt;
"/>
<!-- Line -->
<!--  spline  -->
<polyline points="5673,10688
5672,10688
5667,10685
5654,10680
5633,10672
5608,10662
5584,10653
5563,10645
5550,10640
5545,10637
5544,10637
5544,10638
5543,10641
5542,10645
5541,10648
5541,10649
5540,10651
5540,10654
5539,10657
5538,10661
5537,10665
5537,10666
5537,10668
5536,10671
5536,10674
5535,10675
5535,10676
5535,10677
5535,10680
5535,10683
5535,10685
5535,10687
5535,10688
5535,10690
5535,10694
5535,10696
5535,10697
5535,10699
5536,10701
5536,10705
5537,10708
5537,10710
5537,10711
5537,10712
5538,10716
5539,10720
5539,10721
5540,10722
5540,10723
5541,10727
5542,10731
5543,10735
5544,10738
5544,10740
5545,10740
5550,10737
5563,10732
5584,10724
5609,10714
5633,10704
5654,10696
5667,10691
5672,10688
5673,10688
" style="stroke:#000000;stroke-width:0;
stroke-linejoin:bevel; stroke-linecap:butt;
fill:#000000;
"/>
<!-- Line -->
<!--  polyline  -->
<polyline points="2858,9198
2858,9198
" style="stroke:#000000;stroke-width:7;
stroke-linejoin:miter; stroke-linecap:butt;
"/>
<!-- Line -->
<!--  spline  -->
<polyline points="2624,9198
2625,9198
2631,9197
2643,9196
2655,9196
2661,9195
2662,9195
2663,9195
2667,9194
2675,9193
2684,9191
2697,9187
2708,9183
2713,9181
2715,9181
2719,9178
2730,9173
2739,9168
2744,9165
2746,9164
2748,9163
2752,9160
2761,9154
2770,9147
2777,9141
2782,9136
2786,9133
2789,9130
2790,9129
2794,9124
2802,9115
2809,9107
2813,9102
2814,9101
2816,9098
2819,9093
2823,9087
2828,9080
2833,9070
2838,9059
2841,9055
2841,9053
2843,9048
2847,9037
2850,9026
2852,9021
2852,9019
2853,9014
2855,9002
2856,8991
2857,8982
2858,8974
2858,8969
2858,8966
2858,8965
2858,8964
2857,8958
2856,8946
2856,8934
2855,8928
2855,8927
2855,8926
2854,8922
2853,8914
2851,8905
2847,8892
2843,8881
2841,8876
2841,8874
2838,8870
2833,8859
2828,8850
2825,8845
2824,8843
2823,8841
2820,8837
2814,8828
2807,8819
2801,8812
2796,8807
2792,8803
2789,8800
2788,8799
2784,8795
2775,8787
2766,8780
2762,8776
2761,8775
2758,8773
2753,8770
2747,8766
2740,8761
2730,8756
2719,8751
2715,8748
2713,8748
2708,8746
2697,8742
2686,8739
2681,8737
2679,8737
2674,8736
2662,8734
2651,8733
2641,8732
2634,8731
2628,8731
2625,8731
2624,8731
2623,8731
2617,8732
2605,8733
2594,8733
2588,8734
2587,8734
2586,8734
2583,8735
2578,8735
2571,8737
2562,8739
2551,8742
2540,8746
2535,8748
2533,8748
2529,8751
2518,8756
2508,8762
2503,8764
2502,8765
2498,8768
2488,8775
2479,8782
2472,8788
2466,8793
2462,8797
2459,8800
2458,8801
2454,8805
2447,8814
2440,8823
2436,8827
2435,8828
2433,8831
2430,8836
2426,8842
2421,8849
2416,8859
2411,8870
2408,8874
2408,8876
2406,8881
2402,8892
2399,8903
2397,8908
2397,8910
2396,8915
2394,8927
2393,8938
2392,8948
2391,8955
2391,8961
2391,8964
2391,8965
2391,8966
2392,8972
2393,8984
2393,8995
2394,9001
2394,9002
2394,9003
2395,9007
2396,9015
2398,9024
2402,9037
2406,9048
2408,9053
2408,9055
2411,9059
2416,9070
2421,9079
2424,9084
2425,9086
2426,9087
2429,9092
2435,9101
2442,9110
2448,9117
2453,9123
2456,9127
2459,9130
2460,9131
2465,9135
2474,9142
2482,9149
2487,9153
2488,9154
2489,9155
2492,9157
2499,9161
2507,9167
2518,9173
2529,9178
2533,9181
2535,9181
2540,9183
2551,9187
2561,9190
2567,9191
2569,9192
2571,9192
2576,9193
2587,9195
2598,9196
2607,9197
2615,9198
2620,9198
2623,9198
2624,9198
" style="stroke:#ffffff;stroke-width:0;
stroke-linejoin:bevel; stroke-linecap:butt;
fill:#ffffff;
"/>
<!-- Line -->
<!--  spline  -->
<polyline points="2624,9198
2625,9198
2631,9197
2643,9196
2655,9196
2661,9195
2662,9195
2663,9195
2667,9194
2675,9193
2684,9191
2697,9187
2708,9183
2713,9181
2715,9181
2719,9178
2730,9173
2739,9168
2744,9165
2746,9164
2748,9163
2752,9160
2761,9154
2770,9147
2777,9141
2782,9136
2786,9133
2789,9130
2790,9129
2794,9124
2802,9115
2809,9107
2813,9102
2814,9101
2816,9098
2819,9093
2823,9087
2828,9080
2833,9070
2838,9059
2841,9055
2841,9053
2843,9048
2847,9037
2850,9026
2852,9021
2852,9019
2853,9014
2855,9002
2856,8991
2857,8982
2858,8974
2858,8969
2858,8966
2858,8965
2858,8964
2857,8958
2856,8946
2856,8934
2855,8928
2855,8927
2855,8926
2854,8922
2853,8914
2851,8905
2847,8892
2843,8881
2841,8876
2841,8874
2838,8870
2833,8859
2828,8850
2825,8845
2824,8843
2823,8841
2820,8837
2814,8828
2807,8819
2801,8812
2796,8807
2792,8803
2789,8800
2788,8799
2784,8795
2775,8787
2766,8780
2762,8776
2761,8775
2758,8773
2753,8770
2747,8766
2740,8761
2730,8756
2719,8751
2715,8748
2713,8748
2708,8746
2697,8742
2686,8739
2681,8737
2679,8737
2674,8736
2662,8734
2651,8733
2641,8732
2634,8731
2628,8731
2625,8731
2624,8731
2623,8731
2617,8732
2605,8733
2594,8733
2588,8734
2587,8734
2586,8734
2583,8735
2578,8735
2571,8737
2562,8739
2551,8742
2540,8746
2535,8748
2533,8748
2529,8751
2518,8756
2508,8762
2503,8764
2502,8765
2498,8768
2488,8775
2479,8782
2472,8788
2466,8793
2462,8797
2459,8800
2458,8801
2454,8805
2447,8814
2440,8823
2436,8827
2435,8828
2433,8831
2430,8836
2426,8842
2421,8849
2416,8859
2411,8870
2408,8874
2408,8876
2406,8881
2402,8892
2399,8903
2397,8908
2397,8910
2396,8915
2394,8927
2393,8938
2392,8948
2391,8955
2391,8961
2391,8964
2391,8965
2391,8966
2392,8972
2393,8984
2393,8995
2394,9001
2394,9002
2394,9003
2395,9007
2396,9015
2398,9024
2402,9037
2406,9048
2408,9053
2408,9055
2411,9059
2416,9070
2421,9079
2424,9084
2425,9086
2426,9087
2429,9092
2435,9101
2442,9110
2448,9117
2453,9123
2456,9127
2459,9130
2460,9131
2465,9135
2474,9142
2482,9149
2487,9153
2488,9154
2489,9155
2492,9157
2499,9161
2507,9167
2518,9173
2529,9178
2533,9181
2535,9181
2540,9183
2551,9187
2561,9190
2567,9191
2569,9192
2571,9192
2576,9193
2587,9195
2598,9196
2607,9197
2615,9198
2620,9198
2623,9198
2624,9198
" style="stroke:#000000;stroke-width:15;
stroke-linejoin:bevel; stroke-linecap:butt;
"/>
<!-- Line -->
<!--  polyline  -->
<polyline points="2346,8965
1791,8965
" style="stroke:#000000;stroke-width:7;
stroke-linejoin:miter; stroke-linecap:butt;
"/>
<!-- Line -->
<!--  spline  -->
<polyline points="2406,8965
2405,8965
2400,8962
2387,8957
2366,8949
2341,8939
2317,8929
2296,8921
2283,8916
2278,8913
2277,8913
2277,8914
2276,8917
2275,8922
2274,8925
2274,8926
2274,8928
2273,8930
2273,8933
2272,8937
2271,8941
2271,8942
2271,8943
2271,8945
2270,8948
2270,8951
2269,8953
2269,8954
2269,8957
2269,8960
2268,8962
2268,8964
2268,8965
2268,8967
2269,8971
2269,8973
2269,8974
2269,8976
2270,8979
2270,8982
2271,8985
2271,8987
2271,8989
2272,8992
2273,8996
2273,8997
2273,8998
2273,8999
2274,9003
2275,9007
2276,9011
2276,9014
2277,9016
2278,9016
2283,9013
2296,9008
2317,9000
2342,8990
2366,8981
2387,8973
2400,8968
2405,8965
2406,8965
" style="stroke:#000000;stroke-width:0;
stroke-linejoin:bevel; stroke-linecap:butt;
fill:#000000;
"/>
<!-- Line -->
<!--  polyline  -->
<polyline points="2858,9765
2858,9765
" style="stroke:#000000;stroke-width:7;
stroke-linejoin:miter; stroke-linecap:butt;
"/>
<!-- Line -->
<!--  spline  -->
<polyline points="2624,9765
2625,9765
2631,9764
2643,9763
2655,9763
2661,9762
2662,9762
2663,9762
2667,9761
2675,9760
2684,9758
2697,9754
2708,9750
2713,9748
2715,9748
2719,9745
2730,9740
2739,9735
2744,9732
2746,9731
2748,9730
2752,9727
2761,9721
2770,9714
2777,9708
2782,9703
2786,9699
2789,9696
2790,9695
2794,9691
2802,9682
2809,9673
2813,9669
2814,9668
2816,9665
2819,9660
2823,9654
2828,9647
2833,9637
2838,9626
2841,9622
2841,9620
2843,9615
2847,9604
2850,9593
2852,9588
2852,9586
2853,9581
2855,9569
2856,9558
2857,9548
2858,9541
2858,9535
2858,9532
2858,9531
2858,9530
2857,9524
2856,9512
2856,9501
2855,9495
2855,9494
2855,9493
2854,9489
2853,9481
2851,9472
2847,9459
2843,9448
2841,9443
2841,9441
2838,9437
2833,9426
2828,9417
2825,9412
2824,9410
2823,9409
2820,9404
2814,9395
2807,9386
2801,9379
2796,9373
2792,9369
2789,9366
2788,9365
2784,9361
2775,9354
2766,9347
2762,9343
2761,9342
2758,9340
2753,9337
2747,9333
2740,9328
2730,9323
2719,9318
2715,9315
2713,9315
2708,9313
2697,9309
2686,9306
2681,9304
2679,9304
2674,9303
2662,9301
2651,9300
2641,9299
2634,9298
2628,9298
2625,9298
2624,9298
2623,9298
2617,9299
2605,9300
2594,9300
2588,9301
2587,9301
2586,9301
2583,9302
2578,9302
2571,9304
2562,9306
2551,9309
2540,9313
2535,9315
2533,9315
2529,9318
2518,9323
2508,9329
2503,9331
2502,9332
2498,9335
2488,9342
2479,9349
2472,9355
2466,9360
2462,9363
2459,9366
2458,9367
2454,9372
2447,9381
2440,9389
2436,9394
2435,9395
2433,9398
2430,9403
2426,9409
2421,9416
2416,9426
2411,9437
2408,9441
2408,9443
2406,9448
2402,9459
2399,9470
2397,9475
2397,9477
2396,9482
2394,9494
2393,9505
2392,9514
2391,9522
2391,9527
2391,9530
2391,9531
2391,9532
2392,9538
2393,9550
2393,9562
2394,9568
2394,9569
2394,9570
2395,9574
2396,9582
2398,9591
2402,9604
2406,9615
2408,9620
2408,9622
2411,9626
2416,9637
2421,9646
2424,9651
2425,9653
2426,9655
2429,9659
2435,9668
2442,9677
2448,9684
2453,9689
2456,9693
2459,9696
2460,9697
2465,9701
2474,9709
2482,9716
2487,9720
2488,9721
2489,9722
2492,9724
2499,9728
2507,9734
2518,9740
2529,9745
2533,9748
2535,9748
2540,9750
2551,9754
2561,9757
2567,9758
2569,9759
2571,9759
2576,9760
2587,9762
2598,9763
2607,9764
2615,9765
2620,9765
2623,9765
2624,9765
" style="stroke:#ffffff;stroke-width:0;
stroke-linejoin:bevel; stroke-linecap:butt;
fill:#ffffff;
"/>
<!-- Line -->
<!--  spline  -->
<polyline points="2624,9765
2625,9765
2631,9764
2643,9763
2655,9763
2661,9762
2662,9762
2663,9762
2667,9761
2675,9760
2684,9758
2697,9754
2708,9750
2713,9748
2715,9748
2719,9745
2730,9740
2739,9735
2744,9732
2746,9731
2748,9730
2752,9727
2761,9721
2770,9714
2777,9708
2782,9703
2786,9699
2789,9696
2790,9695
2794,9691
2802,9682
2809,9673
2813,9669
2814,9668
2816,9665
2819,9660
2823,9654
2828,9647
2833,9637
2838,9626
2841,9622
2841,9620
2843,9615
2847,9604
2850,9593
2852,9588
2852,9586
2853,9581
2855,9569
2856,9558
2857,9548
2858,9541
2858,9535
2858,9532
2858,9531
2858,9530
2857,9524
2856,9512
2856,9501
2855,9495
2855,9494
2855,9493
2854,9489
2853,9481
2851,9472
2847,9459
2843,9448
2841,9443
2841,9441
2838,9437
2833,9426
2828,9417
2825,9412
2824,9410
2823,9409
2820,9404
2814,9395
2807,9386
2801,9379
2796,9373
2792,9369
2789,9366
2788,9365
2784,9361
2775,9354
2766,9347
2762,9343
2761,9342
2758,9340
2753,9337
2747,9333
2740,9328
2730,9323
2719,9318
2715,9315
2713,9315
2708,9313
2697,9309
2686,9306
2681,9304
2679,9304
2674,9303
2662,9301
2651,9300
2641,9299
2634,9298
2628,9298
2625,9298
2624,9298
2623,9298
2617,9299
2605,9300
2594,9300
2588,9301
2587,9301
2586,9301
2583,9302
2578,9302
2571,9304
2562,9306
2551,9309
2540,9313
2535,9315
2533,9315
2529,9318
2518,9323
2508,9329
2503,9331
2502,9332
2498,9335
2488,9342
2479,9349
2472,9355
2466,9360
2462,9363
2459,9366
2458,9367
2454,9372
2447,9381
2440,9389
2436,9394
2435,9395
2433,9398
2430,9403
2426,9409
2421,9416
2416,9426
2411,9437
2408,9441
2408,9443
2406,9448
2402,9459
2399,9470
2397,9475
2397,9477
2396,9482
2394,9494
2393,9505
2392,9514
2391,9522
2391,9527
2391,9530
2391,9531
2391,9532
2392,9538
2393,9550
2393,9562
2394,9568
2394,9569
2394,9570
2395,9574
2396,9582
2398,9591
2402,9604
2406,9615
2408,9620
2408,9622
2411,9626
2416,9637
2421,9646
2424,9651
2425,9653
2426,9655
2429,9659
2435,9668
2442,9677
2448,9684
2453,9689
2456,9693
2459,9696
2460,9697
2465,9701
2474,9709
2482,9716
2487,9720
2488,9721
2489,9722
2492,9724
2499,9728
2507,9734
2518,9740
2529,9745
2533,9748
2535,9748
2540,9750
2551,9754
2561,9757
2567,9758
2569,9759
2571,9759
2576,9760
2587,9762
2598,9763
2607,9764
2615,9765
2620,9765
2623,9765
2624,9765
" style="stroke:#000000;stroke-width:15;
stroke-linejoin:bevel; stroke-linecap:butt;
"/>
<!-- Line -->
<!--  polyline  -->
<polyline points="2346,9531
1791,9531
" style="stroke:#000000;stroke-width:7;
stroke-linejoin:miter; stroke-linecap:butt;
"/>
<!-- Line -->
<!--  spline  -->
<polyline points="2406,9531
2405,9531
2400,9528
2387,9523
2366,9515
2341,9505
2317,9496
2296,9488
2283,9483
2278,9480
2277,9480
2277,9481
2276,9484
2275,9489
2274,9492
2274,9493
2274,9495
2273,9497
2273,9500
2272,9504
2271,9507
2271,9509
2271,9511
2270,9514
2270,9517
2269,9518
2269,9519
2269,9520
2269,9523
2269,9526
2268,9528
2268,9530
2268,9531
2268,9533
2269,9537
2269,9539
2269,9540
2269,9542
2270,9544
2270,9548
2271,9551
2271,9553
2271,9554
2271,9555
2272,9559
2273,9563
2273,9564
2273,9565
2273,9566
2274,9570
2275,9574
2276,9578
2276,9581
2277,9583
2278,9583
2283,9580
2296,9575
2317,9567
2342,9557
2366,9547
2387,9539
2400,9534
2405,9531
2406,9531
" style="stroke:#000000;stroke-width:0;
stroke-linejoin:bevel; stroke-linecap:butt;
fill:#000000;
"/>
<!-- Line -->
<!--  polyline  -->
<polyline points="2858,10290
2858,10290
" style="stroke:#000000;stroke-width:7;
stroke-linejoin:miter; stroke-linecap:butt;
"/>
<!-- Line -->
<!--  spline  -->
<polyline points="2624,10290
2625,10290
2631,10289
2643,10288
2655,10288
2661,10287
2662,10287
2663,10287
2667,10286
2675,10285
2684,10283
2697,10279
2708,10275
2713,10273
2715,10273
2719,10270
2730,10265
2739,10260
2744,10257
2746,10256
2748,10255
2752,10252
2761,10246
2770,10239
2777,10233
2782,10228
2786,10224
2789,10221
2790,10220
2794,10216
2802,10207
2809,10198
2813,10194
2814,10193
2816,10190
2819,10185
2823,10179
2828,10172
2833,10162
2838,10151
2841,10147
2841,10145
2843,10140
2847,10129
2850,10118
2852,10113
2852,10111
2853,10106
2855,10094
2856,10083
2857,10073
2858,10066
2858,10060
2858,10057
2858,10056
2858,10055
2857,10049
2856,10037
2856,10026
2855,10020
2855,10019
2855,10018
2854,10014
2853,10006
2851,9997
2847,9984
2843,9973
2841,9968
2841,9966
2838,9962
2833,9951
2828,9942
2825,9937
2824,9935
2823,9934
2820,9929
2814,9920
2807,9911
2801,9904
2796,9898
2792,9894
2789,9891
2788,9890
2784,9886
2775,9879
2766,9872
2762,9868
2761,9867
2758,9865
2753,9862
2747,9858
2740,9853
2730,9848
2719,9843
2715,9840
2713,9840
2708,9838
2697,9834
2686,9831
2681,9829
2679,9829
2674,9828
2662,9826
2651,9825
2641,9824
2634,9823
2628,9823
2625,9823
2624,9823
2623,9823
2617,9824
2605,9825
2594,9825
2588,9826
2587,9826
2586,9826
2583,9827
2578,9827
2571,9829
2562,9831
2551,9834
2540,9838
2535,9840
2533,9840
2529,9843
2518,9848
2508,9854
2503,9856
2502,9857
2498,9860
2488,9867
2479,9874
2472,9880
2466,9885
2462,9888
2459,9891
2458,9892
2454,9897
2447,9906
2440,9914
2436,9919
2435,9920
2433,9923
2430,9928
2426,9934
2421,9941
2416,9951
2411,9962
2408,9966
2408,9968
2406,9973
2402,9984
2399,9995
2397,10000
2397,10002
2396,10007
2394,10019
2393,10030
2392,10039
2391,10047
2391,10052
2391,10055
2391,10056
2391,10057
2392,10063
2393,10075
2393,10087
2394,10093
2394,10094
2394,10095
2395,10099
2396,10107
2398,10116
2402,10129
2406,10140
2408,10145
2408,10147
2411,10151
2416,10162
2421,10171
2424,10176
2425,10178
2426,10180
2429,10184
2435,10193
2442,10202
2448,10209
2453,10214
2456,10218
2459,10221
2460,10222
2465,10226
2474,10234
2482,10241
2487,10245
2488,10246
2489,10247
2492,10249
2499,10253
2507,10259
2518,10265
2529,10270
2533,10273
2535,10273
2540,10275
2551,10279
2561,10282
2567,10283
2569,10284
2571,10284
2576,10285
2587,10287
2598,10288
2607,10289
2615,10290
2620,10290
2623,10290
2624,10290
" style="stroke:#ffffff;stroke-width:0;
stroke-linejoin:bevel; stroke-linecap:butt;
fill:#ffffff;
"/>
<!-- Line -->
<!--  spline  -->
<polyline points="2624,10290
2625,10290
2631,10289
2643,10288
2655,10288
2661,10287
2662,10287
2663,10287
2667,10286
2675,10285
2684,10283
2697,10279
2708,10275
2713,10273
2715,10273
2719,10270
2730,10265
2739,10260
2744,10257
2746,10256
2748,10255
2752,10252
2761,10246
2770,10239
2777,10233
2782,10228
2786,10224
2789,10221
2790,10220
2794,10216
2802,10207
2809,10198
2813,10194
2814,10193
2816,10190
2819,10185
2823,10179
2828,10172
2833,10162
2838,10151
2841,10147
2841,10145
2843,10140
2847,10129
2850,10118
2852,10113
2852,10111
2853,10106
2855,10094
2856,10083
2857,10073
2858,10066
2858,10060
2858,10057
2858,10056
2858,10055
2857,10049
2856,10037
2856,10026
2855,10020
2855,10019
2855,10018
2854,10014
2853,10006
2851,9997
2847,9984
2843,9973
2841,9968
2841,9966
2838,9962
2833,9951
2828,9942
2825,9937
2824,9935
2823,9934
2820,9929
2814,9920
2807,9911
2801,9904
2796,9898
2792,9894
2789,9891
2788,9890
2784,9886
2775,9879
2766,9872
2762,9868
2761,9867
2758,9865
2753,9862
2747,9858
2740,9853
2730,9848
2719,9843
2715,9840
2713,9840
2708,9838
2697,9834
2686,9831
2681,9829
2679,9829
2674,9828
2662,9826
2651,9825
2641,9824
2634,9823
2628,9823
2625,9823
2624,9823
2623,9823
2617,9824
2605,9825
2594,9825
2588,9826
2587,9826
2586,9826
2583,9827
2578,9827
2571,9829
2562,9831
2551,9834
2540,9838
2535,9840
2533,9840
2529,9843
2518,9848
2508,9854
2503,9856
2502,9857
2498,9860
2488,9867
2479,9874
2472,9880
2466,9885
2462,9888
2459,9891
2458,9892
2454,9897
2447,9906
2440,9914
2436,9919
2435,9920
2433,9923
2430,9928
2426,9934
2421,9941
2416,9951
2411,9962
2408,9966
2408,9968
2406,9973
2402,9984
2399,9995
2397,10000
2397,10002
2396,10007
2394,10019
2393,10030
2392,10039
2391,10047
2391,10052
2391,10055
2391,10056
2391,10057
2392,10063
2393,10075
2393,10087
2394,10093
2394,10094
2394,10095
2395,10099
2396,10107
2398,10116
2402,10129
2406,10140
2408,10145
2408,10147
2411,10151
2416,10162
2421,10171
2424,10176
2425,10178
2426,10180
2429,10184
2435,10193
2442,10202
2448,10209
2453,10214
2456,10218
2459,10221
2460,10222
2465,10226
2474,10234
2482,10241
2487,10245
2488,10246
2489,10247
2492,10249
2499,10253
2507,10259
2518,10265
2529,10270
2533,10273
2535,10273
2540,10275
2551,10279
2561,10282
2567,10283
2569,10284
2571,10284
2576,10285
2587,10287
2598,10288
2607,10289
2615,10290
2620,10290
2623,10290
2624,10290
" style="stroke:#000000;stroke-width:15;
stroke-linejoin:bevel; stroke-linecap:butt;
"/>
<!-- Line -->
<!--  polyline  -->
<polyline points="2346,10056
1791,10056
" style="stroke:#000000;stroke-width:7;
stroke-linejoin:miter; stroke-linecap:butt;
"/>
<!-- Line -->
<!--  spline  -->
<polyline points="2406,10056
2405,10056
2400,10053
2387,10048
2366,10040
2341,10030
2317,10021
2296,10013
2283,10008
2278,10005
2277,10005
2277,10006
2276,10009
2275,10014
2274,10017
2274,10018
2274,10020
2273,10022
2273,10025
2272,10029
2271,10032
2271,10034
2271,10036
2270,10039
2270,10042
2269,10043
2269,10044
2269,10045
2269,10048
2269,10051
2268,10053
2268,10055
2268,10056
2268,10058
2269,10062
2269,10064
2269,10065
2269,10067
2270,10069
2270,10073
2271,10076
2271,10078
2271,10079
2271,10080
2272,10084
2273,10088
2273,10089
2273,10090
2273,10091
2274,10095
2275,10099
2276,10103
2276,10106
2277,10108
2278,10108
2283,10105
2296,10100
2317,10092
2342,10082
2366,10072
2387,10064
2400,10059
2405,10056
2406,10056
" style="stroke:#000000;stroke-width:0;
stroke-linejoin:bevel; stroke-linecap:butt;
fill:#000000;
"/>
<!-- Line -->
<!--  polyline  -->
<polyline points="2858,10852
2858,10852
" style="stroke:#000000;stroke-width:7;
stroke-linejoin:miter; stroke-linecap:butt;
"/>
<!-- Line -->
<!--  spline  -->
<polyline points="2624,10852
2625,10852
2631,10851
2643,10850
2655,10850
2661,10849
2662,10849
2663,10849
2667,10848
2675,10847
2684,10845
2697,10841
2708,10837
2713,10836
2715,10835
2719,10833
2730,10828
2739,10823
2744,10820
2746,10819
2748,10818
2752,10814
2761,10808
2770,10801
2777,10795
2782,10790
2786,10787
2789,10784
2790,10783
2794,10778
2802,10769
2809,10761
2813,10756
2814,10755
2815,10754
2817,10751
2821,10744
2827,10736
2833,10725
2838,10714
2841,10710
2841,10708
2843,10703
2847,10692
2850,10682
2851,10676
2852,10674
2852,10672
2853,10667
2855,10656
2856,10645
2857,10636
2858,10628
2858,10623
2858,10620
2858,10619
2858,10618
2857,10612
2856,10600
2856,10588
2855,10582
2855,10581
2855,10580
2854,10576
2853,10568
2851,10559
2847,10546
2843,10535
2841,10530
2841,10528
2838,10524
2833,10513
2828,10504
2825,10499
2824,10497
2823,10495
2820,10491
2814,10482
2807,10473
2801,10466
2796,10461
2792,10457
2789,10454
2788,10453
2784,10449
2775,10441
2766,10434
2762,10430
2761,10429
2758,10427
2753,10424
2747,10420
2740,10415
2730,10410
2719,10405
2715,10402
2713,10402
2708,10400
2697,10396
2686,10393
2681,10391
2679,10391
2674,10390
2662,10388
2651,10387
2641,10386
2634,10386
2628,10386
2625,10386
2624,10386
2623,10386
2617,10386
2605,10387
2594,10388
2588,10388
2587,10388
2586,10388
2583,10389
2578,10389
2571,10391
2562,10393
2551,10396
2540,10400
2535,10402
2533,10402
2529,10405
2518,10410
2508,10416
2503,10418
2502,10419
2498,10422
2488,10429
2479,10436
2472,10442
2466,10447
2462,10451
2459,10454
2458,10455
2454,10459
2447,10468
2440,10477
2436,10481
2435,10482
2433,10485
2430,10490
2426,10496
2421,10503
2416,10513
2411,10524
2408,10528
2408,10530
2406,10535
2402,10546
2399,10557
2397,10562
2397,10564
2396,10569
2394,10581
2393,10592
2392,10602
2391,10609
2391,10615
2391,10618
2391,10619
2391,10620
2392,10626
2393,10638
2393,10649
2394,10655
2394,10656
2394,10657
2395,10660
2395,10665
2397,10672
2399,10681
2402,10692
2406,10703
2408,10708
2408,10710
2411,10714
2416,10725
2422,10735
2424,10740
2425,10741
2428,10745
2435,10755
2442,10764
2448,10771
2453,10777
2456,10781
2459,10784
2460,10785
2465,10789
2474,10796
2482,10803
2487,10807
2488,10808
2491,10810
2495,10814
2501,10818
2508,10823
2518,10828
2529,10833
2533,10835
2535,10836
2540,10837
2551,10841
2561,10844
2567,10845
2569,10846
2571,10846
2576,10847
2587,10849
2598,10850
2607,10851
2615,10852
2620,10852
2623,10852
2624,10852
" style="stroke:#ffffff;stroke-width:0;
stroke-linejoin:bevel; stroke-linecap:butt;
fill:#ffffff;
"/>
<!-- Line -->
<!--  spline  -->
<polyline points="2624,10852
2625,10852
2631,10851
2643,10850
2655,10850
2661,10849
2662,10849
2663,10849
2667,10848
2675,10847
2684,10845
2697,10841
2708,10837
2713,10836
2715,10835
2719,10833
2730,10828
2739,10823
2744,10820
2746,10819
2748,10818
2752,10814
2761,10808
2770,10801
2777,10795
2782,10790
2786,10787
2789,10784
2790,10783
2794,10778
2802,10769
2809,10761
2813,10756
2814,10755
2815,10754
2817,10751
2821,10744
2827,10736
2833,10725
2838,10714
2841,10710
2841,10708
2843,10703
2847,10692
2850,10682
2851,10676
2852,10674
2852,10672
2853,10667
2855,10656
2856,10645
2857,10636
2858,10628
2858,10623
2858,10620
2858,10619
2858,10618
2857,10612
2856,10600
2856,10588
2855,10582
2855,10581
2855,10580
2854,10576
2853,10568
2851,10559
2847,10546
2843,10535
2841,10530
2841,10528
2838,10524
2833,10513
2828,10504
2825,10499
2824,10497
2823,10495
2820,10491
2814,10482
2807,10473
2801,10466
2796,10461
2792,10457
2789,10454
2788,10453
2784,10449
2775,10441
2766,10434
2762,10430
2761,10429
2758,10427
2753,10424
2747,10420
2740,10415
2730,10410
2719,10405
2715,10402
2713,10402
2708,10400
2697,10396
2686,10393
2681,10391
2679,10391
2674,10390
2662,10388
2651,10387
2641,10386
2634,10386
2628,10386
2625,10386
2624,10386
2623,10386
2617,10386
2605,10387
2594,10388
2588,10388
2587,10388
2586,10388
2583,10389
2578,10389
2571,10391
2562,10393
2551,10396
2540,10400
2535,10402
2533,10402
2529,10405
2518,10410
2508,10416
2503,10418
2502,10419
2498,10422
2488,10429
2479,10436
2472,10442
2466,10447
2462,10451
2459,10454
2458,10455
2454,10459
2447,10468
2440,10477
2436,10481
2435,10482
2433,10485
2430,10490
2426,10496
2421,10503
2416,10513
2411,10524
2408,10528
2408,10530
2406,10535
2402,10546
2399,10557
2397,10562
2397,10564
2396,10569
2394,10581
2393,10592
2392,10602
2391,10609
2391,10615
2391,10618
2391,10619
2391,10620
2392,10626
2393,10638
2393,10649
2394,10655
2394,10656
2394,10657
2395,10660
2395,10665
2397,10672
2399,10681
2402,10692
2406,10703
2408,10708
2408,10710
2411,10714
2416,10725
2422,10735
2424,10740
2425,10741
2428,10745
2435,10755
2442,10764
2448,10771
2453,10777
2456,10781
2459,10784
2460,10785
2465,10789
2474,10796
2482,10803
2487,10807
2488,10808
2491,10810
2495,10814
2501,10818
2508,10823
2518,10828
2529,10833
2533,10835
2535,10836
2540,10837
2551,10841
2561,10844
2567,10845
2569,10846
2571,10846
2576,10847
2587,10849
2598,10850
2607,10851
2615,10852
2620,10852
2623,10852
2624,10852
" style="stroke:#000000;stroke-width:15;
stroke-linejoin:bevel; stroke-linecap:butt;
"/>
<!-- Line -->
<!--  polyline  -->
<polyline points="2346,10619
1791,10619
" style="stroke:#000000;stroke-width:7;
stroke-linejoin:miter; stroke-linecap:butt;
"/>
<!-- Line -->
<!--  spline  -->
<polyline points="2406,10619
2405,10619
2400,10616
2387,10611
2366,10603
2341,10593
2317,10583
2296,10575
2283,10570
2278,10567
2277,10567
2277,10568
2276,10571
2275,10576
2274,10579
2274,10580
2274,10582
2273,10585
2273,10588
2272,10592
2271,10596
2271,10597
2271,10599
2270,10602
2270,10605
2269,10606
2269,10607
2269,10608
2269,10611
2269,10614
2268,10616
2268,10618
2268,10619
2268,10621
2269,10625
2269,10627
2269,10628
2269,10630
2270,10633
2270,10636
2271,10639
2271,10641
2271,10642
2272,10646
2273,10650
2273,10651
2273,10652
2273,10654
2274,10658
2275,10662
2276,10666
2276,10668
2277,10670
2278,10670
2283,10667
2296,10662
2317,10654
2342,10644
2366,10635
2387,10627
2400,10622
2405,10619
2406,10619
" style="stroke:#000000;stroke-width:0;
stroke-linejoin:bevel; stroke-linecap:butt;
fill:#000000;
"/>
<!-- Line -->
<!--  polyline  -->
<polyline points="2858,11431
2858,11431
" style="stroke:#000000;stroke-width:7;
stroke-linejoin:miter; stroke-linecap:butt;
"/>
<!-- Line -->
<!--  spline  -->
<polyline points="2624,11431
2625,11431
2631,11431
2643,11430
2655,11429
2661,11429
2662,11429
2663,11429
2666,11428
2671,11427
2678,11425
2686,11423
2697,11420
2708,11416
2713,11415
2715,11414
2719,11412
2730,11407
2739,11402
2744,11399
2746,11398
2748,11397
2752,11394
2761,11388
2770,11381
2777,11375
2782,11370
2786,11366
2789,11363
2790,11362
2794,11358
2802,11349
2809,11340
2813,11336
2814,11335
2816,11332
2819,11327
2823,11321
2828,11314
2833,11304
2838,11293
2841,11289
2841,11287
2843,11282
2847,11271
2850,11260
2852,11255
2852,11253
2853,11248
2855,11236
2856,11225
2857,11215
2858,11208
2858,11202
2858,11199
2858,11198
2858,11197
2857,11191
2856,11179
2856,11167
2855,11161
2855,11160
2855,11159
2854,11155
2853,11147
2851,11138
2847,11125
2843,11114
2841,11109
2841,11107
2838,11103
2833,11092
2828,11083
2825,11078
2824,11076
2823,11074
2820,11070
2814,11061
2807,11052
2801,11045
2796,11040
2792,11036
2789,11033
2788,11032
2784,11028
2775,11020
2766,11013
2762,11009
2761,11008
2758,11006
2753,11003
2747,10999
2740,10994
2730,10989
2719,10984
2715,10982
2713,10981
2708,10980
2697,10976
2687,10973
2682,10971
2680,10971
2678,10970
2673,10969
2662,10967
2651,10966
2641,10965
2634,10965
2628,10965
2625,10965
2624,10965
2623,10965
2617,10965
2605,10966
2594,10967
2588,10967
2587,10967
2586,10967
2583,10968
2578,10969
2571,10971
2562,10973
2551,10976
2540,10980
2535,10981
2533,10982
2529,10984
2518,10989
2508,10995
2503,10997
2502,10998
2498,11001
2488,11008
2479,11015
2472,11021
2466,11026
2462,11030
2459,11033
2458,11034
2454,11038
2447,11047
2440,11056
2436,11060
2435,11061
2433,11064
2430,11069
2426,11075
2421,11082
2416,11092
2411,11103
2408,11107
2408,11109
2406,11114
2402,11125
2399,11136
2397,11141
2397,11143
2396,11148
2394,11160
2393,11171
2392,11181
2391,11188
2391,11194
2391,11197
2391,11198
2391,11199
2392,11205
2393,11217
2393,11229
2394,11235
2394,11236
2394,11237
2395,11241
2396,11249
2398,11258
2402,11271
2406,11282
2408,11287
2408,11289
2411,11293
2416,11304
2421,11313
2424,11318
2425,11320
2426,11322
2429,11326
2435,11335
2442,11344
2448,11351
2453,11356
2456,11360
2459,11363
2460,11364
2465,11368
2474,11376
2482,11383
2487,11387
2488,11388
2489,11389
2492,11391
2499,11396
2507,11401
2518,11407
2529,11412
2533,11414
2535,11415
2540,11416
2551,11420
2561,11423
2567,11425
2569,11425
2571,11426
2576,11427
2587,11429
2598,11430
2607,11431
2615,11431
2620,11431
2623,11431
2624,11431
" style="stroke:#ffffff;stroke-width:0;
stroke-linejoin:bevel; stroke-linecap:butt;
fill:#ffffff;
"/>
<!-- Line -->
<!--  spline  -->
<polyline points="2624,11431
2625,11431
2631,11431
2643,11430
2655,11429
2661,11429
2662,11429
2663,11429
2666,11428
2671,11427
2678,11425
2686,11423
2697,11420
2708,11416
2713,11415
2715,11414
2719,11412
2730,11407
2739,11402
2744,11399
2746,11398
2748,11397
2752,11394
2761,11388
2770,11381
2777,11375
2782,11370
2786,11366
2789,11363
2790,11362
2794,11358
2802,11349
2809,11340
2813,11336
2814,11335
2816,11332
2819,11327
2823,11321
2828,11314
2833,11304
2838,11293
2841,11289
2841,11287
2843,11282
2847,11271
2850,11260
2852,11255
2852,11253
2853,11248
2855,11236
2856,11225
2857,11215
2858,11208
2858,11202
2858,11199
2858,11198
2858,11197
2857,11191
2856,11179
2856,11167
2855,11161
2855,11160
2855,11159
2854,11155
2853,11147
2851,11138
2847,11125
2843,11114
2841,11109
2841,11107
2838,11103
2833,11092
2828,11083
2825,11078
2824,11076
2823,11074
2820,11070
2814,11061
2807,11052
2801,11045
2796,11040
2792,11036
2789,11033
2788,11032
2784,11028
2775,11020
2766,11013
2762,11009
2761,11008
2758,11006
2753,11003
2747,10999
2740,10994
2730,10989
2719,10984
2715,10982
2713,10981
2708,10980
2697,10976
2687,10973
2682,10971
2680,10971
2678,10970
2673,10969
2662,10967
2651,10966
2641,10965
2634,10965
2628,10965
2625,10965
2624,10965
2623,10965
2617,10965
2605,10966
2594,10967
2588,10967
2587,10967
2586,10967
2583,10968
2578,10969
2571,10971
2562,10973
2551,10976
2540,10980
2535,10981
2533,10982
2529,10984
2518,10989
2508,10995
2503,10997
2502,10998
2498,11001
2488,11008
2479,11015
2472,11021
2466,11026
2462,11030
2459,11033
2458,11034
2454,11038
2447,11047
2440,11056
2436,11060
2435,11061
2433,11064
2430,11069
2426,11075
2421,11082
2416,11092
2411,11103
2408,11107
2408,11109
2406,11114
2402,11125
2399,11136
2397,11141
2397,11143
2396,11148
2394,11160
2393,11171
2392,11181
2391,11188
2391,11194
2391,11197
2391,11198
2391,11199
2392,11205
2393,11217
2393,11229
2394,11235
2394,11236
2394,11237
2395,11241
2396,11249
2398,11258
2402,11271
2406,11282
2408,11287
2408,11289
2411,11293
2416,11304
2421,11313
2424,11318
2425,11320
2426,11322
2429,11326
2435,11335
2442,11344
2448,11351
2453,11356
2456,11360
2459,11363
2460,11364
2465,11368
2474,11376
2482,11383
2487,11387
2488,11388
2489,11389
2492,11391
2499,11396
2507,11401
2518,11407
2529,11412
2533,11414
2535,11415
2540,11416
2551,11420
2561,11423
2567,11425
2569,11425
2571,11426
2576,11427
2587,11429
2598,11430
2607,11431
2615,11431
2620,11431
2623,11431
2624,11431
" style="stroke:#000000;stroke-width:15;
stroke-linejoin:bevel; stroke-linecap:butt;
"/>
<!-- Line -->
<!--  polyline  -->
<polyline points="2346,11198
1791,11198
" style="stroke:#000000;stroke-width:7;
stroke-linejoin:miter; stroke-linecap:butt;
"/>
<!-- Line -->
<!--  spline  -->
<polyline points="2406,11198
2405,11198
2400,11195
2387,11190
2366,11182
2341,11172
2317,11163
2296,11155
2283,11150
2278,11147
2277,11147
2277,11148
2276,11151
2275,11155
2274,11158
2274,11159
2274,11161
2273,11164
2273,11167
2272,11171
2271,11175
2271,11176
2271,11178
2270,11181
2270,11184
2269,11185
2269,11186
2269,11187
2269,11190
2269,11193
2268,11195
2268,11197
2268,11198
2268,11200
2269,11204
2269,11206
2269,11207
2269,11209
2270,11212
2270,11215
2271,11218
2271,11220
2271,11221
2272,11225
2273,11229
2273,11230
2273,11231
2273,11233
2274,11237
2275,11242
2276,11245
2276,11248
2277,11250
2278,11250
2283,11247
2296,11242
2317,11234
2342,11224
2366,11214
2387,11206
2400,11201
2405,11198
2406,11198
" style="stroke:#000000;stroke-width:0;
stroke-linejoin:bevel; stroke-linecap:butt;
fill:#000000;
"/>
<!-- Line -->
<!--  polyline  -->
<polyline points="2858,12015
2858,12015
" style="stroke:#000000;stroke-width:7;
stroke-linejoin:miter; stroke-linecap:butt;
"/>
<!-- Line -->
<!--  spline  -->
<polyline points="2624,12015
2625,12015
2631,12014
2643,12013
2655,12013
2661,12012
2662,12012
2663,12012
2667,12011
2675,12010
2684,12008
2697,12004
2708,12000
2713,11998
2715,11998
2719,11995
2730,11990
2739,11985
2744,11982
2746,11981
2748,11980
2752,11977
2761,11971
2770,11964
2777,11958
2782,11953
2786,11949
2789,11946
2790,11945
2794,11941
2802,11932
2809,11923
2813,11919
2814,11918
2816,11915
2819,11910
2823,11904
2828,11897
2833,11887
2838,11876
2841,11872
2841,11870
2843,11865
2847,11854
2850,11843
2852,11838
2852,11836
2853,11831
2855,11819
2856,11808
2857,11798
2858,11791
2858,11785
2858,11782
2858,11781
2858,11780
2857,11774
2856,11762
2856,11751
2855,11745
2855,11744
2855,11743
2854,11739
2853,11731
2851,11722
2847,11709
2843,11698
2841,11693
2841,11691
2838,11687
2833,11676
2828,11667
2825,11662
2824,11660
2823,11659
2820,11654
2814,11645
2807,11636
2801,11629
2796,11623
2792,11619
2789,11616
2788,11615
2784,11611
2775,11604
2766,11597
2762,11593
2761,11592
2758,11590
2753,11587
2747,11583
2740,11578
2730,11573
2719,11568
2715,11565
2713,11565
2708,11563
2697,11559
2686,11556
2681,11554
2679,11554
2674,11553
2662,11551
2651,11550
2641,11549
2634,11548
2628,11548
2625,11548
2624,11548
2623,11548
2617,11549
2605,11550
2594,11550
2588,11551
2587,11551
2586,11551
2583,11552
2578,11552
2571,11554
2562,11556
2551,11559
2540,11563
2535,11565
2533,11565
2529,11568
2518,11573
2508,11579
2503,11581
2502,11582
2498,11585
2488,11592
2479,11599
2472,11605
2466,11610
2462,11613
2459,11616
2458,11617
2454,11622
2447,11631
2440,11639
2436,11644
2435,11645
2433,11648
2430,11653
2426,11659
2421,11666
2416,11676
2411,11687
2408,11691
2408,11693
2406,11698
2402,11709
2399,11720
2397,11725
2397,11727
2396,11732
2394,11744
2393,11755
2392,11764
2391,11772
2391,11777
2391,11780
2391,11781
2391,11782
2392,11788
2393,11800
2393,11812
2394,11818
2394,11819
2394,11820
2395,11824
2396,11832
2398,11841
2402,11854
2406,11865
2408,11870
2408,11872
2411,11876
2416,11887
2421,11896
2424,11901
2425,11903
2426,11905
2429,11909
2435,11918
2442,11927
2448,11934
2453,11939
2456,11943
2459,11946
2460,11947
2465,11951
2474,11959
2482,11966
2487,11970
2488,11971
2489,11972
2492,11974
2499,11978
2507,11984
2518,11990
2529,11995
2533,11998
2535,11998
2540,12000
2551,12004
2561,12007
2567,12008
2569,12009
2571,12009
2576,12010
2587,12012
2598,12013
2607,12014
2615,12015
2620,12015
2623,12015
2624,12015
" style="stroke:#ffffff;stroke-width:0;
stroke-linejoin:bevel; stroke-linecap:butt;
fill:#ffffff;
"/>
<!-- Line -->
<!--  spline  -->
<polyline points="2624,12015
2625,12015
2631,12014
2643,12013
2655,12013
2661,12012
2662,12012
2663,12012
2667,12011
2675,12010
2684,12008
2697,12004
2708,12000
2713,11998
2715,11998
2719,11995
2730,11990
2739,11985
2744,11982
2746,11981
2748,11980
2752,11977
2761,11971
2770,11964
2777,11958
2782,11953
2786,11949
2789,11946
2790,11945
2794,11941
2802,11932
2809,11923
2813,11919
2814,11918
2816,11915
2819,11910
2823,11904
2828,11897
2833,11887
2838,11876
2841,11872
2841,11870
2843,11865
2847,11854
2850,11843
2852,11838
2852,11836
2853,11831
2855,11819
2856,11808
2857,11798
2858,11791
2858,11785
2858,11782
2858,11781
2858,11780
2857,11774
2856,11762
2856,11751
2855,11745
2855,11744
2855,11743
2854,11739
2853,11731
2851,11722
2847,11709
2843,11698
2841,11693
2841,11691
2838,11687
2833,11676
2828,11667
2825,11662
2824,11660
2823,11659
2820,11654
2814,11645
2807,11636
2801,11629
2796,11623
2792,11619
2789,11616
2788,11615
2784,11611
2775,11604
2766,11597
2762,11593
2761,11592
2758,11590
2753,11587
2747,11583
2740,11578
2730,11573
2719,11568
2715,11565
2713,11565
2708,11563
2697,11559
2686,11556
2681,11554
2679,11554
2674,11553
2662,11551
2651,11550
2641,11549
2634,11548
2628,11548
2625,11548
2624,11548
2623,11548
2617,11549
2605,11550
2594,11550
2588,11551
2587,11551
2586,11551
2583,11552
2578,11552
2571,11554
2562,11556
2551,11559
2540,11563
2535,11565
2533,11565
2529,11568
2518,11573
2508,11579
2503,11581
2502,11582
2498,11585
2488,11592
2479,11599
2472,11605
2466,11610
2462,11613
2459,11616
2458,11617
2454,11622
2447,11631
2440,11639
2436,11644
2435,11645
2433,11648
2430,11653
2426,11659
2421,11666
2416,11676
2411,11687
2408,11691
2408,11693
2406,11698
2402,11709
2399,11720
2397,11725
2397,11727
2396,11732
2394,11744
2393,11755
2392,11764
2391,11772
2391,11777
2391,11780
2391,11781
2391,11782
2392,11788
2393,11800
2393,11812
2394,11818
2394,11819
2394,11820
2395,11824
2396,11832
2398,11841
2402,11854
2406,11865
2408,11870
2408,11872
2411,11876
2416,11887
2421,11896
2424,11901
2425,11903
2426,11905
2429,11909
2435,11918
2442,11927
2448,11934
2453,11939
2456,11943
2459,11946
2460,11947
2465,11951
2474,11959
2482,11966
2487,11970
2488,11971
2489,11972
2492,11974
2499,11978
2507,11984
2518,11990
2529,11995
2533,11998
2535,11998
2540,12000
2551,12004
2561,12007
2567,12008
2569,12009
2571,12009
2576,12010
2587,12012
2598,12013
2607,12014
2615,12015
2620,12015
2623,12015
2624,12015
" style="stroke:#000000;stroke-width:15;
stroke-linejoin:bevel; stroke-linecap:butt;
"/>
<!-- Line -->
<!--  polyline  -->
<polyline points="2346,11781
1791,11781
" style="stroke:#000000;stroke-width:7;
stroke-linejoin:miter; stroke-linecap:butt;
"/>
<!-- Line -->
<!--  spline  -->
<polyline points="2406,11781
2405,11781
2400,11778
2387,11773
2366,11765
2341,11755
2317,11746
2296,11738
2283,11733
2278,11730
2277,11730
2277,11731
2276,11734
2275,11739
2274,11742
2274,11743
2274,11745
2273,11747
2273,11750
2272,11754
2271,11757
2271,11759
2271,11761
2270,11764
2270,11767
2269,11768
2269,11769
2269,11770
2269,11773
2269,11776
2268,11778
2268,11780
2268,11781
2268,11783
2269,11787
2269,11789
2269,11790
2269,11792
2270,11794
2270,11798
2271,11801
2271,11803
2271,11804
2271,11805
2272,11809
2273,11813
2273,11814
2273,11815
2273,11816
2274,11820
2275,11824
2276,11828
2276,11831
2277,11833
2278,11833
2283,11830
2296,11825
2317,11817
2342,11807
2366,11797
2387,11789
2400,11784
2405,11781
2406,11781
" style="stroke:#000000;stroke-width:0;
stroke-linejoin:bevel; stroke-linecap:butt;
fill:#000000;
"/>
<!-- Text -->
<!--  text  -->
<text xml:space="preserve" x="2323" y="12273" stroke="#000000" fill="#000000"  font-family="Times" font-style="normal" font-weight="normal" font-size="156" text-anchor="start">I</text>
<!-- Text -->
<!--  text  -->
<text xml:space="preserve" x="2389" y="12273" stroke="#000000" fill="#000000"  font-family="Times" font-style="normal" font-weight="normal" font-size="156" text-anchor="start">N</text>
<!-- Text -->
<!--  text  -->
<text xml:space="preserve" x="2534" y="12273" stroke="#000000" fill="#000000"  font-family="Times" font-style="normal" font-weight="normal" font-size="156" text-anchor="start">P</text>
<!-- Text -->
<!--  text  -->
<text xml:space="preserve" x="2645" y="12273" stroke="#000000" fill="#000000"  font-family="Times" font-style="normal" font-weight="normal" font-size="156" text-anchor="start">U</text>
<!-- Text -->
<!--  text  -->
<text xml:space="preserve" x="2789" y="12273" stroke="#000000" fill="#000000"  font-family="Times" font-style="normal" font-weight="normal" font-size="156" text-anchor="start">T</text>
<!-- Text -->
<!--  text  -->
<text xml:space="preserve" x="2323" y="12513" stroke="#000000" fill="#000000"  font-family="Times" font-style="normal" font-weight="normal" font-size="156" text-anchor="start">L</text>
<!-- Text -->
<!--  text  -->
<text xml:space="preserve" x="2445" y="12513" stroke="#000000" fill="#000000"  font-family="Times" font-style="normal" font-weight="normal" font-size="156" text-anchor="start">A</text>
<!-- Text -->
<!--  text  -->
<text xml:space="preserve" x="2578" y="12513" stroke="#000000" fill="#000000"  font-family="Times" font-style="normal" font-weight="normal" font-size="156" text-anchor="start">Y</text>
<!-- Text -->
<!--  text  -->
<text xml:space="preserve" x="2723" y="12513" stroke="#000000" fill="#000000"  font-family="Times" font-style="normal" font-weight="normal" font-size="156" text-anchor="start">E</text>
<!-- Text -->
<!--  text  -->
<text xml:space="preserve" x="2845" y="12513" stroke="#000000" fill="#000000"  font-family="Times" font-style="normal" font-weight="normal" font-size="156" text-anchor="start">R</text>
<!-- Text -->
<!--  text  -->
<text xml:space="preserve" x="4640" y="11273" stroke="#000000" fill="#000000"  font-family="Times" font-style="normal" font-weight="normal" font-size="156" text-anchor="start">O</text>
<!-- Text -->
<!--  text  -->
<text xml:space="preserve" x="4784" y="11273" stroke="#000000" fill="#000000"  font-family="Times" font-style="normal" font-weight="normal" font-size="156" text-anchor="start">U</text>
<!-- Text -->
<!--  text  -->
<text xml:space="preserve" x="4928" y="11273" stroke="#000000" fill="#000000"  font-family="Times" font-style="normal" font-weight="normal" font-size="156" text-anchor="start">T</text>
<!-- Text -->
<!--  text  -->
<text xml:space="preserve" x="5050" y="11273" stroke="#000000" fill="#000000"  font-family="Times" font-style="normal" font-weight="normal" font-size="156" text-anchor="start">P</text>
<!-- Text -->
<!--  text  -->
<text xml:space="preserve" x="5162" y="11273" stroke="#000000" fill="#000000"  font-family="Times" font-style="normal" font-weight="normal" font-size="156" text-anchor="start">U</text>
<!-- Text -->
<!--  text  -->
<text xml:space="preserve" x="5306" y="11273" stroke="#000000" fill="#000000"  font-family="Times" font-style="normal" font-weight="normal" font-size="156" text-anchor="start">T</text>
<!-- Text -->
<!--  text  -->
<text xml:space="preserve" x="4710" y="11513" stroke="#000000" fill="#000000"  font-family="Times" font-style="normal" font-weight="normal" font-size="156" text-anchor="start">L</text>
<!-- Text -->
<!--  text  -->
<text xml:space="preserve" x="4832" y="11513" stroke="#000000" fill="#000000"  font-family="Times" font-style="normal" font-weight="normal" font-size="156" text-anchor="start">A</text>
<!-- Text -->
<!--  text  -->
<text xml:space="preserve" x="4965" y="11513" stroke="#000000" fill="#000000"  font-family="Times" font-style="normal" font-weight="normal" font-size="156" text-anchor="start">Y</text>
<!-- Text -->
<!--  text  -->
<text xml:space="preserve" x="5109" y="11513" stroke="#000000" fill="#000000"  font-family="Times" font-style="normal" font-weight="normal" font-size="156" text-anchor="start">E</text>
<!-- Text -->
<!--  text  -->
<text xml:space="preserve" x="5232" y="11513" stroke="#000000" fill="#000000"  font-family="Times" font-style="normal" font-weight="normal" font-size="156" text-anchor="start">R</text>
<!-- Text -->
<!--  text  -->
<text xml:space="preserve" x="3279" y="9006" stroke="#000000" fill="#000000"  font-family="Times" font-style="normal" font-weight="normal" font-size="156" text-anchor="start">A</text>
<!-- Text -->
<!--  text  -->
<text xml:space="preserve" x="3423" y="9006" stroke="#000000" fill="#000000"  font-family="Times" font-style="normal" font-weight="normal" font-size="156" text-anchor="start">D</text>
<!-- Text -->
<!--  text  -->
<text xml:space="preserve" x="3568" y="9006" stroke="#000000" fill="#000000"  font-family="Times" font-style="normal" font-weight="normal" font-size="156" text-anchor="start">J</text>
<!-- Text -->
<!--  text  -->
<text xml:space="preserve" x="3646" y="9006" stroke="#000000" fill="#000000"  font-family="Times" font-style="normal" font-weight="normal" font-size="156" text-anchor="start">U</text>
<!-- Text -->
<!--  text  -->
<text xml:space="preserve" x="3790" y="9006" stroke="#000000" fill="#000000"  font-family="Times" font-style="normal" font-weight="normal" font-size="156" text-anchor="start">S</text>
<!-- Text -->
<!--  text  -->
<text xml:space="preserve" x="3901" y="9006" stroke="#000000" fill="#000000"  font-family="Times" font-style="normal" font-weight="normal" font-size="156" text-anchor="start">T</text>
<!-- Text -->
<!--  text  -->
<text xml:space="preserve" x="4008" y="9006" stroke="#000000" fill="#000000"  font-family="Times" font-style="normal" font-weight="normal" font-size="156" text-anchor="start">A</text>
<!-- Text -->
<!--  text  -->
<text xml:space="preserve" x="4153" y="9006" stroke="#000000" fill="#000000"  font-family="Times" font-style="normal" font-weight="normal" font-size="156" text-anchor="start">B</text>
<!-- Text -->
<!--  text  -->
<text xml:space="preserve" x="4286" y="9006" stroke="#000000" fill="#000000"  font-family="Times" font-style="normal" font-weight="normal" font-size="156" text-anchor="start">L</text>
<!-- Text -->
<!--  text  -->
<text xml:space="preserve" x="4408" y="9006" stroke="#000000" fill="#000000"  font-family="Times" font-style="normal" font-weight="normal" font-size="156" text-anchor="start">E</text>
<!-- Text -->
<!--  text  -->
<text xml:space="preserve" x="3419" y="9246" stroke="#000000" fill="#000000"  font-family="Times" font-style="normal" font-weight="normal" font-size="156" text-anchor="start">W</text>
<!-- Text -->
<!--  text  -->
<text xml:space="preserve" x="3608" y="9246" stroke="#000000" fill="#000000"  font-family="Times" font-style="normal" font-weight="normal" font-size="156" text-anchor="start">E</text>
<!-- Text -->
<!--  text  -->
<text xml:space="preserve" x="3730" y="9246" stroke="#000000" fill="#000000"  font-family="Times" font-style="normal" font-weight="normal" font-size="156" text-anchor="start">I</text>
<!-- Text -->
<!--  text  -->
<text xml:space="preserve" x="3796" y="9246" stroke="#000000" fill="#000000"  font-family="Times" font-style="normal" font-weight="normal" font-size="156" text-anchor="start">G</text>
<!-- Text -->
<!--  text  -->
<text xml:space="preserve" x="3941" y="9246" stroke="#000000" fill="#000000"  font-family="Times" font-style="normal" font-weight="normal" font-size="156" text-anchor="start">H</text>
<!-- Text -->
<!--  text  -->
<text xml:space="preserve" x="4085" y="9246" stroke="#000000" fill="#000000"  font-family="Times" font-style="normal" font-weight="normal" font-size="156" text-anchor="start">T</text>
<!-- Text -->
<!--  text  -->
<text xml:space="preserve" x="4207" y="9246" stroke="#000000" fill="#000000"  font-family="Times" font-style="normal" font-weight="normal" font-size="156" text-anchor="start">S</text>
<!-- Text -->
<!--  text  -->
<text xml:space="preserve" x="1925" y="13090" stroke="#000000" fill="#000000"  font-family="Times" font-style="normal" font-weight="normal" font-size="156" text-anchor="start">F</text>
<!-- Text -->
<!--  text  -->
<text xml:space="preserve" x="2037" y="13090" stroke="#000000" fill="#000000"  font-family="Times" font-style="normal" font-weight="normal" font-size="156" text-anchor="start">i</text>
<!-- Text -->
<!--  text  -->
<text xml:space="preserve" x="2092" y="13090" stroke="#000000" fill="#000000"  font-family="Times" font-style="normal" font-weight="normal" font-size="156" text-anchor="start">g</text>
<!-- Text -->
<!--  text  -->
<text xml:space="preserve" x="2192" y="13090" stroke="#000000" fill="#000000"  font-family="Times" font-style="normal" font-weight="normal" font-size="156" text-anchor="start">u</text>
<!-- Text -->
<!--  text  -->
<text xml:space="preserve" x="2292" y="13090" stroke="#000000" fill="#000000"  font-family="Times" font-style="normal" font-weight="normal" font-size="156" text-anchor="start">r</text>
<!-- Text -->
<!--  text  -->
<text xml:space="preserve" x="2351" y="13090" stroke="#000000" fill="#000000"  font-family="Times" font-style="normal" font-weight="normal" font-size="156" text-anchor="start">e</text>
<!-- Text -->
<!--  text  -->
<text xml:space="preserve" x="2510" y="13090" stroke="#000000" fill="#000000"  font-family="Times" font-style="normal" font-weight="normal" font-size="156" text-anchor="start">6</text>
<!-- Text -->
<!--  text  -->
<text xml:space="preserve" x="2610" y="13090" stroke="#000000" fill="#000000"  font-family="Times" font-style="normal" font-weight="normal" font-size="156" text-anchor="start">-</text>
<!-- Text -->
<!--  text  -->
<text xml:space="preserve" x="2677" y="13090" stroke="#000000" fill="#000000"  font-family="Times" font-style="normal" font-weight="normal" font-size="156" text-anchor="start">2</text>
<!-- Text -->
<!--  text  -->
<text xml:space="preserve" x="2777" y="13090" stroke="#000000" fill="#000000"  font-family="Times" font-style="normal" font-weight="normal" font-size="156" text-anchor="start">:</text>
<!-- Text -->
<!--  text  -->
<text xml:space="preserve" x="2902" y="13090" stroke="#000000" fill="#000000"  font-family="Times" font-style="normal" font-weight="normal" font-size="156" text-anchor="start">A</text>
<!-- Text -->
<!--  text  -->
<text xml:space="preserve" x="3116" y="13090" stroke="#000000" fill="#000000"  font-family="Times" font-style="normal" font-weight="normal" font-size="156" text-anchor="start">t</text>
<!-- Text -->
<!--  text  -->
<text xml:space="preserve" x="3172" y="13090" stroke="#000000" fill="#000000"  font-family="Times" font-style="normal" font-weight="normal" font-size="156" text-anchor="start">w</text>
<!-- Text -->
<!--  text  -->
<text xml:space="preserve" x="3316" y="13090" stroke="#000000" fill="#000000"  font-family="Times" font-style="normal" font-weight="normal" font-size="156" text-anchor="start">o</text>
<!-- Text -->
<!--  text  -->
<text xml:space="preserve" x="3416" y="13090" stroke="#000000" fill="#000000"  font-family="Times" font-style="normal" font-weight="normal" font-size="156" text-anchor="start">-</text>
<!-- Text -->
<!--  text  -->
<text xml:space="preserve" x="3483" y="13090" stroke="#000000" fill="#000000"  font-family="Times" font-style="normal" font-weight="normal" font-size="156" text-anchor="start">l</text>
<!-- Text -->
<!--  text  -->
<text xml:space="preserve" x="3538" y="13090" stroke="#000000" fill="#000000"  font-family="Times" font-style="normal" font-weight="normal" font-size="156" text-anchor="start">a</text>
<!-- Text -->
<!--  text  -->
<text xml:space="preserve" x="3627" y="13090" stroke="#000000" fill="#000000"  font-family="Times" font-style="normal" font-weight="normal" font-size="156" text-anchor="start">y</text>
<!-- Text -->
<!--  text  -->
<text xml:space="preserve" x="3727" y="13090" stroke="#000000" fill="#000000"  font-family="Times" font-style="normal" font-weight="normal" font-size="156" text-anchor="start">e</text>
<!-- Text -->
<!--  text  -->
<text xml:space="preserve" x="3816" y="13090" stroke="#000000" fill="#000000"  font-family="Times" font-style="normal" font-weight="normal" font-size="156" text-anchor="start">r</text>
<!-- Text -->
<!--  text  -->
<text xml:space="preserve" x="3952" y="13090" stroke="#000000" fill="#000000"  font-family="Times" font-style="normal" font-weight="normal" font-size="156" text-anchor="start">p</text>
<!-- Text -->
<!--  text  -->
<text xml:space="preserve" x="4052" y="13090" stroke="#000000" fill="#000000"  font-family="Times" font-style="normal" font-weight="normal" font-size="156" text-anchor="start">e</text>
<!-- Text -->
<!--  text  -->
<text xml:space="preserve" x="4141" y="13090" stroke="#000000" fill="#000000"  font-family="Times" font-style="normal" font-weight="normal" font-size="156" text-anchor="start">r</text>
<!-- Text -->
<!--  text  -->
<text xml:space="preserve" x="4200" y="13090" stroke="#000000" fill="#000000"  font-family="Times" font-style="normal" font-weight="normal" font-size="156" text-anchor="start">c</text>
<!-- Text -->
<!--  text  -->
<text xml:space="preserve" x="4289" y="13090" stroke="#000000" fill="#000000"  font-family="Times" font-style="normal" font-weight="normal" font-size="156" text-anchor="start">e</text>
<!-- Text -->
<!--  text  -->
<text xml:space="preserve" x="4378" y="13090" stroke="#000000" fill="#000000"  font-family="Times" font-style="normal" font-weight="normal" font-size="156" text-anchor="start">p</text>
<!-- Text -->
<!--  text  -->
<text xml:space="preserve" x="4478" y="13090" stroke="#000000" fill="#000000"  font-family="Times" font-style="normal" font-weight="normal" font-size="156" text-anchor="start">t</text>
<!-- Text -->
<!--  text  -->
<text xml:space="preserve" x="4534" y="13090" stroke="#000000" fill="#000000"  font-family="Times" font-style="normal" font-weight="normal" font-size="156" text-anchor="start">r</text>
<!-- Text -->
<!--  text  -->
<text xml:space="preserve" x="4593" y="13090" stroke="#000000" fill="#000000"  font-family="Times" font-style="normal" font-weight="normal" font-size="156" text-anchor="start">o</text>
<!-- Text -->
<!--  text  -->
<text xml:space="preserve" x="4693" y="13090" stroke="#000000" fill="#000000"  font-family="Times" font-style="normal" font-weight="normal" font-size="156" text-anchor="start">n</text>
<!-- Text -->
<!--  text  -->
<text xml:space="preserve" x="4863" y="13090" stroke="#000000" fill="#000000"  font-family="Times" font-style="normal" font-weight="normal" font-size="156" text-anchor="start">n</text>
<!-- Text -->
<!--  text  -->
<text xml:space="preserve" x="4963" y="13090" stroke="#000000" fill="#000000"  font-family="Times" font-style="normal" font-weight="normal" font-size="156" text-anchor="start">e</text>
<!-- Text -->
<!--  text  -->
<text xml:space="preserve" x="5052" y="13090" stroke="#000000" fill="#000000"  font-family="Times" font-style="normal" font-weight="normal" font-size="156" text-anchor="start">t</text>
<!-- Text -->
<!--  text  -->
<text xml:space="preserve" x="5107" y="13090" stroke="#000000" fill="#000000"  font-family="Times" font-style="normal" font-weight="normal" font-size="156" text-anchor="start">w</text>
<!-- Text -->
<!--  text  -->
<text xml:space="preserve" x="5251" y="13090" stroke="#000000" fill="#000000"  font-family="Times" font-style="normal" font-weight="normal" font-size="156" text-anchor="start">o</text>
<!-- Text -->
<!--  text  -->
<text xml:space="preserve" x="5351" y="13090" stroke="#000000" fill="#000000"  font-family="Times" font-style="normal" font-weight="normal" font-size="156" text-anchor="start">r</text>
<!-- Text -->
<!--  text  -->
<text xml:space="preserve" x="5418" y="13090" stroke="#000000" fill="#000000"  font-family="Times" font-style="normal" font-weight="normal" font-size="156" text-anchor="start">k</text>
</g>
</svg>
