<?xml version="1.0" standalone="no"?>
<!DOCTYPE svg PUBLIC "-//W3C//DTD SVG 1.1//EN"
"http://www.w3.org/Graphics/SVG/1.1/DTD/svg11.dtd">
<!-- Creator: fig2dev Version 3.2 Patchlevel 5 -->
<!-- CreationDate: Sat Jul  4 12:13:18 2015 -->
<!-- Magnification: 1.000 -->
<svg xmlns="http://www.w3.org/2000/svg" width="6.0in" height="2.8in" viewBox="111 9819 7244 3355">
<g style="stroke-width:.025in; stroke:black; fill:none">
<!-- Line -->
<!--  polyline  -->
<polyline points="4978,11347
4978,11347
4978,11347
" style="stroke:#000000;stroke-width:7;
stroke-linejoin:miter; stroke-linecap:butt;
"/>
<!-- Line -->
<!--  polyline  -->
<polyline points="2886,10315
2886,10315
2886,10315
" style="stroke:#000000;stroke-width:7;
stroke-linejoin:miter; stroke-linecap:butt;
"/>
<!-- Line -->
<!--  polyline  -->
<polyline points="2886,10972
2886,10972
2886,10972
" style="stroke:#000000;stroke-width:7;
stroke-linejoin:miter; stroke-linecap:butt;
"/>
<!-- Line -->
<!--  polyline  -->
<polyline points="2886,11628
2886,11628
2886,11628
" style="stroke:#000000;stroke-width:7;
stroke-linejoin:miter; stroke-linecap:butt;
"/>
<!-- Line -->
<!--  polyline  -->
<polyline points="2886,12285
2886,12285
2886,12285
" style="stroke:#000000;stroke-width:7;
stroke-linejoin:miter; stroke-linecap:butt;
"/>
<!-- Line -->
<!--  spline  -->
<polyline points="2690,10315
2692,10315
2700,10314
2712,10314
2720,10313
2722,10313
2723,10313
2726,10312
2733,10311
2741,10309
2751,10306
2761,10303
2764,10301
2766,10301
2770,10299
2779,10295
2788,10290
2792,10288
2793,10287
2797,10285
2805,10279
2814,10272
2821,10266
2825,10262
2828,10259
2829,10258
2830,10257
2835,10251
2844,10241
2849,10235
2850,10234
2850,10233
2853,10230
2856,10225
2861,10218
2866,10208
2870,10199
2872,10195
2872,10193
2874,10190
2877,10180
2880,10170
2881,10167
2881,10165
2882,10161
2884,10151
2885,10140
2886,10131
2886,10124
2886,10120
2886,10119
2886,10117
2885,10109
2885,10097
2884,10089
2884,10087
2884,10086
2883,10083
2882,10076
2880,10068
2877,10058
2874,10048
2872,10045
2872,10043
2870,10039
2866,10030
2861,10021
2859,10017
2858,10016
2856,10012
2850,10004
2843,9995
2837,9988
2833,9984
2830,9981
2829,9980
2828,9979
2822,9974
2812,9966
2806,9961
2805,9960
2804,9959
2801,9957
2796,9953
2789,9948
2779,9943
2770,9939
2766,9937
2764,9936
2761,9935
2751,9932
2741,9929
2738,9928
2736,9928
2732,9927
2722,9925
2711,9924
2702,9923
2695,9923
2691,9923
2690,9923
2688,9923
2680,9924
2669,9924
2661,9925
2659,9925
2658,9925
2654,9926
2648,9927
2640,9929
2629,9932
2619,9935
2615,9936
2614,9937
2610,9939
2601,9943
2592,9948
2588,9950
2587,9951
2583,9954
2575,9960
2566,9967
2559,9972
2555,9977
2552,9979
2551,9980
2550,9981
2545,9987
2537,9997
2532,10003
2531,10004
2530,10005
2528,10008
2524,10013
2519,10020
2514,10030
2510,10039
2508,10043
2507,10045
2506,10048
2503,10058
2500,10068
2499,10071
2499,10073
2498,10077
2496,10087
2495,10098
2494,10107
2494,10114
2494,10118
2494,10119
2494,10121
2495,10129
2495,10141
2496,10149
2496,10151
2496,10152
2497,10155
2498,10162
2500,10170
2503,10180
2506,10190
2507,10193
2508,10195
2510,10199
2514,10208
2519,10217
2521,10221
2522,10222
2525,10226
2531,10234
2538,10243
2543,10250
2548,10254
2550,10257
2551,10258
2552,10259
2558,10264
2568,10273
2574,10278
2575,10279
2576,10279
2579,10282
2584,10285
2591,10290
2601,10295
2610,10299
2614,10301
2615,10301
2619,10303
2629,10306
2639,10309
2643,10310
2645,10310
2649,10311
2659,10313
2670,10314
2679,10315
2685,10315
2689,10315
2690,10315
" style="stroke:#ffffff;stroke-width:0;
stroke-linejoin:bevel; stroke-linecap:butt;
fill:#ffffff;
"/>
<!-- Line -->
<!--  spline  -->
<polyline points="2690,10315
2692,10315
2700,10314
2712,10314
2720,10313
2722,10313
2723,10313
2726,10312
2733,10311
2741,10309
2751,10306
2761,10303
2764,10301
2766,10301
2770,10299
2779,10295
2788,10290
2792,10288
2793,10287
2797,10285
2805,10279
2814,10272
2821,10266
2825,10262
2828,10259
2829,10258
2830,10257
2835,10251
2844,10241
2849,10235
2850,10234
2850,10233
2853,10230
2856,10225
2861,10218
2866,10208
2870,10199
2872,10195
2872,10193
2874,10190
2877,10180
2880,10170
2881,10167
2881,10165
2882,10161
2884,10151
2885,10140
2886,10131
2886,10124
2886,10120
2886,10119
2886,10117
2885,10109
2885,10097
2884,10089
2884,10087
2884,10086
2883,10083
2882,10076
2880,10068
2877,10058
2874,10048
2872,10045
2872,10043
2870,10039
2866,10030
2861,10021
2859,10017
2858,10016
2856,10012
2850,10004
2843,9995
2837,9988
2833,9984
2830,9981
2829,9980
2828,9979
2822,9974
2812,9966
2806,9961
2805,9960
2804,9959
2801,9957
2796,9953
2789,9948
2779,9943
2770,9939
2766,9937
2764,9936
2761,9935
2751,9932
2741,9929
2738,9928
2736,9928
2732,9927
2722,9925
2711,9924
2702,9923
2695,9923
2691,9923
2690,9923
2688,9923
2680,9924
2669,9924
2661,9925
2659,9925
2658,9925
2654,9926
2648,9927
2640,9929
2629,9932
2619,9935
2615,9936
2614,9937
2610,9939
2601,9943
2592,9948
2588,9950
2587,9951
2583,9954
2575,9960
2566,9967
2559,9972
2555,9977
2552,9979
2551,9980
2550,9981
2545,9987
2537,9997
2532,10003
2531,10004
2530,10005
2528,10008
2524,10013
2519,10020
2514,10030
2510,10039
2508,10043
2507,10045
2506,10048
2503,10058
2500,10068
2499,10071
2499,10073
2498,10077
2496,10087
2495,10098
2494,10107
2494,10114
2494,10118
2494,10119
2494,10121
2495,10129
2495,10141
2496,10149
2496,10151
2496,10152
2497,10155
2498,10162
2500,10170
2503,10180
2506,10190
2507,10193
2508,10195
2510,10199
2514,10208
2519,10217
2521,10221
2522,10222
2525,10226
2531,10234
2538,10243
2543,10250
2548,10254
2550,10257
2551,10258
2552,10259
2558,10264
2568,10273
2574,10278
2575,10279
2576,10279
2579,10282
2584,10285
2591,10290
2601,10295
2610,10299
2614,10301
2615,10301
2619,10303
2629,10306
2639,10309
2643,10310
2645,10310
2649,10311
2659,10313
2670,10314
2679,10315
2685,10315
2689,10315
2690,10315
" style="stroke:#000000;stroke-width:15;
stroke-linejoin:bevel; stroke-linecap:butt;
"/>
<!-- Line -->
<!--  spline  -->
<polyline points="2690,10972
2692,10972
2700,10971
2712,10971
2720,10970
2722,10970
2723,10970
2726,10969
2733,10968
2741,10966
2751,10963
2761,10960
2764,10958
2766,10957
2770,10956
2779,10951
2788,10946
2792,10944
2793,10943
2797,10941
2805,10935
2814,10928
2821,10922
2825,10918
2828,10915
2829,10914
2830,10913
2835,10907
2844,10897
2849,10891
2850,10890
2850,10889
2853,10886
2856,10881
2861,10874
2866,10865
2870,10856
2872,10852
2872,10851
2874,10847
2877,10837
2880,10827
2881,10823
2881,10821
2882,10817
2884,10807
2885,10796
2886,10787
2886,10781
2886,10777
2886,10776
2886,10774
2885,10766
2885,10754
2884,10746
2884,10744
2884,10743
2883,10739
2882,10733
2880,10725
2877,10714
2874,10705
2872,10701
2872,10700
2870,10696
2866,10687
2861,10678
2859,10674
2858,10673
2856,10669
2850,10661
2843,10652
2837,10645
2833,10641
2830,10638
2829,10637
2828,10636
2822,10631
2812,10622
2806,10617
2805,10616
2804,10616
2801,10613
2796,10610
2789,10605
2779,10600
2770,10595
2766,10594
2764,10593
2761,10591
2751,10588
2741,10585
2738,10584
2736,10584
2732,10583
2722,10581
2711,10580
2702,10579
2695,10579
2691,10579
2690,10579
2688,10579
2680,10580
2669,10580
2661,10581
2659,10581
2658,10581
2654,10582
2648,10583
2640,10585
2629,10588
2619,10591
2615,10593
2614,10594
2610,10595
2601,10600
2592,10605
2588,10607
2587,10608
2583,10610
2575,10616
2566,10623
2559,10629
2555,10633
2552,10636
2551,10637
2550,10638
2545,10644
2537,10654
2532,10660
2531,10661
2530,10662
2528,10665
2524,10670
2519,10677
2514,10687
2510,10696
2508,10700
2507,10701
2506,10705
2503,10714
2500,10724
2499,10728
2499,10729
2498,10734
2496,10744
2495,10755
2494,10764
2494,10771
2494,10775
2494,10776
2494,10778
2495,10786
2495,10797
2496,10805
2496,10807
2496,10808
2497,10812
2498,10818
2500,10826
2503,10837
2506,10847
2507,10851
2508,10852
2510,10856
2514,10865
2519,10874
2521,10877
2522,10878
2525,10882
2531,10890
2538,10899
2543,10905
2548,10910
2550,10913
2551,10914
2552,10915
2558,10920
2568,10929
2574,10934
2575,10935
2576,10935
2579,10938
2584,10941
2591,10946
2601,10951
2610,10956
2614,10957
2615,10958
2619,10960
2629,10963
2639,10966
2643,10967
2645,10967
2649,10968
2659,10970
2670,10971
2679,10972
2685,10972
2689,10972
2690,10972
" style="stroke:#ffffff;stroke-width:0;
stroke-linejoin:bevel; stroke-linecap:butt;
fill:#ffffff;
"/>
<!-- Line -->
<!--  spline  -->
<polyline points="2690,10972
2692,10972
2700,10971
2712,10971
2720,10970
2722,10970
2723,10970
2726,10969
2733,10968
2741,10966
2751,10963
2761,10960
2764,10958
2766,10957
2770,10956
2779,10951
2788,10946
2792,10944
2793,10943
2797,10941
2805,10935
2814,10928
2821,10922
2825,10918
2828,10915
2829,10914
2830,10913
2835,10907
2844,10897
2849,10891
2850,10890
2850,10889
2853,10886
2856,10881
2861,10874
2866,10865
2870,10856
2872,10852
2872,10851
2874,10847
2877,10837
2880,10827
2881,10823
2881,10821
2882,10817
2884,10807
2885,10796
2886,10787
2886,10781
2886,10777
2886,10776
2886,10774
2885,10766
2885,10754
2884,10746
2884,10744
2884,10743
2883,10739
2882,10733
2880,10725
2877,10714
2874,10705
2872,10701
2872,10700
2870,10696
2866,10687
2861,10678
2859,10674
2858,10673
2856,10669
2850,10661
2843,10652
2837,10645
2833,10641
2830,10638
2829,10637
2828,10636
2822,10631
2812,10622
2806,10617
2805,10616
2804,10616
2801,10613
2796,10610
2789,10605
2779,10600
2770,10595
2766,10594
2764,10593
2761,10591
2751,10588
2741,10585
2738,10584
2736,10584
2732,10583
2722,10581
2711,10580
2702,10579
2695,10579
2691,10579
2690,10579
2688,10579
2680,10580
2669,10580
2661,10581
2659,10581
2658,10581
2654,10582
2648,10583
2640,10585
2629,10588
2619,10591
2615,10593
2614,10594
2610,10595
2601,10600
2592,10605
2588,10607
2587,10608
2583,10610
2575,10616
2566,10623
2559,10629
2555,10633
2552,10636
2551,10637
2550,10638
2545,10644
2537,10654
2532,10660
2531,10661
2530,10662
2528,10665
2524,10670
2519,10677
2514,10687
2510,10696
2508,10700
2507,10701
2506,10705
2503,10714
2500,10724
2499,10728
2499,10729
2498,10734
2496,10744
2495,10755
2494,10764
2494,10771
2494,10775
2494,10776
2494,10778
2495,10786
2495,10797
2496,10805
2496,10807
2496,10808
2497,10812
2498,10818
2500,10826
2503,10837
2506,10847
2507,10851
2508,10852
2510,10856
2514,10865
2519,10874
2521,10877
2522,10878
2525,10882
2531,10890
2538,10899
2543,10905
2548,10910
2550,10913
2551,10914
2552,10915
2558,10920
2568,10929
2574,10934
2575,10935
2576,10935
2579,10938
2584,10941
2591,10946
2601,10951
2610,10956
2614,10957
2615,10958
2619,10960
2629,10963
2639,10966
2643,10967
2645,10967
2649,10968
2659,10970
2670,10971
2679,10972
2685,10972
2689,10972
2690,10972
" style="stroke:#000000;stroke-width:15;
stroke-linejoin:bevel; stroke-linecap:butt;
"/>
<!-- Line -->
<!--  spline  -->
<polyline points="2690,11628
2692,11628
2700,11627
2712,11627
2720,11626
2722,11626
2723,11626
2726,11625
2733,11624
2741,11622
2751,11619
2761,11616
2764,11614
2766,11614
2770,11612
2779,11608
2788,11603
2792,11601
2793,11600
2797,11598
2805,11592
2814,11585
2821,11579
2825,11575
2828,11572
2829,11571
2830,11570
2835,11564
2844,11554
2849,11548
2850,11547
2850,11546
2853,11543
2856,11538
2861,11531
2866,11521
2870,11512
2872,11508
2872,11506
2874,11503
2877,11493
2880,11483
2881,11480
2881,11478
2882,11474
2884,11464
2885,11453
2886,11444
2886,11437
2886,11433
2886,11432
2886,11430
2885,11422
2885,11410
2884,11402
2884,11400
2884,11399
2883,11396
2882,11389
2880,11381
2877,11371
2874,11361
2872,11358
2872,11356
2870,11352
2866,11343
2861,11334
2859,11330
2858,11329
2856,11325
2850,11317
2843,11308
2837,11301
2833,11297
2830,11294
2829,11293
2828,11292
2822,11287
2812,11278
2806,11273
2805,11272
2804,11272
2801,11269
2796,11266
2789,11261
2779,11256
2770,11252
2766,11250
2764,11250
2761,11248
2751,11245
2741,11242
2738,11241
2736,11241
2732,11240
2722,11238
2711,11237
2702,11236
2695,11236
2691,11236
2690,11236
2688,11236
2680,11237
2669,11237
2661,11238
2659,11238
2658,11238
2654,11239
2648,11240
2640,11242
2629,11245
2619,11248
2615,11250
2614,11250
2610,11252
2601,11256
2592,11261
2588,11263
2587,11264
2583,11266
2575,11272
2566,11279
2559,11285
2555,11289
2552,11292
2551,11293
2550,11294
2545,11300
2537,11310
2532,11316
2531,11317
2530,11318
2528,11321
2524,11326
2519,11333
2514,11343
2510,11352
2508,11356
2507,11358
2506,11361
2503,11371
2500,11381
2499,11384
2499,11386
2498,11390
2496,11400
2495,11411
2494,11420
2494,11427
2494,11431
2494,11432
2494,11434
2495,11442
2495,11454
2496,11462
2496,11464
2496,11465
2497,11468
2498,11475
2500,11483
2503,11493
2506,11503
2507,11506
2508,11508
2510,11512
2514,11521
2519,11530
2521,11534
2522,11535
2525,11539
2531,11547
2538,11556
2543,11563
2548,11567
2550,11570
2551,11571
2552,11572
2558,11577
2568,11586
2574,11591
2575,11592
2576,11592
2579,11595
2584,11598
2591,11603
2601,11608
2610,11612
2614,11614
2615,11614
2619,11616
2629,11619
2639,11622
2643,11623
2645,11623
2649,11624
2659,11626
2670,11627
2679,11628
2685,11628
2689,11628
2690,11628
" style="stroke:#ffffff;stroke-width:0;
stroke-linejoin:bevel; stroke-linecap:butt;
fill:#ffffff;
"/>
<!-- Line -->
<!--  spline  -->
<polyline points="2690,11628
2692,11628
2700,11627
2712,11627
2720,11626
2722,11626
2723,11626
2726,11625
2733,11624
2741,11622
2751,11619
2761,11616
2764,11614
2766,11614
2770,11612
2779,11608
2788,11603
2792,11601
2793,11600
2797,11598
2805,11592
2814,11585
2821,11579
2825,11575
2828,11572
2829,11571
2830,11570
2835,11564
2844,11554
2849,11548
2850,11547
2850,11546
2853,11543
2856,11538
2861,11531
2866,11521
2870,11512
2872,11508
2872,11506
2874,11503
2877,11493
2880,11483
2881,11480
2881,11478
2882,11474
2884,11464
2885,11453
2886,11444
2886,11437
2886,11433
2886,11432
2886,11430
2885,11422
2885,11410
2884,11402
2884,11400
2884,11399
2883,11396
2882,11389
2880,11381
2877,11371
2874,11361
2872,11358
2872,11356
2870,11352
2866,11343
2861,11334
2859,11330
2858,11329
2856,11325
2850,11317
2843,11308
2837,11301
2833,11297
2830,11294
2829,11293
2828,11292
2822,11287
2812,11278
2806,11273
2805,11272
2804,11272
2801,11269
2796,11266
2789,11261
2779,11256
2770,11252
2766,11250
2764,11250
2761,11248
2751,11245
2741,11242
2738,11241
2736,11241
2732,11240
2722,11238
2711,11237
2702,11236
2695,11236
2691,11236
2690,11236
2688,11236
2680,11237
2669,11237
2661,11238
2659,11238
2658,11238
2654,11239
2648,11240
2640,11242
2629,11245
2619,11248
2615,11250
2614,11250
2610,11252
2601,11256
2592,11261
2588,11263
2587,11264
2583,11266
2575,11272
2566,11279
2559,11285
2555,11289
2552,11292
2551,11293
2550,11294
2545,11300
2537,11310
2532,11316
2531,11317
2530,11318
2528,11321
2524,11326
2519,11333
2514,11343
2510,11352
2508,11356
2507,11358
2506,11361
2503,11371
2500,11381
2499,11384
2499,11386
2498,11390
2496,11400
2495,11411
2494,11420
2494,11427
2494,11431
2494,11432
2494,11434
2495,11442
2495,11454
2496,11462
2496,11464
2496,11465
2497,11468
2498,11475
2500,11483
2503,11493
2506,11503
2507,11506
2508,11508
2510,11512
2514,11521
2519,11530
2521,11534
2522,11535
2525,11539
2531,11547
2538,11556
2543,11563
2548,11567
2550,11570
2551,11571
2552,11572
2558,11577
2568,11586
2574,11591
2575,11592
2576,11592
2579,11595
2584,11598
2591,11603
2601,11608
2610,11612
2614,11614
2615,11614
2619,11616
2629,11619
2639,11622
2643,11623
2645,11623
2649,11624
2659,11626
2670,11627
2679,11628
2685,11628
2689,11628
2690,11628
" style="stroke:#000000;stroke-width:15;
stroke-linejoin:bevel; stroke-linecap:butt;
"/>
<!-- Line -->
<!--  spline  -->
<polyline points="2690,12285
2692,12285
2700,12284
2712,12284
2720,12283
2722,12283
2723,12283
2726,12282
2733,12281
2741,12279
2751,12276
2761,12273
2764,12271
2766,12270
2770,12269
2779,12264
2788,12259
2792,12257
2793,12256
2797,12254
2805,12248
2814,12241
2821,12235
2825,12231
2828,12228
2829,12227
2830,12226
2835,12220
2844,12210
2849,12204
2850,12203
2850,12202
2853,12199
2856,12194
2861,12187
2866,12178
2870,12169
2872,12165
2872,12164
2874,12160
2877,12150
2880,12140
2881,12136
2881,12134
2882,12130
2884,12120
2885,12109
2886,12100
2886,12094
2886,12090
2886,12089
2886,12087
2885,12079
2885,12067
2884,12059
2884,12057
2884,12056
2883,12052
2882,12046
2880,12038
2877,12027
2874,12018
2872,12014
2872,12013
2870,12009
2866,12000
2861,11991
2859,11987
2858,11986
2856,11982
2850,11974
2843,11965
2837,11958
2833,11954
2830,11951
2829,11950
2828,11949
2822,11944
2812,11935
2806,11930
2805,11929
2804,11929
2801,11926
2796,11923
2789,11918
2779,11913
2770,11908
2766,11907
2764,11906
2761,11904
2751,11901
2741,11898
2738,11897
2736,11897
2732,11897
2722,11895
2711,11894
2702,11893
2695,11892
2691,11892
2690,11892
2688,11892
2680,11893
2669,11894
2661,11895
2659,11895
2658,11895
2654,11896
2648,11896
2640,11898
2629,11901
2619,11904
2615,11906
2614,11907
2610,11908
2601,11913
2592,11918
2588,11920
2587,11921
2583,11923
2575,11929
2566,11936
2559,11942
2555,11946
2552,11949
2551,11950
2550,11951
2545,11957
2537,11967
2532,11973
2531,11974
2530,11975
2528,11978
2524,11983
2519,11990
2514,12000
2510,12009
2508,12013
2507,12014
2506,12018
2503,12027
2500,12037
2499,12041
2499,12042
2498,12047
2496,12057
2495,12068
2494,12077
2494,12084
2494,12088
2494,12089
2494,12091
2495,12099
2495,12110
2496,12118
2496,12120
2496,12121
2497,12125
2498,12131
2500,12139
2503,12150
2506,12160
2507,12164
2508,12165
2510,12169
2514,12178
2519,12187
2521,12190
2522,12191
2525,12195
2531,12203
2538,12212
2543,12218
2548,12223
2550,12226
2551,12227
2552,12228
2558,12233
2568,12242
2574,12247
2575,12248
2576,12248
2579,12251
2584,12254
2591,12259
2601,12264
2610,12269
2614,12270
2615,12271
2619,12273
2629,12276
2639,12279
2643,12280
2645,12280
2649,12281
2659,12283
2670,12284
2679,12285
2685,12285
2689,12285
2690,12285
" style="stroke:#ffffff;stroke-width:0;
stroke-linejoin:bevel; stroke-linecap:butt;
fill:#ffffff;
"/>
<!-- Line -->
<!--  spline  -->
<polyline points="2690,12285
2692,12285
2700,12284
2712,12284
2720,12283
2722,12283
2723,12283
2726,12282
2733,12281
2741,12279
2751,12276
2761,12273
2764,12271
2766,12270
2770,12269
2779,12264
2788,12259
2792,12257
2793,12256
2797,12254
2805,12248
2814,12241
2821,12235
2825,12231
2828,12228
2829,12227
2830,12226
2835,12220
2844,12210
2849,12204
2850,12203
2850,12202
2853,12199
2856,12194
2861,12187
2866,12178
2870,12169
2872,12165
2872,12164
2874,12160
2877,12150
2880,12140
2881,12136
2881,12134
2882,12130
2884,12120
2885,12109
2886,12100
2886,12094
2886,12090
2886,12089
2886,12087
2885,12079
2885,12067
2884,12059
2884,12057
2884,12056
2883,12052
2882,12046
2880,12038
2877,12027
2874,12018
2872,12014
2872,12013
2870,12009
2866,12000
2861,11991
2859,11987
2858,11986
2856,11982
2850,11974
2843,11965
2837,11958
2833,11954
2830,11951
2829,11950
2828,11949
2822,11944
2812,11935
2806,11930
2805,11929
2804,11929
2801,11926
2796,11923
2789,11918
2779,11913
2770,11908
2766,11907
2764,11906
2761,11904
2751,11901
2741,11898
2738,11897
2736,11897
2732,11897
2722,11895
2711,11894
2702,11893
2695,11892
2691,11892
2690,11892
2688,11892
2680,11893
2669,11894
2661,11895
2659,11895
2658,11895
2654,11896
2648,11896
2640,11898
2629,11901
2619,11904
2615,11906
2614,11907
2610,11908
2601,11913
2592,11918
2588,11920
2587,11921
2583,11923
2575,11929
2566,11936
2559,11942
2555,11946
2552,11949
2551,11950
2550,11951
2545,11957
2537,11967
2532,11973
2531,11974
2530,11975
2528,11978
2524,11983
2519,11990
2514,12000
2510,12009
2508,12013
2507,12014
2506,12018
2503,12027
2500,12037
2499,12041
2499,12042
2498,12047
2496,12057
2495,12068
2494,12077
2494,12084
2494,12088
2494,12089
2494,12091
2495,12099
2495,12110
2496,12118
2496,12120
2496,12121
2497,12125
2498,12131
2500,12139
2503,12150
2506,12160
2507,12164
2508,12165
2510,12169
2514,12178
2519,12187
2521,12190
2522,12191
2525,12195
2531,12203
2538,12212
2543,12218
2548,12223
2550,12226
2551,12227
2552,12228
2558,12233
2568,12242
2574,12247
2575,12248
2576,12248
2579,12251
2584,12254
2591,12259
2601,12264
2610,12269
2614,12270
2615,12271
2619,12273
2629,12276
2639,12279
2643,12280
2645,12280
2649,12281
2659,12283
2670,12284
2679,12285
2685,12285
2689,12285
2690,12285
" style="stroke:#000000;stroke-width:15;
stroke-linejoin:bevel; stroke-linecap:butt;
"/>
<!-- Line -->
<!--  polyline  -->
<polyline points="3850,11915
3850,11915
3850,11915
" style="stroke:#000000;stroke-width:7;
stroke-linejoin:miter; stroke-linecap:butt;
"/>
<!-- Line -->
<!--  polyline  -->
<polyline points="3850,11328
3850,11328
3850,11328
" style="stroke:#000000;stroke-width:7;
stroke-linejoin:miter; stroke-linecap:butt;
"/>
<!-- Line -->
<!--  polyline  -->
<polyline points="3850,10742
3850,10742
3850,10742
" style="stroke:#000000;stroke-width:7;
stroke-linejoin:miter; stroke-linecap:butt;
"/>
<!-- Line -->
<!--  spline  -->
<polyline points="3653,11915
3655,11915
3663,11914
3675,11913
3683,11912
3685,11912
3686,11912
3690,11911
3696,11911
3704,11909
3715,11906
3724,11903
3728,11901
3729,11900
3733,11899
3742,11894
3751,11889
3755,11887
3756,11886
3760,11884
3768,11878
3777,11871
3784,11865
3788,11861
3791,11858
3792,11857
3793,11856
3798,11850
3807,11840
3812,11834
3813,11833
3813,11832
3816,11829
3819,11824
3824,11817
3829,11807
3833,11798
3835,11794
3835,11793
3837,11789
3840,11780
3843,11770
3844,11766
3844,11765
3845,11760
3847,11750
3849,11739
3849,11730
3850,11723
3850,11719
3850,11718
3850,11716
3849,11708
3848,11697
3847,11689
3847,11687
3847,11686
3846,11682
3845,11676
3843,11668
3840,11657
3837,11647
3835,11643
3835,11642
3833,11638
3829,11629
3824,11620
3822,11617
3821,11616
3819,11612
3813,11604
3806,11595
3800,11589
3796,11584
3793,11581
3792,11580
3791,11579
3785,11574
3775,11565
3769,11560
3768,11559
3767,11559
3764,11556
3759,11553
3752,11548
3742,11543
3733,11538
3729,11537
3728,11536
3724,11534
3715,11531
3705,11528
3701,11527
3700,11527
3695,11526
3685,11524
3674,11523
3665,11522
3658,11522
3654,11522
3653,11522
3651,11522
3643,11523
3632,11523
3624,11524
3622,11524
3621,11524
3617,11525
3611,11526
3603,11528
3592,11531
3582,11534
3578,11536
3577,11537
3573,11538
3564,11543
3555,11548
3551,11550
3550,11551
3546,11553
3538,11559
3529,11566
3523,11572
3518,11576
3516,11579
3515,11580
3514,11581
3509,11587
3500,11597
3495,11603
3494,11604
3494,11605
3491,11608
3488,11613
3483,11620
3478,11629
3473,11638
3472,11642
3471,11643
3469,11647
3466,11657
3463,11667
3462,11671
3462,11673
3461,11677
3459,11687
3458,11698
3457,11707
3457,11713
3457,11717
3457,11718
3457,11720
3458,11728
3458,11740
3459,11748
3459,11750
3459,11751
3460,11755
3461,11761
3463,11769
3466,11780
3469,11789
3471,11793
3472,11794
3473,11798
3478,11807
3483,11816
3485,11820
3486,11821
3488,11825
3494,11833
3501,11842
3507,11849
3511,11853
3514,11856
3515,11857
3516,11858
3522,11863
3531,11872
3537,11877
3538,11878
3539,11878
3542,11881
3547,11884
3554,11889
3564,11894
3573,11899
3577,11900
3578,11901
3582,11903
3592,11906
3602,11909
3606,11910
3608,11910
3612,11910
3622,11912
3633,11913
3642,11914
3648,11915
3652,11915
3653,11915
" style="stroke:#ffffff;stroke-width:0;
stroke-linejoin:bevel; stroke-linecap:butt;
fill:#ffffff;
"/>
<!-- Line -->
<!--  spline  -->
<polyline points="3653,11915
3655,11915
3663,11914
3675,11913
3683,11912
3685,11912
3686,11912
3690,11911
3696,11911
3704,11909
3715,11906
3724,11903
3728,11901
3729,11900
3733,11899
3742,11894
3751,11889
3755,11887
3756,11886
3760,11884
3768,11878
3777,11871
3784,11865
3788,11861
3791,11858
3792,11857
3793,11856
3798,11850
3807,11840
3812,11834
3813,11833
3813,11832
3816,11829
3819,11824
3824,11817
3829,11807
3833,11798
3835,11794
3835,11793
3837,11789
3840,11780
3843,11770
3844,11766
3844,11765
3845,11760
3847,11750
3849,11739
3849,11730
3850,11723
3850,11719
3850,11718
3850,11716
3849,11708
3848,11697
3847,11689
3847,11687
3847,11686
3846,11682
3845,11676
3843,11668
3840,11657
3837,11647
3835,11643
3835,11642
3833,11638
3829,11629
3824,11620
3822,11617
3821,11616
3819,11612
3813,11604
3806,11595
3800,11589
3796,11584
3793,11581
3792,11580
3791,11579
3785,11574
3775,11565
3769,11560
3768,11559
3767,11559
3764,11556
3759,11553
3752,11548
3742,11543
3733,11538
3729,11537
3728,11536
3724,11534
3715,11531
3705,11528
3701,11527
3700,11527
3695,11526
3685,11524
3674,11523
3665,11522
3658,11522
3654,11522
3653,11522
3651,11522
3643,11523
3632,11523
3624,11524
3622,11524
3621,11524
3617,11525
3611,11526
3603,11528
3592,11531
3582,11534
3578,11536
3577,11537
3573,11538
3564,11543
3555,11548
3551,11550
3550,11551
3546,11553
3538,11559
3529,11566
3523,11572
3518,11576
3516,11579
3515,11580
3514,11581
3509,11587
3500,11597
3495,11603
3494,11604
3494,11605
3491,11608
3488,11613
3483,11620
3478,11629
3473,11638
3472,11642
3471,11643
3469,11647
3466,11657
3463,11667
3462,11671
3462,11673
3461,11677
3459,11687
3458,11698
3457,11707
3457,11713
3457,11717
3457,11718
3457,11720
3458,11728
3458,11740
3459,11748
3459,11750
3459,11751
3460,11755
3461,11761
3463,11769
3466,11780
3469,11789
3471,11793
3472,11794
3473,11798
3478,11807
3483,11816
3485,11820
3486,11821
3488,11825
3494,11833
3501,11842
3507,11849
3511,11853
3514,11856
3515,11857
3516,11858
3522,11863
3531,11872
3537,11877
3538,11878
3539,11878
3542,11881
3547,11884
3554,11889
3564,11894
3573,11899
3577,11900
3578,11901
3582,11903
3592,11906
3602,11909
3606,11910
3608,11910
3612,11910
3622,11912
3633,11913
3642,11914
3648,11915
3652,11915
3653,11915
" style="stroke:#000000;stroke-width:15;
stroke-linejoin:bevel; stroke-linecap:butt;
"/>
<!-- Line -->
<!--  spline  -->
<polyline points="3653,11328
3655,11328
3663,11327
3675,11327
3683,11326
3685,11326
3686,11326
3690,11325
3696,11324
3704,11322
3715,11319
3724,11316
3728,11314
3729,11314
3733,11312
3742,11308
3751,11303
3755,11301
3756,11300
3760,11298
3768,11292
3777,11285
3784,11279
3788,11275
3791,11272
3792,11271
3793,11270
3798,11264
3807,11254
3812,11248
3813,11247
3813,11246
3816,11243
3819,11238
3824,11231
3829,11221
3833,11212
3835,11208
3835,11206
3837,11203
3840,11193
3843,11183
3844,11180
3844,11178
3845,11174
3847,11164
3849,11153
3849,11144
3850,11137
3850,11133
3850,11132
3850,11130
3849,11122
3848,11110
3847,11102
3847,11100
3847,11099
3846,11096
3845,11089
3843,11081
3840,11071
3837,11061
3835,11058
3835,11056
3833,11052
3829,11043
3824,11034
3822,11030
3821,11029
3819,11025
3813,11017
3806,11008
3800,11001
3796,10997
3793,10994
3792,10993
3791,10992
3785,10987
3775,10978
3769,10973
3768,10972
3767,10972
3764,10969
3759,10966
3752,10961
3742,10956
3733,10952
3729,10950
3728,10950
3724,10948
3715,10945
3705,10942
3701,10941
3700,10941
3695,10940
3685,10938
3674,10937
3665,10936
3658,10936
3654,10936
3653,10936
3651,10936
3643,10937
3632,10937
3624,10938
3622,10938
3621,10938
3617,10939
3611,10940
3603,10942
3592,10945
3582,10948
3578,10950
3577,10950
3573,10952
3564,10956
3555,10961
3551,10963
3550,10964
3546,10966
3538,10972
3529,10979
3523,10985
3518,10989
3516,10992
3515,10993
3514,10994
3509,11000
3500,11010
3495,11016
3494,11017
3494,11018
3491,11021
3488,11026
3483,11033
3478,11043
3473,11052
3472,11056
3471,11058
3469,11061
3466,11071
3463,11081
3462,11084
3462,11086
3461,11090
3459,11100
3458,11111
3457,11120
3457,11127
3457,11131
3457,11132
3457,11134
3458,11142
3458,11154
3459,11162
3459,11164
3459,11165
3460,11168
3461,11175
3463,11183
3466,11193
3469,11203
3471,11206
3472,11208
3473,11212
3478,11221
3483,11230
3485,11234
3486,11235
3488,11239
3494,11247
3501,11256
3507,11263
3511,11267
3514,11270
3515,11271
3516,11272
3522,11277
3531,11286
3537,11291
3538,11292
3539,11292
3542,11295
3547,11298
3554,11303
3564,11308
3573,11312
3577,11314
3578,11314
3582,11316
3592,11319
3602,11322
3606,11323
3608,11323
3612,11324
3622,11326
3633,11327
3642,11328
3648,11328
3652,11328
3653,11328
" style="stroke:#ffffff;stroke-width:0;
stroke-linejoin:bevel; stroke-linecap:butt;
fill:#ffffff;
"/>
<!-- Line -->
<!--  spline  -->
<polyline points="3653,11328
3655,11328
3663,11327
3675,11327
3683,11326
3685,11326
3686,11326
3690,11325
3696,11324
3704,11322
3715,11319
3724,11316
3728,11314
3729,11314
3733,11312
3742,11308
3751,11303
3755,11301
3756,11300
3760,11298
3768,11292
3777,11285
3784,11279
3788,11275
3791,11272
3792,11271
3793,11270
3798,11264
3807,11254
3812,11248
3813,11247
3813,11246
3816,11243
3819,11238
3824,11231
3829,11221
3833,11212
3835,11208
3835,11206
3837,11203
3840,11193
3843,11183
3844,11180
3844,11178
3845,11174
3847,11164
3849,11153
3849,11144
3850,11137
3850,11133
3850,11132
3850,11130
3849,11122
3848,11110
3847,11102
3847,11100
3847,11099
3846,11096
3845,11089
3843,11081
3840,11071
3837,11061
3835,11058
3835,11056
3833,11052
3829,11043
3824,11034
3822,11030
3821,11029
3819,11025
3813,11017
3806,11008
3800,11001
3796,10997
3793,10994
3792,10993
3791,10992
3785,10987
3775,10978
3769,10973
3768,10972
3767,10972
3764,10969
3759,10966
3752,10961
3742,10956
3733,10952
3729,10950
3728,10950
3724,10948
3715,10945
3705,10942
3701,10941
3700,10941
3695,10940
3685,10938
3674,10937
3665,10936
3658,10936
3654,10936
3653,10936
3651,10936
3643,10937
3632,10937
3624,10938
3622,10938
3621,10938
3617,10939
3611,10940
3603,10942
3592,10945
3582,10948
3578,10950
3577,10950
3573,10952
3564,10956
3555,10961
3551,10963
3550,10964
3546,10966
3538,10972
3529,10979
3523,10985
3518,10989
3516,10992
3515,10993
3514,10994
3509,11000
3500,11010
3495,11016
3494,11017
3494,11018
3491,11021
3488,11026
3483,11033
3478,11043
3473,11052
3472,11056
3471,11058
3469,11061
3466,11071
3463,11081
3462,11084
3462,11086
3461,11090
3459,11100
3458,11111
3457,11120
3457,11127
3457,11131
3457,11132
3457,11134
3458,11142
3458,11154
3459,11162
3459,11164
3459,11165
3460,11168
3461,11175
3463,11183
3466,11193
3469,11203
3471,11206
3472,11208
3473,11212
3478,11221
3483,11230
3485,11234
3486,11235
3488,11239
3494,11247
3501,11256
3507,11263
3511,11267
3514,11270
3515,11271
3516,11272
3522,11277
3531,11286
3537,11291
3538,11292
3539,11292
3542,11295
3547,11298
3554,11303
3564,11308
3573,11312
3577,11314
3578,11314
3582,11316
3592,11319
3602,11322
3606,11323
3608,11323
3612,11324
3622,11326
3633,11327
3642,11328
3648,11328
3652,11328
3653,11328
" style="stroke:#000000;stroke-width:15;
stroke-linejoin:bevel; stroke-linecap:butt;
"/>
<!-- Line -->
<!--  spline  -->
<polyline points="3653,10742
3655,10742
3663,10741
3675,10741
3683,10740
3685,10740
3686,10740
3690,10739
3696,10738
3704,10736
3715,10733
3724,10730
3728,10728
3729,10727
3733,10726
3742,10721
3751,10716
3755,10714
3756,10713
3760,10711
3768,10705
3777,10698
3784,10692
3788,10688
3791,10685
3792,10684
3793,10683
3798,10677
3807,10667
3812,10661
3813,10660
3813,10659
3816,10656
3819,10651
3824,10644
3829,10635
3833,10626
3835,10622
3835,10621
3837,10617
3840,10607
3843,10597
3844,10593
3844,10591
3845,10587
3847,10577
3849,10566
3849,10557
3850,10551
3850,10547
3850,10546
3850,10544
3849,10536
3848,10524
3847,10516
3847,10514
3847,10513
3846,10509
3845,10503
3843,10495
3840,10484
3837,10475
3835,10471
3835,10470
3833,10466
3829,10457
3824,10448
3822,10444
3821,10443
3819,10439
3813,10431
3806,10422
3800,10415
3796,10411
3793,10408
3792,10407
3791,10406
3785,10401
3775,10392
3769,10387
3768,10386
3767,10386
3764,10383
3759,10380
3752,10375
3742,10370
3733,10365
3729,10364
3728,10363
3724,10361
3715,10358
3705,10355
3701,10354
3700,10354
3695,10353
3685,10351
3674,10350
3665,10349
3658,10349
3654,10349
3653,10349
3651,10349
3643,10350
3632,10350
3624,10351
3622,10351
3621,10351
3617,10352
3611,10353
3603,10355
3592,10358
3582,10361
3578,10363
3577,10364
3573,10365
3564,10370
3555,10375
3551,10377
3550,10378
3546,10380
3538,10386
3529,10393
3523,10399
3518,10403
3516,10406
3515,10407
3514,10408
3509,10414
3500,10424
3495,10430
3494,10431
3494,10432
3491,10435
3488,10440
3483,10447
3478,10457
3473,10466
3472,10470
3471,10471
3469,10475
3466,10484
3463,10494
3462,10498
3462,10499
3461,10504
3459,10514
3458,10525
3457,10534
3457,10541
3457,10545
3457,10546
3457,10548
3458,10556
3458,10567
3459,10575
3459,10577
3459,10578
3460,10582
3461,10588
3463,10596
3466,10607
3469,10617
3471,10621
3472,10622
3473,10626
3478,10635
3483,10644
3485,10647
3486,10648
3488,10652
3494,10660
3501,10669
3507,10675
3511,10680
3514,10683
3515,10684
3516,10685
3522,10690
3531,10699
3537,10704
3538,10705
3539,10705
3542,10708
3547,10711
3554,10716
3564,10721
3573,10726
3577,10727
3578,10728
3582,10730
3592,10733
3602,10736
3606,10737
3608,10737
3612,10738
3622,10740
3633,10741
3642,10742
3648,10742
3652,10742
3653,10742
" style="stroke:#ffffff;stroke-width:0;
stroke-linejoin:bevel; stroke-linecap:butt;
fill:#ffffff;
"/>
<!-- Line -->
<!--  spline  -->
<polyline points="3653,10742
3655,10742
3663,10741
3675,10741
3683,10740
3685,10740
3686,10740
3690,10739
3696,10738
3704,10736
3715,10733
3724,10730
3728,10728
3729,10727
3733,10726
3742,10721
3751,10716
3755,10714
3756,10713
3760,10711
3768,10705
3777,10698
3784,10692
3788,10688
3791,10685
3792,10684
3793,10683
3798,10677
3807,10667
3812,10661
3813,10660
3813,10659
3816,10656
3819,10651
3824,10644
3829,10635
3833,10626
3835,10622
3835,10621
3837,10617
3840,10607
3843,10597
3844,10593
3844,10591
3845,10587
3847,10577
3849,10566
3849,10557
3850,10551
3850,10547
3850,10546
3850,10544
3849,10536
3848,10524
3847,10516
3847,10514
3847,10513
3846,10509
3845,10503
3843,10495
3840,10484
3837,10475
3835,10471
3835,10470
3833,10466
3829,10457
3824,10448
3822,10444
3821,10443
3819,10439
3813,10431
3806,10422
3800,10415
3796,10411
3793,10408
3792,10407
3791,10406
3785,10401
3775,10392
3769,10387
3768,10386
3767,10386
3764,10383
3759,10380
3752,10375
3742,10370
3733,10365
3729,10364
3728,10363
3724,10361
3715,10358
3705,10355
3701,10354
3700,10354
3695,10353
3685,10351
3674,10350
3665,10349
3658,10349
3654,10349
3653,10349
3651,10349
3643,10350
3632,10350
3624,10351
3622,10351
3621,10351
3617,10352
3611,10353
3603,10355
3592,10358
3582,10361
3578,10363
3577,10364
3573,10365
3564,10370
3555,10375
3551,10377
3550,10378
3546,10380
3538,10386
3529,10393
3523,10399
3518,10403
3516,10406
3515,10407
3514,10408
3509,10414
3500,10424
3495,10430
3494,10431
3494,10432
3491,10435
3488,10440
3483,10447
3478,10457
3473,10466
3472,10470
3471,10471
3469,10475
3466,10484
3463,10494
3462,10498
3462,10499
3461,10504
3459,10514
3458,10525
3457,10534
3457,10541
3457,10545
3457,10546
3457,10548
3458,10556
3458,10567
3459,10575
3459,10577
3459,10578
3460,10582
3461,10588
3463,10596
3466,10607
3469,10617
3471,10621
3472,10622
3473,10626
3478,10635
3483,10644
3485,10647
3486,10648
3488,10652
3494,10660
3501,10669
3507,10675
3511,10680
3514,10683
3515,10684
3516,10685
3522,10690
3531,10699
3537,10704
3538,10705
3539,10705
3542,10708
3547,10711
3554,10716
3564,10721
3573,10726
3577,10727
3578,10728
3582,10730
3592,10733
3602,10736
3606,10737
3608,10737
3612,10738
3622,10740
3633,10741
3642,10742
3648,10742
3652,10742
3653,10742
" style="stroke:#000000;stroke-width:15;
stroke-linejoin:bevel; stroke-linecap:butt;
"/>
<!-- Line -->
<!--  spline  -->
<polyline points="4782,11347
4784,11347
4792,11346
4803,11346
4811,11345
4813,11345
4814,11345
4818,11344
4824,11343
4832,11341
4843,11338
4853,11335
4857,11333
4858,11333
4862,11331
4871,11327
4880,11322
4884,11320
4885,11319
4889,11317
4897,11311
4906,11304
4913,11298
4917,11294
4920,11291
4921,11290
4922,11289
4927,11283
4935,11273
4940,11267
4941,11266
4941,11265
4944,11262
4947,11257
4952,11250
4957,11240
4962,11231
4963,11227
4964,11225
4966,11222
4969,11212
4972,11202
4973,11199
4973,11197
4974,11193
4976,11183
4977,11172
4978,11163
4978,11156
4978,11152
4978,11151
4978,11149
4977,11141
4977,11129
4976,11121
4976,11119
4976,11118
4975,11115
4974,11108
4972,11100
4969,11090
4966,11080
4964,11077
4963,11075
4962,11071
4957,11062
4952,11053
4950,11049
4949,11048
4947,11044
4941,11036
4934,11027
4929,11020
4924,11016
4922,11013
4921,11012
4920,11011
4914,11006
4904,10997
4898,10992
4897,10991
4896,10991
4893,10988
4888,10985
4881,10980
4871,10975
4862,10971
4858,10969
4857,10969
4853,10967
4843,10964
4833,10961
4829,10960
4827,10960
4823,10959
4813,10957
4802,10956
4793,10955
4787,10955
4783,10955
4782,10955
4780,10955
4772,10956
4760,10956
4752,10957
4750,10957
4749,10957
4746,10958
4739,10959
4731,10961
4721,10964
4711,10967
4708,10969
4706,10969
4702,10971
4693,10975
4684,10980
4680,10982
4679,10983
4675,10985
4667,10991
4658,10998
4651,11004
4647,11008
4644,11011
4643,11012
4642,11013
4637,11019
4628,11029
4623,11035
4622,11036
4622,11037
4619,11040
4616,11045
4611,11052
4606,11062
4602,11071
4600,11075
4600,11077
4598,11080
4595,11090
4592,11100
4591,11103
4591,11105
4590,11109
4588,11119
4586,11130
4586,11139
4585,11146
4585,11150
4585,11151
4585,11153
4586,11161
4587,11173
4588,11181
4588,11183
4588,11184
4589,11187
4590,11194
4592,11202
4595,11212
4598,11222
4600,11225
4600,11227
4602,11231
4606,11240
4611,11249
4613,11253
4614,11254
4616,11258
4622,11266
4629,11275
4635,11282
4639,11286
4642,11289
4643,11290
4644,11291
4650,11296
4660,11305
4666,11310
4667,11311
4668,11311
4671,11314
4676,11317
4683,11322
4693,11327
4702,11331
4706,11333
4708,11333
4711,11335
4721,11338
4731,11341
4734,11342
4736,11342
4740,11343
4750,11345
4761,11346
4770,11347
4777,11347
4781,11347
4782,11347
" style="stroke:#ffffff;stroke-width:0;
stroke-linejoin:bevel; stroke-linecap:butt;
fill:#ffffff;
"/>
<!-- Line -->
<!--  spline  -->
<polyline points="4782,11347
4784,11347
4792,11346
4803,11346
4811,11345
4813,11345
4814,11345
4818,11344
4824,11343
4832,11341
4843,11338
4853,11335
4857,11333
4858,11333
4862,11331
4871,11327
4880,11322
4884,11320
4885,11319
4889,11317
4897,11311
4906,11304
4913,11298
4917,11294
4920,11291
4921,11290
4922,11289
4927,11283
4935,11273
4940,11267
4941,11266
4941,11265
4944,11262
4947,11257
4952,11250
4957,11240
4962,11231
4963,11227
4964,11225
4966,11222
4969,11212
4972,11202
4973,11199
4973,11197
4974,11193
4976,11183
4977,11172
4978,11163
4978,11156
4978,11152
4978,11151
4978,11149
4977,11141
4977,11129
4976,11121
4976,11119
4976,11118
4975,11115
4974,11108
4972,11100
4969,11090
4966,11080
4964,11077
4963,11075
4962,11071
4957,11062
4952,11053
4950,11049
4949,11048
4947,11044
4941,11036
4934,11027
4929,11020
4924,11016
4922,11013
4921,11012
4920,11011
4914,11006
4904,10997
4898,10992
4897,10991
4896,10991
4893,10988
4888,10985
4881,10980
4871,10975
4862,10971
4858,10969
4857,10969
4853,10967
4843,10964
4833,10961
4829,10960
4827,10960
4823,10959
4813,10957
4802,10956
4793,10955
4787,10955
4783,10955
4782,10955
4780,10955
4772,10956
4760,10956
4752,10957
4750,10957
4749,10957
4746,10958
4739,10959
4731,10961
4721,10964
4711,10967
4708,10969
4706,10969
4702,10971
4693,10975
4684,10980
4680,10982
4679,10983
4675,10985
4667,10991
4658,10998
4651,11004
4647,11008
4644,11011
4643,11012
4642,11013
4637,11019
4628,11029
4623,11035
4622,11036
4622,11037
4619,11040
4616,11045
4611,11052
4606,11062
4602,11071
4600,11075
4600,11077
4598,11080
4595,11090
4592,11100
4591,11103
4591,11105
4590,11109
4588,11119
4586,11130
4586,11139
4585,11146
4585,11150
4585,11151
4585,11153
4586,11161
4587,11173
4588,11181
4588,11183
4588,11184
4589,11187
4590,11194
4592,11202
4595,11212
4598,11222
4600,11225
4600,11227
4602,11231
4606,11240
4611,11249
4613,11253
4614,11254
4616,11258
4622,11266
4629,11275
4635,11282
4639,11286
4642,11289
4643,11290
4644,11291
4650,11296
4660,11305
4666,11310
4667,11311
4668,11311
4671,11314
4676,11317
4683,11322
4693,11327
4702,11331
4706,11333
4708,11333
4711,11335
4721,11338
4731,11341
4734,11342
4736,11342
4740,11343
4750,11345
4761,11346
4770,11347
4777,11347
4781,11347
4782,11347
" style="stroke:#000000;stroke-width:15;
stroke-linejoin:bevel; stroke-linecap:butt;
"/>
<!-- Line -->
<!--  polyline  -->
<polyline points="2432,12112
1727,12112
" style="stroke:#000000;stroke-width:7;
stroke-linejoin:miter; stroke-linecap:butt;
"/>
<!-- Line -->
<!--  spline  -->
<polyline points="2492,12112
2491,12112
2486,12109
2473,12104
2452,12096
2427,12086
2403,12077
2382,12069
2369,12064
2364,12061
2363,12061
2363,12062
2362,12065
2361,12069
2360,12072
2360,12073
2360,12075
2359,12078
2359,12081
2358,12085
2357,12089
2357,12090
2357,12092
2356,12095
2356,12098
2355,12099
2355,12100
2355,12101
2355,12104
2355,12107
2354,12109
2354,12111
2354,12112
2354,12114
2355,12118
2355,12120
2355,12121
2355,12123
2356,12125
2356,12129
2357,12132
2357,12134
2357,12135
2357,12136
2358,12140
2359,12144
2359,12145
2359,12146
2359,12147
2360,12151
2361,12155
2362,12159
2362,12162
2363,12164
2364,12164
2369,12161
2382,12156
2403,12148
2428,12138
2452,12128
2473,12120
2486,12115
2491,12112
2492,12112
" style="stroke:#000000;stroke-width:0;
stroke-linejoin:bevel; stroke-linecap:butt;
fill:#000000;
"/>
<!-- Line -->
<!--  polyline  -->
<polyline points="2421,11437
1716,11437
" style="stroke:#000000;stroke-width:7;
stroke-linejoin:miter; stroke-linecap:butt;
"/>
<!-- Line -->
<!--  spline  -->
<polyline points="2481,11437
2480,11437
2475,11434
2462,11429
2442,11421
2417,11411
2392,11402
2372,11394
2359,11389
2354,11386
2353,11386
2353,11387
2352,11390
2350,11394
2349,11397
2349,11398
2349,11400
2348,11403
2348,11406
2347,11410
2346,11414
2346,11415
2346,11417
2345,11420
2345,11423
2344,11424
2344,11425
2344,11426
2344,11429
2344,11432
2343,11434
2343,11436
2343,11437
2343,11439
2344,11443
2344,11445
2344,11446
2344,11448
2345,11450
2345,11454
2346,11457
2346,11459
2346,11460
2346,11461
2347,11465
2348,11469
2348,11470
2348,11471
2348,11472
2349,11476
2350,11480
2351,11484
2352,11487
2353,11489
2354,11489
2359,11486
2372,11481
2392,11473
2417,11463
2442,11453
2462,11445
2475,11440
2480,11437
2481,11437
" style="stroke:#000000;stroke-width:0;
stroke-linejoin:bevel; stroke-linecap:butt;
fill:#000000;
"/>
<!-- Line -->
<!--  polyline  -->
<polyline points="2432,10112
1727,10112
" style="stroke:#000000;stroke-width:7;
stroke-linejoin:miter; stroke-linecap:butt;
"/>
<!-- Line -->
<!--  spline  -->
<polyline points="2492,10112
2491,10112
2486,10109
2473,10104
2452,10096
2427,10086
2403,10077
2382,10069
2369,10064
2364,10061
2363,10061
2363,10062
2362,10065
2361,10069
2360,10072
2360,10073
2360,10075
2359,10078
2359,10081
2358,10085
2357,10089
2357,10090
2357,10092
2356,10095
2356,10098
2355,10099
2355,10100
2355,10101
2355,10104
2355,10107
2354,10109
2354,10111
2354,10112
2354,10114
2355,10118
2355,10120
2355,10121
2355,10123
2356,10126
2356,10129
2357,10132
2357,10134
2357,10135
2358,10139
2359,10143
2359,10144
2359,10145
2359,10147
2360,10151
2361,10156
2362,10159
2362,10162
2363,10164
2364,10164
2369,10161
2382,10156
2403,10148
2428,10138
2452,10128
2473,10120
2486,10115
2491,10112
2492,10112
" style="stroke:#000000;stroke-width:0;
stroke-linejoin:bevel; stroke-linecap:butt;
fill:#000000;
"/>
<!-- Line -->
<!--  polyline  -->
<polyline points="2421,10779
1716,10779
" style="stroke:#000000;stroke-width:7;
stroke-linejoin:miter; stroke-linecap:butt;
"/>
<!-- Line -->
<!--  spline  -->
<polyline points="2481,10779
2480,10779
2475,10776
2462,10771
2442,10763
2417,10753
2392,10743
2372,10735
2359,10730
2354,10727
2353,10727
2353,10728
2352,10731
2350,10736
2349,10739
2349,10740
2349,10742
2348,10745
2348,10748
2347,10752
2346,10756
2346,10757
2346,10759
2345,10762
2345,10765
2344,10766
2344,10767
2344,10768
2344,10771
2344,10774
2343,10776
2343,10778
2343,10779
2343,10781
2344,10785
2344,10787
2344,10788
2344,10790
2345,10793
2345,10796
2346,10799
2346,10801
2346,10802
2347,10806
2348,10810
2348,10811
2348,10812
2348,10814
2349,10818
2350,10822
2351,10826
2352,10828
2353,10830
2354,10830
2359,10827
2372,10822
2392,10814
2417,10804
2442,10795
2462,10787
2475,10782
2480,10779
2481,10779
" style="stroke:#000000;stroke-width:0;
stroke-linejoin:bevel; stroke-linecap:butt;
fill:#000000;
"/>
<!-- Line -->
<!--  polyline  -->
<polyline points="5688,11151
4983,11151
" style="stroke:#000000;stroke-width:7;
stroke-linejoin:miter; stroke-linecap:butt;
"/>
<!-- Line -->
<!--  spline  -->
<polyline points="5748,11151
5747,11151
5742,11148
5729,11143
5708,11135
5683,11125
5659,11116
5638,11108
5625,11103
5620,11100
5619,11100
5619,11101
5618,11104
5617,11108
5616,11111
5616,11112
5615,11114
5615,11117
5614,11120
5613,11124
5612,11128
5612,11129
5612,11131
5612,11134
5612,11137
5612,11138
5611,11139
5611,11140
5611,11143
5611,11146
5610,11148
5610,11150
5610,11151
5610,11153
5611,11157
5611,11159
5611,11160
5611,11162
5612,11165
5612,11168
5612,11171
5612,11173
5612,11174
5613,11178
5614,11182
5614,11183
5614,11184
5615,11186
5616,11190
5617,11195
5618,11198
5619,11201
5619,11203
5620,11203
5625,11200
5638,11195
5659,11187
5684,11177
5708,11167
5729,11159
5742,11154
5747,11151
5748,11151
" style="stroke:#000000;stroke-width:0;
stroke-linejoin:bevel; stroke-linecap:butt;
fill:#000000;
"/>
<!-- Line -->
<!--  polyline  -->
<polyline points="4583,11132
3850,11132
" style="stroke:#000000;stroke-width:7;
stroke-linejoin:miter; stroke-linecap:butt;
"/>
<!-- Line -->
<!--  polyline  -->
<polyline points="3850,10632
4566,11115
" style="stroke:#000000;stroke-width:7;
stroke-linejoin:miter; stroke-linecap:butt;
"/>
<!-- Line -->
<!--  polyline  -->
<polyline points="3850,11699
4566,11132
" style="stroke:#000000;stroke-width:7;
stroke-linejoin:miter; stroke-linecap:butt;
"/>
<!-- Line -->
<!--  polyline  -->
<polyline points="3457,11787
2890,12071
" style="stroke:#000000;stroke-width:7;
stroke-linejoin:miter; stroke-linecap:butt;
"/>
<!-- Line -->
<!--  polyline  -->
<polyline points="3465,11146
2882,12071
" style="stroke:#000000;stroke-width:7;
stroke-linejoin:miter; stroke-linecap:butt;
"/>
<!-- Line -->
<!--  polyline  -->
<polyline points="3449,10546
2890,12062
" style="stroke:#000000;stroke-width:7;
stroke-linejoin:miter; stroke-linecap:butt;
"/>
<!-- Line -->
<!--  polyline  -->
<polyline points="3457,11779
2882,11421
" style="stroke:#000000;stroke-width:7;
stroke-linejoin:miter; stroke-linecap:butt;
"/>
<!-- Line -->
<!--  polyline  -->
<polyline points="3449,11162
2882,11437
" style="stroke:#000000;stroke-width:7;
stroke-linejoin:miter; stroke-linecap:butt;
"/>
<!-- Line -->
<!--  polyline  -->
<polyline points="3449,10529
2890,11429
" style="stroke:#000000;stroke-width:7;
stroke-linejoin:miter; stroke-linecap:butt;
"/>
<!-- Line -->
<!--  polyline  -->
<polyline points="3457,11771
2882,10779
" style="stroke:#000000;stroke-width:7;
stroke-linejoin:miter; stroke-linecap:butt;
"/>
<!-- Line -->
<!--  polyline  -->
<polyline points="3440,11154
2882,10804
" style="stroke:#000000;stroke-width:7;
stroke-linejoin:miter; stroke-linecap:butt;
"/>
<!-- Line -->
<!--  polyline  -->
<polyline points="3440,10521
2874,10837
" style="stroke:#000000;stroke-width:7;
stroke-linejoin:miter; stroke-linecap:butt;
"/>
<!-- Line -->
<!--  polyline  -->
<polyline points="3440,10529
2890,10112
" style="stroke:#000000;stroke-width:7;
stroke-linejoin:miter; stroke-linecap:butt;
"/>
<!-- Line -->
<!--  polyline  -->
<polyline points="3449,11154
2890,10121
" style="stroke:#000000;stroke-width:7;
stroke-linejoin:miter; stroke-linecap:butt;
"/>
<!-- Line -->
<!--  polyline  -->
<polyline points="3440,11771
2890,10129
" style="stroke:#000000;stroke-width:7;
stroke-linejoin:miter; stroke-linecap:butt;
"/>
<!-- Line -->
<!--  polyline  -->
<polyline points="133,9841
7333,9841
7333,12883
133,12883
133,9841
" style="stroke:#000000;stroke-width:15;
stroke-linejoin:miter; stroke-linecap:butt;
"/>
<!-- Text -->
<!--  text  -->
<text xml:space="preserve" x="4304" y="11673" stroke="#000000" fill="#000000"  font-family="Times" font-style="normal" font-weight="normal" font-size="156" text-anchor="start">M</text>
<!-- Text -->
<!--  text  -->
<text xml:space="preserve" x="4482" y="11673" stroke="#000000" fill="#000000"  font-family="Times" font-style="normal" font-weight="normal" font-size="156" text-anchor="start">A</text>
<!-- Text -->
<!--  text  -->
<text xml:space="preserve" x="4626" y="11673" stroke="#000000" fill="#000000"  font-family="Times" font-style="normal" font-weight="normal" font-size="156" text-anchor="start">D</text>
<!-- Text -->
<!--  text  -->
<text xml:space="preserve" x="4770" y="11673" stroke="#000000" fill="#000000"  font-family="Times" font-style="normal" font-weight="normal" font-size="156" text-anchor="start">A</text>
<!-- Text -->
<!--  text  -->
<text xml:space="preserve" x="4915" y="11673" stroke="#000000" fill="#000000"  font-family="Times" font-style="normal" font-weight="normal" font-size="156" text-anchor="start">L</text>
<!-- Text -->
<!--  text  -->
<text xml:space="preserve" x="5037" y="11673" stroke="#000000" fill="#000000"  font-family="Times" font-style="normal" font-weight="normal" font-size="156" text-anchor="start">I</text>
<!-- Text -->
<!--  text  -->
<text xml:space="preserve" x="5103" y="11673" stroke="#000000" fill="#000000"  font-family="Times" font-style="normal" font-weight="normal" font-size="156" text-anchor="start">N</text>
<!-- Text -->
<!--  text  -->
<text xml:space="preserve" x="5248" y="11673" stroke="#000000" fill="#000000"  font-family="Times" font-style="normal" font-weight="normal" font-size="156" text-anchor="start">E</text>
<!-- Text -->
<!--  text  -->
<text xml:space="preserve" x="4584" y="11913" stroke="#000000" fill="#000000"  font-family="Times" font-style="normal" font-weight="normal" font-size="156" text-anchor="start">U</text>
<!-- Text -->
<!--  text  -->
<text xml:space="preserve" x="4728" y="11913" stroke="#000000" fill="#000000"  font-family="Times" font-style="normal" font-weight="normal" font-size="156" text-anchor="start">N</text>
<!-- Text -->
<!--  text  -->
<text xml:space="preserve" x="4873" y="11913" stroke="#000000" fill="#000000"  font-family="Times" font-style="normal" font-weight="normal" font-size="156" text-anchor="start">I</text>
<!-- Text -->
<!--  text  -->
<text xml:space="preserve" x="4939" y="11913" stroke="#000000" fill="#000000"  font-family="Times" font-style="normal" font-weight="normal" font-size="156" text-anchor="start">T</text>
<!-- Text -->
<!--  text  -->
<text xml:space="preserve" x="3305" y="12222" stroke="#000000" fill="#000000"  font-family="Times" font-style="normal" font-weight="normal" font-size="156" text-anchor="start">A</text>
<!-- Text -->
<!--  text  -->
<text xml:space="preserve" x="3450" y="12222" stroke="#000000" fill="#000000"  font-family="Times" font-style="normal" font-weight="normal" font-size="156" text-anchor="start">D</text>
<!-- Text -->
<!--  text  -->
<text xml:space="preserve" x="3594" y="12222" stroke="#000000" fill="#000000"  font-family="Times" font-style="normal" font-weight="normal" font-size="156" text-anchor="start">A</text>
<!-- Text -->
<!--  text  -->
<text xml:space="preserve" x="3738" y="12222" stroke="#000000" fill="#000000"  font-family="Times" font-style="normal" font-weight="normal" font-size="156" text-anchor="start">L</text>
<!-- Text -->
<!--  text  -->
<text xml:space="preserve" x="3860" y="12222" stroke="#000000" fill="#000000"  font-family="Times" font-style="normal" font-weight="normal" font-size="156" text-anchor="start">I</text>
<!-- Text -->
<!--  text  -->
<text xml:space="preserve" x="3927" y="12222" stroke="#000000" fill="#000000"  font-family="Times" font-style="normal" font-weight="normal" font-size="156" text-anchor="start">N</text>
<!-- Text -->
<!--  text  -->
<text xml:space="preserve" x="4071" y="12222" stroke="#000000" fill="#000000"  font-family="Times" font-style="normal" font-weight="normal" font-size="156" text-anchor="start">E</text>
<!-- Text -->
<!--  text  -->
<text xml:space="preserve" x="3445" y="12462" stroke="#000000" fill="#000000"  font-family="Times" font-style="normal" font-weight="normal" font-size="156" text-anchor="start">L</text>
<!-- Text -->
<!--  text  -->
<text xml:space="preserve" x="3567" y="12462" stroke="#000000" fill="#000000"  font-family="Times" font-style="normal" font-weight="normal" font-size="156" text-anchor="start">A</text>
<!-- Text -->
<!--  text  -->
<text xml:space="preserve" x="3693" y="12462" stroke="#000000" fill="#000000"  font-family="Times" font-style="normal" font-weight="normal" font-size="156" text-anchor="start">Y</text>
<!-- Text -->
<!--  text  -->
<text xml:space="preserve" x="3838" y="12462" stroke="#000000" fill="#000000"  font-family="Times" font-style="normal" font-weight="normal" font-size="156" text-anchor="start">E</text>
<!-- Text -->
<!--  text  -->
<text xml:space="preserve" x="3960" y="12462" stroke="#000000" fill="#000000"  font-family="Times" font-style="normal" font-weight="normal" font-size="156" text-anchor="start">R</text>
<!-- Text -->
<!--  text  -->
<text xml:space="preserve" x="2400" y="12542" stroke="#000000" fill="#000000"  font-family="Times" font-style="normal" font-weight="normal" font-size="156" text-anchor="start">I</text>
<!-- Text -->
<!--  text  -->
<text xml:space="preserve" x="2466" y="12542" stroke="#000000" fill="#000000"  font-family="Times" font-style="normal" font-weight="normal" font-size="156" text-anchor="start">N</text>
<!-- Text -->
<!--  text  -->
<text xml:space="preserve" x="2611" y="12542" stroke="#000000" fill="#000000"  font-family="Times" font-style="normal" font-weight="normal" font-size="156" text-anchor="start">P</text>
<!-- Text -->
<!--  text  -->
<text xml:space="preserve" x="2722" y="12542" stroke="#000000" fill="#000000"  font-family="Times" font-style="normal" font-weight="normal" font-size="156" text-anchor="start">U</text>
<!-- Text -->
<!--  text  -->
<text xml:space="preserve" x="2866" y="12542" stroke="#000000" fill="#000000"  font-family="Times" font-style="normal" font-weight="normal" font-size="156" text-anchor="start">T</text>
<!-- Text -->
<!--  text  -->
<text xml:space="preserve" x="2400" y="12782" stroke="#000000" fill="#000000"  font-family="Times" font-style="normal" font-weight="normal" font-size="156" text-anchor="start">L</text>
<!-- Text -->
<!--  text  -->
<text xml:space="preserve" x="2522" y="12782" stroke="#000000" fill="#000000"  font-family="Times" font-style="normal" font-weight="normal" font-size="156" text-anchor="start">A</text>
<!-- Text -->
<!--  text  -->
<text xml:space="preserve" x="2648" y="12782" stroke="#000000" fill="#000000"  font-family="Times" font-style="normal" font-weight="normal" font-size="156" text-anchor="start">Y</text>
<!-- Text -->
<!--  text  -->
<text xml:space="preserve" x="2792" y="12782" stroke="#000000" fill="#000000"  font-family="Times" font-style="normal" font-weight="normal" font-size="156" text-anchor="start">E</text>
<!-- Text -->
<!--  text  -->
<text xml:space="preserve" x="2915" y="12782" stroke="#000000" fill="#000000"  font-family="Times" font-style="normal" font-weight="normal" font-size="156" text-anchor="start">R</text>
<!-- Text -->
<!--  text  -->
<text xml:space="preserve" x="2238" y="13090" stroke="#000000" fill="#000000"  font-family="Times" font-style="normal" font-weight="normal" font-size="156" text-anchor="start">F</text>
<!-- Text -->
<!--  text  -->
<text xml:space="preserve" x="2350" y="13090" stroke="#000000" fill="#000000"  font-family="Times" font-style="normal" font-weight="normal" font-size="156" text-anchor="start">i</text>
<!-- Text -->
<!--  text  -->
<text xml:space="preserve" x="2405" y="13090" stroke="#000000" fill="#000000"  font-family="Times" font-style="normal" font-weight="normal" font-size="156" text-anchor="start">g</text>
<!-- Text -->
<!--  text  -->
<text xml:space="preserve" x="2505" y="13090" stroke="#000000" fill="#000000"  font-family="Times" font-style="normal" font-weight="normal" font-size="156" text-anchor="start">u</text>
<!-- Text -->
<!--  text  -->
<text xml:space="preserve" x="2605" y="13090" stroke="#000000" fill="#000000"  font-family="Times" font-style="normal" font-weight="normal" font-size="156" text-anchor="start">r</text>
<!-- Text -->
<!--  text  -->
<text xml:space="preserve" x="2672" y="13090" stroke="#000000" fill="#000000"  font-family="Times" font-style="normal" font-weight="normal" font-size="156" text-anchor="start">e</text>
<!-- Text -->
<!--  text  -->
<text xml:space="preserve" x="2830" y="13090" stroke="#000000" fill="#000000"  font-family="Times" font-style="normal" font-weight="normal" font-size="156" text-anchor="start">6</text>
<!-- Text -->
<!--  text  -->
<text xml:space="preserve" x="2930" y="13090" stroke="#000000" fill="#000000"  font-family="Times" font-style="normal" font-weight="normal" font-size="156" text-anchor="start">-</text>
<!-- Text -->
<!--  text  -->
<text xml:space="preserve" x="2997" y="13090" stroke="#000000" fill="#000000"  font-family="Times" font-style="normal" font-weight="normal" font-size="156" text-anchor="start">5</text>
<!-- Text -->
<!--  text  -->
<text xml:space="preserve" x="3097" y="13090" stroke="#000000" fill="#000000"  font-family="Times" font-style="normal" font-weight="normal" font-size="156" text-anchor="start">:</text>
<!-- Text -->
<!--  text  -->
<text xml:space="preserve" x="3222" y="13090" stroke="#000000" fill="#000000"  font-family="Times" font-style="normal" font-weight="normal" font-size="156" text-anchor="start">A</text>
<!-- Text -->
<!--  text  -->
<text xml:space="preserve" x="3437" y="13090" stroke="#000000" fill="#000000"  font-family="Times" font-style="normal" font-weight="normal" font-size="156" text-anchor="start">M</text>
<!-- Text -->
<!--  text  -->
<text xml:space="preserve" x="3614" y="13090" stroke="#000000" fill="#000000"  font-family="Times" font-style="normal" font-weight="normal" font-size="156" text-anchor="start">A</text>
<!-- Text -->
<!--  text  -->
<text xml:space="preserve" x="3759" y="13090" stroke="#000000" fill="#000000"  font-family="Times" font-style="normal" font-weight="normal" font-size="156" text-anchor="start">D</text>
<!-- Text -->
<!--  text  -->
<text xml:space="preserve" x="3903" y="13090" stroke="#000000" fill="#000000"  font-family="Times" font-style="normal" font-weight="normal" font-size="156" text-anchor="start">A</text>
<!-- Text -->
<!--  text  -->
<text xml:space="preserve" x="4047" y="13090" stroke="#000000" fill="#000000"  font-family="Times" font-style="normal" font-weight="normal" font-size="156" text-anchor="start">L</text>
<!-- Text -->
<!--  text  -->
<text xml:space="preserve" x="4170" y="13090" stroke="#000000" fill="#000000"  font-family="Times" font-style="normal" font-weight="normal" font-size="156" text-anchor="start">I</text>
<!-- Text -->
<!--  text  -->
<text xml:space="preserve" x="4236" y="13090" stroke="#000000" fill="#000000"  font-family="Times" font-style="normal" font-weight="normal" font-size="156" text-anchor="start">N</text>
<!-- Text -->
<!--  text  -->
<text xml:space="preserve" x="4380" y="13090" stroke="#000000" fill="#000000"  font-family="Times" font-style="normal" font-weight="normal" font-size="156" text-anchor="start">E</text>
<!-- Text -->
<!--  text  -->
<text xml:space="preserve" x="4573" y="13090" stroke="#000000" fill="#000000"  font-family="Times" font-style="normal" font-weight="normal" font-size="156" text-anchor="start">n</text>
<!-- Text -->
<!--  text  -->
<text xml:space="preserve" x="4673" y="13090" stroke="#000000" fill="#000000"  font-family="Times" font-style="normal" font-weight="normal" font-size="156" text-anchor="start">e</text>
<!-- Text -->
<!--  text  -->
<text xml:space="preserve" x="4761" y="13090" stroke="#000000" fill="#000000"  font-family="Times" font-style="normal" font-weight="normal" font-size="156" text-anchor="start">t</text>
<!-- Text -->
<!--  text  -->
<text xml:space="preserve" x="4817" y="13090" stroke="#000000" fill="#000000"  font-family="Times" font-style="normal" font-weight="normal" font-size="156" text-anchor="start">w</text>
<!-- Text -->
<!--  text  -->
<text xml:space="preserve" x="4961" y="13090" stroke="#000000" fill="#000000"  font-family="Times" font-style="normal" font-weight="normal" font-size="156" text-anchor="start">o</text>
<!-- Text -->
<!--  text  -->
<text xml:space="preserve" x="5061" y="13090" stroke="#000000" fill="#000000"  font-family="Times" font-style="normal" font-weight="normal" font-size="156" text-anchor="start">r</text>
<!-- Text -->
<!--  text  -->
<text xml:space="preserve" x="5128" y="13090" stroke="#000000" fill="#000000"  font-family="Times" font-style="normal" font-weight="normal" font-size="156" text-anchor="start">k</text>
</g>
</svg>
