<?xml version="1.0" standalone="no"?>
<!DOCTYPE svg PUBLIC "-//W3C//DTD SVG 1.1//EN"
"http://www.w3.org/Graphics/SVG/1.1/DTD/svg11.dtd">
<!-- Creator: fig2dev Version 3.2 Patchlevel 5 -->
<!-- CreationDate: Sat Jul  4 12:13:22 2015 -->
<!-- Magnification: 1.000 -->
<svg xmlns="http://www.w3.org/2000/svg" width="6.0in" height="3.0in" viewBox="111 9594 7260 3580">
<g style="stroke-width:.025in; stroke:black; fill:none">
<!-- Line -->
<!--  polyline  -->
<polyline points="1345,12030
1345,10083
" style="stroke:#000000;stroke-width:7;
stroke-linejoin:miter; stroke-linecap:butt;
"/>
<!-- Line -->
<!--  polyline  -->
<polyline points="2416,11558
332,11558
" style="stroke:#000000;stroke-width:7;
stroke-linejoin:miter; stroke-linecap:butt;
"/>
<!-- Line -->
<!--  polyline  -->
<polyline points="1455,10508
1350,10508
" style="stroke:#000000;stroke-width:7;
stroke-linejoin:miter; stroke-linecap:butt;
"/>
<!-- Line -->
<!--  polyline  -->
<polyline points="6094,12030
6094,10083
" style="stroke:#000000;stroke-width:7;
stroke-linejoin:miter; stroke-linecap:butt;
"/>
<!-- Line -->
<!--  polyline  -->
<polyline points="7166,11558
5082,11558
" style="stroke:#000000;stroke-width:7;
stroke-linejoin:miter; stroke-linecap:butt;
"/>
<!-- Line -->
<!--  polyline  -->
<polyline points="6218,10508
6099,10508
" style="stroke:#000000;stroke-width:7;
stroke-linejoin:miter; stroke-linecap:butt;
"/>
<!-- Line -->
<!--  polyline  -->
<polyline points="3719,12030
3719,10083
" style="stroke:#000000;stroke-width:7;
stroke-linejoin:miter; stroke-linecap:butt;
"/>
<!-- Line -->
<!--  polyline  -->
<polyline points="4791,11558
2707,11558
" style="stroke:#000000;stroke-width:7;
stroke-linejoin:miter; stroke-linecap:butt;
"/>
<!-- Line -->
<!--  spline  -->
<polyline points="2149,11555
2146,11558
2141,11565
2131,11577
2117,11594
2099,11615
2079,11638
2060,11661
2042,11682
2028,11699
2018,11711
2013,11718
2010,11721
2007,11724
2000,11729
1990,11737
1978,11746
1963,11756
1948,11765
1930,11773
1910,11779
1888,11783
1870,11784
1856,11783
1845,11782
1839,11781
1836,11780
1833,11779
1831,11778
1828,11776
1822,11772
1813,11765
1800,11755
1785,11741
1770,11725
1758,11710
1750,11699
1744,11692
1741,11688
1739,11685
1738,11682
1735,11676
1730,11666
1723,11649
1712,11625
1700,11594
1691,11569
1682,11544
1675,11520
1669,11497
1663,11475
1658,11455
1653,11435
1649,11416
1645,11398
1642,11381
1639,11368
1637,11357
1635,11349
1634,11345
1634,11343
1633,11339
1632,11331
1629,11317
1624,11297
1619,11270
1612,11239
1605,11205
1598,11171
1591,11140
1586,11113
1581,11093
1578,11079
1577,11071
1576,11067
1575,11065
1574,11059
1572,11051
1569,11039
1566,11023
1562,11006
1557,10988
1552,10968
1547,10947
1541,10924
1535,10899
1527,10873
1519,10845
1510,10814
1502,10790
1497,10773
1493,10762
1491,10756
1490,10752
1489,10749
1487,10744
1483,10735
1478,10721
1470,10701
1461,10678
1450,10652
1442,10633
1436,10622
1434,10616
1432,10612
1430,10610
1428,10605
1422,10596
1414,10582
1403,10565
1389,10546
1378,10532
1368,10523
1360,10516
1353,10512
1348,10509
1345,10507
" style="stroke:#000000;stroke-width:15;
stroke-linejoin:bevel; stroke-linecap:butt;
"/>
<!-- Line -->
<!--  spline  -->
<polyline points="568,11555
571,11558
576,11565
586,11577
600,11594
618,11615
638,11638
657,11661
675,11682
689,11699
699,11711
704,11718
707,11721
710,11724
717,11729
726,11737
739,11746
753,11756
768,11765
785,11773
805,11779
827,11783
845,11784
859,11783
869,11782
876,11781
879,11780
882,11779
884,11778
887,11776
893,11772
902,11765
915,11755
930,11741
945,11725
957,11710
965,11699
970,11692
973,11688
975,11685
977,11682
979,11676
984,11666
991,11649
1002,11625
1014,11594
1023,11569
1032,11544
1039,11520
1046,11497
1051,11475
1057,11455
1061,11435
1066,11416
1070,11398
1073,11381
1076,11368
1078,11357
1080,11349
1081,11345
1081,11343
1082,11339
1083,11331
1086,11317
1090,11297
1096,11270
1102,11239
1110,11205
1117,11171
1123,11140
1129,11113
1133,11093
1136,11079
1137,11071
1138,11067
1139,11065
1140,11059
1142,11051
1145,11039
1148,11023
1152,11006
1157,10988
1161,10968
1167,10947
1172,10924
1179,10899
1186,10873
1194,10845
1203,10814
1210,10790
1215,10773
1219,10762
1221,10756
1222,10752
1223,10749
1225,10744
1228,10735
1233,10721
1240,10701
1249,10678
1259,10652
1267,10633
1272,10622
1275,10616
1276,10612
1277,10610
1280,10605
1285,10596
1293,10582
1303,10565
1316,10546
1327,10532
1336,10523
1344,10516
1350,10512
1354,10509
1357,10507
" style="stroke:#000000;stroke-width:15;
stroke-linejoin:bevel; stroke-linecap:butt;
"/>
<!-- Line -->
<!--  polyline  -->
<polyline points="3718,10519
3379,10519
3379,11775
3054,11775
3054,11558
" style="stroke:#000000;stroke-width:15;
stroke-linejoin:miter; stroke-linecap:butt;
"/>
<!-- Line -->
<!--  polyline  -->
<polyline points="3719,10519
4059,10519
4059,11775
4383,11775
4383,11558
" style="stroke:#000000;stroke-width:15;
stroke-linejoin:miter; stroke-linecap:butt;
"/>
<!-- Line -->
<!--  polyline  -->
<polyline points="6429,11550
6429,10505
5746,10505
5746,11563
" style="stroke:#000000;stroke-width:15;
stroke-linejoin:miter; stroke-linecap:butt;
"/>
<!-- Line -->
<!--  polyline  -->
<polyline points="133,9616
7349,9616
7349,12866
133,12866
133,9616
" style="stroke:#000000;stroke-width:15;
stroke-linejoin:miter; stroke-linecap:butt;
"/>
<!-- Text -->
<!--  text  -->
<text xml:space="preserve" x="5541" y="12426" stroke="#000000" fill="#000000"  font-family="Times" font-style="normal" font-weight="normal" font-size="156" text-anchor="start">C</text>
<!-- Text -->
<!--  text  -->
<text xml:space="preserve" x="5675" y="12426" stroke="#000000" fill="#000000"  font-family="Times" font-style="normal" font-weight="normal" font-size="156" text-anchor="start">H</text>
<!-- Text -->
<!--  text  -->
<text xml:space="preserve" x="5819" y="12426" stroke="#000000" fill="#000000"  font-family="Times" font-style="normal" font-weight="normal" font-size="156" text-anchor="start">E</text>
<!-- Text -->
<!--  text  -->
<text xml:space="preserve" x="5941" y="12426" stroke="#000000" fill="#000000"  font-family="Times" font-style="normal" font-weight="normal" font-size="156" text-anchor="start">F</text>
<!-- Text -->
<!--  text  -->
<text xml:space="preserve" x="6052" y="12426" stroke="#000000" fill="#000000"  font-family="Times" font-style="normal" font-weight="normal" font-size="156" text-anchor="start">'</text>
<!-- Text -->
<!--  text  -->
<text xml:space="preserve" x="6088" y="12426" stroke="#000000" fill="#000000"  font-family="Times" font-style="normal" font-weight="normal" font-size="156" text-anchor="start">S</text>
<!-- Text -->
<!--  text  -->
<text xml:space="preserve" x="6269" y="12426" stroke="#000000" fill="#000000"  font-family="Times" font-style="normal" font-weight="normal" font-size="156" text-anchor="start">H</text>
<!-- Text -->
<!--  text  -->
<text xml:space="preserve" x="6414" y="12426" stroke="#000000" fill="#000000"  font-family="Times" font-style="normal" font-weight="normal" font-size="156" text-anchor="start">A</text>
<!-- Text -->
<!--  text  -->
<text xml:space="preserve" x="6536" y="12426" stroke="#000000" fill="#000000"  font-family="Times" font-style="normal" font-weight="normal" font-size="156" text-anchor="start">T</text>
<!-- Text -->
<!--  text  -->
<text xml:space="preserve" x="3168" y="12306" stroke="#000000" fill="#000000"  font-family="Times" font-style="normal" font-weight="normal" font-size="156" text-anchor="start">S</text>
<!-- Text -->
<!--  text  -->
<text xml:space="preserve" x="3279" y="12306" stroke="#000000" fill="#000000"  font-family="Times" font-style="normal" font-weight="normal" font-size="156" text-anchor="start">T</text>
<!-- Text -->
<!--  text  -->
<text xml:space="preserve" x="3398" y="12306" stroke="#000000" fill="#000000"  font-family="Times" font-style="normal" font-weight="normal" font-size="156" text-anchor="start">O</text>
<!-- Text -->
<!--  text  -->
<text xml:space="preserve" x="3542" y="12306" stroke="#000000" fill="#000000"  font-family="Times" font-style="normal" font-weight="normal" font-size="156" text-anchor="start">V</text>
<!-- Text -->
<!--  text  -->
<text xml:space="preserve" x="3686" y="12306" stroke="#000000" fill="#000000"  font-family="Times" font-style="normal" font-weight="normal" font-size="156" text-anchor="start">E</text>
<!-- Text -->
<!--  text  -->
<text xml:space="preserve" x="3809" y="12306" stroke="#000000" fill="#000000"  font-family="Times" font-style="normal" font-weight="normal" font-size="156" text-anchor="start">P</text>
<!-- Text -->
<!--  text  -->
<text xml:space="preserve" x="3920" y="12306" stroke="#000000" fill="#000000"  font-family="Times" font-style="normal" font-weight="normal" font-size="156" text-anchor="start">I</text>
<!-- Text -->
<!--  text  -->
<text xml:space="preserve" x="3986" y="12306" stroke="#000000" fill="#000000"  font-family="Times" font-style="normal" font-weight="normal" font-size="156" text-anchor="start">P</text>
<!-- Text -->
<!--  text  -->
<text xml:space="preserve" x="4097" y="12306" stroke="#000000" fill="#000000"  font-family="Times" font-style="normal" font-weight="normal" font-size="156" text-anchor="start">E</text>
<!-- Text -->
<!--  text  -->
<text xml:space="preserve" x="3499" y="12546" stroke="#000000" fill="#000000"  font-family="Times" font-style="normal" font-weight="normal" font-size="156" text-anchor="start">H</text>
<!-- Text -->
<!--  text  -->
<text xml:space="preserve" x="3644" y="12546" stroke="#000000" fill="#000000"  font-family="Times" font-style="normal" font-weight="normal" font-size="156" text-anchor="start">A</text>
<!-- Text -->
<!--  text  -->
<text xml:space="preserve" x="3766" y="12546" stroke="#000000" fill="#000000"  font-family="Times" font-style="normal" font-weight="normal" font-size="156" text-anchor="start">T</text>
<!-- Text -->
<!--  text  -->
<text xml:space="preserve" x="883" y="12306" stroke="#000000" fill="#000000"  font-family="Times" font-style="normal" font-weight="normal" font-size="156" text-anchor="start">M</text>
<!-- Text -->
<!--  text  -->
<text xml:space="preserve" x="1061" y="12306" stroke="#000000" fill="#000000"  font-family="Times" font-style="normal" font-weight="normal" font-size="156" text-anchor="start">E</text>
<!-- Text -->
<!--  text  -->
<text xml:space="preserve" x="1183" y="12306" stroke="#000000" fill="#000000"  font-family="Times" font-style="normal" font-weight="normal" font-size="156" text-anchor="start">X</text>
<!-- Text -->
<!--  text  -->
<text xml:space="preserve" x="1327" y="12306" stroke="#000000" fill="#000000"  font-family="Times" font-style="normal" font-weight="normal" font-size="156" text-anchor="start">I</text>
<!-- Text -->
<!--  text  -->
<text xml:space="preserve" x="1394" y="12306" stroke="#000000" fill="#000000"  font-family="Times" font-style="normal" font-weight="normal" font-size="156" text-anchor="start">C</text>
<!-- Text -->
<!--  text  -->
<text xml:space="preserve" x="1527" y="12306" stroke="#000000" fill="#000000"  font-family="Times" font-style="normal" font-weight="normal" font-size="156" text-anchor="start">A</text>
<!-- Text -->
<!--  text  -->
<text xml:space="preserve" x="1671" y="12306" stroke="#000000" fill="#000000"  font-family="Times" font-style="normal" font-weight="normal" font-size="156" text-anchor="start">N</text>
<!-- Text -->
<!--  text  -->
<text xml:space="preserve" x="1155" y="12546" stroke="#000000" fill="#000000"  font-family="Times" font-style="normal" font-weight="normal" font-size="156" text-anchor="start">H</text>
<!-- Text -->
<!--  text  -->
<text xml:space="preserve" x="1299" y="12546" stroke="#000000" fill="#000000"  font-family="Times" font-style="normal" font-weight="normal" font-size="156" text-anchor="start">A</text>
<!-- Text -->
<!--  text  -->
<text xml:space="preserve" x="1421" y="12546" stroke="#000000" fill="#000000"  font-family="Times" font-style="normal" font-weight="normal" font-size="156" text-anchor="start">T</text>
<!-- Text -->
<!--  text  -->
<text xml:space="preserve" x="1963" y="13090" stroke="#000000" fill="#000000"  font-family="Times" font-style="normal" font-weight="normal" font-size="156" text-anchor="start">F</text>
<!-- Text -->
<!--  text  -->
<text xml:space="preserve" x="2075" y="13090" stroke="#000000" fill="#000000"  font-family="Times" font-style="normal" font-weight="normal" font-size="156" text-anchor="start">i</text>
<!-- Text -->
<!--  text  -->
<text xml:space="preserve" x="2130" y="13090" stroke="#000000" fill="#000000"  font-family="Times" font-style="normal" font-weight="normal" font-size="156" text-anchor="start">g</text>
<!-- Text -->
<!--  text  -->
<text xml:space="preserve" x="2230" y="13090" stroke="#000000" fill="#000000"  font-family="Times" font-style="normal" font-weight="normal" font-size="156" text-anchor="start">u</text>
<!-- Text -->
<!--  text  -->
<text xml:space="preserve" x="2330" y="13090" stroke="#000000" fill="#000000"  font-family="Times" font-style="normal" font-weight="normal" font-size="156" text-anchor="start">r</text>
<!-- Text -->
<!--  text  -->
<text xml:space="preserve" x="2397" y="13090" stroke="#000000" fill="#000000"  font-family="Times" font-style="normal" font-weight="normal" font-size="156" text-anchor="start">e</text>
<!-- Text -->
<!--  text  -->
<text xml:space="preserve" x="2555" y="13090" stroke="#000000" fill="#000000"  font-family="Times" font-style="normal" font-weight="normal" font-size="156" text-anchor="start">7</text>
<!-- Text -->
<!--  text  -->
<text xml:space="preserve" x="2655" y="13090" stroke="#000000" fill="#000000"  font-family="Times" font-style="normal" font-weight="normal" font-size="156" text-anchor="start">-</text>
<!-- Text -->
<!--  text  -->
<text xml:space="preserve" x="2722" y="13090" stroke="#000000" fill="#000000"  font-family="Times" font-style="normal" font-weight="normal" font-size="156" text-anchor="start">3</text>
<!-- Text -->
<!--  text  -->
<text xml:space="preserve" x="2822" y="13090" stroke="#000000" fill="#000000"  font-family="Times" font-style="normal" font-weight="normal" font-size="156" text-anchor="start">:</text>
<!-- Text -->
<!--  text  -->
<text xml:space="preserve" x="2947" y="13090" stroke="#000000" fill="#000000"  font-family="Times" font-style="normal" font-weight="normal" font-size="156" text-anchor="start">N</text>
<!-- Text -->
<!--  text  -->
<text xml:space="preserve" x="3092" y="13090" stroke="#000000" fill="#000000"  font-family="Times" font-style="normal" font-weight="normal" font-size="156" text-anchor="start">e</text>
<!-- Text -->
<!--  text  -->
<text xml:space="preserve" x="3181" y="13090" stroke="#000000" fill="#000000"  font-family="Times" font-style="normal" font-weight="normal" font-size="156" text-anchor="start">i</text>
<!-- Text -->
<!--  text  -->
<text xml:space="preserve" x="3236" y="13090" stroke="#000000" fill="#000000"  font-family="Times" font-style="normal" font-weight="normal" font-size="156" text-anchor="start">g</text>
<!-- Text -->
<!--  text  -->
<text xml:space="preserve" x="3336" y="13090" stroke="#000000" fill="#000000"  font-family="Times" font-style="normal" font-weight="normal" font-size="156" text-anchor="start">h</text>
<!-- Text -->
<!--  text  -->
<text xml:space="preserve" x="3436" y="13090" stroke="#000000" fill="#000000"  font-family="Times" font-style="normal" font-weight="normal" font-size="156" text-anchor="start">b</text>
<!-- Text -->
<!--  text  -->
<text xml:space="preserve" x="3536" y="13090" stroke="#000000" fill="#000000"  font-family="Times" font-style="normal" font-weight="normal" font-size="156" text-anchor="start">o</text>
<!-- Text -->
<!--  text  -->
<text xml:space="preserve" x="3636" y="13090" stroke="#000000" fill="#000000"  font-family="Times" font-style="normal" font-weight="normal" font-size="156" text-anchor="start">r</text>
<!-- Text -->
<!--  text  -->
<text xml:space="preserve" x="3703" y="13090" stroke="#000000" fill="#000000"  font-family="Times" font-style="normal" font-weight="normal" font-size="156" text-anchor="start">h</text>
<!-- Text -->
<!--  text  -->
<text xml:space="preserve" x="3803" y="13090" stroke="#000000" fill="#000000"  font-family="Times" font-style="normal" font-weight="normal" font-size="156" text-anchor="start">o</text>
<!-- Text -->
<!--  text  -->
<text xml:space="preserve" x="3903" y="13090" stroke="#000000" fill="#000000"  font-family="Times" font-style="normal" font-weight="normal" font-size="156" text-anchor="start">o</text>
<!-- Text -->
<!--  text  -->
<text xml:space="preserve" x="4003" y="13090" stroke="#000000" fill="#000000"  font-family="Times" font-style="normal" font-weight="normal" font-size="156" text-anchor="start">d</text>
<!-- Text -->
<!--  text  -->
<text xml:space="preserve" x="4173" y="13090" stroke="#000000" fill="#000000"  font-family="Times" font-style="normal" font-weight="normal" font-size="156" text-anchor="start">u</text>
<!-- Text -->
<!--  text  -->
<text xml:space="preserve" x="4273" y="13090" stroke="#000000" fill="#000000"  font-family="Times" font-style="normal" font-weight="normal" font-size="156" text-anchor="start">p</text>
<!-- Text -->
<!--  text  -->
<text xml:space="preserve" x="4373" y="13090" stroke="#000000" fill="#000000"  font-family="Times" font-style="normal" font-weight="normal" font-size="156" text-anchor="start">d</text>
<!-- Text -->
<!--  text  -->
<text xml:space="preserve" x="4473" y="13090" stroke="#000000" fill="#000000"  font-family="Times" font-style="normal" font-weight="normal" font-size="156" text-anchor="start">a</text>
<!-- Text -->
<!--  text  -->
<text xml:space="preserve" x="4561" y="13090" stroke="#000000" fill="#000000"  font-family="Times" font-style="normal" font-weight="normal" font-size="156" text-anchor="start">t</text>
<!-- Text -->
<!--  text  -->
<text xml:space="preserve" x="4617" y="13090" stroke="#000000" fill="#000000"  font-family="Times" font-style="normal" font-weight="normal" font-size="156" text-anchor="start">e</text>
<!-- Text -->
<!--  text  -->
<text xml:space="preserve" x="4776" y="13090" stroke="#000000" fill="#000000"  font-family="Times" font-style="normal" font-weight="normal" font-size="156" text-anchor="start">f</text>
<!-- Text -->
<!--  text  -->
<text xml:space="preserve" x="4842" y="13090" stroke="#000000" fill="#000000"  font-family="Times" font-style="normal" font-weight="normal" font-size="156" text-anchor="start">u</text>
<!-- Text -->
<!--  text  -->
<text xml:space="preserve" x="4942" y="13090" stroke="#000000" fill="#000000"  font-family="Times" font-style="normal" font-weight="normal" font-size="156" text-anchor="start">n</text>
<!-- Text -->
<!--  text  -->
<text xml:space="preserve" x="5042" y="13090" stroke="#000000" fill="#000000"  font-family="Times" font-style="normal" font-weight="normal" font-size="156" text-anchor="start">c</text>
<!-- Text -->
<!--  text  -->
<text xml:space="preserve" x="5131" y="13090" stroke="#000000" fill="#000000"  font-family="Times" font-style="normal" font-weight="normal" font-size="156" text-anchor="start">t</text>
<!-- Text -->
<!--  text  -->
<text xml:space="preserve" x="5187" y="13090" stroke="#000000" fill="#000000"  font-family="Times" font-style="normal" font-weight="normal" font-size="156" text-anchor="start">i</text>
<!-- Text -->
<!--  text  -->
<text xml:space="preserve" x="5242" y="13090" stroke="#000000" fill="#000000"  font-family="Times" font-style="normal" font-weight="normal" font-size="156" text-anchor="start">o</text>
<!-- Text -->
<!--  text  -->
<text xml:space="preserve" x="5342" y="13090" stroke="#000000" fill="#000000"  font-family="Times" font-style="normal" font-weight="normal" font-size="156" text-anchor="start">n</text>
<!-- Text -->
<!--  text  -->
<text xml:space="preserve" x="5442" y="13090" stroke="#000000" fill="#000000"  font-family="Times" font-style="normal" font-weight="normal" font-size="156" text-anchor="start">s</text>
</g>
</svg>
