<?xml version="1.0" standalone="no"?>
<!DOCTYPE svg PUBLIC "-//W3C//DTD SVG 1.1//EN"
"http://www.w3.org/Graphics/SVG/1.1/DTD/svg11.dtd">
<!-- Creator: fig2dev Version 3.2 Patchlevel 5 -->
<!-- CreationDate: Sat Jul  4 12:13:27 2015 -->
<!-- Magnification: 1.000 -->
<svg xmlns="http://www.w3.org/2000/svg" width="5.9in" height="4.0in" viewBox="602 7563 7113 4785">
<g style="stroke-width:.025in; stroke:black; fill:none">
<!-- Line -->
<!--  polyline  -->
<polyline points="5192,10933
5758,10327
" style="stroke:#000000;stroke-width:7;
stroke-linejoin:miter; stroke-linecap:butt;
"/>
<!-- Line -->
<!--  spline  -->
<polyline points="5154,10974
5155,10974
5160,10971
5173,10965
5192,10956
5217,10944
5241,10933
5260,10924
5273,10918
5278,10915
5279,10915
5279,10914
5277,10912
5274,10907
5272,10905
5272,10904
5271,10903
5269,10901
5267,10898
5265,10895
5263,10892
5262,10891
5262,10890
5261,10889
5259,10886
5257,10883
5256,10882
5255,10881
5253,10879
5251,10877
5250,10876
5249,10875
5248,10874
5246,10872
5244,10871
5242,10869
5241,10868
5239,10867
5237,10865
5234,10863
5231,10861
5230,10860
5229,10860
5228,10859
5225,10857
5222,10855
5220,10854
5218,10853
5215,10851
5211,10849
5208,10847
5206,10846
5204,10845
5204,10846
5201,10851
5197,10864
5189,10885
5179,10910
5169,10934
5161,10955
5157,10968
5154,10973
5154,10974
" style="stroke:#000000;stroke-width:0;
stroke-linejoin:bevel; stroke-linecap:butt;
fill:#000000;
"/>
<!-- Line -->
<!--  polyline  -->
<polyline points="5273,9037
5758,9761
" style="stroke:#000000;stroke-width:7;
stroke-linejoin:miter; stroke-linecap:butt;
"/>
<!-- Line -->
<!--  spline  -->
<polyline points="5242,8992
5242,8993
5243,8999
5246,9012
5251,9033
5257,9060
5262,9086
5267,9107
5270,9120
5271,9126
5271,9127
5272,9127
5275,9126
5280,9124
5283,9123
5284,9123
5286,9122
5288,9122
5291,9120
5295,9119
5298,9118
5300,9117
5301,9116
5304,9115
5307,9113
5308,9113
5308,9112
5309,9112
5312,9110
5315,9108
5317,9107
5318,9107
5319,9106
5321,9105
5323,9103
5325,9102
5326,9101
5327,9100
5329,9098
5332,9096
5335,9094
5336,9092
5337,9091
5340,9088
5343,9085
5344,9084
5345,9083
5348,9080
5351,9077
5354,9074
5356,9072
5357,9070
5356,9069
5351,9066
5340,9058
5322,9046
5299,9031
5277,9016
5259,9004
5248,8996
5243,8993
5242,8992
" style="stroke:#000000;stroke-width:0;
stroke-linejoin:bevel; stroke-linecap:butt;
fill:#000000;
"/>
<!-- Line -->
<!--  polyline  -->
<polyline points="3277,10936
2713,10402
" style="stroke:#000000;stroke-width:7;
stroke-linejoin:miter; stroke-linecap:butt;
"/>
<!-- Line -->
<!--  spline  -->
<polyline points="3318,10975
3318,10974
3315,10969
3309,10956
3300,10936
3289,10912
3278,10888
3269,10868
3263,10855
3260,10850
3260,10849
3259,10849
3257,10851
3252,10854
3250,10856
3249,10856
3247,10857
3245,10858
3242,10860
3239,10862
3236,10864
3235,10865
3234,10866
3231,10868
3229,10870
3228,10871
3227,10871
3226,10872
3224,10874
3222,10876
3220,10878
3219,10879
3218,10880
3216,10882
3215,10884
3213,10886
3212,10887
3211,10888
3209,10890
3207,10893
3205,10896
3205,10897
3204,10898
3204,10899
3202,10902
3200,10905
3199,10907
3198,10909
3196,10912
3194,10916
3192,10919
3190,10921
3189,10923
3190,10923
3195,10926
3208,10931
3229,10939
3254,10949
3278,10959
3299,10967
3312,10972
3317,10975
3318,10975
" style="stroke:#000000;stroke-width:0;
stroke-linejoin:bevel; stroke-linecap:butt;
fill:#000000;
"/>
<!-- Line -->
<!--  polyline  -->
<polyline points="3239,9035
2713,9686
" style="stroke:#000000;stroke-width:7;
stroke-linejoin:miter; stroke-linecap:butt;
"/>
<!-- Line -->
<!--  spline  -->
<polyline points="3274,8992
3273,8992
3268,8995
3256,9002
3237,9013
3213,9026
3190,9039
3171,9050
3159,9057
3154,9060
3153,9060
3153,9061
3155,9063
3159,9067
3161,9069
3161,9070
3162,9071
3164,9073
3165,9076
3168,9079
3170,9082
3171,9083
3172,9083
3173,9084
3175,9087
3177,9089
3178,9091
3179,9092
3181,9094
3183,9096
3185,9097
3186,9098
3187,9099
3189,9101
3192,9102
3194,9104
3195,9105
3196,9106
3198,9107
3201,9109
3204,9111
3205,9111
3205,9112
3207,9112
3210,9114
3213,9116
3215,9116
3216,9117
3217,9117
3221,9119
3225,9121
3229,9122
3231,9123
3233,9124
3233,9123
3235,9117
3239,9104
3246,9084
3254,9058
3261,9032
3268,9012
3272,8999
3274,8993
3274,8992
" style="stroke:#000000;stroke-width:0;
stroke-linejoin:bevel; stroke-linecap:butt;
fill:#000000;
"/>
<!-- Line -->
<!--  polyline  -->
<polyline points="4236,11872
4236,11509
" style="stroke:#000000;stroke-width:15;
stroke-linejoin:miter; stroke-linecap:butt;
"/>
<!-- Line -->
<!--  spline  -->
<polyline points="4236,11939
4236,11938
4237,11935
4241,11927
4246,11913
4255,11892
4265,11865
4278,11833
4292,11798
4306,11763
4319,11731
4329,11704
4338,11683
4343,11669
4347,11661
4348,11658
4348,11657
4347,11658
4342,11663
4331,11674
4321,11684
4316,11689
4315,11690
4312,11693
4308,11697
4302,11702
4296,11708
4288,11715
4280,11722
4276,11725
4275,11726
4272,11728
4265,11733
4259,11738
4256,11739
4255,11740
4253,11741
4248,11744
4243,11746
4240,11747
4238,11748
4236,11748
4235,11748
4232,11747
4228,11745
4225,11744
4224,11744
4222,11743
4218,11741
4213,11738
4206,11733
4199,11728
4196,11726
4195,11725
4192,11722
4184,11715
4176,11708
4172,11705
4171,11704
4169,11702
4165,11698
4156,11690
4147,11681
4139,11673
4132,11666
4127,11661
4125,11658
4124,11657
4124,11658
4125,11661
4129,11669
4134,11683
4143,11704
4153,11731
4166,11763
4180,11798
4194,11833
4207,11865
4217,11892
4226,11913
4231,11927
4235,11935
4236,11938
4236,11939
" style="stroke:#000000;stroke-width:0;
stroke-linejoin:bevel; stroke-linecap:butt;
fill:#000000;
"/>
<!-- Line -->
<!--  polyline  -->
<polyline points="5245,10045
6491,10061
" style="stroke:#000000;stroke-width:7;
stroke-linejoin:miter; stroke-linecap:butt;
"/>
<!-- Line -->
<!--  spline  -->
<polyline points="5185,10044
5186,10044
5191,10047
5204,10052
5224,10060
5249,10071
5274,10081
5294,10089
5307,10094
5312,10097
5313,10097
5313,10096
5314,10093
5315,10088
5316,10085
5316,10084
5317,10082
5317,10080
5318,10077
5319,10073
5320,10070
5320,10068
5320,10066
5321,10063
5321,10060
5322,10059
5322,10058
5322,10057
5322,10054
5322,10051
5322,10049
5322,10047
5322,10046
5322,10044
5322,10040
5322,10038
5322,10037
5322,10035
5321,10033
5321,10029
5321,10026
5321,10024
5321,10023
5321,10022
5320,10018
5319,10014
5319,10013
5319,10012
5318,10011
5317,10007
5316,10003
5315,9999
5314,9996
5314,9994
5313,9994
5308,9997
5295,10001
5274,10009
5249,10019
5225,10029
5204,10037
5191,10041
5186,10044
5185,10044
" style="stroke:#000000;stroke-width:0;
stroke-linejoin:bevel; stroke-linecap:butt;
fill:#000000;
"/>
<!-- Line -->
<!--  polyline  -->
<polyline points="3271,10044
2202,10044
" style="stroke:#000000;stroke-width:7;
stroke-linejoin:miter; stroke-linecap:butt;
"/>
<!-- Line -->
<!--  spline  -->
<polyline points="3332,10044
3331,10044
3326,10041
3313,10036
3292,10028
3267,10018
3243,10008
3222,10000
3209,9995
3204,9992
3203,9992
3203,9993
3202,9996
3201,10001
3200,10004
3200,10005
3199,10007
3199,10010
3198,10013
3197,10017
3196,10021
3196,10022
3196,10024
3195,10027
3195,10030
3194,10031
3194,10032
3194,10033
3194,10036
3194,10039
3194,10041
3194,10043
3194,10044
3194,10046
3194,10050
3194,10052
3194,10053
3194,10055
3195,10058
3195,10061
3196,10064
3196,10066
3196,10067
3197,10071
3198,10075
3198,10076
3199,10077
3199,10079
3200,10083
3201,10087
3202,10091
3203,10093
3203,10095
3204,10095
3209,10092
3222,10087
3243,10079
3268,10069
3292,10060
3313,10052
3326,10047
3331,10044
3332,10044
" style="stroke:#000000;stroke-width:0;
stroke-linejoin:bevel; stroke-linecap:butt;
fill:#000000;
"/>
<!-- Line -->
<!--  polyline  -->
<polyline points="4238,10910
4265,10044
" style="stroke:#000000;stroke-width:15;
stroke-linejoin:miter; stroke-linecap:butt;
"/>
<!-- Line -->
<!--  spline  -->
<polyline points="4236,10975
4236,10974
4238,10971
4241,10963
4247,10949
4256,10929
4268,10902
4282,10870
4297,10836
4311,10802
4325,10770
4337,10743
4346,10723
4352,10709
4355,10701
4357,10698
4357,10697
4356,10698
4350,10703
4340,10713
4330,10723
4324,10728
4323,10729
4320,10732
4316,10736
4310,10741
4303,10747
4295,10754
4287,10761
4283,10763
4282,10764
4279,10766
4272,10771
4265,10775
4263,10777
4262,10777
4259,10778
4254,10781
4249,10783
4246,10784
4243,10785
4242,10785
4241,10785
4238,10784
4234,10782
4231,10781
4230,10781
4228,10780
4224,10777
4220,10774
4213,10769
4206,10764
4203,10761
4202,10760
4199,10757
4191,10750
4184,10743
4180,10740
4178,10738
4177,10737
4172,10733
4164,10724
4155,10714
4147,10706
4140,10699
4135,10694
4133,10691
4132,10690
4132,10691
4133,10694
4136,10702
4142,10716
4149,10737
4159,10765
4171,10797
4184,10833
4197,10868
4209,10900
4219,10928
4226,10949
4232,10963
4235,10971
4236,10974
4236,10975
" style="stroke:#000000;stroke-width:0;
stroke-linejoin:bevel; stroke-linecap:butt;
fill:#000000;
"/>
<!-- Line -->
<!--  polyline  -->
<polyline points="4258,9582
4263,8577
" style="stroke:#000000;stroke-width:15;
stroke-linejoin:miter; stroke-linecap:butt;
"/>
<!-- Line -->
<!--  spline  -->
<polyline points="4258,9649
4258,9648
4260,9645
4263,9637
4268,9623
4277,9602
4288,9575
4301,9543
4315,9509
4328,9474
4341,9442
4352,9415
4361,9394
4366,9380
4369,9372
4371,9369
4371,9368
4370,9369
4365,9374
4355,9384
4345,9394
4340,9399
4339,9400
4336,9403
4331,9407
4326,9413
4319,9419
4311,9426
4303,9433
4300,9436
4299,9437
4296,9439
4289,9444
4282,9448
4280,9450
4279,9450
4276,9451
4271,9454
4266,9456
4263,9457
4260,9458
4259,9458
4258,9458
4255,9457
4251,9455
4248,9454
4247,9454
4245,9453
4241,9451
4236,9448
4229,9443
4222,9438
4219,9436
4218,9435
4215,9432
4207,9425
4200,9418
4196,9415
4194,9413
4193,9412
4189,9407
4180,9399
4170,9390
4162,9382
4156,9376
4150,9370
4148,9368
4147,9367
4147,9368
4148,9371
4152,9379
4157,9393
4165,9414
4176,9441
4189,9473
4203,9508
4216,9543
4229,9575
4240,9602
4248,9623
4253,9637
4257,9645
4258,9648
4258,9649
" style="stroke:#000000;stroke-width:0;
stroke-linejoin:bevel; stroke-linecap:butt;
fill:#000000;
"/>
<!-- Line -->
<!--  polyline  -->
<polyline points="2186,9632
1863,8569
" style="stroke:#000000;stroke-width:7;
stroke-linejoin:miter; stroke-linecap:butt;
"/>
<!-- Line -->
<!--  spline  -->
<polyline points="2202,9684
2202,9683
2203,9677
2204,9663
2206,9642
2208,9615
2210,9588
2212,9567
2213,9553
2214,9547
2214,9546
2213,9546
2210,9546
2205,9547
2202,9547
2201,9547
2199,9547
2196,9547
2193,9547
2189,9547
2185,9547
2184,9548
2182,9548
2179,9549
2176,9549
2175,9550
2174,9549
2173,9550
2170,9550
2167,9551
2165,9551
2163,9552
2162,9552
2160,9553
2156,9554
2154,9555
2153,9556
2151,9556
2149,9558
2146,9559
2143,9560
2142,9561
2140,9561
2137,9563
2134,9565
2132,9566
2131,9566
2130,9567
2126,9569
2122,9571
2119,9573
2117,9575
2115,9576
2116,9577
2119,9581
2128,9592
2142,9609
2159,9630
2175,9651
2189,9668
2198,9679
2201,9683
2202,9684
" style="stroke:#000000;stroke-width:0;
stroke-linejoin:bevel; stroke-linecap:butt;
fill:#000000;
"/>
<!-- Line -->
<!--  polyline  -->
<polyline points="624,7585
624,7585
624,7585
" style="stroke:#000000;stroke-width:7;
stroke-linejoin:miter; stroke-linecap:butt;
"/>
<!-- Line -->
<!--  polyline  -->
<polyline points="624,7585
7693,7585
7693,12079
624,12079
624,7585
" style="stroke:#000000;stroke-width:15;
stroke-linejoin:miter; stroke-linecap:butt;
"/>
<!-- Line -->
<!--  polyline  -->
<polyline points="3275,8174
5241,8174
5241,8991
3275,8991
3275,8174
" style="stroke:#ffffff;stroke-width:0;
stroke-linejoin:miter; stroke-linecap:butt;
fill:#ffffff;
"/>
<!-- Line -->
<!--  polyline  -->
<polyline points="3275,8174
5241,8174
5241,8991
3275,8991
3275,8174
" style="stroke:#000000;stroke-width:7;
stroke-linejoin:miter; stroke-linecap:butt;
"/>
<!-- Text -->
<!--  text  -->
<text xml:space="preserve" x="3813" y="8514" stroke="#000000" fill="#000000"  font-family="Times" font-style="normal" font-weight="normal" font-size="156" text-anchor="start">P</text>
<!-- Text -->
<!--  text  -->
<text xml:space="preserve" x="3924" y="8514" stroke="#000000" fill="#000000"  font-family="Times" font-style="normal" font-weight="normal" font-size="156" text-anchor="start">R</text>
<!-- Text -->
<!--  text  -->
<text xml:space="preserve" x="4057" y="8514" stroke="#000000" fill="#000000"  font-family="Times" font-style="normal" font-weight="normal" font-size="156" text-anchor="start">I</text>
<!-- Text -->
<!--  text  -->
<text xml:space="preserve" x="4124" y="8514" stroke="#000000" fill="#000000"  font-family="Times" font-style="normal" font-weight="normal" font-size="156" text-anchor="start">M</text>
<!-- Text -->
<!--  text  -->
<text xml:space="preserve" x="4301" y="8514" stroke="#000000" fill="#000000"  font-family="Times" font-style="normal" font-weight="normal" font-size="156" text-anchor="start">A</text>
<!-- Text -->
<!--  text  -->
<text xml:space="preserve" x="4446" y="8514" stroke="#000000" fill="#000000"  font-family="Times" font-style="normal" font-weight="normal" font-size="156" text-anchor="start">R</text>
<!-- Text -->
<!--  text  -->
<text xml:space="preserve" x="4568" y="8514" stroke="#000000" fill="#000000"  font-family="Times" font-style="normal" font-weight="normal" font-size="156" text-anchor="start">Y</text>
<!-- Text -->
<!--  text  -->
<text xml:space="preserve" x="3475" y="8754" stroke="#000000" fill="#000000"  font-family="Times" font-style="normal" font-weight="normal" font-size="156" text-anchor="start">M</text>
<!-- Text -->
<!--  text  -->
<text xml:space="preserve" x="3652" y="8754" stroke="#000000" fill="#000000"  font-family="Times" font-style="normal" font-weight="normal" font-size="156" text-anchor="start">O</text>
<!-- Text -->
<!--  text  -->
<text xml:space="preserve" x="3797" y="8754" stroke="#000000" fill="#000000"  font-family="Times" font-style="normal" font-weight="normal" font-size="156" text-anchor="start">T</text>
<!-- Text -->
<!--  text  -->
<text xml:space="preserve" x="3915" y="8754" stroke="#000000" fill="#000000"  font-family="Times" font-style="normal" font-weight="normal" font-size="156" text-anchor="start">O</text>
<!-- Text -->
<!--  text  -->
<text xml:space="preserve" x="4060" y="8754" stroke="#000000" fill="#000000"  font-family="Times" font-style="normal" font-weight="normal" font-size="156" text-anchor="start">R</text>
<!-- Text -->
<!--  text  -->
<text xml:space="preserve" x="4263" y="8754" stroke="#000000" fill="#000000"  font-family="Times" font-style="normal" font-weight="normal" font-size="156" text-anchor="start">C</text>
<!-- Text -->
<!--  text  -->
<text xml:space="preserve" x="4396" y="8754" stroke="#000000" fill="#000000"  font-family="Times" font-style="normal" font-weight="normal" font-size="156" text-anchor="start">O</text>
<!-- Text -->
<!--  text  -->
<text xml:space="preserve" x="4541" y="8754" stroke="#000000" fill="#000000"  font-family="Times" font-style="normal" font-weight="normal" font-size="156" text-anchor="start">R</text>
<!-- Text -->
<!--  text  -->
<text xml:space="preserve" x="4662" y="8754" stroke="#000000" fill="#000000"  font-family="Times" font-style="normal" font-weight="normal" font-size="156" text-anchor="start">T</text>
<!-- Text -->
<!--  text  -->
<text xml:space="preserve" x="4784" y="8754" stroke="#000000" fill="#000000"  font-family="Times" font-style="normal" font-weight="normal" font-size="156" text-anchor="start">E</text>
<!-- Text -->
<!--  text  -->
<text xml:space="preserve" x="4906" y="8754" stroke="#000000" fill="#000000"  font-family="Times" font-style="normal" font-weight="normal" font-size="156" text-anchor="start">X</text>
<!-- Line -->
<!--  polyline  -->
<polyline points="936,8149
2869,8149
2869,9016
936,9016
936,8149
" style="stroke:#ffffff;stroke-width:0;
stroke-linejoin:miter; stroke-linecap:butt;
fill:#ffffff;
"/>
<!-- Line -->
<!--  polyline  -->
<polyline points="936,8149
2869,8149
2869,9016
936,9016
936,8149
" style="stroke:#000000;stroke-width:7;
stroke-linejoin:miter; stroke-linecap:butt;
"/>
<!-- Text -->
<!--  text  -->
<text xml:space="preserve" x="1196" y="8506" stroke="#000000" fill="#000000"  font-family="Times" font-style="normal" font-weight="normal" font-size="156" text-anchor="start">N</text>
<!-- Text -->
<!--  text  -->
<text xml:space="preserve" x="1341" y="8506" stroke="#000000" fill="#000000"  font-family="Times" font-style="normal" font-weight="normal" font-size="156" text-anchor="start">O</text>
<!-- Text -->
<!--  text  -->
<text xml:space="preserve" x="1485" y="8506" stroke="#000000" fill="#000000"  font-family="Times" font-style="normal" font-weight="normal" font-size="156" text-anchor="start">N</text>
<!-- Text -->
<!--  text  -->
<text xml:space="preserve" x="1629" y="8506" stroke="#000000" fill="#000000"  font-family="Times" font-style="normal" font-weight="normal" font-size="156" text-anchor="start">P</text>
<!-- Text -->
<!--  text  -->
<text xml:space="preserve" x="1740" y="8506" stroke="#000000" fill="#000000"  font-family="Times" font-style="normal" font-weight="normal" font-size="156" text-anchor="start">R</text>
<!-- Text -->
<!--  text  -->
<text xml:space="preserve" x="1874" y="8506" stroke="#000000" fill="#000000"  font-family="Times" font-style="normal" font-weight="normal" font-size="156" text-anchor="start">I</text>
<!-- Text -->
<!--  text  -->
<text xml:space="preserve" x="1940" y="8506" stroke="#000000" fill="#000000"  font-family="Times" font-style="normal" font-weight="normal" font-size="156" text-anchor="start">M</text>
<!-- Text -->
<!--  text  -->
<text xml:space="preserve" x="2118" y="8506" stroke="#000000" fill="#000000"  font-family="Times" font-style="normal" font-weight="normal" font-size="156" text-anchor="start">A</text>
<!-- Text -->
<!--  text  -->
<text xml:space="preserve" x="2262" y="8506" stroke="#000000" fill="#000000"  font-family="Times" font-style="normal" font-weight="normal" font-size="156" text-anchor="start">R</text>
<!-- Text -->
<!--  text  -->
<text xml:space="preserve" x="2385" y="8506" stroke="#000000" fill="#000000"  font-family="Times" font-style="normal" font-weight="normal" font-size="156" text-anchor="start">Y</text>
<!-- Text -->
<!--  text  -->
<text xml:space="preserve" x="1075" y="8746" stroke="#000000" fill="#000000"  font-family="Times" font-style="normal" font-weight="normal" font-size="156" text-anchor="start">M</text>
<!-- Text -->
<!--  text  -->
<text xml:space="preserve" x="1252" y="8746" stroke="#000000" fill="#000000"  font-family="Times" font-style="normal" font-weight="normal" font-size="156" text-anchor="start">O</text>
<!-- Text -->
<!--  text  -->
<text xml:space="preserve" x="1397" y="8746" stroke="#000000" fill="#000000"  font-family="Times" font-style="normal" font-weight="normal" font-size="156" text-anchor="start">T</text>
<!-- Text -->
<!--  text  -->
<text xml:space="preserve" x="1515" y="8746" stroke="#000000" fill="#000000"  font-family="Times" font-style="normal" font-weight="normal" font-size="156" text-anchor="start">O</text>
<!-- Text -->
<!--  text  -->
<text xml:space="preserve" x="1660" y="8746" stroke="#000000" fill="#000000"  font-family="Times" font-style="normal" font-weight="normal" font-size="156" text-anchor="start">R</text>
<!-- Text -->
<!--  text  -->
<text xml:space="preserve" x="1863" y="8746" stroke="#000000" fill="#000000"  font-family="Times" font-style="normal" font-weight="normal" font-size="156" text-anchor="start">C</text>
<!-- Text -->
<!--  text  -->
<text xml:space="preserve" x="1996" y="8746" stroke="#000000" fill="#000000"  font-family="Times" font-style="normal" font-weight="normal" font-size="156" text-anchor="start">O</text>
<!-- Text -->
<!--  text  -->
<text xml:space="preserve" x="2141" y="8746" stroke="#000000" fill="#000000"  font-family="Times" font-style="normal" font-weight="normal" font-size="156" text-anchor="start">R</text>
<!-- Text -->
<!--  text  -->
<text xml:space="preserve" x="2262" y="8746" stroke="#000000" fill="#000000"  font-family="Times" font-style="normal" font-weight="normal" font-size="156" text-anchor="start">T</text>
<!-- Text -->
<!--  text  -->
<text xml:space="preserve" x="2384" y="8746" stroke="#000000" fill="#000000"  font-family="Times" font-style="normal" font-weight="normal" font-size="156" text-anchor="start">E</text>
<!-- Text -->
<!--  text  -->
<text xml:space="preserve" x="2506" y="8746" stroke="#000000" fill="#000000"  font-family="Times" font-style="normal" font-weight="normal" font-size="156" text-anchor="start">X</text>
<!-- Line -->
<!--  polyline  -->
<polyline points="3333,9649
5183,9649
5183,10439
3333,10439
3333,9649
" style="stroke:#ffffff;stroke-width:0;
stroke-linejoin:miter; stroke-linecap:butt;
fill:#ffffff;
"/>
<!-- Line -->
<!--  polyline  -->
<polyline points="3333,9649
5183,9649
5183,10439
3333,10439
3333,9649
" style="stroke:#000000;stroke-width:7;
stroke-linejoin:miter; stroke-linecap:butt;
"/>
<!-- Text -->
<!--  text  -->
<text xml:space="preserve" x="3652" y="9981" stroke="#000000" fill="#000000"  font-family="Times" font-style="normal" font-weight="normal" font-size="156" text-anchor="start">B</text>
<!-- Text -->
<!--  text  -->
<text xml:space="preserve" x="3785" y="9981" stroke="#000000" fill="#000000"  font-family="Times" font-style="normal" font-weight="normal" font-size="156" text-anchor="start">R</text>
<!-- Text -->
<!--  text  -->
<text xml:space="preserve" x="3919" y="9981" stroke="#000000" fill="#000000"  font-family="Times" font-style="normal" font-weight="normal" font-size="156" text-anchor="start">A</text>
<!-- Text -->
<!--  text  -->
<text xml:space="preserve" x="4063" y="9981" stroke="#000000" fill="#000000"  font-family="Times" font-style="normal" font-weight="normal" font-size="156" text-anchor="start">I</text>
<!-- Text -->
<!--  text  -->
<text xml:space="preserve" x="4130" y="9981" stroke="#000000" fill="#000000"  font-family="Times" font-style="normal" font-weight="normal" font-size="156" text-anchor="start">N</text>
<!-- Text -->
<!--  text  -->
<text xml:space="preserve" x="4344" y="9981" stroke="#000000" fill="#000000"  font-family="Times" font-style="normal" font-weight="normal" font-size="156" text-anchor="start">S</text>
<!-- Text -->
<!--  text  -->
<text xml:space="preserve" x="4455" y="9981" stroke="#000000" fill="#000000"  font-family="Times" font-style="normal" font-weight="normal" font-size="156" text-anchor="start">T</text>
<!-- Text -->
<!--  text  -->
<text xml:space="preserve" x="4577" y="9981" stroke="#000000" fill="#000000"  font-family="Times" font-style="normal" font-weight="normal" font-size="156" text-anchor="start">E</text>
<!-- Text -->
<!--  text  -->
<text xml:space="preserve" x="4699" y="9981" stroke="#000000" fill="#000000"  font-family="Times" font-style="normal" font-weight="normal" font-size="156" text-anchor="start">M</text>
<!-- Text -->
<!--  text  -->
<text xml:space="preserve" x="3477" y="10221" stroke="#000000" fill="#000000"  font-family="Times" font-style="normal" font-weight="normal" font-size="156" text-anchor="start">M</text>
<!-- Text -->
<!--  text  -->
<text xml:space="preserve" x="3654" y="10221" stroke="#000000" fill="#000000"  font-family="Times" font-style="normal" font-weight="normal" font-size="156" text-anchor="start">O</text>
<!-- Text -->
<!--  text  -->
<text xml:space="preserve" x="3799" y="10221" stroke="#000000" fill="#000000"  font-family="Times" font-style="normal" font-weight="normal" font-size="156" text-anchor="start">T</text>
<!-- Text -->
<!--  text  -->
<text xml:space="preserve" x="3917" y="10221" stroke="#000000" fill="#000000"  font-family="Times" font-style="normal" font-weight="normal" font-size="156" text-anchor="start">O</text>
<!-- Text -->
<!--  text  -->
<text xml:space="preserve" x="4062" y="10221" stroke="#000000" fill="#000000"  font-family="Times" font-style="normal" font-weight="normal" font-size="156" text-anchor="start">R</text>
<!-- Text -->
<!--  text  -->
<text xml:space="preserve" x="4265" y="10221" stroke="#000000" fill="#000000"  font-family="Times" font-style="normal" font-weight="normal" font-size="156" text-anchor="start">C</text>
<!-- Text -->
<!--  text  -->
<text xml:space="preserve" x="4398" y="10221" stroke="#000000" fill="#000000"  font-family="Times" font-style="normal" font-weight="normal" font-size="156" text-anchor="start">O</text>
<!-- Text -->
<!--  text  -->
<text xml:space="preserve" x="4543" y="10221" stroke="#000000" fill="#000000"  font-family="Times" font-style="normal" font-weight="normal" font-size="156" text-anchor="start">R</text>
<!-- Text -->
<!--  text  -->
<text xml:space="preserve" x="4664" y="10221" stroke="#000000" fill="#000000"  font-family="Times" font-style="normal" font-weight="normal" font-size="156" text-anchor="start">T</text>
<!-- Text -->
<!--  text  -->
<text xml:space="preserve" x="4786" y="10221" stroke="#000000" fill="#000000"  font-family="Times" font-style="normal" font-weight="normal" font-size="156" text-anchor="start">E</text>
<!-- Text -->
<!--  text  -->
<text xml:space="preserve" x="4908" y="10221" stroke="#000000" fill="#000000"  font-family="Times" font-style="normal" font-weight="normal" font-size="156" text-anchor="start">X</text>
<!-- Line -->
<!--  polyline  -->
<polyline points="5758,9761
7247,9761
7247,10327
5758,10327
5758,9761
" style="stroke:#ffffff;stroke-width:0;
stroke-linejoin:miter; stroke-linecap:butt;
fill:#ffffff;
"/>
<!-- Line -->
<!--  polyline  -->
<polyline points="5758,9761
7247,9761
7247,10327
5758,10327
5758,9761
" style="stroke:#000000;stroke-width:7;
stroke-linejoin:miter; stroke-linecap:butt;
"/>
<!-- Text -->
<!--  text  -->
<text xml:space="preserve" x="5825" y="10117" stroke="#000000" fill="#000000"  font-family="Times" font-style="normal" font-weight="normal" font-size="156" text-anchor="start">C</text>
<!-- Text -->
<!--  text  -->
<text xml:space="preserve" x="5958" y="10117" stroke="#000000" fill="#000000"  font-family="Times" font-style="normal" font-weight="normal" font-size="156" text-anchor="start">E</text>
<!-- Text -->
<!--  text  -->
<text xml:space="preserve" x="6080" y="10117" stroke="#000000" fill="#000000"  font-family="Times" font-style="normal" font-weight="normal" font-size="156" text-anchor="start">R</text>
<!-- Text -->
<!--  text  -->
<text xml:space="preserve" x="6214" y="10117" stroke="#000000" fill="#000000"  font-family="Times" font-style="normal" font-weight="normal" font-size="156" text-anchor="start">E</text>
<!-- Text -->
<!--  text  -->
<text xml:space="preserve" x="6336" y="10117" stroke="#000000" fill="#000000"  font-family="Times" font-style="normal" font-weight="normal" font-size="156" text-anchor="start">B</text>
<!-- Text -->
<!--  text  -->
<text xml:space="preserve" x="6469" y="10117" stroke="#000000" fill="#000000"  font-family="Times" font-style="normal" font-weight="normal" font-size="156" text-anchor="start">E</text>
<!-- Text -->
<!--  text  -->
<text xml:space="preserve" x="6591" y="10117" stroke="#000000" fill="#000000"  font-family="Times" font-style="normal" font-weight="normal" font-size="156" text-anchor="start">L</text>
<!-- Text -->
<!--  text  -->
<text xml:space="preserve" x="6713" y="10117" stroke="#000000" fill="#000000"  font-family="Times" font-style="normal" font-weight="normal" font-size="156" text-anchor="start">L</text>
<!-- Text -->
<!--  text  -->
<text xml:space="preserve" x="6836" y="10117" stroke="#000000" fill="#000000"  font-family="Times" font-style="normal" font-weight="normal" font-size="156" text-anchor="start">U</text>
<!-- Text -->
<!--  text  -->
<text xml:space="preserve" x="6980" y="10117" stroke="#000000" fill="#000000"  font-family="Times" font-style="normal" font-weight="normal" font-size="156" text-anchor="start">M</text>
<!-- Line -->
<!--  polyline  -->
<polyline points="3319,10975
5152,10975
5152,11509
3319,11509
3319,10975
" style="stroke:#ffffff;stroke-width:0;
stroke-linejoin:miter; stroke-linecap:butt;
fill:#ffffff;
"/>
<!-- Line -->
<!--  polyline  -->
<polyline points="3319,10975
5152,10975
5152,11509
3319,11509
3319,10975
" style="stroke:#000000;stroke-width:7;
stroke-linejoin:miter; stroke-linecap:butt;
"/>
<!-- Text -->
<!--  text  -->
<text xml:space="preserve" x="3573" y="11299" stroke="#000000" fill="#000000"  font-family="Times" font-style="normal" font-weight="normal" font-size="156" text-anchor="start">S</text>
<!-- Text -->
<!--  text  -->
<text xml:space="preserve" x="3685" y="11299" stroke="#000000" fill="#000000"  font-family="Times" font-style="normal" font-weight="normal" font-size="156" text-anchor="start">P</text>
<!-- Text -->
<!--  text  -->
<text xml:space="preserve" x="3796" y="11299" stroke="#000000" fill="#000000"  font-family="Times" font-style="normal" font-weight="normal" font-size="156" text-anchor="start">I</text>
<!-- Text -->
<!--  text  -->
<text xml:space="preserve" x="3862" y="11299" stroke="#000000" fill="#000000"  font-family="Times" font-style="normal" font-weight="normal" font-size="156" text-anchor="start">N</text>
<!-- Text -->
<!--  text  -->
<text xml:space="preserve" x="4007" y="11299" stroke="#000000" fill="#000000"  font-family="Times" font-style="normal" font-weight="normal" font-size="156" text-anchor="start">A</text>
<!-- Text -->
<!--  text  -->
<text xml:space="preserve" x="4151" y="11299" stroke="#000000" fill="#000000"  font-family="Times" font-style="normal" font-weight="normal" font-size="156" text-anchor="start">L</text>
<!-- Text -->
<!--  text  -->
<text xml:space="preserve" x="4343" y="11299" stroke="#000000" fill="#000000"  font-family="Times" font-style="normal" font-weight="normal" font-size="156" text-anchor="start">C</text>
<!-- Text -->
<!--  text  -->
<text xml:space="preserve" x="4476" y="11299" stroke="#000000" fill="#000000"  font-family="Times" font-style="normal" font-weight="normal" font-size="156" text-anchor="start">O</text>
<!-- Text -->
<!--  text  -->
<text xml:space="preserve" x="4621" y="11299" stroke="#000000" fill="#000000"  font-family="Times" font-style="normal" font-weight="normal" font-size="156" text-anchor="start">R</text>
<!-- Text -->
<!--  text  -->
<text xml:space="preserve" x="4754" y="11299" stroke="#000000" fill="#000000"  font-family="Times" font-style="normal" font-weight="normal" font-size="156" text-anchor="start">D</text>
<!-- Line -->
<!--  polyline  -->
<polyline points="1691,9686
2713,9686
2713,10402
1691,10402
1691,9686
" style="stroke:#ffffff;stroke-width:0;
stroke-linejoin:miter; stroke-linecap:butt;
fill:#ffffff;
"/>
<!-- Line -->
<!--  polyline  -->
<polyline points="1691,9686
2713,9686
2713,10402
1691,10402
1691,9686
" style="stroke:#000000;stroke-width:7;
stroke-linejoin:miter; stroke-linecap:butt;
"/>
<!-- Text -->
<!--  text  -->
<text xml:space="preserve" x="1875" y="9981" stroke="#000000" fill="#000000"  font-family="Times" font-style="normal" font-weight="normal" font-size="156" text-anchor="start">B</text>
<!-- Text -->
<!--  text  -->
<text xml:space="preserve" x="2008" y="9981" stroke="#000000" fill="#000000"  font-family="Times" font-style="normal" font-weight="normal" font-size="156" text-anchor="start">A</text>
<!-- Text -->
<!--  text  -->
<text xml:space="preserve" x="2153" y="9981" stroke="#000000" fill="#000000"  font-family="Times" font-style="normal" font-weight="normal" font-size="156" text-anchor="start">S</text>
<!-- Text -->
<!--  text  -->
<text xml:space="preserve" x="2264" y="9981" stroke="#000000" fill="#000000"  font-family="Times" font-style="normal" font-weight="normal" font-size="156" text-anchor="start">A</text>
<!-- Text -->
<!--  text  -->
<text xml:space="preserve" x="2408" y="9981" stroke="#000000" fill="#000000"  font-family="Times" font-style="normal" font-weight="normal" font-size="156" text-anchor="start">L</text>
<!-- Text -->
<!--  text  -->
<text xml:space="preserve" x="1747" y="10221" stroke="#000000" fill="#000000"  font-family="Times" font-style="normal" font-weight="normal" font-size="156" text-anchor="start">G</text>
<!-- Text -->
<!--  text  -->
<text xml:space="preserve" x="1892" y="10221" stroke="#000000" fill="#000000"  font-family="Times" font-style="normal" font-weight="normal" font-size="156" text-anchor="start">A</text>
<!-- Text -->
<!--  text  -->
<text xml:space="preserve" x="2036" y="10221" stroke="#000000" fill="#000000"  font-family="Times" font-style="normal" font-weight="normal" font-size="156" text-anchor="start">N</text>
<!-- Text -->
<!--  text  -->
<text xml:space="preserve" x="2180" y="10221" stroke="#000000" fill="#000000"  font-family="Times" font-style="normal" font-weight="normal" font-size="156" text-anchor="start">G</text>
<!-- Text -->
<!--  text  -->
<text xml:space="preserve" x="2325" y="10221" stroke="#000000" fill="#000000"  font-family="Times" font-style="normal" font-weight="normal" font-size="156" text-anchor="start">L</text>
<!-- Text -->
<!--  text  -->
<text xml:space="preserve" x="2447" y="10221" stroke="#000000" fill="#000000"  font-family="Times" font-style="normal" font-weight="normal" font-size="156" text-anchor="start">I</text>
<!-- Text -->
<!--  text  -->
<text xml:space="preserve" x="2513" y="10221" stroke="#000000" fill="#000000"  font-family="Times" font-style="normal" font-weight="normal" font-size="156" text-anchor="start">A</text>
<!-- Line -->
<!--  spline  -->
<polyline points="4254,8135
4254,8134
4252,8130
4248,8119
4241,8102
4231,8078
4220,8051
4210,8024
4200,8000
4193,7983
4189,7972
4187,7968
4187,7967
4186,7966
4184,7963
4180,7957
4174,7950
4166,7942
4157,7932
4147,7921
4135,7910
4121,7898
4105,7885
4085,7872
4062,7857
4036,7842
4008,7828
3984,7816
3965,7807
3951,7801
3942,7797
3936,7795
3932,7793
3928,7792
3922,7790
3911,7787
3895,7782
3871,7776
3839,7768
3801,7759
3767,7752
3735,7746
3709,7741
3690,7738
3676,7735
3666,7734
3660,7733
3655,7732
3651,7732
3644,7731
3633,7730
3617,7729
3594,7727
3564,7725
3526,7722
3482,7720
3446,7718
3411,7717
3377,7717
3345,7716
3316,7716
3288,7716
3261,7717
3236,7717
3211,7718
3188,7719
3166,7720
3146,7721
3128,7722
3113,7722
3100,7723
3091,7723
3085,7724
3082,7724
3080,7724
3077,7724
3070,7725
3059,7726
3041,7728
3016,7730
2985,7732
2949,7736
2909,7739
2867,7743
2825,7747
2785,7750
2749,7754
2718,7756
2693,7758
2675,7760
2664,7761
2657,7762
2654,7762
2652,7762
2648,7763
2641,7764
2631,7765
2617,7767
2601,7769
2582,7772
2561,7775
2539,7779
2516,7783
2492,7787
2467,7791
2440,7796
2412,7802
2382,7809
2350,7816
2317,7824
2282,7833
2251,7841
2227,7848
2209,7854
2196,7857
2188,7860
2182,7861
2179,7863
2175,7864
2170,7866
2163,7869
2153,7873
2138,7879
2119,7887
2095,7897
2070,7909
2038,7925
2014,7938
1996,7947
1986,7953
1980,7957
1977,7959
1974,7961
1969,7965
1961,7972
1949,7983
1932,7998
1913,8017
1896,8037
1882,8055
1872,8072
1864,8087
1858,8101
1854,8114
1850,8125
1848,8135
1846,8142
1845,8147
1845,8149
" style="stroke:#000000;stroke-width:7;
stroke-linejoin:bevel; stroke-linecap:butt;
"/>
<!-- Line -->
<!--  spline  -->
<polyline points="4258,8193
4258,8192
4261,8187
4266,8174
4274,8153
4284,8128
4294,8104
4302,8083
4307,8070
4310,8065
4310,8064
4309,8064
4306,8063
4301,8062
4298,8061
4297,8061
4295,8061
4292,8060
4289,8060
4285,8059
4281,8058
4280,8058
4278,8058
4275,8057
4272,8057
4271,8056
4270,8056
4269,8056
4266,8056
4263,8056
4261,8055
4259,8055
4258,8055
4256,8055
4252,8056
4250,8056
4249,8056
4247,8056
4244,8057
4241,8057
4238,8058
4236,8058
4235,8058
4231,8059
4227,8060
4226,8060
4225,8060
4223,8060
4219,8061
4215,8062
4211,8063
4209,8063
4207,8064
4207,8065
4210,8070
4215,8083
4223,8104
4233,8129
4242,8153
4250,8174
4255,8187
4258,8192
4258,8193
" style="stroke:#000000;stroke-width:0;
stroke-linejoin:bevel; stroke-linecap:butt;
fill:#000000;
"/>
<!-- Text -->
<!--  text  -->
<text xml:space="preserve" x="4641" y="11781" stroke="#000000" fill="#000000"  font-family="Times" font-style="normal" font-weight="normal" font-size="156" text-anchor="start">T</text>
<!-- Text -->
<!--  text  -->
<text xml:space="preserve" x="4760" y="11781" stroke="#000000" fill="#000000"  font-family="Times" font-style="normal" font-weight="normal" font-size="156" text-anchor="start">O</text>
<!-- Text -->
<!--  text  -->
<text xml:space="preserve" x="4974" y="11781" stroke="#000000" fill="#000000"  font-family="Times" font-style="normal" font-weight="normal" font-size="156" text-anchor="start">M</text>
<!-- Text -->
<!--  text  -->
<text xml:space="preserve" x="5152" y="11781" stroke="#000000" fill="#000000"  font-family="Times" font-style="normal" font-weight="normal" font-size="156" text-anchor="start">U</text>
<!-- Text -->
<!--  text  -->
<text xml:space="preserve" x="5296" y="11781" stroke="#000000" fill="#000000"  font-family="Times" font-style="normal" font-weight="normal" font-size="156" text-anchor="start">S</text>
<!-- Text -->
<!--  text  -->
<text xml:space="preserve" x="5407" y="11781" stroke="#000000" fill="#000000"  font-family="Times" font-style="normal" font-weight="normal" font-size="156" text-anchor="start">C</text>
<!-- Text -->
<!--  text  -->
<text xml:space="preserve" x="5541" y="11781" stroke="#000000" fill="#000000"  font-family="Times" font-style="normal" font-weight="normal" font-size="156" text-anchor="start">L</text>
<!-- Text -->
<!--  text  -->
<text xml:space="preserve" x="5663" y="11781" stroke="#000000" fill="#000000"  font-family="Times" font-style="normal" font-weight="normal" font-size="156" text-anchor="start">E</text>
<!-- Text -->
<!--  text  -->
<text xml:space="preserve" x="5785" y="11781" stroke="#000000" fill="#000000"  font-family="Times" font-style="normal" font-weight="normal" font-size="156" text-anchor="start">S</text>
<!-- Text -->
<!--  text  -->
<text xml:space="preserve" x="2064" y="12264" stroke="#000000" fill="#000000"  font-family="Times" font-style="normal" font-weight="normal" font-size="156" text-anchor="start">F</text>
<!-- Text -->
<!--  text  -->
<text xml:space="preserve" x="2175" y="12264" stroke="#000000" fill="#000000"  font-family="Times" font-style="normal" font-weight="normal" font-size="156" text-anchor="start">i</text>
<!-- Text -->
<!--  text  -->
<text xml:space="preserve" x="2231" y="12264" stroke="#000000" fill="#000000"  font-family="Times" font-style="normal" font-weight="normal" font-size="156" text-anchor="start">g</text>
<!-- Text -->
<!--  text  -->
<text xml:space="preserve" x="2331" y="12264" stroke="#000000" fill="#000000"  font-family="Times" font-style="normal" font-weight="normal" font-size="156" text-anchor="start">u</text>
<!-- Text -->
<!--  text  -->
<text xml:space="preserve" x="2431" y="12264" stroke="#000000" fill="#000000"  font-family="Times" font-style="normal" font-weight="normal" font-size="156" text-anchor="start">r</text>
<!-- Text -->
<!--  text  -->
<text xml:space="preserve" x="2497" y="12264" stroke="#000000" fill="#000000"  font-family="Times" font-style="normal" font-weight="normal" font-size="156" text-anchor="start">e</text>
<!-- Text -->
<!--  text  -->
<text xml:space="preserve" x="2656" y="12264" stroke="#000000" fill="#000000"  font-family="Times" font-style="normal" font-weight="normal" font-size="156" text-anchor="start">8</text>
<!-- Text -->
<!--  text  -->
<text xml:space="preserve" x="2756" y="12264" stroke="#000000" fill="#000000"  font-family="Times" font-style="normal" font-weight="normal" font-size="156" text-anchor="start">-</text>
<!-- Text -->
<!--  text  -->
<text xml:space="preserve" x="2823" y="12264" stroke="#000000" fill="#000000"  font-family="Times" font-style="normal" font-weight="normal" font-size="156" text-anchor="start">5</text>
<!-- Text -->
<!--  text  -->
<text xml:space="preserve" x="2923" y="12264" stroke="#000000" fill="#000000"  font-family="Times" font-style="normal" font-weight="normal" font-size="156" text-anchor="start">:</text>
<!-- Text -->
<!--  text  -->
<text xml:space="preserve" x="3048" y="12264" stroke="#000000" fill="#000000"  font-family="Times" font-style="normal" font-weight="normal" font-size="156" text-anchor="start">B</text>
<!-- Text -->
<!--  text  -->
<text xml:space="preserve" x="3182" y="12264" stroke="#000000" fill="#000000"  font-family="Times" font-style="normal" font-weight="normal" font-size="156" text-anchor="start">r</text>
<!-- Text -->
<!--  text  -->
<text xml:space="preserve" x="3248" y="12264" stroke="#000000" fill="#000000"  font-family="Times" font-style="normal" font-weight="normal" font-size="156" text-anchor="start">a</text>
<!-- Text -->
<!--  text  -->
<text xml:space="preserve" x="3337" y="12264" stroke="#000000" fill="#000000"  font-family="Times" font-style="normal" font-weight="normal" font-size="156" text-anchor="start">i</text>
<!-- Text -->
<!--  text  -->
<text xml:space="preserve" x="3392" y="12264" stroke="#000000" fill="#000000"  font-family="Times" font-style="normal" font-weight="normal" font-size="156" text-anchor="start">n</text>
<!-- Text -->
<!--  text  -->
<text xml:space="preserve" x="3562" y="12264" stroke="#000000" fill="#000000"  font-family="Times" font-style="normal" font-weight="normal" font-size="156" text-anchor="start">e</text>
<!-- Text -->
<!--  text  -->
<text xml:space="preserve" x="3651" y="12264" stroke="#000000" fill="#000000"  font-family="Times" font-style="normal" font-weight="normal" font-size="156" text-anchor="start">l</text>
<!-- Text -->
<!--  text  -->
<text xml:space="preserve" x="3707" y="12264" stroke="#000000" fill="#000000"  font-family="Times" font-style="normal" font-weight="normal" font-size="156" text-anchor="start">e</text>
<!-- Text -->
<!--  text  -->
<text xml:space="preserve" x="3796" y="12264" stroke="#000000" fill="#000000"  font-family="Times" font-style="normal" font-weight="normal" font-size="156" text-anchor="start">m</text>
<!-- Text -->
<!--  text  -->
<text xml:space="preserve" x="3951" y="12264" stroke="#000000" fill="#000000"  font-family="Times" font-style="normal" font-weight="normal" font-size="156" text-anchor="start">e</text>
<!-- Text -->
<!--  text  -->
<text xml:space="preserve" x="4040" y="12264" stroke="#000000" fill="#000000"  font-family="Times" font-style="normal" font-weight="normal" font-size="156" text-anchor="start">n</text>
<!-- Text -->
<!--  text  -->
<text xml:space="preserve" x="4140" y="12264" stroke="#000000" fill="#000000"  font-family="Times" font-style="normal" font-weight="normal" font-size="156" text-anchor="start">t</text>
<!-- Text -->
<!--  text  -->
<text xml:space="preserve" x="4195" y="12264" stroke="#000000" fill="#000000"  font-family="Times" font-style="normal" font-weight="normal" font-size="156" text-anchor="start">s</text>
<!-- Text -->
<!--  text  -->
<text xml:space="preserve" x="4343" y="12264" stroke="#000000" fill="#000000"  font-family="Times" font-style="normal" font-weight="normal" font-size="156" text-anchor="start">i</text>
<!-- Text -->
<!--  text  -->
<text xml:space="preserve" x="4399" y="12264" stroke="#000000" fill="#000000"  font-family="Times" font-style="normal" font-weight="normal" font-size="156" text-anchor="start">n</text>
<!-- Text -->
<!--  text  -->
<text xml:space="preserve" x="4499" y="12264" stroke="#000000" fill="#000000"  font-family="Times" font-style="normal" font-weight="normal" font-size="156" text-anchor="start">v</text>
<!-- Text -->
<!--  text  -->
<text xml:space="preserve" x="4599" y="12264" stroke="#000000" fill="#000000"  font-family="Times" font-style="normal" font-weight="normal" font-size="156" text-anchor="start">o</text>
<!-- Text -->
<!--  text  -->
<text xml:space="preserve" x="4699" y="12264" stroke="#000000" fill="#000000"  font-family="Times" font-style="normal" font-weight="normal" font-size="156" text-anchor="start">l</text>
<!-- Text -->
<!--  text  -->
<text xml:space="preserve" x="4754" y="12264" stroke="#000000" fill="#000000"  font-family="Times" font-style="normal" font-weight="normal" font-size="156" text-anchor="start">v</text>
<!-- Text -->
<!--  text  -->
<text xml:space="preserve" x="4854" y="12264" stroke="#000000" fill="#000000"  font-family="Times" font-style="normal" font-weight="normal" font-size="156" text-anchor="start">e</text>
<!-- Text -->
<!--  text  -->
<text xml:space="preserve" x="4943" y="12264" stroke="#000000" fill="#000000"  font-family="Times" font-style="normal" font-weight="normal" font-size="156" text-anchor="start">d</text>
<!-- Text -->
<!--  text  -->
<text xml:space="preserve" x="5113" y="12264" stroke="#000000" fill="#000000"  font-family="Times" font-style="normal" font-weight="normal" font-size="156" text-anchor="start">i</text>
<!-- Text -->
<!--  text  -->
<text xml:space="preserve" x="5169" y="12264" stroke="#000000" fill="#000000"  font-family="Times" font-style="normal" font-weight="normal" font-size="156" text-anchor="start">n</text>
<!-- Text -->
<!--  text  -->
<text xml:space="preserve" x="5339" y="12264" stroke="#000000" fill="#000000"  font-family="Times" font-style="normal" font-weight="normal" font-size="156" text-anchor="start">m</text>
<!-- Text -->
<!--  text  -->
<text xml:space="preserve" x="5494" y="12264" stroke="#000000" fill="#000000"  font-family="Times" font-style="normal" font-weight="normal" font-size="156" text-anchor="start">o</text>
<!-- Text -->
<!--  text  -->
<text xml:space="preserve" x="5594" y="12264" stroke="#000000" fill="#000000"  font-family="Times" font-style="normal" font-weight="normal" font-size="156" text-anchor="start">t</text>
<!-- Text -->
<!--  text  -->
<text xml:space="preserve" x="5650" y="12264" stroke="#000000" fill="#000000"  font-family="Times" font-style="normal" font-weight="normal" font-size="156" text-anchor="start">o</text>
<!-- Text -->
<!--  text  -->
<text xml:space="preserve" x="5750" y="12264" stroke="#000000" fill="#000000"  font-family="Times" font-style="normal" font-weight="normal" font-size="156" text-anchor="start">r</text>
<!-- Text -->
<!--  text  -->
<text xml:space="preserve" x="5886" y="12264" stroke="#000000" fill="#000000"  font-family="Times" font-style="normal" font-weight="normal" font-size="156" text-anchor="start">c</text>
<!-- Text -->
<!--  text  -->
<text xml:space="preserve" x="5975" y="12264" stroke="#000000" fill="#000000"  font-family="Times" font-style="normal" font-weight="normal" font-size="156" text-anchor="start">o</text>
<!-- Text -->
<!--  text  -->
<text xml:space="preserve" x="6075" y="12264" stroke="#000000" fill="#000000"  font-family="Times" font-style="normal" font-weight="normal" font-size="156" text-anchor="start">n</text>
<!-- Text -->
<!--  text  -->
<text xml:space="preserve" x="6175" y="12264" stroke="#000000" fill="#000000"  font-family="Times" font-style="normal" font-weight="normal" font-size="156" text-anchor="start">t</text>
<!-- Text -->
<!--  text  -->
<text xml:space="preserve" x="6230" y="12264" stroke="#000000" fill="#000000"  font-family="Times" font-style="normal" font-weight="normal" font-size="156" text-anchor="start">r</text>
<!-- Text -->
<!--  text  -->
<text xml:space="preserve" x="6297" y="12264" stroke="#000000" fill="#000000"  font-family="Times" font-style="normal" font-weight="normal" font-size="156" text-anchor="start">o</text>
<!-- Text -->
<!--  text  -->
<text xml:space="preserve" x="6397" y="12264" stroke="#000000" fill="#000000"  font-family="Times" font-style="normal" font-weight="normal" font-size="156" text-anchor="start">l</text>
</g>
</svg>
