<?xml version="1.0" standalone="no"?>
<!DOCTYPE svg PUBLIC "-//W3C//DTD SVG 1.1//EN"
"http://www.w3.org/Graphics/SVG/1.1/DTD/svg11.dtd">
<!-- Creator: fig2dev Version 3.2 Patchlevel 5 -->
<!-- CreationDate: Sat Jul  4 12:13:25 2015 -->
<!-- Magnification: 1.000 -->
<svg xmlns="http://www.w3.org/2000/svg" width="6.1in" height="2.8in" viewBox="197 9761 7266 3413">
<g style="stroke-width:.025in; stroke:black; fill:none">
<!-- Line -->
<!--  polyline  -->
<polyline points="247,9783
7430,9783
7430,12883
247,12883
247,9783
" style="stroke:#000000;stroke-width:15;
stroke-linejoin:miter; stroke-linecap:butt;
"/>
<!-- Text -->
<!--  text  -->
<text xml:space="preserve" x="1182" y="12706" stroke="#000000" fill="#000000"  font-family="Times" font-style="normal" font-weight="normal" font-size="156" text-anchor="start">S</text>
<!-- Text -->
<!--  text  -->
<text xml:space="preserve" x="1282" y="12706" stroke="#000000" fill="#000000"  font-family="Times" font-style="normal" font-weight="normal" font-size="156" text-anchor="start">W</text>
<!-- Text -->
<!--  text  -->
<text xml:space="preserve" x="1448" y="12706" stroke="#000000" fill="#000000"  font-family="Times" font-style="normal" font-weight="normal" font-size="156" text-anchor="start">I</text>
<!-- Text -->
<!--  text  -->
<text xml:space="preserve" x="1515" y="12706" stroke="#000000" fill="#000000"  font-family="Times" font-style="normal" font-weight="normal" font-size="156" text-anchor="start">N</text>
<!-- Text -->
<!--  text  -->
<text xml:space="preserve" x="1648" y="12706" stroke="#000000" fill="#000000"  font-family="Times" font-style="normal" font-weight="normal" font-size="156" text-anchor="start">G</text>
<!-- Text -->
<!--  text  -->
<text xml:space="preserve" x="1862" y="12706" stroke="#000000" fill="#000000"  font-family="Times" font-style="normal" font-weight="normal" font-size="156" text-anchor="start">P</text>
<!-- Text -->
<!--  text  -->
<text xml:space="preserve" x="1984" y="12706" stroke="#000000" fill="#000000"  font-family="Times" font-style="normal" font-weight="normal" font-size="156" text-anchor="start">H</text>
<!-- Text -->
<!--  text  -->
<text xml:space="preserve" x="2129" y="12706" stroke="#000000" fill="#000000"  font-family="Times" font-style="normal" font-weight="normal" font-size="156" text-anchor="start">A</text>
<!-- Text -->
<!--  text  -->
<text xml:space="preserve" x="2251" y="12706" stroke="#000000" fill="#000000"  font-family="Times" font-style="normal" font-weight="normal" font-size="156" text-anchor="start">S</text>
<!-- Text -->
<!--  text  -->
<text xml:space="preserve" x="2351" y="12706" stroke="#000000" fill="#000000"  font-family="Times" font-style="normal" font-weight="normal" font-size="156" text-anchor="start">E</text>
<!-- Text -->
<!--  text  -->
<text xml:space="preserve" x="4821" y="12706" stroke="#000000" fill="#000000"  font-family="Times" font-style="normal" font-weight="normal" font-size="156" text-anchor="start">S</text>
<!-- Text -->
<!--  text  -->
<text xml:space="preserve" x="4921" y="12706" stroke="#000000" fill="#000000"  font-family="Times" font-style="normal" font-weight="normal" font-size="156" text-anchor="start">T</text>
<!-- Text -->
<!--  text  -->
<text xml:space="preserve" x="5016" y="12706" stroke="#000000" fill="#000000"  font-family="Times" font-style="normal" font-weight="normal" font-size="156" text-anchor="start">A</text>
<!-- Text -->
<!--  text  -->
<text xml:space="preserve" x="5138" y="12706" stroke="#000000" fill="#000000"  font-family="Times" font-style="normal" font-weight="normal" font-size="156" text-anchor="start">N</text>
<!-- Text -->
<!--  text  -->
<text xml:space="preserve" x="5271" y="12706" stroke="#000000" fill="#000000"  font-family="Times" font-style="normal" font-weight="normal" font-size="156" text-anchor="start">C</text>
<!-- Text -->
<!--  text  -->
<text xml:space="preserve" x="5405" y="12706" stroke="#000000" fill="#000000"  font-family="Times" font-style="normal" font-weight="normal" font-size="156" text-anchor="start">E</text>
<!-- Text -->
<!--  text  -->
<text xml:space="preserve" x="5597" y="12706" stroke="#000000" fill="#000000"  font-family="Times" font-style="normal" font-weight="normal" font-size="156" text-anchor="start">P</text>
<!-- Text -->
<!--  text  -->
<text xml:space="preserve" x="5719" y="12706" stroke="#000000" fill="#000000"  font-family="Times" font-style="normal" font-weight="normal" font-size="156" text-anchor="start">H</text>
<!-- Text -->
<!--  text  -->
<text xml:space="preserve" x="5863" y="12706" stroke="#000000" fill="#000000"  font-family="Times" font-style="normal" font-weight="normal" font-size="156" text-anchor="start">A</text>
<!-- Text -->
<!--  text  -->
<text xml:space="preserve" x="5986" y="12706" stroke="#000000" fill="#000000"  font-family="Times" font-style="normal" font-weight="normal" font-size="156" text-anchor="start">S</text>
<!-- Text -->
<!--  text  -->
<text xml:space="preserve" x="6086" y="12706" stroke="#000000" fill="#000000"  font-family="Times" font-style="normal" font-weight="normal" font-size="156" text-anchor="start">E</text>
<!-- Line -->
<!--  polyline  -->
<polyline points="7430,12433
230,12433
" style="stroke:#7f7f7f;stroke-width:30;
stroke-linejoin:miter; stroke-linecap:butt;
"/>
<!-- Text -->
<!--  text  -->
<text xml:space="preserve" x="1910" y="13090" stroke="#000000" fill="#000000"  font-family="Times" font-style="normal" font-weight="normal" font-size="156" text-anchor="start">F</text>
<!-- Text -->
<!--  text  -->
<text xml:space="preserve" x="2032" y="13090" stroke="#000000" fill="#000000"  font-family="Times" font-style="normal" font-weight="normal" font-size="156" text-anchor="start">i</text>
<!-- Text -->
<!--  text  -->
<text xml:space="preserve" x="2087" y="13090" stroke="#000000" fill="#000000"  font-family="Times" font-style="normal" font-weight="normal" font-size="156" text-anchor="start">g</text>
<!-- Text -->
<!--  text  -->
<text xml:space="preserve" x="2187" y="13090" stroke="#000000" fill="#000000"  font-family="Times" font-style="normal" font-weight="normal" font-size="156" text-anchor="start">u</text>
<!-- Text -->
<!--  text  -->
<text xml:space="preserve" x="2287" y="13090" stroke="#000000" fill="#000000"  font-family="Times" font-style="normal" font-weight="normal" font-size="156" text-anchor="start">r</text>
<!-- Text -->
<!--  text  -->
<text xml:space="preserve" x="2365" y="13090" stroke="#000000" fill="#000000"  font-family="Times" font-style="normal" font-weight="normal" font-size="156" text-anchor="start">e</text>
<!-- Text -->
<!--  text  -->
<text xml:space="preserve" x="2524" y="13090" stroke="#000000" fill="#000000"  font-family="Times" font-style="normal" font-weight="normal" font-size="156" text-anchor="start">8</text>
<!-- Text -->
<!--  text  -->
<text xml:space="preserve" x="2624" y="13090" stroke="#000000" fill="#000000"  font-family="Times" font-style="normal" font-weight="normal" font-size="156" text-anchor="start">-</text>
<!-- Text -->
<!--  text  -->
<text xml:space="preserve" x="2691" y="13090" stroke="#000000" fill="#000000"  font-family="Times" font-style="normal" font-weight="normal" font-size="156" text-anchor="start">1</text>
<!-- Text -->
<!--  text  -->
<text xml:space="preserve" x="2791" y="13090" stroke="#000000" fill="#000000"  font-family="Times" font-style="normal" font-weight="normal" font-size="156" text-anchor="start">:</text>
<!-- Text -->
<!--  text  -->
<text xml:space="preserve" x="2927" y="13090" stroke="#000000" fill="#000000"  font-family="Times" font-style="normal" font-weight="normal" font-size="156" text-anchor="start">T</text>
<!-- Text -->
<!--  text  -->
<text xml:space="preserve" x="3038" y="13090" stroke="#000000" fill="#000000"  font-family="Times" font-style="normal" font-weight="normal" font-size="156" text-anchor="start">h</text>
<!-- Text -->
<!--  text  -->
<text xml:space="preserve" x="3138" y="13090" stroke="#000000" fill="#000000"  font-family="Times" font-style="normal" font-weight="normal" font-size="156" text-anchor="start">e</text>
<!-- Text -->
<!--  text  -->
<text xml:space="preserve" x="3297" y="13090" stroke="#000000" fill="#000000"  font-family="Times" font-style="normal" font-weight="normal" font-size="156" text-anchor="start">p</text>
<!-- Text -->
<!--  text  -->
<text xml:space="preserve" x="3397" y="13090" stroke="#000000" fill="#000000"  font-family="Times" font-style="normal" font-weight="normal" font-size="156" text-anchor="start">h</text>
<!-- Text -->
<!--  text  -->
<text xml:space="preserve" x="3497" y="13090" stroke="#000000" fill="#000000"  font-family="Times" font-style="normal" font-weight="normal" font-size="156" text-anchor="start">a</text>
<!-- Text -->
<!--  text  -->
<text xml:space="preserve" x="3597" y="13090" stroke="#000000" fill="#000000"  font-family="Times" font-style="normal" font-weight="normal" font-size="156" text-anchor="start">s</text>
<!-- Text -->
<!--  text  -->
<text xml:space="preserve" x="3675" y="13090" stroke="#000000" fill="#000000"  font-family="Times" font-style="normal" font-weight="normal" font-size="156" text-anchor="start">e</text>
<!-- Text -->
<!--  text  -->
<text xml:space="preserve" x="3764" y="13090" stroke="#000000" fill="#000000"  font-family="Times" font-style="normal" font-weight="normal" font-size="156" text-anchor="start">s</text>
<!-- Text -->
<!--  text  -->
<text xml:space="preserve" x="3912" y="13090" stroke="#000000" fill="#000000"  font-family="Times" font-style="normal" font-weight="normal" font-size="156" text-anchor="start">o</text>
<!-- Text -->
<!--  text  -->
<text xml:space="preserve" x="4012" y="13090" stroke="#000000" fill="#000000"  font-family="Times" font-style="normal" font-weight="normal" font-size="156" text-anchor="start">f</text>
<!-- Text -->
<!--  text  -->
<text xml:space="preserve" x="4137" y="13090" stroke="#000000" fill="#000000"  font-family="Times" font-style="normal" font-weight="normal" font-size="156" text-anchor="start">h</text>
<!-- Text -->
<!--  text  -->
<text xml:space="preserve" x="4237" y="13090" stroke="#000000" fill="#000000"  font-family="Times" font-style="normal" font-weight="normal" font-size="156" text-anchor="start">u</text>
<!-- Text -->
<!--  text  -->
<text xml:space="preserve" x="4337" y="13090" stroke="#000000" fill="#000000"  font-family="Times" font-style="normal" font-weight="normal" font-size="156" text-anchor="start">m</text>
<!-- Text -->
<!--  text  -->
<text xml:space="preserve" x="4481" y="13090" stroke="#000000" fill="#000000"  font-family="Times" font-style="normal" font-weight="normal" font-size="156" text-anchor="start">a</text>
<!-- Text -->
<!--  text  -->
<text xml:space="preserve" x="4581" y="13090" stroke="#000000" fill="#000000"  font-family="Times" font-style="normal" font-weight="normal" font-size="156" text-anchor="start">n</text>
<!-- Text -->
<!--  text  -->
<text xml:space="preserve" x="4751" y="13090" stroke="#000000" fill="#000000"  font-family="Times" font-style="normal" font-weight="normal" font-size="156" text-anchor="start">l</text>
<!-- Text -->
<!--  text  -->
<text xml:space="preserve" x="4807" y="13090" stroke="#000000" fill="#000000"  font-family="Times" font-style="normal" font-weight="normal" font-size="156" text-anchor="start">o</text>
<!-- Text -->
<!--  text  -->
<text xml:space="preserve" x="4907" y="13090" stroke="#000000" fill="#000000"  font-family="Times" font-style="normal" font-weight="normal" font-size="156" text-anchor="start">c</text>
<!-- Text -->
<!--  text  -->
<text xml:space="preserve" x="4996" y="13090" stroke="#000000" fill="#000000"  font-family="Times" font-style="normal" font-weight="normal" font-size="156" text-anchor="start">o</text>
<!-- Text -->
<!--  text  -->
<text xml:space="preserve" x="5096" y="13090" stroke="#000000" fill="#000000"  font-family="Times" font-style="normal" font-weight="normal" font-size="156" text-anchor="start">m</text>
<!-- Text -->
<!--  text  -->
<text xml:space="preserve" x="5240" y="13090" stroke="#000000" fill="#000000"  font-family="Times" font-style="normal" font-weight="normal" font-size="156" text-anchor="start">o</text>
<!-- Text -->
<!--  text  -->
<text xml:space="preserve" x="5340" y="13090" stroke="#000000" fill="#000000"  font-family="Times" font-style="normal" font-weight="normal" font-size="156" text-anchor="start">t</text>
<!-- Text -->
<!--  text  -->
<text xml:space="preserve" x="5396" y="13090" stroke="#000000" fill="#000000"  font-family="Times" font-style="normal" font-weight="normal" font-size="156" text-anchor="start">i</text>
<!-- Text -->
<!--  text  -->
<text xml:space="preserve" x="5451" y="13090" stroke="#000000" fill="#000000"  font-family="Times" font-style="normal" font-weight="normal" font-size="156" text-anchor="start">o</text>
<!-- Text -->
<!--  text  -->
<text xml:space="preserve" x="5551" y="13090" stroke="#000000" fill="#000000"  font-family="Times" font-style="normal" font-weight="normal" font-size="156" text-anchor="start">n</text>
<!-- Line -->
<!--  polyline  -->
<polyline points="5592,12232
5593,11312
" style="stroke:#000000;stroke-width:15;
stroke-linejoin:miter; stroke-linecap:butt;
"/>
<!-- Line -->
<!--  spline  -->
<polyline points="5428,12410
5428,12409
5428,12404
5428,12391
5429,12371
5430,12347
5430,12323
5431,12303
5431,12290
5431,12285
5431,12284
5431,12281
5431,12275
5430,12266
5430,12254
5429,12241
5428,12226
5427,12209
5425,12190
5422,12168
5419,12147
5417,12131
5415,12121
5414,12116
5414,12113
5413,12111
5412,12106
5410,12096
5407,12081
5402,12062
5397,12043
5393,12029
5391,12020
5389,12015
5388,12012
5388,12010
5386,12005
5383,11997
5378,11983
5371,11966
5362,11945
5354,11927
5346,11913
5340,11901
5334,11891
5330,11884
5328,11881
5328,11880
5327,11879
5324,11873
5317,11859
5308,11841
5299,11822
5292,11808
5289,11802
5288,11801
5288,11800
5287,11797
5284,11791
5281,11782
5277,11771
5273,11759
5270,11744
5266,11727
5263,11710
5262,11699
5261,11694
5261,11691
5261,11689
5261,11684
5261,11673
5262,11657
5264,11641
5265,11631
5266,11626
5266,11623
5267,11621
5268,11616
5271,11606
5276,11591
5282,11576
5288,11564
5293,11553
5298,11545
5303,11538
5306,11533
5308,11530
5309,11529
5312,11524
5319,11514
5330,11499
5340,11484
5347,11474
5350,11469
5351,11468
" style="stroke:#ffffff;stroke-width:0;
stroke-linejoin:bevel; stroke-linecap:butt;
fill:#ffffff;
"/>
<!-- Line -->
<!--  spline  -->
<polyline points="5428,12410
5428,12409
5428,12404
5428,12391
5429,12371
5430,12347
5430,12323
5431,12303
5431,12290
5431,12285
5431,12284
5431,12281
5431,12275
5430,12266
5430,12254
5429,12241
5428,12226
5427,12209
5425,12190
5422,12168
5419,12147
5417,12131
5415,12121
5414,12116
5414,12113
5413,12111
5412,12106
5410,12096
5407,12081
5402,12062
5397,12043
5393,12029
5391,12020
5389,12015
5388,12012
5388,12010
5386,12005
5383,11997
5378,11983
5371,11966
5362,11945
5354,11927
5346,11913
5340,11901
5334,11891
5330,11884
5328,11881
5328,11880
5327,11879
5324,11873
5317,11859
5308,11841
5299,11822
5292,11808
5289,11802
5288,11801
5288,11800
5287,11797
5284,11791
5281,11782
5277,11771
5273,11759
5270,11744
5266,11727
5263,11710
5262,11699
5261,11694
5261,11691
5261,11689
5261,11684
5261,11673
5262,11657
5264,11641
5265,11631
5266,11626
5266,11623
5267,11621
5268,11616
5271,11606
5276,11591
5282,11576
5288,11564
5293,11553
5298,11545
5303,11538
5306,11533
5308,11530
5309,11529
5312,11524
5319,11514
5330,11499
5340,11484
5347,11474
5350,11469
5351,11468
" style="stroke:#000000;stroke-width:15;
stroke-linejoin:bevel; stroke-linecap:butt;
"/>
<!-- Line -->
<!--  polyline  -->
<polyline points="5588,11478
5611,10561
" style="stroke:#000000;stroke-width:15;
stroke-linejoin:miter; stroke-linecap:butt;
"/>
<!-- Line -->
<!--  polyline  -->
<polyline points="5353,11496
5183,10568
" style="stroke:#000000;stroke-width:15;
stroke-linejoin:miter; stroke-linecap:butt;
"/>
<!-- Line -->
<!--  spline  -->
<polyline points="5794,12389
5795,12389
5800,12388
5812,12386
5829,12383
5846,12380
5858,12378
5863,12377
5864,12377
5865,12377
5869,12376
5878,12374
5887,12371
5897,12367
5908,12362
5916,12357
5920,12354
5921,12353
5921,12352
5923,12350
5925,12344
5926,12340
5926,12337
5925,12335
5925,12334
5924,12332
5921,12329
5917,12324
5909,12317
5901,12312
5893,12308
5887,12304
5883,12302
5882,12302
5880,12301
5872,12297
5856,12290
5841,12284
5833,12280
5831,12279
5830,12279
5826,12277
5818,12274
5808,12270
5795,12266
5778,12260
5762,12255
5753,12252
5750,12251
5747,12250
5738,12247
5721,12242
5704,12237
5694,12235
5691,12234
5688,12234
5678,12232
5660,12228
5645,12225
5632,12222
5621,12220
5612,12219
5604,12217
5598,12217
5595,12216
" style="stroke:#ffffff;stroke-width:0;
stroke-linejoin:bevel; stroke-linecap:butt;
fill:#ffffff;
"/>
<!-- Line -->
<!--  spline  -->
<polyline points="5794,12389
5795,12389
5800,12388
5812,12386
5829,12383
5846,12380
5858,12378
5863,12377
5864,12377
5865,12377
5869,12376
5878,12374
5887,12371
5897,12367
5908,12362
5916,12357
5920,12354
5921,12353
5921,12352
5923,12350
5925,12344
5926,12340
5926,12337
5925,12335
5925,12334
5924,12332
5921,12329
5917,12324
5909,12317
5901,12312
5893,12308
5887,12304
5883,12302
5882,12302
5880,12301
5872,12297
5856,12290
5841,12284
5833,12280
5831,12279
5830,12279
5826,12277
5818,12274
5808,12270
5795,12266
5778,12260
5762,12255
5753,12252
5750,12251
5747,12250
5738,12247
5721,12242
5704,12237
5694,12235
5691,12234
5688,12234
5678,12232
5660,12228
5645,12225
5632,12222
5621,12220
5612,12219
5604,12217
5598,12217
5595,12216
" style="stroke:#000000;stroke-width:15;
stroke-linejoin:bevel; stroke-linecap:butt;
"/>
<!-- Line -->
<!--  polyline  -->
<polyline points="5794,12385
5436,12386
" style="stroke:#000000;stroke-width:15;
stroke-linejoin:miter; stroke-linecap:butt;
"/>
<!-- Line -->
<!--  polyline  -->
<polyline points="6943,11350
7107,10586
" style="stroke:#000000;stroke-width:15;
stroke-linejoin:miter; stroke-linecap:butt;
"/>
<!-- Line -->
<!--  polyline  -->
<polyline points="6704,11361
6734,10586
" style="stroke:#000000;stroke-width:15;
stroke-linejoin:miter; stroke-linecap:butt;
"/>
<!-- Line -->
<!--  polyline  -->
<polyline points="6509,12163
6943,11350
" style="stroke:#000000;stroke-width:15;
stroke-linejoin:miter; stroke-linecap:butt;
"/>
<!-- Line -->
<!--  spline  -->
<polyline points="6276,12239
6276,12238
6279,12234
6286,12223
6297,12206
6310,12185
6322,12164
6333,12147
6340,12136
6343,12132
6343,12131
6344,12128
6347,12123
6352,12115
6357,12105
6363,12093
6370,12080
6377,12065
6385,12048
6394,12028
6402,12009
6408,11994
6412,11985
6414,11980
6415,11977
6416,11975
6418,11970
6421,11961
6425,11947
6431,11928
6438,11905
6442,11890
6444,11883
6444,11879
6445,11876
6447,11869
6449,11854
6453,11832
6456,11810
6458,11791
6460,11776
6460,11763
6461,11752
6461,11744
6461,11741
6461,11740
6461,11739
6461,11732
6462,11718
6462,11699
6462,11679
6463,11665
6463,11658
6463,11657
6463,11656
6463,11654
6464,11647
6465,11639
6466,11628
6467,11617
6469,11604
6471,11589
6474,11572
6476,11563
6476,11560
6477,11557
6479,11550
6483,11536
6487,11523
6490,11517
6491,11514
6492,11513
6494,11507
6500,11498
6507,11488
6513,11482
6518,11478
6521,11475
6522,11475
6523,11474
6530,11470
6541,11463
6548,11459
6549,11458
6552,11456
6557,11453
6563,11449
6571,11445
6581,11438
6591,11432
6597,11428
6599,11427
6601,11426
6607,11422
6618,11415
6630,11408
6636,11404
6638,11402
6640,11401
6647,11397
6659,11389
6673,11381
6683,11374
6692,11368
6699,11364
6703,11361
6704,11361
" style="stroke:#ffffff;stroke-width:0;
stroke-linejoin:bevel; stroke-linecap:butt;
fill:#ffffff;
"/>
<!-- Line -->
<!--  spline  -->
<polyline points="6276,12239
6276,12238
6279,12234
6286,12223
6297,12206
6310,12185
6322,12164
6333,12147
6340,12136
6343,12132
6343,12131
6344,12128
6347,12123
6352,12115
6357,12105
6363,12093
6370,12080
6377,12065
6385,12048
6394,12028
6402,12009
6408,11994
6412,11985
6414,11980
6415,11977
6416,11975
6418,11970
6421,11961
6425,11947
6431,11928
6438,11905
6442,11890
6444,11883
6444,11879
6445,11876
6447,11869
6449,11854
6453,11832
6456,11810
6458,11791
6460,11776
6460,11763
6461,11752
6461,11744
6461,11741
6461,11740
6461,11739
6461,11732
6462,11718
6462,11699
6462,11679
6463,11665
6463,11658
6463,11657
6463,11656
6463,11654
6464,11647
6465,11639
6466,11628
6467,11617
6469,11604
6471,11589
6474,11572
6476,11563
6476,11560
6477,11557
6479,11550
6483,11536
6487,11523
6490,11517
6491,11514
6492,11513
6494,11507
6500,11498
6507,11488
6513,11482
6518,11478
6521,11475
6522,11475
6523,11474
6530,11470
6541,11463
6548,11459
6549,11458
6552,11456
6557,11453
6563,11449
6571,11445
6581,11438
6591,11432
6597,11428
6599,11427
6601,11426
6607,11422
6618,11415
6630,11408
6636,11404
6638,11402
6640,11401
6647,11397
6659,11389
6673,11381
6683,11374
6692,11368
6699,11364
6703,11361
6704,11361
" style="stroke:#000000;stroke-width:15;
stroke-linejoin:bevel; stroke-linecap:butt;
"/>
<!-- Line -->
<!--  spline  -->
<polyline points="6601,12374
6602,12374
6607,12376
6619,12379
6635,12384
6651,12389
6663,12392
6668,12394
6669,12394
6670,12394
6674,12395
6683,12396
6692,12398
6703,12399
6715,12399
6725,12398
6729,12398
6731,12398
6732,12397
6735,12396
6739,12392
6741,12388
6743,12386
6743,12384
6743,12383
6743,12381
6742,12376
6740,12370
6736,12360
6731,12352
6726,12344
6722,12338
6719,12335
6719,12334
6718,12333
6712,12326
6701,12313
6691,12300
6685,12293
6684,12292
6683,12291
6680,12288
6675,12282
6667,12274
6658,12264
6645,12251
6633,12239
6626,12233
6624,12230
6621,12228
6614,12222
6601,12210
6587,12198
6580,12192
6578,12190
6575,12188
6568,12182
6553,12170
6541,12161
6531,12153
6522,12146
6514,12141
6508,12136
6504,12133
6501,12131
" style="stroke:#ffffff;stroke-width:0;
stroke-linejoin:bevel; stroke-linecap:butt;
fill:#ffffff;
"/>
<!-- Line -->
<!--  spline  -->
<polyline points="6601,12374
6602,12374
6607,12376
6619,12379
6635,12384
6651,12389
6663,12392
6668,12394
6669,12394
6670,12394
6674,12395
6683,12396
6692,12398
6703,12399
6715,12399
6725,12398
6729,12398
6731,12398
6732,12397
6735,12396
6739,12392
6741,12388
6743,12386
6743,12384
6743,12383
6743,12381
6742,12376
6740,12370
6736,12360
6731,12352
6726,12344
6722,12338
6719,12335
6719,12334
6718,12333
6712,12326
6701,12313
6691,12300
6685,12293
6684,12292
6683,12291
6680,12288
6675,12282
6667,12274
6658,12264
6645,12251
6633,12239
6626,12233
6624,12230
6621,12228
6614,12222
6601,12210
6587,12198
6580,12192
6578,12190
6575,12188
6568,12182
6553,12170
6541,12161
6531,12153
6522,12146
6514,12141
6508,12136
6504,12133
6501,12131
" style="stroke:#000000;stroke-width:15;
stroke-linejoin:bevel; stroke-linecap:butt;
"/>
<!-- Line -->
<!--  polyline  -->
<polyline points="6597,12383
6275,12227
" style="stroke:#000000;stroke-width:15;
stroke-linejoin:miter; stroke-linecap:butt;
"/>
<!-- Line -->
<!--  polyline  -->
<polyline points="2543,11332
2240,10609
" style="stroke:#000000;stroke-width:15;
stroke-linejoin:miter; stroke-linecap:butt;
"/>
<!-- Line -->
<!--  polyline  -->
<polyline points="2207,11332
1772,10629
" style="stroke:#000000;stroke-width:15;
stroke-linejoin:miter; stroke-linecap:butt;
"/>
<!-- Line -->
<!--  polyline  -->
<polyline points="1988,12000
2543,11332
" style="stroke:#000000;stroke-width:15;
stroke-linejoin:miter; stroke-linecap:butt;
"/>
<!-- Line -->
<!--  spline  -->
<polyline points="1681,12086
1682,12085
1685,12081
1694,12072
1708,12058
1725,12040
1741,12022
1755,12008
1764,11999
1767,11995
1768,11994
1770,11992
1774,11987
1780,11980
1787,11971
1796,11960
1805,11948
1816,11935
1827,11919
1840,11901
1852,11883
1861,11870
1867,11862
1870,11857
1871,11855
1873,11853
1875,11848
1880,11840
1887,11826
1897,11809
1906,11792
1913,11778
1917,11770
1919,11765
1920,11763
1921,11761
1923,11756
1926,11748
1932,11735
1938,11717
1945,11695
1951,11676
1955,11661
1958,11647
1961,11636
1962,11628
1963,11625
1963,11624
1963,11623
1965,11616
1969,11602
1975,11582
1981,11562
1985,11548
1987,11541
1987,11540
1987,11539
1988,11536
1991,11530
1995,11521
1999,11511
2005,11499
2012,11485
2021,11470
2030,11456
2037,11447
2040,11442
2041,11440
2043,11438
2047,11434
2054,11426
2065,11415
2077,11404
2084,11397
2088,11394
2090,11393
2092,11391
2097,11388
2105,11383
2119,11375
2134,11368
2146,11362
2157,11358
2167,11355
2175,11352
2181,11351
2184,11350
2185,11350
2191,11348
2203,11345
2221,11341
2238,11337
2250,11334
2256,11332
2257,11332
" style="stroke:#ffffff;stroke-width:0;
stroke-linejoin:bevel; stroke-linecap:butt;
fill:#ffffff;
"/>
<!-- Line -->
<!--  spline  -->
<polyline points="1681,12086
1682,12085
1685,12081
1694,12072
1708,12058
1725,12040
1741,12022
1755,12008
1764,11999
1767,11995
1768,11994
1770,11992
1774,11987
1780,11980
1787,11971
1796,11960
1805,11948
1816,11935
1827,11919
1840,11901
1852,11883
1861,11870
1867,11862
1870,11857
1871,11855
1873,11853
1875,11848
1880,11840
1887,11826
1897,11809
1906,11792
1913,11778
1917,11770
1919,11765
1920,11763
1921,11761
1923,11756
1926,11748
1932,11735
1938,11717
1945,11695
1951,11676
1955,11661
1958,11647
1961,11636
1962,11628
1963,11625
1963,11624
1963,11623
1965,11616
1969,11602
1975,11582
1981,11562
1985,11548
1987,11541
1987,11540
1987,11539
1988,11536
1991,11530
1995,11521
1999,11511
2005,11499
2012,11485
2021,11470
2030,11456
2037,11447
2040,11442
2041,11440
2043,11438
2047,11434
2054,11426
2065,11415
2077,11404
2084,11397
2088,11394
2090,11393
2092,11391
2097,11388
2105,11383
2119,11375
2134,11368
2146,11362
2157,11358
2167,11355
2175,11352
2181,11351
2184,11350
2185,11350
2191,11348
2203,11345
2221,11341
2238,11337
2250,11334
2256,11332
2257,11332
" style="stroke:#000000;stroke-width:15;
stroke-linejoin:bevel; stroke-linecap:butt;
"/>
<!-- Line -->
<!--  spline  -->
<polyline points="1968,12233
1969,12233
1973,12236
1983,12241
1999,12250
2018,12261
2037,12271
2053,12280
2063,12285
2067,12288
2068,12288
2069,12288
2072,12290
2079,12293
2089,12298
2099,12303
2111,12308
2124,12313
2138,12318
2150,12321
2157,12323
2161,12324
2162,12324
2163,12324
2166,12323
2170,12323
2176,12321
2179,12319
2182,12317
2183,12316
2184,12315
2185,12314
2185,12313
2185,12311
2185,12309
2184,12304
2183,12299
2179,12287
2174,12275
2168,12265
2163,12256
2160,12251
2159,12250
2158,12249
2155,12244
2149,12234
2140,12220
2130,12206
2124,12196
2121,12191
2120,12190
2118,12187
2115,12183
2111,12176
2106,12168
2100,12159
2092,12148
2084,12135
2074,12120
2069,12112
2067,12109
2065,12106
2060,12099
2050,12085
2040,12071
2035,12064
2034,12062
2032,12059
2027,12053
2018,12040
2008,12027
2001,12017
1995,12010
1991,12004
1988,12001
1988,12000
" style="stroke:#ffffff;stroke-width:0;
stroke-linejoin:bevel; stroke-linecap:butt;
fill:#ffffff;
"/>
<!-- Line -->
<!--  spline  -->
<polyline points="1968,12233
1969,12233
1973,12236
1983,12241
1999,12250
2018,12261
2037,12271
2053,12280
2063,12285
2067,12288
2068,12288
2069,12288
2072,12290
2079,12293
2089,12298
2099,12303
2111,12308
2124,12313
2138,12318
2150,12321
2157,12323
2161,12324
2162,12324
2163,12324
2166,12323
2170,12323
2176,12321
2179,12319
2182,12317
2183,12316
2184,12315
2185,12314
2185,12313
2185,12311
2185,12309
2184,12304
2183,12299
2179,12287
2174,12275
2168,12265
2163,12256
2160,12251
2159,12250
2158,12249
2155,12244
2149,12234
2140,12220
2130,12206
2124,12196
2121,12191
2120,12190
2118,12187
2115,12183
2111,12176
2106,12168
2100,12159
2092,12148
2084,12135
2074,12120
2069,12112
2067,12109
2065,12106
2060,12099
2050,12085
2040,12071
2035,12064
2034,12062
2032,12059
2027,12053
2018,12040
2008,12027
2001,12017
1995,12010
1991,12004
1988,12001
1988,12000
" style="stroke:#000000;stroke-width:15;
stroke-linejoin:bevel; stroke-linecap:butt;
"/>
<!-- Line -->
<!--  polyline  -->
<polyline points="1988,12237
1679,12060
" style="stroke:#000000;stroke-width:15;
stroke-linejoin:miter; stroke-linecap:butt;
"/>
<!-- Line -->
<!--  polyline  -->
<polyline points="3424,11328
3052,10632
" style="stroke:#000000;stroke-width:15;
stroke-linejoin:miter; stroke-linecap:butt;
"/>
<!-- Line -->
<!--  polyline  -->
<polyline points="3164,11413
2618,10623
" style="stroke:#000000;stroke-width:15;
stroke-linejoin:miter; stroke-linecap:butt;
"/>
<!-- Line -->
<!--  spline  -->
<polyline points="3247,12285
3247,12284
3247,12278
3248,12265
3249,12247
3250,12228
3251,12215
3251,12209
3251,12208
3251,12207
3251,12204
3251,12198
3250,12189
3250,12177
3249,12164
3247,12148
3245,12129
3242,12110
3240,12098
3240,12091
3239,12088
3239,12085
3237,12079
3234,12066
3230,12047
3225,12028
3222,12015
3220,12008
3219,12005
3218,12002
3216,11996
3212,11983
3205,11963
3198,11943
3191,11925
3185,11911
3180,11899
3175,11888
3172,11881
3170,11878
3170,11877
3170,11876
3167,11869
3161,11855
3153,11836
3145,11816
3139,11802
3136,11795
3136,11794
3136,11793
3135,11790
3133,11784
3130,11775
3127,11764
3123,11751
3120,11736
3116,11719
3113,11703
3111,11692
3110,11687
3110,11684
3109,11682
3109,11677
3108,11667
3107,11652
3107,11634
3107,11625
3107,11621
3107,11618
3108,11610
3111,11594
3115,11578
3119,11566
3123,11556
3126,11549
3128,11546
3128,11545
3128,11544
3130,11538
3135,11525
3142,11504
3152,11477
3161,11451
3168,11430
3173,11417
3175,11411
3175,11410
" style="stroke:#ffffff;stroke-width:0;
stroke-linejoin:bevel; stroke-linecap:butt;
fill:#ffffff;
"/>
<!-- Line -->
<!--  spline  -->
<polyline points="3247,12285
3247,12284
3247,12278
3248,12265
3249,12247
3250,12228
3251,12215
3251,12209
3251,12208
3251,12207
3251,12204
3251,12198
3250,12189
3250,12177
3249,12164
3247,12148
3245,12129
3242,12110
3240,12098
3240,12091
3239,12088
3239,12085
3237,12079
3234,12066
3230,12047
3225,12028
3222,12015
3220,12008
3219,12005
3218,12002
3216,11996
3212,11983
3205,11963
3198,11943
3191,11925
3185,11911
3180,11899
3175,11888
3172,11881
3170,11878
3170,11877
3170,11876
3167,11869
3161,11855
3153,11836
3145,11816
3139,11802
3136,11795
3136,11794
3136,11793
3135,11790
3133,11784
3130,11775
3127,11764
3123,11751
3120,11736
3116,11719
3113,11703
3111,11692
3110,11687
3110,11684
3109,11682
3109,11677
3108,11667
3107,11652
3107,11634
3107,11625
3107,11621
3107,11618
3108,11610
3111,11594
3115,11578
3119,11566
3123,11556
3126,11549
3128,11546
3128,11545
3128,11544
3130,11538
3135,11525
3142,11504
3152,11477
3161,11451
3168,11430
3173,11417
3175,11411
3175,11410
" style="stroke:#000000;stroke-width:15;
stroke-linejoin:bevel; stroke-linecap:butt;
"/>
<!-- Line -->
<!--  spline  -->
<polyline points="3570,12284
3571,12284
3576,12283
3588,12281
3605,12278
3622,12274
3634,12272
3639,12271
3640,12271
3641,12271
3645,12270
3654,12267
3663,12265
3673,12261
3684,12256
3692,12251
3696,12249
3697,12248
3698,12247
3699,12244
3701,12239
3701,12235
3701,12232
3701,12230
3701,12229
3700,12229
3699,12227
3697,12224
3692,12219
3684,12212
3676,12207
3668,12203
3662,12199
3658,12197
3657,12197
3656,12196
3647,12192
3632,12185
3618,12179
3609,12175
3608,12174
3607,12174
3603,12172
3595,12169
3585,12165
3573,12160
3557,12154
3542,12149
3534,12146
3531,12145
3528,12144
3520,12142
3504,12137
3488,12132
3480,12130
3477,12129
3474,12128
3465,12125
3449,12121
3432,12117
3418,12113
3406,12111
3398,12109
3393,12108
3392,12108
" style="stroke:#ffffff;stroke-width:0;
stroke-linejoin:bevel; stroke-linecap:butt;
fill:#ffffff;
"/>
<!-- Line -->
<!--  spline  -->
<polyline points="3570,12284
3571,12284
3576,12283
3588,12281
3605,12278
3622,12274
3634,12272
3639,12271
3640,12271
3641,12271
3645,12270
3654,12267
3663,12265
3673,12261
3684,12256
3692,12251
3696,12249
3697,12248
3698,12247
3699,12244
3701,12239
3701,12235
3701,12232
3701,12230
3701,12229
3700,12229
3699,12227
3697,12224
3692,12219
3684,12212
3676,12207
3668,12203
3662,12199
3658,12197
3657,12197
3656,12196
3647,12192
3632,12185
3618,12179
3609,12175
3608,12174
3607,12174
3603,12172
3595,12169
3585,12165
3573,12160
3557,12154
3542,12149
3534,12146
3531,12145
3528,12144
3520,12142
3504,12137
3488,12132
3480,12130
3477,12129
3474,12128
3465,12125
3449,12121
3432,12117
3418,12113
3406,12111
3398,12109
3393,12108
3392,12108
" style="stroke:#000000;stroke-width:15;
stroke-linejoin:bevel; stroke-linecap:butt;
"/>
<!-- Line -->
<!--  polyline  -->
<polyline points="3582,12283
3224,12287
" style="stroke:#000000;stroke-width:15;
stroke-linejoin:miter; stroke-linecap:butt;
"/>
<!-- Line -->
<!--  polyline  -->
<polyline points="3400,12106
3421,11328
" style="stroke:#000000;stroke-width:15;
stroke-linejoin:miter; stroke-linecap:butt;
"/>
<!-- Line -->
<!--  polyline  -->
<polyline points="4576,11456
4337,10630
" style="stroke:#000000;stroke-width:15;
stroke-linejoin:miter; stroke-linecap:butt;
"/>
<!-- Line -->
<!--  polyline  -->
<polyline points="4341,11542
3930,10599
" style="stroke:#000000;stroke-width:15;
stroke-linejoin:miter; stroke-linecap:butt;
"/>
<!-- Line -->
<!--  polyline  -->
<polyline points="4817,12162
4531,11287
" style="stroke:#000000;stroke-width:15;
stroke-linejoin:miter; stroke-linecap:butt;
"/>
<!-- Line -->
<!--  spline  -->
<polyline points="4717,12381
4717,12380
4715,12375
4711,12363
4706,12344
4698,12321
4691,12298
4686,12279
4682,12267
4680,12262
4680,12261
4679,12258
4677,12252
4674,12244
4670,12233
4665,12220
4659,12206
4653,12191
4645,12173
4636,12153
4627,12134
4620,12119
4615,12111
4613,12106
4611,12103
4610,12101
4607,12096
4602,12088
4595,12075
4584,12058
4573,12041
4565,12029
4560,12021
4557,12017
4555,12015
4554,12013
4551,12009
4545,12002
4536,11990
4524,11976
4508,11958
4495,11944
4484,11933
4474,11924
4465,11916
4459,11911
4456,11908
4455,11907
4450,11902
4440,11891
4425,11877
4410,11862
4400,11851
4395,11846
4394,11845
4392,11842
4387,11837
4381,11829
4374,11820
4367,11809
4359,11796
4350,11781
4342,11766
4337,11756
4335,11751
4334,11749
4333,11746
4331,11741
4328,11731
4324,11716
4321,11701
4319,11690
4318,11685
4317,11683
4317,11680
4317,11675
4317,11665
4317,11649
4318,11633
4320,11620
4321,11608
4324,11599
4326,11591
4327,11585
4328,11582
4328,11581
4330,11575
4334,11563
4339,11546
4343,11529
4347,11517
4349,11511
4349,11510
" style="stroke:#ffffff;stroke-width:0;
stroke-linejoin:bevel; stroke-linecap:butt;
fill:#ffffff;
"/>
<!-- Line -->
<!--  spline  -->
<polyline points="4717,12381
4717,12380
4715,12375
4711,12363
4706,12344
4698,12321
4691,12298
4686,12279
4682,12267
4680,12262
4680,12261
4679,12258
4677,12252
4674,12244
4670,12233
4665,12220
4659,12206
4653,12191
4645,12173
4636,12153
4627,12134
4620,12119
4615,12111
4613,12106
4611,12103
4610,12101
4607,12096
4602,12088
4595,12075
4584,12058
4573,12041
4565,12029
4560,12021
4557,12017
4555,12015
4554,12013
4551,12009
4545,12002
4536,11990
4524,11976
4508,11958
4495,11944
4484,11933
4474,11924
4465,11916
4459,11911
4456,11908
4455,11907
4450,11902
4440,11891
4425,11877
4410,11862
4400,11851
4395,11846
4394,11845
4392,11842
4387,11837
4381,11829
4374,11820
4367,11809
4359,11796
4350,11781
4342,11766
4337,11756
4335,11751
4334,11749
4333,11746
4331,11741
4328,11731
4324,11716
4321,11701
4319,11690
4318,11685
4317,11683
4317,11680
4317,11675
4317,11665
4317,11649
4318,11633
4320,11620
4321,11608
4324,11599
4326,11591
4327,11585
4328,11582
4328,11581
4330,11575
4334,11563
4339,11546
4343,11529
4347,11517
4349,11511
4349,11510
" style="stroke:#000000;stroke-width:15;
stroke-linejoin:bevel; stroke-linecap:butt;
"/>
<!-- Line -->
<!--  spline  -->
<polyline points="5043,12246
5044,12245
5048,12242
5059,12236
5073,12227
5086,12217
5097,12211
5101,12208
5102,12207
5103,12206
5106,12204
5113,12198
5120,12192
5128,12185
5136,12176
5142,12168
5144,12164
5145,12163
5145,12162
5145,12159
5145,12153
5144,12149
5142,12146
5142,12145
5141,12144
5140,12144
5139,12143
5135,12141
5129,12138
5119,12135
5109,12133
5101,12132
5093,12131
5089,12131
5088,12131
5086,12131
5077,12131
5060,12131
5044,12131
5035,12131
5033,12131
5032,12131
5028,12131
5019,12131
5008,12131
4994,12132
4976,12133
4959,12134
4950,12135
4946,12136
4943,12136
4934,12137
4916,12140
4898,12143
4889,12144
4885,12145
4882,12146
4872,12147
4854,12151
4839,12154
4826,12157
4815,12159
4806,12161
4798,12163
4793,12164
4790,12165
" style="stroke:#ffffff;stroke-width:0;
stroke-linejoin:bevel; stroke-linecap:butt;
fill:#ffffff;
"/>
<!-- Line -->
<!--  spline  -->
<polyline points="5043,12246
5044,12245
5048,12242
5059,12236
5073,12227
5086,12217
5097,12211
5101,12208
5102,12207
5103,12206
5106,12204
5113,12198
5120,12192
5128,12185
5136,12176
5142,12168
5144,12164
5145,12163
5145,12162
5145,12159
5145,12153
5144,12149
5142,12146
5142,12145
5141,12144
5140,12144
5139,12143
5135,12141
5129,12138
5119,12135
5109,12133
5101,12132
5093,12131
5089,12131
5088,12131
5086,12131
5077,12131
5060,12131
5044,12131
5035,12131
5033,12131
5032,12131
5028,12131
5019,12131
5008,12131
4994,12132
4976,12133
4959,12134
4950,12135
4946,12136
4943,12136
4934,12137
4916,12140
4898,12143
4889,12144
4885,12145
4882,12146
4872,12147
4854,12151
4839,12154
4826,12157
4815,12159
4806,12161
4798,12163
4793,12164
4790,12165
" style="stroke:#000000;stroke-width:15;
stroke-linejoin:bevel; stroke-linecap:butt;
"/>
<!-- Line -->
<!--  polyline  -->
<polyline points="5041,12242
4713,12384
" style="stroke:#000000;stroke-width:15;
stroke-linejoin:miter; stroke-linecap:butt;
"/>
<!-- Line -->
<!--  spline  -->
<polyline points="419,12108
420,12108
424,12105
435,12098
452,12087
473,12073
493,12060
510,12049
521,12042
525,12039
526,12039
529,12037
533,12034
541,12028
550,12021
561,12013
573,12004
586,11994
601,11981
618,11967
634,11953
646,11942
653,11935
657,11932
660,11930
662,11928
665,11924
672,11917
682,11906
696,11891
709,11876
719,11865
725,11858
728,11854
730,11852
731,11850
734,11846
739,11838
747,11827
758,11811
771,11791
781,11775
789,11761
795,11748
801,11738
804,11731
806,11728
806,11727
807,11726
810,11720
817,11707
828,11689
838,11671
845,11658
848,11652
849,11651
851,11648
855,11642
861,11634
868,11625
876,11615
886,11604
899,11591
911,11579
920,11572
924,11568
926,11567
928,11565
932,11562
941,11556
955,11548
969,11541
978,11536
983,11534
985,11533
988,11532
993,11530
1003,11527
1018,11523
1034,11519
1048,11517
1059,11516
1069,11515
1078,11514
1084,11514
1087,11514
1088,11514
1094,11514
1107,11514
1125,11514
1143,11514
1156,11514
1162,11514
1163,11514
" style="stroke:#ffffff;stroke-width:0;
stroke-linejoin:bevel; stroke-linecap:butt;
fill:#ffffff;
"/>
<!-- Line -->
<!--  spline  -->
<polyline points="419,12108
420,12108
424,12105
435,12098
452,12087
473,12073
493,12060
510,12049
521,12042
525,12039
526,12039
529,12037
533,12034
541,12028
550,12021
561,12013
573,12004
586,11994
601,11981
618,11967
634,11953
646,11942
653,11935
657,11932
660,11930
662,11928
665,11924
672,11917
682,11906
696,11891
709,11876
719,11865
725,11858
728,11854
730,11852
731,11850
734,11846
739,11838
747,11827
758,11811
771,11791
781,11775
789,11761
795,11748
801,11738
804,11731
806,11728
806,11727
807,11726
810,11720
817,11707
828,11689
838,11671
845,11658
848,11652
849,11651
851,11648
855,11642
861,11634
868,11625
876,11615
886,11604
899,11591
911,11579
920,11572
924,11568
926,11567
928,11565
932,11562
941,11556
955,11548
969,11541
978,11536
983,11534
985,11533
988,11532
993,11530
1003,11527
1018,11523
1034,11519
1048,11517
1059,11516
1069,11515
1078,11514
1084,11514
1087,11514
1088,11514
1094,11514
1107,11514
1125,11514
1143,11514
1156,11514
1162,11514
1163,11514
" style="stroke:#000000;stroke-width:15;
stroke-linejoin:bevel; stroke-linecap:butt;
"/>
<!-- Line -->
<!--  polyline  -->
<polyline points="1430,11600
1560,10634
" style="stroke:#000000;stroke-width:15;
stroke-linejoin:miter; stroke-linecap:butt;
"/>
<!-- Line -->
<!--  polyline  -->
<polyline points="1125,11491
1120,10615
" style="stroke:#000000;stroke-width:15;
stroke-linejoin:miter; stroke-linecap:butt;
"/>
<!-- Line -->
<!--  polyline  -->
<polyline points="660,12118
1430,11600
" style="stroke:#000000;stroke-width:15;
stroke-linejoin:miter; stroke-linecap:butt;
"/>
<!-- Line -->
<!--  spline  -->
<polyline points="649,12347
650,12348
654,12351
664,12359
677,12369
690,12379
700,12387
704,12390
705,12391
706,12391
710,12394
716,12398
725,12403
734,12408
745,12413
754,12416
759,12417
760,12418
761,12417
765,12417
770,12415
774,12412
776,12410
777,12409
777,12408
778,12406
778,12402
779,12395
779,12385
778,12375
776,12366
774,12359
773,12355
773,12354
773,12352
770,12344
765,12328
761,12313
758,12305
758,12303
758,12302
756,12298
754,12290
750,12280
746,12268
740,12252
734,12237
731,12229
730,12226
729,12224
725,12216
719,12201
712,12186
709,12178
707,12175
706,12173
702,12165
695,12150
687,12134
680,12122
675,12112
671,12104
668,12100
668,12099
" style="stroke:#ffffff;stroke-width:0;
stroke-linejoin:bevel; stroke-linecap:butt;
fill:#ffffff;
"/>
<!-- Line -->
<!--  spline  -->
<polyline points="649,12347
650,12348
654,12351
664,12359
677,12369
690,12379
700,12387
704,12390
705,12391
706,12391
710,12394
716,12398
725,12403
734,12408
745,12413
754,12416
759,12417
760,12418
761,12417
765,12417
770,12415
774,12412
776,12410
777,12409
777,12408
778,12406
778,12402
779,12395
779,12385
778,12375
776,12366
774,12359
773,12355
773,12354
773,12352
770,12344
765,12328
761,12313
758,12305
758,12303
758,12302
756,12298
754,12290
750,12280
746,12268
740,12252
734,12237
731,12229
730,12226
729,12224
725,12216
719,12201
712,12186
709,12178
707,12175
706,12173
702,12165
695,12150
687,12134
680,12122
675,12112
671,12104
668,12100
668,12099
" style="stroke:#000000;stroke-width:15;
stroke-linejoin:bevel; stroke-linecap:butt;
"/>
<!-- Line -->
<!--  polyline  -->
<polyline points="664,12349
427,12084
" style="stroke:#000000;stroke-width:15;
stroke-linejoin:miter; stroke-linecap:butt;
"/>
<!-- Line -->
<!--  polyline  -->
<polyline points="3781,12849
3780,9783
" style="stroke:#000000;stroke-width:7;
stroke-linejoin:miter; stroke-linecap:butt;
stroke-dasharray:40 40;"/>
<!-- Text -->
<!--  text  -->
<text xml:space="preserve" x="1080" y="10202" stroke="#000000" fill="#000000"  font-family="Times" font-style="normal" font-weight="normal" font-size="156" text-anchor="start">T</text>
<!-- Text -->
<!--  text  -->
<text xml:space="preserve" x="1188" y="10202" stroke="#000000" fill="#000000"  font-family="Times" font-style="normal" font-weight="normal" font-size="156" text-anchor="start">O</text>
<!-- Text -->
<!--  text  -->
<text xml:space="preserve" x="1332" y="10202" stroke="#000000" fill="#000000"  font-family="Times" font-style="normal" font-weight="normal" font-size="156" text-anchor="start">E</text>
<!-- Text -->
<!--  text  -->
<text xml:space="preserve" x="1080" y="10442" stroke="#000000" fill="#000000"  font-family="Times" font-style="normal" font-weight="normal" font-size="156" text-anchor="start">O</text>
<!-- Text -->
<!--  text  -->
<text xml:space="preserve" x="1224" y="10442" stroke="#000000" fill="#000000"  font-family="Times" font-style="normal" font-weight="normal" font-size="156" text-anchor="start">F</text>
<!-- Text -->
<!--  text  -->
<text xml:space="preserve" x="1347" y="10442" stroke="#000000" fill="#000000"  font-family="Times" font-style="normal" font-weight="normal" font-size="156" text-anchor="start">F</text>
<!-- Text -->
<!--  text  -->
<text xml:space="preserve" x="3973" y="10202" stroke="#000000" fill="#000000"  font-family="Times" font-style="normal" font-weight="normal" font-size="156" text-anchor="start">H</text>
<!-- Text -->
<!--  text  -->
<text xml:space="preserve" x="4117" y="10202" stroke="#000000" fill="#000000"  font-family="Times" font-style="normal" font-weight="normal" font-size="156" text-anchor="start">E</text>
<!-- Text -->
<!--  text  -->
<text xml:space="preserve" x="4239" y="10202" stroke="#000000" fill="#000000"  font-family="Times" font-style="normal" font-weight="normal" font-size="156" text-anchor="start">E</text>
<!-- Text -->
<!--  text  -->
<text xml:space="preserve" x="4361" y="10202" stroke="#000000" fill="#000000"  font-family="Times" font-style="normal" font-weight="normal" font-size="156" text-anchor="start">L</text>
<!-- Text -->
<!--  text  -->
<text xml:space="preserve" x="3903" y="10442" stroke="#000000" fill="#000000"  font-family="Times" font-style="normal" font-weight="normal" font-size="156" text-anchor="start">S</text>
<!-- Text -->
<!--  text  -->
<text xml:space="preserve" x="4003" y="10442" stroke="#000000" fill="#000000"  font-family="Times" font-style="normal" font-weight="normal" font-size="156" text-anchor="start">T</text>
<!-- Text -->
<!--  text  -->
<text xml:space="preserve" x="4114" y="10442" stroke="#000000" fill="#000000"  font-family="Times" font-style="normal" font-weight="normal" font-size="156" text-anchor="start">R</text>
<!-- Text -->
<!--  text  -->
<text xml:space="preserve" x="4236" y="10442" stroke="#000000" fill="#000000"  font-family="Times" font-style="normal" font-weight="normal" font-size="156" text-anchor="start">I</text>
<!-- Text -->
<!--  text  -->
<text xml:space="preserve" x="4302" y="10442" stroke="#000000" fill="#000000"  font-family="Times" font-style="normal" font-weight="normal" font-size="156" text-anchor="start">K</text>
<!-- Text -->
<!--  text  -->
<text xml:space="preserve" x="4436" y="10442" stroke="#000000" fill="#000000"  font-family="Times" font-style="normal" font-weight="normal" font-size="156" text-anchor="start">E</text>
</g>
</svg>
