<?xml version="1.0" standalone="no"?>
<!DOCTYPE svg PUBLIC "-//W3C//DTD SVG 1.1//EN"
"http://www.w3.org/Graphics/SVG/1.1/DTD/svg11.dtd">
<!-- Creator: fig2dev Version 3.2 Patchlevel 5 -->
<!-- CreationDate: Sat Jul  4 12:13:28 2015 -->
<!-- Magnification: 1.000 -->
<svg xmlns="http://www.w3.org/2000/svg" width="6.0in" height="2.1in" viewBox="415 10677 7243 2497">
<g style="stroke-width:.025in; stroke:black; fill:none">
<!-- Line -->
<!--  polyline  -->
<polyline points="3619,11966
2814,11966
" style="stroke:#000000;stroke-width:7;
stroke-linejoin:miter; stroke-linecap:butt;
"/>
<!-- Line -->
<!--  spline  -->
<polyline points="3680,11966
3679,11966
3674,11963
3661,11958
3640,11950
3615,11940
3591,11930
3570,11922
3557,11917
3552,11914
3551,11914
3551,11915
3550,11918
3549,11923
3548,11926
3548,11927
3547,11929
3547,11932
3546,11935
3545,11939
3544,11943
3544,11944
3544,11946
3544,11949
3544,11952
3544,11953
3543,11954
3543,11955
3543,11958
3543,11961
3542,11963
3542,11965
3542,11966
3542,11968
3543,11972
3543,11974
3543,11975
3543,11977
3544,11980
3544,11983
3544,11986
3544,11988
3544,11989
3545,11993
3546,11997
3546,11998
3546,11999
3547,12001
3548,12005
3549,12009
3550,12013
3551,12015
3551,12017
3552,12017
3557,12014
3570,12009
3591,12001
3616,11991
3640,11982
3661,11974
3674,11969
3679,11966
3680,11966
" style="stroke:#000000;stroke-width:0;
stroke-linejoin:bevel; stroke-linecap:butt;
fill:#000000;
"/>
<!-- Line -->
<!--  polyline  -->
<polyline points="5198,11966
4316,11966
" style="stroke:#000000;stroke-width:7;
stroke-linejoin:miter; stroke-linecap:butt;
"/>
<!-- Line -->
<!--  spline  -->
<polyline points="5259,11966
5258,11966
5253,11963
5240,11958
5219,11950
5194,11940
5170,11930
5149,11922
5136,11917
5131,11914
5130,11914
5130,11915
5129,11918
5128,11923
5127,11926
5127,11927
5126,11929
5126,11932
5125,11935
5124,11939
5123,11943
5123,11944
5123,11946
5122,11949
5122,11952
5121,11953
5121,11954
5121,11955
5121,11958
5121,11961
5121,11963
5121,11965
5121,11966
5121,11968
5121,11972
5121,11974
5121,11975
5121,11977
5122,11980
5122,11983
5123,11986
5123,11988
5123,11989
5124,11993
5125,11997
5125,11998
5126,11999
5126,12001
5127,12005
5128,12009
5129,12013
5130,12015
5130,12017
5131,12017
5136,12014
5149,12009
5170,12001
5195,11991
5219,11982
5240,11974
5253,11969
5258,11966
5259,11966
" style="stroke:#000000;stroke-width:0;
stroke-linejoin:bevel; stroke-linecap:butt;
fill:#000000;
"/>
<!-- Line -->
<!--  polyline  -->
<polyline points="2118,11966
1285,11966
" style="stroke:#000000;stroke-width:7;
stroke-linejoin:miter; stroke-linecap:butt;
"/>
<!-- Line -->
<!--  spline  -->
<polyline points="2179,11966
2178,11966
2173,11963
2160,11958
2139,11950
2114,11940
2090,11930
2069,11922
2056,11917
2051,11914
2050,11914
2050,11915
2049,11918
2048,11923
2047,11926
2047,11927
2046,11929
2046,11932
2045,11935
2044,11939
2043,11943
2043,11944
2043,11946
2042,11949
2042,11952
2041,11953
2041,11954
2041,11955
2041,11958
2041,11961
2041,11963
2041,11965
2041,11966
2041,11968
2041,11972
2041,11974
2041,11975
2041,11977
2042,11980
2042,11983
2043,11986
2043,11988
2043,11989
2044,11993
2045,11997
2045,11998
2046,11999
2046,12001
2047,12005
2048,12009
2049,12013
2050,12015
2050,12017
2051,12017
2056,12014
2069,12009
2090,12001
2115,11991
2139,11982
2160,11974
2173,11969
2178,11966
2179,11966
" style="stroke:#000000;stroke-width:0;
stroke-linejoin:bevel; stroke-linecap:butt;
fill:#000000;
"/>
<!-- Line -->
<!--  polyline  -->
<polyline points="5980,11966
5657,11966
" style="stroke:#000000;stroke-width:7;
stroke-linejoin:miter; stroke-linecap:butt;
"/>
<!-- Line -->
<!--  spline  -->
<polyline points="6041,11966
6040,11966
6035,11963
6022,11958
6001,11950
5976,11940
5952,11930
5931,11922
5918,11917
5913,11914
5912,11914
5912,11915
5911,11918
5910,11923
5909,11926
5909,11927
5908,11929
5908,11932
5907,11935
5906,11939
5905,11943
5905,11944
5905,11946
5904,11949
5904,11952
5903,11953
5903,11954
5903,11955
5903,11958
5903,11961
5903,11963
5903,11965
5903,11966
5903,11968
5903,11972
5903,11974
5903,11975
5903,11977
5904,11980
5904,11983
5905,11986
5905,11988
5905,11989
5906,11993
5907,11997
5907,11998
5908,11999
5908,12001
5909,12005
5910,12009
5911,12013
5912,12015
5912,12017
5913,12017
5918,12014
5931,12009
5952,12001
5977,11991
6001,11982
6022,11974
6035,11969
6040,11966
6041,11966
" style="stroke:#000000;stroke-width:0;
stroke-linejoin:bevel; stroke-linecap:butt;
fill:#000000;
"/>
<!-- Line -->
<!--  polyline  -->
<polyline points="6042,11966
6042,11966
6042,11966
" style="stroke:#000000;stroke-width:7;
stroke-linejoin:miter; stroke-linecap:butt;
"/>
<!-- Text -->
<!--  text  -->
<text xml:space="preserve" x="5317" y="12013" stroke="#000000" fill="#000000"  font-family="New Century Schoolbook" font-style="normal" font-weight="normal" font-size="132" text-anchor="start">.</text>
<!-- Text -->
<!--  text  -->
<text xml:space="preserve" x="5431" y="12013" stroke="#000000" fill="#000000"  font-family="New Century Schoolbook" font-style="normal" font-weight="normal" font-size="132" text-anchor="start">.</text>
<!-- Text -->
<!--  text  -->
<text xml:space="preserve" x="5546" y="12013" stroke="#000000" fill="#000000"  font-family="New Century Schoolbook" font-style="normal" font-weight="normal" font-size="132" text-anchor="start">.</text>
<!-- Line -->
<!--  spline  -->
<polyline points="759,11468
759,11467
756,11460
749,11445
741,11425
732,11405
725,11390
722,11383
722,11382
722,11381
721,11378
719,11372
716,11362
713,11351
710,11339
708,11324
706,11307
705,11291
705,11280
705,11275
705,11273
705,11270
706,11266
708,11256
711,11242
716,11225
720,11216
721,11213
723,11210
728,11203
738,11188
748,11177
756,11168
765,11161
772,11155
779,11150
783,11147
786,11145
787,11144
793,11141
805,11135
822,11126
839,11117
851,11111
857,11108
858,11107
859,11107
862,11105
868,11102
878,11098
889,11093
903,11087
921,11081
942,11073
959,11067
973,11063
982,11060
986,11058
989,11058
991,11057
996,11055
1005,11053
1020,11049
1040,11044
1060,11039
1076,11036
1085,11033
1090,11032
1093,11032
1096,11031
1102,11030
1112,11028
1129,11025
1151,11021
1174,11017
1195,11014
1213,11011
1228,11009
1243,11007
1255,11005
1265,11004
1272,11003
1275,11003
1276,11003
1279,11003
1288,11002
1303,11001
1325,11000
1352,10998
1382,10995
1411,10993
1438,10991
1460,10990
1475,10989
1484,10988
1487,10988
1488,10988
1489,10988
1493,10988
1498,10988
1507,10987
1518,10987
1532,10986
1549,10986
1567,10985
1588,10984
1611,10983
1636,10983
1664,10982
1696,10981
1732,10980
1772,10979
1818,10978
1868,10977
1910,10976
1951,10975
1987,10975
2019,10974
2045,10974
2065,10973
2081,10973
2093,10973
2101,10973
2108,10973
2113,10972
2119,10972
2126,10972
2136,10972
2150,10972
2168,10972
2192,10971
2223,10971
2261,10971
2306,10970
2358,10970
2414,10969
2462,10969
2509,10968
2553,10968
2592,10967
2625,10967
2654,10967
2677,10967
2695,10967
2710,10967
2721,10967
2729,10967
2736,10967
2742,10966
2749,10966
2756,10966
2765,10966
2778,10966
2794,10966
2814,10966
2841,10966
2873,10966
2912,10966
2957,10966
3009,10965
3066,10965
3126,10965
3183,10965
3239,10965
3294,10964
3347,10964
3397,10964
3445,10964
3491,10964
3535,10964
3578,10964
3619,10964
3658,10964
3697,10963
3734,10963
3770,10963
3804,10963
3836,10963
3867,10963
3895,10963
3920,10963
3942,10963
3961,10963
3976,10963
3987,10963
3995,10963
4001,10963
4004,10963
4005,10963
4007,10963
4013,10963
4022,10963
4038,10963
4059,10963
4087,10964
4122,10964
4164,10964
4212,10964
4266,10965
4324,10965
4385,10966
4449,10966
4512,10966
4573,10967
4631,10967
4685,10968
4733,10968
4775,10968
4810,10968
4838,10969
4859,10969
4875,10969
4884,10969
4890,10969
4892,10969
4893,10969
4896,10969
4902,10969
4910,10969
4922,10969
4938,10970
4956,10970
4978,10970
5003,10971
5030,10971
5060,10972
5091,10972
5123,10973
5157,10973
5192,10974
5228,10975
5266,10976
5305,10977
5345,10978
5388,10979
5432,10980
5479,10981
5528,10983
5579,10984
5630,10986
5684,10988
5735,10990
5780,10992
5820,10993
5852,10994
5879,10996
5900,10996
5916,10997
5928,10998
5937,10998
5943,10998
5949,10999
5955,10999
5961,10999
5969,11000
5980,11000
5994,11001
6012,11002
6035,11004
6063,11005
6096,11007
6134,11010
6175,11012
6218,11015
6268,11018
6313,11022
6352,11025
6384,11027
6409,11029
6427,11030
6441,11031
6450,11032
6457,11033
6462,11033
6467,11034
6473,11034
6481,11035
6492,11036
6508,11038
6528,11040
6554,11043
6585,11047
6620,11051
6656,11055
6700,11061
6739,11066
6773,11071
6802,11076
6827,11080
6850,11085
6869,11089
6887,11092
6902,11096
6915,11099
6926,11101
6935,11103
6940,11105
6944,11106
6945,11106
6946,11106
6949,11107
6957,11110
6970,11115
6990,11121
7014,11130
7042,11139
7069,11148
7093,11157
7113,11163
7126,11168
7134,11171
7137,11172
7138,11172
7141,11173
7146,11176
7154,11179
7166,11185
7179,11191
7194,11199
7210,11207
7227,11217
7245,11228
7266,11241
7287,11256
7307,11271
7323,11284
7334,11293
7341,11299
7345,11302
7348,11304
7350,11306
7353,11310
7359,11316
7367,11326
7380,11340
7394,11358
7410,11379
7421,11396
7428,11406
7432,11412
7434,11415
7435,11418
7438,11423
7443,11435
7450,11453
7459,11477
7467,11502
7472,11525
7475,11545
7478,11563
7479,11579
7480,11593
7480,11604
7480,11611
7480,11614
7480,11615
7480,11616
7479,11622
7478,11635
7477,11655
7474,11681
7472,11706
7471,11726
7470,11739
7469,11745
7469,11746
7468,11749
7467,11755
7465,11763
7463,11774
7460,11787
7456,11800
7451,11814
7445,11831
7437,11848
7427,11868
7420,11880
7416,11886
7414,11889
7412,11891
7408,11896
7398,11906
7384,11920
7369,11933
7358,11941
7353,11944
7350,11946
7347,11947
7341,11950
7328,11955
7309,11962
7288,11968
7269,11971
7253,11973
7239,11974
7227,11974
7218,11974
7214,11974
7213,11974
" style="stroke:#000000;stroke-width:7;
stroke-linejoin:bevel; stroke-linecap:butt;
"/>
<!-- Line -->
<!--  spline  -->
<polyline points="785,11514
785,11513
784,11507
782,11494
778,11472
773,11446
769,11420
765,11398
763,11385
762,11379
762,11378
761,11378
758,11379
754,11380
751,11381
750,11381
748,11382
746,11382
743,11384
739,11385
736,11386
734,11387
733,11387
732,11388
729,11389
726,11390
725,11391
724,11392
721,11393
718,11394
716,11396
715,11396
714,11397
712,11398
709,11400
707,11401
706,11402
705,11403
703,11405
700,11407
697,11409
696,11410
695,11411
692,11413
689,11416
688,11417
688,11418
687,11419
684,11422
681,11425
678,11428
676,11430
674,11431
675,11432
680,11435
691,11443
708,11456
730,11473
751,11489
768,11502
779,11510
784,11513
785,11514
" style="stroke:#000000;stroke-width:0;
stroke-linejoin:bevel; stroke-linecap:butt;
fill:#000000;
"/>
<!-- Line -->
<!--  polyline  -->
<polyline points="437,10699
7636,10699
7636,12866
437,12866
437,10699
" style="stroke:#000000;stroke-width:15;
stroke-linejoin:miter; stroke-linecap:butt;
"/>
<!-- Text -->
<!--  text  -->
<text xml:space="preserve" x="1817" y="13090" stroke="#000000" fill="#000000"  font-family="Times" font-style="normal" font-weight="normal" font-size="156" text-anchor="start">F</text>
<!-- Text -->
<!--  text  -->
<text xml:space="preserve" x="1928" y="13090" stroke="#000000" fill="#000000"  font-family="Times" font-style="normal" font-weight="normal" font-size="156" text-anchor="start">i</text>
<!-- Text -->
<!--  text  -->
<text xml:space="preserve" x="1984" y="13090" stroke="#000000" fill="#000000"  font-family="Times" font-style="normal" font-weight="normal" font-size="156" text-anchor="start">g</text>
<!-- Text -->
<!--  text  -->
<text xml:space="preserve" x="2084" y="13090" stroke="#000000" fill="#000000"  font-family="Times" font-style="normal" font-weight="normal" font-size="156" text-anchor="start">u</text>
<!-- Text -->
<!--  text  -->
<text xml:space="preserve" x="2184" y="13090" stroke="#000000" fill="#000000"  font-family="Times" font-style="normal" font-weight="normal" font-size="156" text-anchor="start">r</text>
<!-- Text -->
<!--  text  -->
<text xml:space="preserve" x="2250" y="13090" stroke="#000000" fill="#000000"  font-family="Times" font-style="normal" font-weight="normal" font-size="156" text-anchor="start">e</text>
<!-- Text -->
<!--  text  -->
<text xml:space="preserve" x="2409" y="13090" stroke="#000000" fill="#000000"  font-family="Times" font-style="normal" font-weight="normal" font-size="156" text-anchor="start">9</text>
<!-- Text -->
<!--  text  -->
<text xml:space="preserve" x="2509" y="13090" stroke="#000000" fill="#000000"  font-family="Times" font-style="normal" font-weight="normal" font-size="156" text-anchor="start">-</text>
<!-- Text -->
<!--  text  -->
<text xml:space="preserve" x="2575" y="13090" stroke="#000000" fill="#000000"  font-family="Times" font-style="normal" font-weight="normal" font-size="156" text-anchor="start">2</text>
<!-- Text -->
<!--  text  -->
<text xml:space="preserve" x="2675" y="13090" stroke="#000000" fill="#000000"  font-family="Times" font-style="normal" font-weight="normal" font-size="156" text-anchor="start">:</text>
<!-- Text -->
<!--  text  -->
<text xml:space="preserve" x="2801" y="13090" stroke="#000000" fill="#000000"  font-family="Times" font-style="normal" font-weight="normal" font-size="156" text-anchor="start">S</text>
<!-- Text -->
<!--  text  -->
<text xml:space="preserve" x="2912" y="13090" stroke="#000000" fill="#000000"  font-family="Times" font-style="normal" font-weight="normal" font-size="156" text-anchor="start">t</text>
<!-- Text -->
<!--  text  -->
<text xml:space="preserve" x="2968" y="13090" stroke="#000000" fill="#000000"  font-family="Times" font-style="normal" font-weight="normal" font-size="156" text-anchor="start">a</text>
<!-- Text -->
<!--  text  -->
<text xml:space="preserve" x="3056" y="13090" stroke="#000000" fill="#000000"  font-family="Times" font-style="normal" font-weight="normal" font-size="156" text-anchor="start">t</text>
<!-- Text -->
<!--  text  -->
<text xml:space="preserve" x="3112" y="13090" stroke="#000000" fill="#000000"  font-family="Times" font-style="normal" font-weight="normal" font-size="156" text-anchor="start">e</text>
<!-- Text -->
<!--  text  -->
<text xml:space="preserve" x="3201" y="13090" stroke="#000000" fill="#000000"  font-family="Times" font-style="normal" font-weight="normal" font-size="156" text-anchor="start">s</text>
<!-- Text -->
<!--  text  -->
<text xml:space="preserve" x="3349" y="13090" stroke="#000000" fill="#000000"  font-family="Times" font-style="normal" font-weight="normal" font-size="156" text-anchor="start">f</text>
<!-- Text -->
<!--  text  -->
<text xml:space="preserve" x="3415" y="13090" stroke="#000000" fill="#000000"  font-family="Times" font-style="normal" font-weight="normal" font-size="156" text-anchor="start">o</text>
<!-- Text -->
<!--  text  -->
<text xml:space="preserve" x="3515" y="13090" stroke="#000000" fill="#000000"  font-family="Times" font-style="normal" font-weight="normal" font-size="156" text-anchor="start">r</text>
<!-- Text -->
<!--  text  -->
<text xml:space="preserve" x="3652" y="13090" stroke="#000000" fill="#000000"  font-family="Times" font-style="normal" font-weight="normal" font-size="156" text-anchor="start">t</text>
<!-- Text -->
<!--  text  -->
<text xml:space="preserve" x="3707" y="13090" stroke="#000000" fill="#000000"  font-family="Times" font-style="normal" font-weight="normal" font-size="156" text-anchor="start">h</text>
<!-- Text -->
<!--  text  -->
<text xml:space="preserve" x="3807" y="13090" stroke="#000000" fill="#000000"  font-family="Times" font-style="normal" font-weight="normal" font-size="156" text-anchor="start">e</text>
<!-- Text -->
<!--  text  -->
<text xml:space="preserve" x="3966" y="13090" stroke="#000000" fill="#000000"  font-family="Times" font-style="normal" font-weight="normal" font-size="156" text-anchor="start">l</text>
<!-- Text -->
<!--  text  -->
<text xml:space="preserve" x="4021" y="13090" stroke="#000000" fill="#000000"  font-family="Times" font-style="normal" font-weight="normal" font-size="156" text-anchor="start">o</text>
<!-- Text -->
<!--  text  -->
<text xml:space="preserve" x="4121" y="13090" stroke="#000000" fill="#000000"  font-family="Times" font-style="normal" font-weight="normal" font-size="156" text-anchor="start">c</text>
<!-- Text -->
<!--  text  -->
<text xml:space="preserve" x="4210" y="13090" stroke="#000000" fill="#000000"  font-family="Times" font-style="normal" font-weight="normal" font-size="156" text-anchor="start">o</text>
<!-- Text -->
<!--  text  -->
<text xml:space="preserve" x="4310" y="13090" stroke="#000000" fill="#000000"  font-family="Times" font-style="normal" font-weight="normal" font-size="156" text-anchor="start">m</text>
<!-- Text -->
<!--  text  -->
<text xml:space="preserve" x="4466" y="13090" stroke="#000000" fill="#000000"  font-family="Times" font-style="normal" font-weight="normal" font-size="156" text-anchor="start">o</text>
<!-- Text -->
<!--  text  -->
<text xml:space="preserve" x="4566" y="13090" stroke="#000000" fill="#000000"  font-family="Times" font-style="normal" font-weight="normal" font-size="156" text-anchor="start">t</text>
<!-- Text -->
<!--  text  -->
<text xml:space="preserve" x="4621" y="13090" stroke="#000000" fill="#000000"  font-family="Times" font-style="normal" font-weight="normal" font-size="156" text-anchor="start">i</text>
<!-- Text -->
<!--  text  -->
<text xml:space="preserve" x="4677" y="13090" stroke="#000000" fill="#000000"  font-family="Times" font-style="normal" font-weight="normal" font-size="156" text-anchor="start">o</text>
<!-- Text -->
<!--  text  -->
<text xml:space="preserve" x="4777" y="13090" stroke="#000000" fill="#000000"  font-family="Times" font-style="normal" font-weight="normal" font-size="156" text-anchor="start">n</text>
<!-- Text -->
<!--  text  -->
<text xml:space="preserve" x="4947" y="13090" stroke="#000000" fill="#000000"  font-family="Times" font-style="normal" font-weight="normal" font-size="156" text-anchor="start">M</text>
<!-- Text -->
<!--  text  -->
<text xml:space="preserve" x="5124" y="13090" stroke="#000000" fill="#000000"  font-family="Times" font-style="normal" font-weight="normal" font-size="156" text-anchor="start">a</text>
<!-- Text -->
<!--  text  -->
<text xml:space="preserve" x="5213" y="13090" stroke="#000000" fill="#000000"  font-family="Times" font-style="normal" font-weight="normal" font-size="156" text-anchor="start">r</text>
<!-- Text -->
<!--  text  -->
<text xml:space="preserve" x="5280" y="13090" stroke="#000000" fill="#000000"  font-family="Times" font-style="normal" font-weight="normal" font-size="156" text-anchor="start">k</text>
<!-- Text -->
<!--  text  -->
<text xml:space="preserve" x="5380" y="13090" stroke="#000000" fill="#000000"  font-family="Times" font-style="normal" font-weight="normal" font-size="156" text-anchor="start">o</text>
<!-- Text -->
<!--  text  -->
<text xml:space="preserve" x="5480" y="13090" stroke="#000000" fill="#000000"  font-family="Times" font-style="normal" font-weight="normal" font-size="156" text-anchor="start">v</text>
<!-- Text -->
<!--  text  -->
<text xml:space="preserve" x="5650" y="13090" stroke="#000000" fill="#000000"  font-family="Times" font-style="normal" font-weight="normal" font-size="156" text-anchor="start">p</text>
<!-- Text -->
<!--  text  -->
<text xml:space="preserve" x="5750" y="13090" stroke="#000000" fill="#000000"  font-family="Times" font-style="normal" font-weight="normal" font-size="156" text-anchor="start">r</text>
<!-- Text -->
<!--  text  -->
<text xml:space="preserve" x="5816" y="13090" stroke="#000000" fill="#000000"  font-family="Times" font-style="normal" font-weight="normal" font-size="156" text-anchor="start">o</text>
<!-- Text -->
<!--  text  -->
<text xml:space="preserve" x="5916" y="13090" stroke="#000000" fill="#000000"  font-family="Times" font-style="normal" font-weight="normal" font-size="156" text-anchor="start">c</text>
<!-- Text -->
<!--  text  -->
<text xml:space="preserve" x="6005" y="13090" stroke="#000000" fill="#000000"  font-family="Times" font-style="normal" font-weight="normal" font-size="156" text-anchor="start">e</text>
<!-- Text -->
<!--  text  -->
<text xml:space="preserve" x="6094" y="13090" stroke="#000000" fill="#000000"  font-family="Times" font-style="normal" font-weight="normal" font-size="156" text-anchor="start">s</text>
<!-- Text -->
<!--  text  -->
<text xml:space="preserve" x="6172" y="13090" stroke="#000000" fill="#000000"  font-family="Times" font-style="normal" font-weight="normal" font-size="156" text-anchor="start">s</text>
<!-- Line -->
<!--  spline  -->
<polyline points="1285,12628
1286,12628
1290,12628
1301,12627
1318,12626
1339,12624
1359,12622
1376,12621
1387,12620
1391,12620
1392,12620
1395,12620
1400,12619
1408,12618
1418,12616
1429,12614
1442,12611
1456,12607
1473,12603
1492,12597
1510,12591
1524,12586
1533,12583
1537,12581
1540,12580
1542,12579
1546,12577
1555,12573
1568,12567
1585,12558
1602,12549
1615,12542
1623,12537
1627,12535
1630,12534
1632,12532
1636,12529
1644,12524
1656,12516
1672,12504
1688,12492
1702,12480
1714,12470
1724,12461
1733,12453
1741,12446
1747,12440
1751,12436
1753,12434
1753,12433
1757,12430
1763,12422
1774,12409
1788,12393
1802,12378
1813,12365
1819,12357
1823,12354
1823,12353
1825,12351
1828,12347
1832,12340
1838,12332
1844,12322
1851,12311
1859,12299
1868,12283
1877,12266
1886,12249
1892,12235
1896,12227
1898,12223
1899,12220
1900,12218
1902,12213
1905,12204
1910,12190
1916,12172
1922,12153
1926,12139
1928,12130
1929,12126
1930,12123
1931,12120
1932,12115
1933,12106
1936,12091
1939,12072
1942,12052
1944,12034
1945,12019
1946,12005
1946,11993
1947,11982
1947,11974
1947,11969
1947,11966
1947,11965
1947,11961
1946,11950
1945,11933
1943,11913
1941,11893
1940,11876
1939,11865
1939,11861
1939,11860
1939,11857
1938,11852
1937,11844
1935,11834
1933,11823
1930,11810
1926,11796
1922,11779
1916,11760
1910,11742
1905,11728
1902,11719
1900,11714
1899,11712
1898,11709
1896,11705
1892,11697
1886,11683
1877,11666
1868,11649
1861,11636
1856,11628
1854,11624
1853,11621
1851,11619
1848,11615
1843,11607
1835,11595
1823,11579
1811,11563
1799,11549
1789,11537
1780,11527
1772,11518
1765,11510
1759,11504
1755,11500
1753,11498
1752,11498
1749,11494
1741,11488
1728,11477
1712,11463
1697,11449
1684,11438
1676,11432
1673,11428
1672,11428
1670,11426
1666,11423
1659,11419
1651,11413
1641,11407
1630,11400
1617,11392
1602,11383
1585,11374
1568,11365
1555,11359
1546,11355
1542,11353
1540,11352
1537,11351
1533,11349
1524,11346
1510,11341
1492,11335
1474,11329
1459,11325
1450,11323
1446,11322
1443,11321
1441,11320
1436,11319
1426,11318
1412,11315
1392,11312
1372,11309
1354,11307
1338,11306
1325,11305
1312,11305
1302,11304
1293,11304
1288,11304
1285,11304
1284,11304
1280,11304
1269,11305
1252,11306
1232,11308
1212,11310
1195,11311
1184,11312
1180,11312
1179,11312
1176,11312
1171,11313
1163,11314
1153,11316
1142,11318
1129,11321
1115,11325
1098,11329
1079,11335
1061,11341
1047,11346
1038,11349
1033,11351
1031,11352
1028,11353
1024,11355
1016,11359
1002,11365
985,11374
968,11383
955,11390
947,11395
943,11397
940,11398
938,11400
934,11403
926,11408
914,11416
898,11428
882,11440
868,11452
856,11462
846,11471
837,11479
829,11486
823,11492
819,11496
817,11498
817,11499
814,11502
807,11510
796,11523
782,11539
769,11554
758,11567
751,11575
748,11578
748,11579
746,11581
743,11585
739,11592
733,11600
726,11610
719,11621
711,11633
702,11649
693,11666
684,11683
678,11697
674,11705
672,11709
671,11712
671,11714
669,11719
666,11728
661,11742
655,11760
649,11779
645,11793
643,11802
641,11806
640,11809
640,11812
639,11817
637,11826
634,11841
631,11860
628,11880
626,11898
625,11913
625,11927
624,11939
624,11950
624,11958
624,11963
624,11966
624,11967
624,11971
625,11982
626,11999
628,12019
629,12039
630,12056
631,12067
631,12071
631,12072
631,12075
632,12080
634,12088
636,12098
638,12109
641,12122
645,12136
649,12153
655,12172
661,12190
666,12204
669,12213
671,12218
671,12220
672,12223
674,12227
678,12235
684,12249
693,12266
702,12283
709,12296
714,12304
716,12308
718,12311
719,12313
722,12317
728,12325
736,12337
748,12353
760,12369
771,12383
781,12395
790,12405
798,12414
806,12422
811,12428
815,12432
817,12434
818,12434
821,12438
829,12444
842,12455
858,12469
873,12483
886,12494
894,12500
897,12504
898,12504
900,12506
904,12509
911,12513
919,12519
929,12525
940,12532
952,12540
968,12549
985,12558
1002,12567
1016,12573
1024,12577
1028,12579
1031,12580
1033,12581
1038,12583
1047,12586
1061,12591
1079,12597
1098,12603
1112,12607
1121,12609
1125,12610
1128,12611
1131,12612
1136,12613
1145,12614
1160,12617
1179,12620
1199,12623
1217,12625
1232,12626
1246,12627
1258,12627
1269,12628
1277,12628
1282,12628
1285,12628
" style="stroke:#ffffff;stroke-width:0;
stroke-linejoin:bevel; stroke-linecap:butt;
fill:#ffffff;
"/>
<!-- Line -->
<!--  spline  -->
<polyline points="1285,12628
1286,12628
1290,12628
1301,12627
1318,12626
1339,12624
1359,12622
1376,12621
1387,12620
1391,12620
1392,12620
1395,12620
1400,12619
1408,12618
1418,12616
1429,12614
1442,12611
1456,12607
1473,12603
1492,12597
1510,12591
1524,12586
1533,12583
1537,12581
1540,12580
1542,12579
1546,12577
1555,12573
1568,12567
1585,12558
1602,12549
1615,12542
1623,12537
1627,12535
1630,12534
1632,12532
1636,12529
1644,12524
1656,12516
1672,12504
1688,12492
1702,12480
1714,12470
1724,12461
1733,12453
1741,12446
1747,12440
1751,12436
1753,12434
1753,12433
1757,12430
1763,12422
1774,12409
1788,12393
1802,12378
1813,12365
1819,12357
1823,12354
1823,12353
1825,12351
1828,12347
1832,12340
1838,12332
1844,12322
1851,12311
1859,12299
1868,12283
1877,12266
1886,12249
1892,12235
1896,12227
1898,12223
1899,12220
1900,12218
1902,12213
1905,12204
1910,12190
1916,12172
1922,12153
1926,12139
1928,12130
1929,12126
1930,12123
1931,12120
1932,12115
1933,12106
1936,12091
1939,12072
1942,12052
1944,12034
1945,12019
1946,12005
1946,11993
1947,11982
1947,11974
1947,11969
1947,11966
1947,11965
1947,11961
1946,11950
1945,11933
1943,11913
1941,11893
1940,11876
1939,11865
1939,11861
1939,11860
1939,11857
1938,11852
1937,11844
1935,11834
1933,11823
1930,11810
1926,11796
1922,11779
1916,11760
1910,11742
1905,11728
1902,11719
1900,11714
1899,11712
1898,11709
1896,11705
1892,11697
1886,11683
1877,11666
1868,11649
1861,11636
1856,11628
1854,11624
1853,11621
1851,11619
1848,11615
1843,11607
1835,11595
1823,11579
1811,11563
1799,11549
1789,11537
1780,11527
1772,11518
1765,11510
1759,11504
1755,11500
1753,11498
1752,11498
1749,11494
1741,11488
1728,11477
1712,11463
1697,11449
1684,11438
1676,11432
1673,11428
1672,11428
1670,11426
1666,11423
1659,11419
1651,11413
1641,11407
1630,11400
1617,11392
1602,11383
1585,11374
1568,11365
1555,11359
1546,11355
1542,11353
1540,11352
1537,11351
1533,11349
1524,11346
1510,11341
1492,11335
1474,11329
1459,11325
1450,11323
1446,11322
1443,11321
1441,11320
1436,11319
1426,11318
1412,11315
1392,11312
1372,11309
1354,11307
1338,11306
1325,11305
1312,11305
1302,11304
1293,11304
1288,11304
1285,11304
1284,11304
1280,11304
1269,11305
1252,11306
1232,11308
1212,11310
1195,11311
1184,11312
1180,11312
1179,11312
1176,11312
1171,11313
1163,11314
1153,11316
1142,11318
1129,11321
1115,11325
1098,11329
1079,11335
1061,11341
1047,11346
1038,11349
1033,11351
1031,11352
1028,11353
1024,11355
1016,11359
1002,11365
985,11374
968,11383
955,11390
947,11395
943,11397
940,11398
938,11400
934,11403
926,11408
914,11416
898,11428
882,11440
868,11452
856,11462
846,11471
837,11479
829,11486
823,11492
819,11496
817,11498
817,11499
814,11502
807,11510
796,11523
782,11539
769,11554
758,11567
751,11575
748,11578
748,11579
746,11581
743,11585
739,11592
733,11600
726,11610
719,11621
711,11633
702,11649
693,11666
684,11683
678,11697
674,11705
672,11709
671,11712
671,11714
669,11719
666,11728
661,11742
655,11760
649,11779
645,11793
643,11802
641,11806
640,11809
640,11812
639,11817
637,11826
634,11841
631,11860
628,11880
626,11898
625,11913
625,11927
624,11939
624,11950
624,11958
624,11963
624,11966
624,11967
624,11971
625,11982
626,11999
628,12019
629,12039
630,12056
631,12067
631,12071
631,12072
631,12075
632,12080
634,12088
636,12098
638,12109
641,12122
645,12136
649,12153
655,12172
661,12190
666,12204
669,12213
671,12218
671,12220
672,12223
674,12227
678,12235
684,12249
693,12266
702,12283
709,12296
714,12304
716,12308
718,12311
719,12313
722,12317
728,12325
736,12337
748,12353
760,12369
771,12383
781,12395
790,12405
798,12414
806,12422
811,12428
815,12432
817,12434
818,12434
821,12438
829,12444
842,12455
858,12469
873,12483
886,12494
894,12500
897,12504
898,12504
900,12506
904,12509
911,12513
919,12519
929,12525
940,12532
952,12540
968,12549
985,12558
1002,12567
1016,12573
1024,12577
1028,12579
1031,12580
1033,12581
1038,12583
1047,12586
1061,12591
1079,12597
1098,12603
1112,12607
1121,12609
1125,12610
1128,12611
1131,12612
1136,12613
1145,12614
1160,12617
1179,12620
1199,12623
1217,12625
1232,12626
1246,12627
1258,12627
1269,12628
1277,12628
1282,12628
1285,12628
" style="stroke:#000000;stroke-width:15;
stroke-linejoin:bevel; stroke-linecap:butt;
"/>
<!-- Line -->
<!--  spline  -->
<polyline points="6656,12600
6657,12600
6665,12599
6682,12598
6706,12597
6729,12595
6746,12594
6754,12593
6755,12593
6756,12593
6759,12592
6768,12591
6779,12589
6792,12586
6808,12582
6826,12577
6848,12570
6869,12563
6882,12558
6889,12555
6892,12554
6895,12553
6901,12549
6915,12543
6934,12533
6953,12522
6966,12515
6973,12511
6975,12510
6978,12508
6984,12503
6997,12494
7015,12481
7030,12469
7043,12458
7054,12449
7063,12440
7072,12432
7079,12425
7085,12420
7088,12416
7090,12414
7090,12413
7093,12410
7100,12402
7110,12390
7123,12375
7135,12361
7145,12349
7152,12341
7155,12338
7155,12337
7155,12336
7158,12333
7162,12326
7169,12316
7176,12305
7185,12291
7194,12274
7205,12253
7215,12233
7221,12219
7224,12213
7225,12210
7227,12206
7229,12199
7234,12185
7241,12164
7247,12142
7252,12128
7254,12120
7254,12117
7255,12114
7257,12106
7259,12091
7263,12068
7266,12049
7267,12032
7269,12017
7269,12004
7270,11992
7270,11982
7270,11974
7270,11969
7270,11966
7270,11965
7270,11961
7269,11951
7268,11935
7266,11915
7265,11895
7264,11879
7263,11869
7263,11865
7263,11864
7263,11863
7262,11859
7261,11851
7259,11839
7256,11825
7252,11809
7248,11790
7241,11768
7234,11747
7229,11733
7227,11726
7225,11723
7224,11719
7221,11713
7215,11699
7205,11679
7195,11659
7188,11646
7184,11639
7182,11636
7181,11633
7176,11627
7168,11614
7155,11595
7144,11580
7133,11566
7124,11555
7115,11545
7108,11537
7101,11529
7095,11524
7092,11520
7090,11518
7089,11518
7086,11515
7079,11508
7067,11497
7052,11484
7038,11472
7026,11461
7019,11454
7016,11451
7015,11451
7014,11451
7011,11448
7005,11443
6995,11437
6984,11429
6970,11420
6954,11410
6934,11399
6915,11389
6901,11383
6895,11379
6892,11378
6889,11377
6882,11374
6869,11369
6848,11362
6827,11355
6813,11351
6806,11349
6803,11348
6799,11347
6792,11346
6777,11343
6755,11339
6732,11336
6712,11334
6696,11333
6681,11332
6669,11332
6661,11332
6657,11332
6656,11332
6655,11332
6647,11333
6630,11334
6607,11336
6583,11337
6566,11338
6558,11339
6557,11339
6556,11339
6553,11340
6545,11341
6534,11343
6520,11346
6505,11350
6487,11355
6465,11362
6444,11369
6431,11374
6424,11377
6421,11378
6418,11379
6411,11383
6398,11389
6378,11399
6359,11410
6346,11417
6339,11421
6337,11423
6334,11424
6327,11429
6315,11438
6297,11451
6282,11463
6269,11474
6258,11483
6249,11492
6240,11500
6233,11507
6227,11512
6224,11516
6222,11518
6222,11519
6219,11522
6212,11530
6202,11542
6189,11557
6177,11571
6167,11583
6160,11591
6157,11594
6157,11595
6157,11596
6154,11599
6150,11606
6143,11616
6136,11627
6127,11641
6118,11658
6107,11679
6097,11699
6091,11713
6088,11719
6087,11723
6085,11726
6083,11733
6078,11747
6071,11768
6065,11790
6061,11804
6059,11812
6058,11815
6058,11818
6056,11826
6054,11841
6050,11864
6047,11883
6046,11900
6044,11915
6043,11928
6043,11940
6042,11950
6042,11958
6042,11963
6042,11966
6042,11967
6042,11971
6043,11981
6044,11997
6046,12017
6048,12037
6049,12053
6050,12063
6050,12067
6050,12068
6050,12069
6051,12073
6052,12081
6054,12093
6056,12107
6060,12123
6065,12142
6071,12164
6078,12185
6083,12199
6085,12206
6087,12210
6088,12213
6091,12219
6097,12233
6107,12253
6117,12273
6124,12286
6128,12293
6130,12296
6131,12299
6136,12305
6144,12318
6157,12337
6168,12352
6179,12366
6188,12377
6197,12387
6204,12395
6211,12403
6217,12408
6220,12412
6222,12414
6223,12414
6226,12417
6233,12424
6245,12435
6260,12448
6274,12460
6286,12471
6293,12478
6296,12481
6297,12481
6298,12481
6301,12484
6307,12489
6317,12495
6328,12503
6342,12512
6358,12522
6378,12533
6398,12543
6411,12549
6418,12553
6421,12554
6424,12555
6431,12558
6444,12563
6465,12570
6486,12577
6500,12581
6507,12583
6510,12584
6513,12585
6520,12586
6535,12589
6557,12593
6580,12596
6600,12598
6616,12599
6631,12600
6643,12600
6651,12600
6655,12600
6656,12600
" style="stroke:#ffffff;stroke-width:0;
stroke-linejoin:bevel; stroke-linecap:butt;
fill:#ffffff;
"/>
<!-- Line -->
<!--  spline  -->
<polyline points="6656,12600
6657,12600
6665,12599
6682,12598
6706,12597
6729,12595
6746,12594
6754,12593
6755,12593
6756,12593
6759,12592
6768,12591
6779,12589
6792,12586
6808,12582
6826,12577
6848,12570
6869,12563
6882,12558
6889,12555
6892,12554
6895,12553
6901,12549
6915,12543
6934,12533
6953,12522
6966,12515
6973,12511
6975,12510
6978,12508
6984,12503
6997,12494
7015,12481
7030,12469
7043,12458
7054,12449
7063,12440
7072,12432
7079,12425
7085,12420
7088,12416
7090,12414
7090,12413
7093,12410
7100,12402
7110,12390
7123,12375
7135,12361
7145,12349
7152,12341
7155,12338
7155,12337
7155,12336
7158,12333
7162,12326
7169,12316
7176,12305
7185,12291
7194,12274
7205,12253
7215,12233
7221,12219
7224,12213
7225,12210
7227,12206
7229,12199
7234,12185
7241,12164
7247,12142
7252,12128
7254,12120
7254,12117
7255,12114
7257,12106
7259,12091
7263,12068
7266,12049
7267,12032
7269,12017
7269,12004
7270,11992
7270,11982
7270,11974
7270,11969
7270,11966
7270,11965
7270,11961
7269,11951
7268,11935
7266,11915
7265,11895
7264,11879
7263,11869
7263,11865
7263,11864
7263,11863
7262,11859
7261,11851
7259,11839
7256,11825
7252,11809
7248,11790
7241,11768
7234,11747
7229,11733
7227,11726
7225,11723
7224,11719
7221,11713
7215,11699
7205,11679
7195,11659
7188,11646
7184,11639
7182,11636
7181,11633
7176,11627
7168,11614
7155,11595
7144,11580
7133,11566
7124,11555
7115,11545
7108,11537
7101,11529
7095,11524
7092,11520
7090,11518
7089,11518
7086,11515
7079,11508
7067,11497
7052,11484
7038,11472
7026,11461
7019,11454
7016,11451
7015,11451
7014,11451
7011,11448
7005,11443
6995,11437
6984,11429
6970,11420
6954,11410
6934,11399
6915,11389
6901,11383
6895,11379
6892,11378
6889,11377
6882,11374
6869,11369
6848,11362
6827,11355
6813,11351
6806,11349
6803,11348
6799,11347
6792,11346
6777,11343
6755,11339
6732,11336
6712,11334
6696,11333
6681,11332
6669,11332
6661,11332
6657,11332
6656,11332
6655,11332
6647,11333
6630,11334
6607,11336
6583,11337
6566,11338
6558,11339
6557,11339
6556,11339
6553,11340
6545,11341
6534,11343
6520,11346
6505,11350
6487,11355
6465,11362
6444,11369
6431,11374
6424,11377
6421,11378
6418,11379
6411,11383
6398,11389
6378,11399
6359,11410
6346,11417
6339,11421
6337,11423
6334,11424
6327,11429
6315,11438
6297,11451
6282,11463
6269,11474
6258,11483
6249,11492
6240,11500
6233,11507
6227,11512
6224,11516
6222,11518
6222,11519
6219,11522
6212,11530
6202,11542
6189,11557
6177,11571
6167,11583
6160,11591
6157,11594
6157,11595
6157,11596
6154,11599
6150,11606
6143,11616
6136,11627
6127,11641
6118,11658
6107,11679
6097,11699
6091,11713
6088,11719
6087,11723
6085,11726
6083,11733
6078,11747
6071,11768
6065,11790
6061,11804
6059,11812
6058,11815
6058,11818
6056,11826
6054,11841
6050,11864
6047,11883
6046,11900
6044,11915
6043,11928
6043,11940
6042,11950
6042,11958
6042,11963
6042,11966
6042,11967
6042,11971
6043,11981
6044,11997
6046,12017
6048,12037
6049,12053
6050,12063
6050,12067
6050,12068
6050,12069
6051,12073
6052,12081
6054,12093
6056,12107
6060,12123
6065,12142
6071,12164
6078,12185
6083,12199
6085,12206
6087,12210
6088,12213
6091,12219
6097,12233
6107,12253
6117,12273
6124,12286
6128,12293
6130,12296
6131,12299
6136,12305
6144,12318
6157,12337
6168,12352
6179,12366
6188,12377
6197,12387
6204,12395
6211,12403
6217,12408
6220,12412
6222,12414
6223,12414
6226,12417
6233,12424
6245,12435
6260,12448
6274,12460
6286,12471
6293,12478
6296,12481
6297,12481
6298,12481
6301,12484
6307,12489
6317,12495
6328,12503
6342,12512
6358,12522
6378,12533
6398,12543
6411,12549
6418,12553
6421,12554
6424,12555
6431,12558
6444,12563
6465,12570
6486,12577
6500,12581
6507,12583
6510,12584
6513,12585
6520,12586
6535,12589
6557,12593
6580,12596
6600,12598
6616,12599
6631,12600
6643,12600
6651,12600
6655,12600
6656,12600
" style="stroke:#000000;stroke-width:15;
stroke-linejoin:bevel; stroke-linecap:butt;
"/>
<!-- Line -->
<!--  spline  -->
<polyline points="2814,12600
2815,12600
2819,12600
2829,12599
2845,12598
2865,12596
2885,12595
2901,12594
2911,12593
2915,12593
2916,12593
2917,12593
2921,12592
2929,12591
2941,12589
2955,12586
2971,12582
2990,12577
3012,12570
3033,12563
3048,12558
3055,12555
3058,12554
3061,12553
3068,12549
3082,12543
3102,12533
3122,12522
3135,12515
3142,12511
3145,12510
3147,12508
3154,12503
3166,12494
3185,12481
3201,12469
3214,12458
3225,12449
3235,12440
3244,12432
3251,12425
3257,12420
3261,12416
3263,12414
3263,12413
3266,12410
3273,12402
3283,12390
3296,12375
3309,12361
3319,12349
3326,12341
3329,12338
3329,12337
3329,12336
3332,12333
3337,12326
3343,12316
3351,12305
3360,12291
3370,12274
3381,12253
3391,12233
3398,12219
3401,12213
3403,12210
3404,12206
3407,12199
3412,12185
3419,12164
3426,12142
3430,12128
3432,12120
3433,12117
3433,12114
3435,12106
3437,12091
3441,12068
3444,12049
3445,12032
3447,12017
3447,12004
3448,11992
3448,11982
3448,11974
3448,11969
3448,11966
3448,11965
3448,11961
3447,11951
3446,11935
3444,11915
3443,11895
3442,11879
3441,11869
3441,11865
3441,11864
3441,11863
3440,11859
3439,11851
3437,11839
3434,11825
3431,11809
3426,11790
3419,11768
3412,11747
3407,11733
3404,11726
3403,11723
3401,11719
3398,11713
3391,11699
3381,11679
3370,11659
3363,11646
3359,11639
3357,11636
3355,11633
3351,11627
3342,11614
3329,11595
3317,11580
3307,11566
3297,11555
3289,11545
3281,11537
3274,11529
3268,11524
3265,11520
3263,11518
3262,11518
3259,11515
3251,11508
3239,11497
3224,11484
3209,11472
3197,11461
3189,11454
3186,11451
3185,11451
3184,11451
3181,11448
3175,11443
3165,11437
3153,11429
3139,11420
3122,11410
3102,11399
3082,11389
3068,11383
3061,11379
3058,11378
3055,11377
3048,11374
3033,11369
3012,11362
2990,11355
2976,11351
2968,11349
2965,11348
2962,11347
2954,11346
2939,11343
2916,11339
2897,11336
2880,11335
2865,11333
2852,11333
2840,11332
2830,11332
2822,11332
2817,11332
2814,11332
2813,11332
2809,11332
2799,11333
2783,11334
2763,11336
2743,11337
2727,11338
2717,11339
2713,11339
2712,11339
2711,11339
2707,11340
2699,11341
2687,11343
2673,11346
2657,11350
2638,11355
2616,11362
2595,11369
2581,11374
2574,11377
2571,11378
2567,11379
2561,11383
2547,11389
2527,11399
2507,11410
2494,11417
2487,11421
2484,11423
2481,11424
2475,11429
2462,11438
2443,11451
2428,11463
2414,11474
2403,11483
2393,11492
2385,11500
2377,11507
2372,11512
2368,11516
2366,11518
2366,11519
2363,11522
2356,11530
2345,11542
2332,11557
2320,11571
2309,11583
2302,11591
2299,11594
2299,11595
2299,11596
2296,11599
2291,11606
2285,11616
2277,11627
2268,11641
2258,11658
2247,11679
2237,11699
2231,11713
2227,11719
2226,11723
2225,11726
2222,11733
2217,11747
2210,11768
2203,11790
2199,11804
2197,11812
2197,11815
2196,11818
2194,11826
2192,11841
2188,11864
2185,11883
2183,11900
2182,11915
2181,11928
2181,11940
2180,11950
2180,11958
2180,11963
2180,11966
2180,11967
2180,11971
2181,11981
2182,11997
2184,12017
2186,12037
2187,12053
2188,12063
2188,12067
2188,12068
2188,12069
2189,12073
2190,12081
2192,12093
2195,12107
2198,12123
2203,12142
2210,12164
2217,12185
2222,12199
2225,12206
2226,12210
2227,12213
2231,12219
2237,12233
2247,12253
2258,12273
2265,12286
2269,12293
2271,12296
2272,12299
2277,12305
2286,12318
2299,12337
2311,12352
2322,12366
2331,12377
2340,12387
2348,12395
2355,12403
2360,12408
2364,12412
2366,12414
2367,12414
2370,12417
2378,12424
2390,12435
2405,12448
2419,12460
2431,12471
2439,12478
2442,12481
2443,12481
2444,12481
2447,12484
2454,12489
2464,12495
2475,12503
2489,12512
2506,12522
2527,12533
2547,12543
2561,12549
2567,12553
2571,12554
2574,12555
2581,12558
2595,12563
2616,12570
2638,12577
2652,12581
2660,12583
2663,12584
2666,12585
2674,12586
2689,12589
2712,12593
2731,12596
2748,12597
2763,12599
2776,12599
2788,12600
2798,12600
2806,12600
2811,12600
2814,12600
" style="stroke:#ffffff;stroke-width:0;
stroke-linejoin:bevel; stroke-linecap:butt;
fill:#ffffff;
"/>
<!-- Line -->
<!--  spline  -->
<polyline points="2814,12600
2815,12600
2819,12600
2829,12599
2845,12598
2865,12596
2885,12595
2901,12594
2911,12593
2915,12593
2916,12593
2917,12593
2921,12592
2929,12591
2941,12589
2955,12586
2971,12582
2990,12577
3012,12570
3033,12563
3048,12558
3055,12555
3058,12554
3061,12553
3068,12549
3082,12543
3102,12533
3122,12522
3135,12515
3142,12511
3145,12510
3147,12508
3154,12503
3166,12494
3185,12481
3201,12469
3214,12458
3225,12449
3235,12440
3244,12432
3251,12425
3257,12420
3261,12416
3263,12414
3263,12413
3266,12410
3273,12402
3283,12390
3296,12375
3309,12361
3319,12349
3326,12341
3329,12338
3329,12337
3329,12336
3332,12333
3337,12326
3343,12316
3351,12305
3360,12291
3370,12274
3381,12253
3391,12233
3398,12219
3401,12213
3403,12210
3404,12206
3407,12199
3412,12185
3419,12164
3426,12142
3430,12128
3432,12120
3433,12117
3433,12114
3435,12106
3437,12091
3441,12068
3444,12049
3445,12032
3447,12017
3447,12004
3448,11992
3448,11982
3448,11974
3448,11969
3448,11966
3448,11965
3448,11961
3447,11951
3446,11935
3444,11915
3443,11895
3442,11879
3441,11869
3441,11865
3441,11864
3441,11863
3440,11859
3439,11851
3437,11839
3434,11825
3431,11809
3426,11790
3419,11768
3412,11747
3407,11733
3404,11726
3403,11723
3401,11719
3398,11713
3391,11699
3381,11679
3370,11659
3363,11646
3359,11639
3357,11636
3355,11633
3351,11627
3342,11614
3329,11595
3317,11580
3307,11566
3297,11555
3289,11545
3281,11537
3274,11529
3268,11524
3265,11520
3263,11518
3262,11518
3259,11515
3251,11508
3239,11497
3224,11484
3209,11472
3197,11461
3189,11454
3186,11451
3185,11451
3184,11451
3181,11448
3175,11443
3165,11437
3153,11429
3139,11420
3122,11410
3102,11399
3082,11389
3068,11383
3061,11379
3058,11378
3055,11377
3048,11374
3033,11369
3012,11362
2990,11355
2976,11351
2968,11349
2965,11348
2962,11347
2954,11346
2939,11343
2916,11339
2897,11336
2880,11335
2865,11333
2852,11333
2840,11332
2830,11332
2822,11332
2817,11332
2814,11332
2813,11332
2809,11332
2799,11333
2783,11334
2763,11336
2743,11337
2727,11338
2717,11339
2713,11339
2712,11339
2711,11339
2707,11340
2699,11341
2687,11343
2673,11346
2657,11350
2638,11355
2616,11362
2595,11369
2581,11374
2574,11377
2571,11378
2567,11379
2561,11383
2547,11389
2527,11399
2507,11410
2494,11417
2487,11421
2484,11423
2481,11424
2475,11429
2462,11438
2443,11451
2428,11463
2414,11474
2403,11483
2393,11492
2385,11500
2377,11507
2372,11512
2368,11516
2366,11518
2366,11519
2363,11522
2356,11530
2345,11542
2332,11557
2320,11571
2309,11583
2302,11591
2299,11594
2299,11595
2299,11596
2296,11599
2291,11606
2285,11616
2277,11627
2268,11641
2258,11658
2247,11679
2237,11699
2231,11713
2227,11719
2226,11723
2225,11726
2222,11733
2217,11747
2210,11768
2203,11790
2199,11804
2197,11812
2197,11815
2196,11818
2194,11826
2192,11841
2188,11864
2185,11883
2183,11900
2182,11915
2181,11928
2181,11940
2180,11950
2180,11958
2180,11963
2180,11966
2180,11967
2180,11971
2181,11981
2182,11997
2184,12017
2186,12037
2187,12053
2188,12063
2188,12067
2188,12068
2188,12069
2189,12073
2190,12081
2192,12093
2195,12107
2198,12123
2203,12142
2210,12164
2217,12185
2222,12199
2225,12206
2226,12210
2227,12213
2231,12219
2237,12233
2247,12253
2258,12273
2265,12286
2269,12293
2271,12296
2272,12299
2277,12305
2286,12318
2299,12337
2311,12352
2322,12366
2331,12377
2340,12387
2348,12395
2355,12403
2360,12408
2364,12412
2366,12414
2367,12414
2370,12417
2378,12424
2390,12435
2405,12448
2419,12460
2431,12471
2439,12478
2442,12481
2443,12481
2444,12481
2447,12484
2454,12489
2464,12495
2475,12503
2489,12512
2506,12522
2527,12533
2547,12543
2561,12549
2567,12553
2571,12554
2574,12555
2581,12558
2595,12563
2616,12570
2638,12577
2652,12581
2660,12583
2663,12584
2666,12585
2674,12586
2689,12589
2712,12593
2731,12596
2748,12597
2763,12599
2776,12599
2788,12600
2798,12600
2806,12600
2811,12600
2814,12600
" style="stroke:#000000;stroke-width:15;
stroke-linejoin:bevel; stroke-linecap:butt;
"/>
<!-- Line -->
<!--  spline  -->
<polyline points="4316,12600
4317,12600
4321,12600
4331,12599
4347,12598
4367,12596
4387,12595
4403,12594
4413,12593
4417,12593
4418,12593
4419,12593
4423,12592
4431,12591
4442,12589
4456,12586
4472,12582
4491,12577
4513,12570
4534,12563
4549,12558
4556,12555
4559,12554
4562,12553
4569,12549
4583,12543
4603,12533
4623,12522
4636,12515
4643,12511
4646,12510
4649,12508
4655,12503
4668,12494
4687,12481
4702,12469
4716,12458
4727,12449
4737,12440
4745,12432
4753,12425
4758,12420
4762,12416
4764,12414
4764,12413
4767,12410
4774,12402
4785,12390
4798,12375
4810,12361
4821,12349
4828,12341
4831,12338
4831,12337
4831,12336
4834,12333
4839,12326
4845,12316
4853,12305
4862,12291
4872,12274
4883,12253
4893,12233
4899,12219
4903,12213
4904,12210
4905,12206
4908,12199
4913,12185
4920,12164
4927,12142
4931,12128
4933,12120
4933,12117
4934,12114
4936,12106
4938,12091
4942,12068
4945,12049
4947,12032
4948,12017
4949,12004
4949,11992
4950,11982
4950,11974
4950,11969
4950,11966
4950,11965
4950,11961
4949,11951
4948,11935
4946,11915
4944,11895
4943,11879
4942,11869
4942,11865
4942,11864
4942,11863
4941,11859
4940,11851
4938,11839
4935,11825
4932,11809
4927,11790
4920,11768
4913,11747
4908,11733
4905,11726
4904,11723
4903,11719
4899,11713
4893,11699
4883,11679
4872,11659
4865,11646
4861,11639
4860,11636
4858,11633
4853,11627
4844,11614
4831,11595
4819,11580
4808,11566
4799,11555
4790,11545
4782,11537
4775,11529
4770,11524
4766,11520
4764,11518
4763,11518
4760,11515
4752,11508
4740,11497
4725,11484
4711,11472
4699,11461
4691,11454
4688,11451
4687,11451
4686,11451
4683,11448
4676,11443
4667,11437
4655,11429
4641,11420
4624,11410
4603,11399
4583,11389
4569,11383
4562,11379
4559,11378
4556,11377
4549,11374
4534,11369
4513,11362
4491,11355
4477,11351
4470,11349
4467,11348
4463,11347
4456,11346
4441,11343
4418,11339
4399,11336
4382,11335
4367,11333
4354,11333
4342,11332
4332,11332
4324,11332
4319,11332
4316,11332
4315,11332
4311,11332
4301,11333
4285,11334
4265,11336
4245,11337
4229,11338
4219,11339
4215,11339
4214,11339
4213,11339
4209,11340
4201,11341
4189,11343
4175,11346
4159,11350
4140,11355
4118,11362
4097,11369
4082,11374
4075,11377
4072,11378
4069,11379
4062,11383
4048,11389
4028,11399
4008,11410
3995,11417
3988,11421
3986,11423
3983,11424
3976,11429
3964,11438
3945,11451
3929,11463
3916,11474
3905,11483
3895,11492
3886,11500
3879,11507
3873,11512
3869,11516
3867,11518
3867,11519
3864,11522
3857,11530
3846,11542
3833,11557
3821,11571
3810,11583
3803,11591
3800,11594
3800,11595
3800,11596
3797,11599
3792,11606
3786,11616
3778,11627
3769,11641
3759,11658
3748,11679
3738,11699
3732,11713
3728,11719
3727,11723
3726,11726
3723,11733
3718,11747
3711,11768
3704,11790
3700,11804
3698,11812
3698,11815
3697,11818
3695,11826
3693,11841
3689,11864
3686,11883
3685,11900
3683,11915
3683,11928
3682,11940
3682,11950
3682,11958
3682,11963
3682,11966
3682,11967
3682,11971
3683,11981
3684,11997
3686,12017
3687,12037
3688,12053
3689,12063
3689,12067
3689,12068
3689,12069
3690,12073
3691,12081
3693,12093
3696,12107
3699,12123
3704,12142
3711,12164
3718,12185
3723,12199
3726,12206
3727,12210
3728,12213
3732,12219
3738,12233
3748,12253
3759,12273
3766,12286
3770,12293
3772,12296
3773,12299
3778,12305
3787,12318
3800,12337
3812,12352
3823,12366
3832,12377
3841,12387
3849,12395
3856,12403
3861,12408
3865,12412
3867,12414
3868,12414
3871,12417
3879,12424
3891,12435
3906,12448
3921,12460
3933,12471
3941,12478
3944,12481
3945,12481
3946,12481
3949,12484
3955,12489
3965,12495
3977,12503
3991,12512
4008,12522
4028,12533
4048,12543
4062,12549
4069,12553
4072,12554
4075,12555
4082,12558
4097,12563
4118,12570
4140,12577
4154,12581
4162,12583
4165,12584
4168,12585
4176,12586
4191,12589
4214,12593
4233,12596
4250,12597
4265,12599
4278,12599
4290,12600
4300,12600
4308,12600
4313,12600
4316,12600
" style="stroke:#ffffff;stroke-width:0;
stroke-linejoin:bevel; stroke-linecap:butt;
fill:#ffffff;
"/>
<!-- Line -->
<!--  spline  -->
<polyline points="4316,12600
4317,12600
4321,12600
4331,12599
4347,12598
4367,12596
4387,12595
4403,12594
4413,12593
4417,12593
4418,12593
4419,12593
4423,12592
4431,12591
4442,12589
4456,12586
4472,12582
4491,12577
4513,12570
4534,12563
4549,12558
4556,12555
4559,12554
4562,12553
4569,12549
4583,12543
4603,12533
4623,12522
4636,12515
4643,12511
4646,12510
4649,12508
4655,12503
4668,12494
4687,12481
4702,12469
4716,12458
4727,12449
4737,12440
4745,12432
4753,12425
4758,12420
4762,12416
4764,12414
4764,12413
4767,12410
4774,12402
4785,12390
4798,12375
4810,12361
4821,12349
4828,12341
4831,12338
4831,12337
4831,12336
4834,12333
4839,12326
4845,12316
4853,12305
4862,12291
4872,12274
4883,12253
4893,12233
4899,12219
4903,12213
4904,12210
4905,12206
4908,12199
4913,12185
4920,12164
4927,12142
4931,12128
4933,12120
4933,12117
4934,12114
4936,12106
4938,12091
4942,12068
4945,12049
4947,12032
4948,12017
4949,12004
4949,11992
4950,11982
4950,11974
4950,11969
4950,11966
4950,11965
4950,11961
4949,11951
4948,11935
4946,11915
4944,11895
4943,11879
4942,11869
4942,11865
4942,11864
4942,11863
4941,11859
4940,11851
4938,11839
4935,11825
4932,11809
4927,11790
4920,11768
4913,11747
4908,11733
4905,11726
4904,11723
4903,11719
4899,11713
4893,11699
4883,11679
4872,11659
4865,11646
4861,11639
4860,11636
4858,11633
4853,11627
4844,11614
4831,11595
4819,11580
4808,11566
4799,11555
4790,11545
4782,11537
4775,11529
4770,11524
4766,11520
4764,11518
4763,11518
4760,11515
4752,11508
4740,11497
4725,11484
4711,11472
4699,11461
4691,11454
4688,11451
4687,11451
4686,11451
4683,11448
4676,11443
4667,11437
4655,11429
4641,11420
4624,11410
4603,11399
4583,11389
4569,11383
4562,11379
4559,11378
4556,11377
4549,11374
4534,11369
4513,11362
4491,11355
4477,11351
4470,11349
4467,11348
4463,11347
4456,11346
4441,11343
4418,11339
4399,11336
4382,11335
4367,11333
4354,11333
4342,11332
4332,11332
4324,11332
4319,11332
4316,11332
4315,11332
4311,11332
4301,11333
4285,11334
4265,11336
4245,11337
4229,11338
4219,11339
4215,11339
4214,11339
4213,11339
4209,11340
4201,11341
4189,11343
4175,11346
4159,11350
4140,11355
4118,11362
4097,11369
4082,11374
4075,11377
4072,11378
4069,11379
4062,11383
4048,11389
4028,11399
4008,11410
3995,11417
3988,11421
3986,11423
3983,11424
3976,11429
3964,11438
3945,11451
3929,11463
3916,11474
3905,11483
3895,11492
3886,11500
3879,11507
3873,11512
3869,11516
3867,11518
3867,11519
3864,11522
3857,11530
3846,11542
3833,11557
3821,11571
3810,11583
3803,11591
3800,11594
3800,11595
3800,11596
3797,11599
3792,11606
3786,11616
3778,11627
3769,11641
3759,11658
3748,11679
3738,11699
3732,11713
3728,11719
3727,11723
3726,11726
3723,11733
3718,11747
3711,11768
3704,11790
3700,11804
3698,11812
3698,11815
3697,11818
3695,11826
3693,11841
3689,11864
3686,11883
3685,11900
3683,11915
3683,11928
3682,11940
3682,11950
3682,11958
3682,11963
3682,11966
3682,11967
3682,11971
3683,11981
3684,11997
3686,12017
3687,12037
3688,12053
3689,12063
3689,12067
3689,12068
3689,12069
3690,12073
3691,12081
3693,12093
3696,12107
3699,12123
3704,12142
3711,12164
3718,12185
3723,12199
3726,12206
3727,12210
3728,12213
3732,12219
3738,12233
3748,12253
3759,12273
3766,12286
3770,12293
3772,12296
3773,12299
3778,12305
3787,12318
3800,12337
3812,12352
3823,12366
3832,12377
3841,12387
3849,12395
3856,12403
3861,12408
3865,12412
3867,12414
3868,12414
3871,12417
3879,12424
3891,12435
3906,12448
3921,12460
3933,12471
3941,12478
3944,12481
3945,12481
3946,12481
3949,12484
3955,12489
3965,12495
3977,12503
3991,12512
4008,12522
4028,12533
4048,12543
4062,12549
4069,12553
4072,12554
4075,12555
4082,12558
4097,12563
4118,12570
4140,12577
4154,12581
4162,12583
4165,12584
4168,12585
4176,12586
4191,12589
4214,12593
4233,12596
4250,12597
4265,12599
4278,12599
4290,12600
4300,12600
4308,12600
4313,12600
4316,12600
" style="stroke:#000000;stroke-width:15;
stroke-linejoin:bevel; stroke-linecap:butt;
"/>
<!-- Text -->
<!--  text  -->
<text xml:space="preserve" x="1936" y="11656" stroke="#000000" fill="#000000"  font-family="Times" font-style="normal" font-weight="normal" font-size="156" text-anchor="start">1</text>
<!-- Text -->
<!--  text  -->
<text xml:space="preserve" x="2036" y="11656" stroke="#000000" fill="#000000"  font-family="Times" font-style="normal" font-weight="normal" font-size="156" text-anchor="start">.</text>
<!-- Text -->
<!--  text  -->
<text xml:space="preserve" x="2086" y="11656" stroke="#000000" fill="#000000"  font-family="Times" font-style="normal" font-weight="normal" font-size="156" text-anchor="start">0</text>
<!-- Text -->
<!--  text  -->
<text xml:space="preserve" x="3436" y="11656" stroke="#000000" fill="#000000"  font-family="Times" font-style="normal" font-weight="normal" font-size="156" text-anchor="start">1</text>
<!-- Text -->
<!--  text  -->
<text xml:space="preserve" x="3536" y="11656" stroke="#000000" fill="#000000"  font-family="Times" font-style="normal" font-weight="normal" font-size="156" text-anchor="start">.</text>
<!-- Text -->
<!--  text  -->
<text xml:space="preserve" x="3586" y="11656" stroke="#000000" fill="#000000"  font-family="Times" font-style="normal" font-weight="normal" font-size="156" text-anchor="start">0</text>
<!-- Text -->
<!--  text  -->
<text xml:space="preserve" x="4936" y="11656" stroke="#000000" fill="#000000"  font-family="Times" font-style="normal" font-weight="normal" font-size="156" text-anchor="start">1</text>
<!-- Text -->
<!--  text  -->
<text xml:space="preserve" x="5036" y="11656" stroke="#000000" fill="#000000"  font-family="Times" font-style="normal" font-weight="normal" font-size="156" text-anchor="start">.</text>
<!-- Text -->
<!--  text  -->
<text xml:space="preserve" x="5086" y="11656" stroke="#000000" fill="#000000"  font-family="Times" font-style="normal" font-weight="normal" font-size="156" text-anchor="start">0</text>
<!-- Text -->
<!--  text  -->
<text xml:space="preserve" x="5711" y="11656" stroke="#000000" fill="#000000"  font-family="Times" font-style="normal" font-weight="normal" font-size="156" text-anchor="start">1</text>
<!-- Text -->
<!--  text  -->
<text xml:space="preserve" x="5811" y="11656" stroke="#000000" fill="#000000"  font-family="Times" font-style="normal" font-weight="normal" font-size="156" text-anchor="start">.</text>
<!-- Text -->
<!--  text  -->
<text xml:space="preserve" x="5861" y="11656" stroke="#000000" fill="#000000"  font-family="Times" font-style="normal" font-weight="normal" font-size="156" text-anchor="start">0</text>
<!-- Text -->
<!--  text  -->
<text xml:space="preserve" x="3986" y="10923" stroke="#000000" fill="#000000"  font-family="Times" font-style="normal" font-weight="normal" font-size="156" text-anchor="start">1</text>
<!-- Text -->
<!--  text  -->
<text xml:space="preserve" x="4086" y="10923" stroke="#000000" fill="#000000"  font-family="Times" font-style="normal" font-weight="normal" font-size="156" text-anchor="start">.</text>
<!-- Text -->
<!--  text  -->
<text xml:space="preserve" x="4136" y="10923" stroke="#000000" fill="#000000"  font-family="Times" font-style="normal" font-weight="normal" font-size="156" text-anchor="start">0</text>
</g>
</svg>
